<svg xmlns="http://www.w3.org/2000/svg" xmlns:xlink="http://www.w3.org/1999/xlink" width="1632" height="596pt" viewBox="0 0 1224 596" version="1.2"><defs><symbol overflow="visible" id="b"><path style="stroke:none" d="M13.266-5.984 15-14.281h-3.14l-1.782 8.469a14.857 14.857 0 0 1-.39 1.453 3.213 3.213 0 0 1-.579 1.109 2.44 2.44 0 0 1-.968.703c-.399.168-.918.25-1.563.25-.543 0-.992-.066-1.344-.203-.343-.133-.617-.297-.812-.484a1.551 1.551 0 0 1-.406-.625 1.975 1.975 0 0 1-.11-.61c0-.125.004-.258.016-.406.02-.156.047-.316.078-.484.04-.176.078-.344.11-.5.03-.157.062-.29.093-.407l1.734-8.265h-3.14L1.062-6.016c-.074.344-.14.696-.203 1.047-.062.356-.093.711-.093 1.063 0 .793.16 1.46.484 2 .32.543.742.976 1.266 1.297a5.732 5.732 0 0 0 1.812.703c.676.144 1.36.218 2.047.218 1.113 0 2.055-.136 2.828-.406.77-.27 1.422-.664 1.953-1.187.531-.532.957-1.188 1.281-1.969.333-.79.61-1.703.829-2.734Zm0 0"/></symbol><symbol overflow="visible" id="c"><path style="stroke:none" d="M7.047-7.313h2.64c.008-.664-.101-1.21-.328-1.64a2.7 2.7 0 0 0-.937-1.016 3.679 3.679 0 0 0-1.36-.515 9.18 9.18 0 0 0-1.625-.141c-.492 0-1.007.059-1.546.172a5.315 5.315 0 0 0-1.5.562 3.46 3.46 0 0 0-1.11 1.016C1-8.469.86-7.957.86-7.344c0 .418.047.766.141 1.047.102.281.25.524.438.719.195.2.43.367.703.5.28.137.597.262.953.375L5.28-4c.301.105.547.23.735.375.187.148.28.402.28.766 0 .242-.054.437-.155.593a1.313 1.313 0 0 1-.422.375c-.18.106-.375.18-.594.22-.21.03-.418.046-.625.046-.242 0-.484-.023-.734-.078a2.458 2.458 0 0 1-.657-.266c-.199-.113-.359-.254-.484-.422a1.095 1.095 0 0 1-.172-.625v-.343h-2.61v.421c0 .618.134 1.126.391 1.532.27.406.614.734 1.032.984.425.242.894.414 1.406.516.52.113 1.035.172 1.547.172C4.82.266 5.414.203 6 .078a4.843 4.843 0 0 0 1.578-.594 3.315 3.315 0 0 0 1.125-1.093c.29-.446.438-.989.438-1.625 0-.426-.075-.801-.22-1.125a2.383 2.383 0 0 0-.577-.829 3.089 3.089 0 0 0-.86-.593 8.6 8.6 0 0 0-1.062-.422L5-6.656c-.48-.145-.82-.297-1.016-.453a.764.764 0 0 1-.28-.594c0-.375.16-.633.483-.781.333-.157.75-.235 1.25-.235.563 0 .961.125 1.204.375.25.242.382.586.406 1.031Zm0 0"/></symbol><symbol overflow="visible" id="d"><path style="stroke:none" d="M7.984-6.281h-4.75c.114-.29.243-.567.391-.828.156-.27.348-.504.578-.704.227-.207.492-.367.797-.484.3-.125.656-.187 1.063-.187.414 0 .75.07 1 .203.25.125.44.297.578.515.132.211.222.446.265.704.051.25.078.511.078.78ZM2.938-4.484h7.624c.102-.57.157-1.11.157-1.61 0-.75-.121-1.406-.36-1.968a3.817 3.817 0 0 0-.968-1.422 3.99 3.99 0 0 0-1.516-.86 6.515 6.515 0 0 0-1.969-.281c-.886 0-1.683.18-2.39.531a5.445 5.445 0 0 0-1.797 1.422A6.796 6.796 0 0 0 .594-6.625a7.304 7.304 0 0 0-.39 2.39c0 .743.109 1.391.327 1.954.219.562.524 1.039.922 1.422.406.375.89.656 1.453.843.57.188 1.203.282 1.89.282.75 0 1.407-.079 1.97-.235a4.677 4.677 0 0 0 1.5-.656c.425-.3.789-.672 1.093-1.11.301-.445.567-.96.797-1.546H7.312c-.105.156-.218.324-.343.5-.125.18-.274.336-.438.469-.168.124-.36.234-.578.328a2.041 2.041 0 0 1-.75.125c-.773 0-1.344-.188-1.719-.563-.375-.375-.562-.86-.562-1.453V-4.297c0-.05.004-.113.015-.187Zm0 0"/></symbol><symbol overflow="visible" id="e"><path style="stroke:none" d="M1.922-10.344-.218 0h2.812l.969-4.578c.093-.438.21-.86.359-1.266.156-.406.363-.77.625-1.093.258-.32.578-.579.953-.766.383-.188.852-.281 1.406-.281.196 0 .395.023.594.062.195.043.395.086.594.125l.594-2.766a7.021 7.021 0 0 0-.891-.062 4.12 4.12 0 0 0-2.11.563c-.648.367-1.132.906-1.453 1.624l-.03-.046.421-1.86Zm0 0"/></symbol><symbol overflow="visible" id="g"><path style="stroke:none" d="M3.078-4.734H.094c0 1.742.488 3.015 1.468 3.828C2.551-.094 4.047.313 6.048.313a8.81 8.81 0 0 0 2.047-.25 5.762 5.762 0 0 0 1.875-.797 4.573 4.573 0 0 0 1.36-1.454c.35-.601.53-1.332.53-2.187 0-.645-.093-1.188-.28-1.625a3.08 3.08 0 0 0-.798-1.11 3.83 3.83 0 0 0-1.203-.75c-.469-.195-.98-.367-1.531-.515-.242-.05-.559-.117-.953-.203a7.04 7.04 0 0 1-1.125-.375 3.372 3.372 0 0 1-.938-.578 1.104 1.104 0 0 1-.39-.875c0-.332.07-.61.218-.828a1.62 1.62 0 0 1 .579-.547c.238-.145.507-.25.812-.313.3-.062.598-.094.89-.094.364 0 .704.043 1.016.126.32.074.598.199.828.374.239.168.422.387.547.657.125.273.18.61.172 1.015h2.985c0-.832-.149-1.535-.438-2.109a4.115 4.115 0 0 0-1.172-1.438 4.583 4.583 0 0 0-1.687-.812 8.66 8.66 0 0 0-4.125 0 5.952 5.952 0 0 0-1.813.781 4.203 4.203 0 0 0-1.297 1.375c-.336.563-.5 1.242-.5 2.031 0 .618.102 1.137.313 1.563.207.43.476.793.812 1.094.344.293.727.531 1.156.718.426.18.868.336 1.329.47.437.136.867.265 1.296.39.438.117.82.258 1.157.422.343.156.617.343.828.562.219.219.328.5.328.844 0 .367-.086.68-.25.938-.168.25-.383.453-.64.609a3.296 3.296 0 0 1-.876.36 3.589 3.589 0 0 1-.953.124c-.449 0-.87-.039-1.265-.125a2.881 2.881 0 0 1-1-.437 1.853 1.853 0 0 1-.625-.813c-.149-.344-.211-.765-.188-1.265Zm0 0"/></symbol><symbol overflow="visible" id="h"><path style="stroke:none" d="M1.797-10.344-1.156 3.625h2.812l1.078-5h.063c.101.281.258.527.469.734.207.2.441.368.703.5.258.137.539.235.844.297.3.07.597.11.89.11.957 0 1.785-.196 2.484-.579a5.547 5.547 0 0 0 1.75-1.546 6.416 6.416 0 0 0 1.032-2.172c.226-.82.344-1.66.344-2.516 0-1.25-.34-2.238-1.016-2.969-.68-.738-1.64-1.109-2.89-1.109-.65 0-1.247.133-1.798.39-.554.25-.992.657-1.312 1.22l-.031-.047.28-1.282Zm4.656 1.86c.332 0 .625.07.875.203.258.125.473.293.64.5.165.199.29.437.376.718.094.282.14.575.14.875 0 .461-.062.946-.187 1.454a4.77 4.77 0 0 1-.563 1.39c-.25.43-.57.781-.953 1.063-.386.281-.855.422-1.406.422-.688 0-1.2-.204-1.531-.61-.336-.406-.5-.945-.5-1.625 0-.445.062-.926.187-1.437.125-.508.317-.985.578-1.422.258-.445.582-.813.97-1.094.382-.289.843-.437 1.374-.437Zm0 0"/></symbol><symbol overflow="visible" id="i"><path style="stroke:none" d="M1.203-7.203H3.86c.094-.52.336-.899.735-1.14.406-.25.86-.376 1.36-.376.187 0 .382.016.593.047.207.031.398.094.578.188.188.093.336.226.453.39.125.156.188.371.188.64 0 .337-.086.587-.25.75-.157.169-.403.294-.735.376a7.086 7.086 0 0 1-1.234.187 49.54 49.54 0 0 0-1.734.188c-1.25.148-2.22.523-2.907 1.125-.687.594-1.031 1.39-1.031 2.39 0 .356.07.7.203 1.032.133.324.344.61.625.86.281.241.629.433 1.047.577.414.157.906.235 1.469.235.601 0 1.18-.106 1.734-.313a3.463 3.463 0 0 0 1.422-.969V0h2.844a2.284 2.284 0 0 1-.094-.594c0-.207.008-.445.031-.719.02-.269.055-.5.11-.687l.921-4.156c.145-.664.22-1.25.22-1.75.007-.582-.126-1.051-.407-1.407a2.666 2.666 0 0 0-1.047-.812 4.795 4.795 0 0 0-1.406-.39c-.5-.07-.984-.11-1.453-.11-.586 0-1.153.059-1.703.172a4.636 4.636 0 0 0-1.47.578 3.72 3.72 0 0 0-1.124 1.047c-.305.43-.5.969-.594 1.625Zm6 2.25-.281 1a7.733 7.733 0 0 1-.313.828 2.45 2.45 0 0 1-.484.75 2.64 2.64 0 0 1-.766.547c-.293.137-.656.203-1.093.203-.418 0-.782-.094-1.094-.281-.313-.196-.469-.489-.469-.875 0-.32.055-.582.172-.781a1.43 1.43 0 0 1 .469-.485c.195-.125.422-.219.672-.281.257-.063.52-.102.78-.125.415-.031.829-.067 1.235-.11.414-.05.805-.18 1.172-.39Zm0 0"/></symbol><symbol overflow="visible" id="j"><path style="stroke:none" d="M7.844-6.766h2.843c-.023-.675-.156-1.257-.406-1.75a3.116 3.116 0 0 0-1-1.203 4.213 4.213 0 0 0-1.469-.687 6.963 6.963 0 0 0-1.765-.219c-.938 0-1.766.172-2.484.516a5.41 5.41 0 0 0-1.829 1.406 6.173 6.173 0 0 0-1.14 2.062 7.7 7.7 0 0 0-.39 2.485c0 1.523.398 2.64 1.202 3.36.813.71 1.942 1.062 3.39 1.062 1.364 0 2.49-.348 3.376-1.047.883-.707 1.539-1.707 1.969-3H7.297a3.64 3.64 0 0 1-.313.734c-.125.23-.289.434-.484.61a2.556 2.556 0 0 1-.656.421A2.098 2.098 0 0 1 5-1.859c-.367 0-.672-.055-.922-.172a1.912 1.912 0 0 1-.61-.485 1.721 1.721 0 0 1-.327-.703 4.005 4.005 0 0 1-.094-.875c0-.445.047-.926.14-1.437.102-.508.266-.985.485-1.422.226-.445.531-.813.906-1.094.375-.289.828-.437 1.36-.437.644 0 1.125.136 1.437.406.313.262.469.7.469 1.312Zm0 0"/></symbol><symbol overflow="visible" id="l"><path style="stroke:none" d="M2.906-14.281-.063 0h3.141l.938-4.516 2.187-1.906L9.453 0H13L8.625-8.406l6.86-5.875h-4.172l-6.47 5.984h-.046l1.25-5.984Zm0 0"/></symbol><symbol overflow="visible" id="m"><path style="stroke:none" d="M1.922-10.344-.218 0h2.812l1.172-5.5c.07-.363.187-.719.343-1.063.157-.343.348-.644.579-.906.238-.27.519-.488.843-.656.32-.164.696-.25 1.125-.25.332 0 .64.102.922.297.29.2.438.453.438.765 0 .149-.028.356-.079.625-.042.262-.074.47-.093.625L6.578 0h2.844l1.281-6.063a3.19 3.19 0 0 1 .063-.359c.03-.156.062-.32.093-.5.04-.176.07-.348.094-.516.031-.164.047-.3.047-.406 0-1.851-1.008-2.781-3.016-2.781-1.5 0-2.71.574-3.625 1.719h-.046l.328-1.438Zm0 0"/></symbol><symbol overflow="visible" id="n"><path style="stroke:none" d="M2.797-14.281-.22 0h2.813L5.64-14.281Zm0 0"/></symbol><symbol overflow="visible" id="p"><path style="stroke:none" d="M.781-12.5H3.75v-2.469l1.953-.562v3.031h6.672v1.672H5.703v5.906c0 1.219.29 2.121.875 2.703.594.586 1.442.875 2.547.875.75 0 1.398-.14 1.953-.422.563-.289 1.067-.601 1.516-.937l.656 1.484c-.586.461-1.281.836-2.094 1.125a7.477 7.477 0 0 1-2.484.422 6.008 6.008 0 0 1-1.89-.297 4.374 4.374 0 0 1-1.563-.875c-.45-.406-.809-.922-1.078-1.547-.262-.625-.391-1.367-.391-2.234v-6.203H.781Zm0 0"/></symbol><symbol overflow="visible" id="q"><path style="stroke:none" d="M.094-17.5H4v6.547h.125a5.655 5.655 0 0 1 1.797-1.36c.687-.32 1.535-.484 2.547-.484.8 0 1.5.086 2.094.25.593.168 1.078.461 1.453.875.375.418.648.992.828 1.719.187.719.281 1.637.281 2.75V0h-1.953v-6.828c0-.719-.043-1.344-.125-1.875-.086-.531-.246-.973-.485-1.328a2.21 2.21 0 0 0-.984-.813c-.418-.187-.953-.281-1.61-.281-.448 0-.89.078-1.327.234-.43.157-.825.375-1.188.657a4.035 4.035 0 0 0-.922 1c-.25.386-.43.812-.531 1.28V0H2.078v-15.828H.094Zm0 0"/></symbol><symbol overflow="visible" id="r"><path style="stroke:none" d="M1.656 0v-1.672h3.375v-9.156H1.656V-12.5h4.672l.39 1.625h.126c.57-.52 1.207-.96 1.906-1.328.695-.363 1.531-.547 2.5-.547.563 0 1.016.11 1.36.328.343.219.609.54.796.953.196.418.328.922.39 1.516.071.586.11 1.25.11 2l-1.75.031c0-1.07-.105-1.86-.312-2.36-.211-.5-.59-.75-1.14-.75-.524 0-.993.079-1.407.235a4.543 4.543 0 0 0-1.094.547 6.274 6.274 0 0 0-.781.656 2.88 2.88 0 0 0-.469.547v7.375h4.797V0Zm0 0"/></symbol><symbol overflow="visible" id="s"><path style="stroke:none" d="M13.219-1.578a5.764 5.764 0 0 1-1.063.766c-.406.23-.855.43-1.344.593-.48.168-.98.29-1.5.375a9.022 9.022 0 0 1-1.593.14c-1 0-1.887-.151-2.657-.452a5.218 5.218 0 0 1-1.921-1.328c-.512-.57-.903-1.258-1.172-2.063-.262-.8-.39-1.703-.39-2.703 0-1.05.144-1.984.437-2.797.289-.82.707-1.504 1.25-2.047a5.537 5.537 0 0 1 2-1.265c.789-.29 1.671-.438 2.64-.438.696 0 1.383.094 2.063.281.687.18 1.289.524 1.812 1.032.531.511.938 1.214 1.219 2.109.281.887.379 2.04.297 3.453H3.625c0 1.5.398 2.621 1.203 3.36.813.742 1.895 1.109 3.25 1.109.445 0 .89-.05 1.328-.156.446-.114.867-.243 1.266-.391a5.6 5.6 0 0 0 1.062-.5c.313-.188.551-.352.72-.5Zm-5.266-9.578c-.555 0-1.074.062-1.562.187a3.462 3.462 0 0 0-1.297.594 3.345 3.345 0 0 0-.938 1.063c-.242.437-.39.984-.453 1.64h7.766c-.086-1.101-.438-1.957-1.063-2.562-.625-.614-1.445-.922-2.453-.922Zm0 0"/></symbol><symbol overflow="visible" id="t"><path style="stroke:none" d="M2.703-11.531a7.919 7.919 0 0 1 2.422-.89 12.93 12.93 0 0 1 2.656-.282c.844 0 1.535.137 2.078.406.54.262.961.606 1.266 1.031.313.43.52.914.625 1.454.113.542.172 1.09.172 1.64 0 .637-.016 1.313-.047 2.031-.031.711-.059 1.422-.078 2.141 0 .836.05 1.625.156 2.375h1.672V0h-3.328l-.219-1.875h-.125c-.105.148-.258.34-.453.578-.2.23-.465.461-.797.688a5.174 5.174 0 0 1-1.187.578c-.461.164-1.008.25-1.641.25-1.23 0-2.203-.313-2.922-.938-.719-.633-1.078-1.504-1.078-2.61 0-.843.188-1.546.563-2.108.374-.57.91-1.008 1.609-1.313.695-.3 1.539-.473 2.531-.516 1-.05 2.113.012 3.344.188.082-.758.094-1.395.031-1.906-.055-.508-.183-.914-.39-1.22-.211-.3-.5-.515-.876-.64-.374-.125-.84-.187-1.39-.187-.75 0-1.469.105-2.156.312-.68.211-1.282.422-1.813.64ZM6.375-1.453c.469 0 .898-.07 1.297-.219a3.998 3.998 0 0 0 1.047-.578c.3-.227.55-.477.75-.75.207-.281.36-.547.453-.797v-1.75a13.623 13.623 0 0 0-2.406-.234c-.73 0-1.36.086-1.891.25-.531.156-.95.402-1.25.734-.305.336-.453.766-.453 1.297 0 .555.187 1.031.562 1.438.375.406 1.004.609 1.891.609Zm0 0"/></symbol><symbol overflow="visible" id="u"><path style="stroke:none" d="M8.719-17.5h4.062v13.219c0 .156.004.351.016.578l.062.703.094.734c.031.243.063.454.094.641h1.672V0h-3.313l-.25-1.922h-.11c-.366.637-.913 1.168-1.64 1.594-.719.414-1.554.625-2.5.625-1.886 0-3.277-.524-4.172-1.578-.886-1.063-1.328-2.707-1.328-4.938 0-1.05.145-1.976.438-2.781.3-.813.726-1.488 1.281-2.031a5.635 5.635 0 0 1 2.016-1.235c.789-.289 1.671-.437 2.64-.437.344 0 .649.012.922.031.281.012.535.04.766.078.238.031.46.078.672.14.207.056.437.11.687.173v-3.547h-2.11Zm-1.5 16.125c1.02 0 1.82-.258 2.406-.781.582-.531.984-1.32 1.203-2.375v-5.797a3.878 3.878 0 0 0-1.234-.547c-.461-.113-1.063-.172-1.813-.172-1.336 0-2.386.39-3.156 1.172-.773.773-1.156 1.992-1.156 3.656 0 .68.062 1.313.187 1.907.125.593.332 1.109.625 1.546.29.43.676.766 1.157 1.016.488.25 1.082.375 1.78.375Zm0 0"/></symbol><symbol overflow="visible" id="v"><path style="stroke:none" d="M1.406 3.375h12.188v1.75H1.406Zm0 0"/></symbol><symbol overflow="visible" id="w"><path style="stroke:none" d="M2.969-17.5h4.156v13.297c0 1.023.172 1.742.516 2.156.343.418.847.625 1.515.625a3.61 3.61 0 0 0 1.328-.25c.426-.164.899-.453 1.422-.86l.89 1.376a4.993 4.993 0 0 1-.874.64c-.313.18-.637.329-.969.454a6.095 6.095 0 0 1-1 .28c-.336.071-.64.11-.922.11-.625 0-1.18-.086-1.656-.25a2.918 2.918 0 0 1-1.219-.75c-.324-.351-.57-.816-.734-1.39-.168-.57-.25-1.286-.25-2.141v-11.625H2.969Zm0 0"/></symbol><symbol overflow="visible" id="x"><path style="stroke:none" d="M1.422-6.25c0-2.02.523-3.613 1.578-4.781 1.05-1.176 2.55-1.766 4.5-1.766 1.05 0 1.953.172 2.703.516.758.336 1.39.793 1.89 1.375.5.586.868 1.277 1.11 2.078.25.805.375 1.664.375 2.578 0 1-.137 1.906-.406 2.719C12.91-2.727 12.52-2.04 12-1.47c-.523.563-1.164 1-1.922 1.313-.75.3-1.61.453-2.578.453-1.031 0-1.934-.168-2.703-.5-.762-.344-1.39-.805-1.89-1.39A5.77 5.77 0 0 1 1.78-3.673c-.242-.8-.36-1.66-.36-2.578Zm2.078 0c0 .586.066 1.168.203 1.75.145.586.375 1.11.688 1.578.32.469.738.844 1.25 1.125.507.281 1.129.422 1.859.422 1.332 0 2.336-.41 3.016-1.234.675-.82 1.015-2.036 1.015-3.641 0-.602-.074-1.191-.219-1.766a4.969 4.969 0 0 0-.703-1.562 3.645 3.645 0 0 0-1.25-1.125c-.511-.281-1.132-.422-1.859-.422-1.336 0-2.336.414-3 1.234-.668.813-1 2.028-1 3.641Zm0 0"/></symbol><symbol overflow="visible" id="y"><path style="stroke:none" d="M10.969-10.578a8.584 8.584 0 0 0-1.235-.328 6.248 6.248 0 0 0-1.312-.14c-1.637 0-2.856.386-3.656 1.155-.793.762-1.188 1.977-1.188 3.641 0 .73.113 1.387.344 1.969a4.21 4.21 0 0 0 1 1.468c.437.399.957.704 1.562.922.614.211 1.286.313 2.016.313.781 0 1.54-.129 2.281-.39.75-.27 1.375-.626 1.875-1.063l.875 1.453c-.242.2-.539.406-.89.625-.344.219-.746.43-1.204.625a8.839 8.839 0 0 1-3.343.625c-1.086 0-2.04-.152-2.86-.453C4.41-.47 3.723-.91 3.172-1.484c-.555-.57-.969-1.266-1.25-2.079C1.64-4.375 1.5-5.27 1.5-6.25c0-1.05.145-1.984.438-2.797.289-.82.71-1.504 1.265-2.047a5.537 5.537 0 0 1 2-1.265c.781-.29 1.656-.438 2.625-.438 1.227 0 2.227.11 3 .328.781.211 1.438.45 1.969.719l-.016.078v3.469H10.97Zm0 0"/></symbol><symbol overflow="visible" id="A"><path style="stroke:none" d="M2.406-8.125c0-.145-.008-.336-.015-.578-.012-.25-.028-.5-.047-.75a9.788 9.788 0 0 0-.063-.766 9.57 9.57 0 0 0-.078-.656H.531V-12.5h3.313l.25 1.75h.125a5.722 5.722 0 0 1 1.718-1.453c.688-.395 1.532-.594 2.532-.594 1.789 0 3.133.496 4.031 1.485.895.98 1.344 2.585 1.344 4.812 0 1.055-.156 2-.469 2.844-.305.836-.742 1.543-1.313 2.125a5.764 5.764 0 0 1-2.046 1.36C9.223.14 8.344.296 7.375.296 7.02.297 6.707.28 6.437.25a8.92 8.92 0 0 1-.75-.094A7.32 7.32 0 0 1 5.016 0a6.586 6.586 0 0 1-.688-.25V5H2.406Zm5.75-2.844c-.5 0-.976.094-1.422.281-.437.18-.828.418-1.171.72a3.872 3.872 0 0 0-.844 1c-.211.366-.34.73-.39 1.093v5.703c.362.25.773.45 1.234.594.457.137 1.062.203 1.812.203 1.332 0 2.398-.438 3.203-1.313.8-.874 1.203-2.156 1.203-3.843 0-1.414-.281-2.508-.844-3.282-.562-.769-1.492-1.156-2.78-1.156Zm0 0"/></symbol><symbol overflow="visible" id="B"><path style="stroke:none" d="M13.094.625c0 .781-.153 1.469-.453 2.063a3.81 3.81 0 0 1-1.235 1.453A5.486 5.486 0 0 1 9.578 5a8.46 8.46 0 0 1-2.281.297c-.98 0-1.84-.102-2.578-.297-.73-.2-1.36-.46-1.89-.781l.952-1.766c.145.133.336.266.578.39.239.126.516.239.829.345.32.101.66.187 1.015.25.363.07.723.109 1.078.109.727 0 1.336-.07 1.828-.203.489-.125.883-.336 1.188-.625.3-.281.52-.649.656-1.094.133-.45.203-1 .203-1.656v-1.39h-.11c-.386.554-.882.98-1.483 1.28-.594.29-1.368.438-2.313.438-1.898 0-3.293-.524-4.188-1.578C2.164-2.344 1.72-3.988 1.72-6.22c0-2.133.566-3.75 1.703-4.843 1.133-1.094 2.816-1.641 5.047-1.641 1.039 0 1.922.074 2.64.219.727.136 1.391.312 1.985.53Zm-5.563-2c1.008 0 1.805-.258 2.39-.781.583-.531.993-1.336 1.235-2.422V-10.5c-.742-.352-1.765-.531-3.078-.531-1.336 0-2.387.398-3.156 1.187-.762.781-1.14 1.98-1.14 3.594 0 .719.062 1.375.187 1.969.133.586.347 1.093.64 1.531.29.438.672.777 1.141 1.016.477.242 1.07.359 1.781.359Zm0 0"/></symbol><symbol overflow="visible" id="C"><path style="stroke:none" d="M.047-17.5h4v6.422h.125c.437-.55.992-.973 1.672-1.266.687-.3 1.43-.453 2.234-.453 3.664 0 5.5 2.117 5.5 6.344 0 2.156-.594 3.808-1.781 4.953C10.617-.363 8.937.203 6.75.203c-1.031 0-1.965-.101-2.797-.297C3.117-.3 2.508-.535 2.125-.797v-15.031H.047Zm7.781 6.375c-1 0-1.812.29-2.437.86-.618.562-1.063 1.359-1.344 2.39v5.75c.383.2.844.36 1.375.484a7.727 7.727 0 0 0 1.672.172c.664 0 1.27-.093 1.812-.281.54-.195 1.004-.5 1.39-.906.384-.414.68-.938.892-1.563.207-.633.312-1.383.312-2.25 0-.633-.07-1.234-.203-1.797a4.572 4.572 0 0 0-.64-1.5 3.068 3.068 0 0 0-1.141-1c-.461-.238-1.024-.359-1.688-.359Zm0 0"/></symbol><symbol overflow="visible" id="F"><path style="stroke:none" d="m5.328-17.844 2.219 4.375 2.156-4.406 1.719.922-3.016 4.234 5.063-.375v2.016l-4.922-.39 2.906 4.015-1.672.984-2.328-4.484L5.25-6.47l-1.797-.984L6.47-11.47l-4.938.39v-2.015l4.938.422-2.875-4.203Zm0 0"/></symbol><symbol overflow="visible" id="G"><path style="stroke:none" d="M2.5-17.328a13.86 13.86 0 0 1 2.047-.297c.738-.05 1.46-.078 2.172-.078.77 0 1.55.078 2.343.234.79.149 1.508.422 2.157.828A4.587 4.587 0 0 1 12.813-15c.406.7.609 1.59.609 2.672 0 1.074-.195 1.976-.578 2.703a4.95 4.95 0 0 1-1.516 1.781 6.332 6.332 0 0 1-2.187 1c-.813.2-1.653.297-2.516.297h-.422A26.385 26.385 0 0 1 5-6.594c-.2-.02-.34-.039-.422-.062V0H2.5Zm4.281 1.422c-.437 0-.86.011-1.265.031-.399.023-.711.063-.938.125v7.25c.082.031.211.055.39.063.188.011.38.023.579.03h.984c.563 0 1.117-.05 1.672-.155a4.25 4.25 0 0 0 1.516-.579c.457-.289.82-.691 1.094-1.203.269-.52.406-1.18.406-1.984 0-.676-.133-1.242-.39-1.703-.25-.457-.59-.82-1.017-1.094a4.27 4.27 0 0 0-1.437-.594 6.938 6.938 0 0 0-1.594-.187Zm0 0"/></symbol><symbol overflow="visible" id="H"><path style="stroke:none" d="M1-17.5h13v4.578h-1.844v-2.734H8.531v13.812h2.75V0H3.703v-1.844h2.75v-13.812h-3.61v2.734H1Zm0 0"/></symbol><symbol overflow="visible" id="I"><path style="stroke:none" d="M2.328-8.125c0-.145-.008-.336-.015-.578-.012-.25-.028-.5-.047-.75a9.788 9.788 0 0 0-.063-.766 9.569 9.569 0 0 0-.078-.656H.453V-12.5h3.344l.234 2.031h.125c.164-.289.383-.57.657-.844.269-.269.585-.519.953-.75A4.93 4.93 0 0 1 7-12.592a4.964 4.964 0 0 1 1.422-.204c.77 0 1.445.086 2.031.25a3.166 3.166 0 0 1 1.485.89c.394.419.69.993.89 1.72.195.73.297 1.652.297 2.765V0h-1.953v-6.797c0-1.383-.227-2.426-.672-3.125-.45-.695-1.266-1.047-2.453-1.047-.43 0-.852.09-1.266.266a4.024 4.024 0 0 0-1.11.687c-.335.282-.624.61-.874.985a4.08 4.08 0 0 0-.547 1.187V0H2.328Zm0 0"/></symbol><symbol overflow="visible" id="J"><path style="stroke:none" d="M7.781-1.922h.938l3.11-10.578h2.015L10.375-1.281A34.042 34.042 0 0 0 9.812.703 8.898 8.898 0 0 1 9 2.797a5.046 5.046 0 0 1-1.438 1.656c-.593.445-1.375.672-2.343.672-.211 0-.438-.027-.688-.078-.242-.055-.48-.117-.718-.188a4.145 4.145 0 0 1-.641-.265 1.622 1.622 0 0 1-.453-.297L3.422 2.5c.101.082.238.164.406.25.176.082.367.148.578.203.207.063.41.113.61.156.207.04.379.063.515.063 1.25 0 2.098-1.059 2.547-3.172H6.406l-5.25-12.5h2.25Zm0 0"/></symbol><symbol overflow="visible" id="Q"><path style="stroke:none" d="M4.61 0v-7.156h7.671v-18.188H4.547V-32.5h7.734v-1.813c0-2.039.36-3.796 1.078-5.265.72-1.477 1.66-2.692 2.829-3.64 1.164-.958 2.519-1.66 4.062-2.11a16.708 16.708 0 0 1 4.781-.688c2.989 0 5.446.25 7.375.75 1.926.493 3.52 1.106 4.782 1.844l-2.485 6.438a27.76 27.76 0 0 0-3.219-1.297c-1.148-.395-2.625-.594-4.437-.594-2.344 0-3.985.531-4.922 1.594-.93 1.062-1.39 2.656-1.39 4.781H34.39v7.156H20.734v18.188h13.72V0Zm0 0"/></symbol><symbol overflow="visible" id="R"><path style="stroke:none" d="M2.281-16.25c0-2.727.41-5.156 1.235-7.281.82-2.125 1.988-3.922 3.5-5.39 1.52-1.477 3.328-2.595 5.421-3.345 2.102-.757 4.458-1.14 7.063-1.14 2.727 0 5.164.414 7.313 1.234 2.144.824 3.953 1.984 5.421 3.484 1.477 1.493 2.594 3.297 3.344 5.422.758 2.125 1.14 4.465 1.14 7.016 0 2.73-.413 5.156-1.234 7.281-.824 2.125-1.996 3.93-3.515 5.406-1.512 1.47-3.32 2.586-5.422 3.344C24.453.531 22.102.906 19.5.906c-2.73 0-5.168-.414-7.313-1.234-2.148-.82-3.96-1.977-5.437-3.469-1.469-1.5-2.586-3.312-3.344-5.437-.75-2.125-1.125-4.461-1.125-7.016Zm8.703 0c0 1.43.192 2.75.579 3.969.394 1.21.957 2.273 1.687 3.187a7.704 7.704 0 0 0 2.672 2.11c1.039.5 2.234.75 3.578.75 2.508 0 4.555-.801 6.14-2.407 1.583-1.601 2.376-4.14 2.376-7.609 0-2.988-.743-5.406-2.22-7.25-1.468-1.844-3.57-2.766-6.296-2.766-1.21 0-2.336.188-3.375.563a6.626 6.626 0 0 0-2.703 1.781c-.762.824-1.36 1.867-1.797 3.125-.43 1.25-.64 2.766-.64 4.547Zm0 0"/></symbol><symbol overflow="visible" id="S"><path style="stroke:none" d="M2.531-7.156h8.063v-18.188H2.53V-32.5h14.625l.985 4.297h.25a17.125 17.125 0 0 1 4.156-3.578c1.562-.957 3.383-1.438 5.469-1.438 2.601 0 4.648.953 6.14 2.86 1.5 1.906 2.25 5.093 2.25 9.562h-7.61c0-1.562-.23-2.695-.687-3.406-.449-.719-1.172-1.078-2.172-1.078-1.742 0-3.14.433-4.203 1.297A13.265 13.265 0 0 0 19.047-21v13.844h14.11V0H2.53Zm0 0"/></symbol><symbol overflow="visible" id="T"><path style="stroke:none" d="M0-45.5h13.781v25.938h1.953L26.391-32.5h9.937L23.203-17.687l8.516 10.53h6.047V0H27.234L16.062-13.453h-2.28V0H5.327v-38.344H0Zm0 0"/></symbol><symbol overflow="visible" id="U"><path style="stroke:none" d="M29.578 13.781c-3.031-.48-5.98-1.433-8.844-2.86-2.867-1.429-5.402-3.355-7.609-5.78-2.21-2.43-3.977-5.375-5.297-8.844-1.324-3.469-1.984-7.5-1.984-12.094 0-4.55.66-8.566 1.984-12.047 1.32-3.488 3.086-6.468 5.297-8.937 2.207-2.477 4.742-4.453 7.61-5.922 2.863-1.477 5.812-2.5 8.843-3.063l1.563 6.953c-1.524.356-3.246.977-5.172 1.86-1.93.887-3.762 2.21-5.5 3.969-1.73 1.75-3.196 4.015-4.39 6.797-1.188 2.773-1.782 6.234-1.782 10.39 0 3.992.625 7.352 1.875 10.078C17.43-2.989 18.96-.75 20.766 1c1.8 1.758 3.656 3.082 5.562 3.969 1.906.894 3.508 1.468 4.813 1.718Zm0 0"/></symbol><symbol overflow="visible" id="V"><path style="stroke:none" d="M7.797 6.688c1.3-.25 2.906-.825 4.812-1.72 1.907-.886 3.754-2.21 5.547-3.968 1.801-1.75 3.332-3.988 4.594-6.719 1.258-2.726 1.89-6.086 1.89-10.078 0-4.156-.6-7.617-1.796-10.39-1.188-2.782-2.653-5.047-4.39-6.797-1.731-1.758-3.56-3.082-5.485-3.97-1.93-.882-3.653-1.503-5.172-1.858l1.562-6.954c3.032.563 5.973 1.586 8.829 3.063 2.863 1.469 5.398 3.445 7.609 5.922 2.219 2.468 3.984 5.449 5.297 8.937 1.32 3.48 1.984 7.496 1.984 12.047 0 4.594-.664 8.625-1.984 12.094C29.78-.234 28.016 2.71 25.797 5.14c-2.211 2.425-4.746 4.351-7.61 5.78-2.855 1.427-5.796 2.38-8.828 2.86Zm0 0"/></symbol><clipPath id="a"><path d="M359 345h228v227H359Zm0 0"/></clipPath><clipPath id="k"><path d="M359 21h228v329H359Zm0 0"/></clipPath><clipPath id="o"><path d="M359 244h228v43H359Zm0 0"/></clipPath><clipPath id="z"><path d="M359 38h228v83H359Zm0 0"/></clipPath><clipPath id="D"><path d="M582 36h43v224h-43Zm0 0"/></clipPath><clipPath id="E"><path d="m602.734 54.691-1.468 2.618-16-9L582.94 47l2.325-1.309 16-9 1.468 2.618-11.007 6.191h33.039v214.344H587v-3h34.762V48.5h-30.035Zm0 0"/></clipPath><clipPath id="K"><path d="M786 346h228v227H786Zm0 0"/></clipPath><clipPath id="L"><path d="M786 24h228v329H786Zm0 0"/></clipPath><clipPath id="M"><path d="M786 247h228v43H786Zm0 0"/></clipPath><clipPath id="N"><path d="M786 41h228v83H786Zm0 0"/></clipPath><clipPath id="O"><path d="M1009 39h43v224h-43Zm0 0"/></clipPath><clipPath id="P"><path d="m1029.734 57.691-1.468 2.618-16-9L1009.94 50l2.325-1.309 16-9 1.468 2.618-11.007 6.191h33.039v214.344H1014v-3h34.762V51.5h-30.035Zm0 0"/></clipPath><clipPath id="W"><path d="M20 331h309v25H20Zm0 0"/></clipPath><clipPath id="X"><path d="M304.96 331.078 329 343l-23.96 12.078-.032-10-282 .922-2 .008-.016-4 2-.008 282-.922Zm0 0"/></clipPath></defs><g clip-path="url(#a)"><path style="stroke:none;fill-rule:nonzero;fill:#fcfcfc;fill-opacity:1" d="M358 344h230v229H358Zm0 0"/><path style="fill:none;stroke-width:10;stroke-linecap:butt;stroke-linejoin:miter;stroke:#334155;stroke-opacity:1;stroke-miterlimit:5" d="M0 0h228v227H0Zm0 0" transform="translate(359 345)"/></g><g style="fill:#000;fill-opacity:1"><use xlink:href="#b" x="417.86" y="543"/><use xlink:href="#c" x="432.68" y="543"/><use xlink:href="#d" x="443.06" y="543"/><use xlink:href="#e" x="454.54" y="543"/><use xlink:href="#f" x="462.32" y="543"/><use xlink:href="#g" x="467.88" y="543"/><use xlink:href="#h" x="480.84" y="543"/><use xlink:href="#i" x="493.06" y="543"/><use xlink:href="#j" x="504.54" y="543"/><use xlink:href="#d" x="515.66" y="543"/></g><g clip-path="url(#k)"><path style="stroke:none;fill-rule:nonzero;fill:#f4f4f5;fill-opacity:1" d="M358 20h230v331H358Zm0 0"/><path style="fill:none;stroke-width:10;stroke-linecap:butt;stroke-linejoin:miter;stroke:#334155;stroke-opacity:1;stroke-miterlimit:5" d="M0 0h228v329H0Zm0 0" transform="translate(359 21)"/></g><g style="fill:#000;fill-opacity:1"><use xlink:href="#l" x="409.62" y="332"/><use xlink:href="#d" x="424.06" y="332"/><use xlink:href="#e" x="435.54" y="332"/></g><g style="fill:#000;fill-opacity:1"><use xlink:href="#m" x="443.68" y="332"/><use xlink:href="#d" x="455.9" y="332"/><use xlink:href="#n" x="467.38" y="332"/><use xlink:href="#f" x="472.56" y="332"/><use xlink:href="#g" x="478.12" y="332"/><use xlink:href="#h" x="491.08" y="332"/><use xlink:href="#i" x="503.3" y="332"/><use xlink:href="#j" x="514.78" y="332"/><use xlink:href="#d" x="525.9" y="332"/></g><g clip-path="url(#o)"><path style="stroke:none;fill-rule:nonzero;fill:#fca5a5;fill-opacity:1" d="M358 243h230v45H358Zm0 0"/><path style="fill:none;stroke-width:10;stroke-linecap:butt;stroke-linejoin:miter;stroke:#334155;stroke-opacity:1;stroke-miterlimit:5" d="M0 0h228v43H0Zm0 0" transform="translate(359 244)"/></g><g style="fill:#000;fill-opacity:1"><use xlink:href="#p" x="384" y="274"/><use xlink:href="#q" x="399" y="274"/><use xlink:href="#r" x="414" y="274"/><use xlink:href="#s" x="429" y="274"/><use xlink:href="#t" x="444" y="274"/><use xlink:href="#u" x="459" y="274"/><use xlink:href="#v" x="474" y="274"/><use xlink:href="#w" x="489" y="274"/><use xlink:href="#x" x="504" y="274"/><use xlink:href="#y" x="519" y="274"/><use xlink:href="#t" x="534" y="274"/><use xlink:href="#w" x="549" y="274"/></g><g clip-path="url(#z)"><path style="stroke:none;fill-rule:nonzero;fill:#fdba74;fill-opacity:1" d="M358 37h230v85H358Zm0 0"/><path style="fill:none;stroke-width:10;stroke-linecap:butt;stroke-linejoin:miter;stroke:#334155;stroke-opacity:1;stroke-miterlimit:5" d="M0 0h228v83H0Zm0 0" transform="translate(359 38)"/></g><g style="fill:#000;fill-opacity:1"><use xlink:href="#A" x="398" y="88"/><use xlink:href="#t" x="413" y="88"/><use xlink:href="#B" x="428" y="88"/><use xlink:href="#s" x="443" y="88"/><use xlink:href="#v" x="458" y="88"/><use xlink:href="#p" x="473" y="88"/><use xlink:href="#t" x="488" y="88"/><use xlink:href="#C" x="503" y="88"/><use xlink:href="#w" x="518" y="88"/><use xlink:href="#s" x="533" y="88"/></g><g clip-path="url(#D)"><g clip-path="url(#E)" clip-rule="evenodd"><path style="stroke:none;fill-rule:nonzero;fill:#000;fill-opacity:1" d="M581.941 35.691h43.825v225.153H581.94Zm0 0"/></g></g><g style="fill:#000;fill-opacity:1"><use xlink:href="#F" x="638.5" y="153"/><use xlink:href="#G" x="653.5" y="153"/><use xlink:href="#H" x="668.5" y="153"/><use xlink:href="#v" x="683.5" y="153"/><use xlink:href="#s" x="698.5" y="153"/><use xlink:href="#I" x="713.5" y="153"/><use xlink:href="#p" x="728.5" y="153"/><use xlink:href="#r" x="743.5" y="153"/><use xlink:href="#J" x="758.5" y="153"/></g><g clip-path="url(#K)"><path style="stroke:none;fill-rule:nonzero;fill:#fcfcfc;fill-opacity:1" d="M785 345h230v229H785Zm0 0"/><path style="fill:none;stroke-width:10;stroke-linecap:butt;stroke-linejoin:miter;stroke:#334155;stroke-opacity:1;stroke-miterlimit:5" d="M0 0h228v227H0Zm0 0" transform="translate(786 346)"/></g><g style="fill:#000;fill-opacity:1"><use xlink:href="#b" x="844.86" y="544"/><use xlink:href="#c" x="859.68" y="544"/><use xlink:href="#d" x="870.06" y="544"/><use xlink:href="#e" x="881.54" y="544"/><use xlink:href="#f" x="889.32" y="544"/><use xlink:href="#g" x="894.88" y="544"/><use xlink:href="#h" x="907.84" y="544"/><use xlink:href="#i" x="920.06" y="544"/><use xlink:href="#j" x="931.54" y="544"/><use xlink:href="#d" x="942.66" y="544"/></g><g clip-path="url(#L)"><path style="stroke:none;fill-rule:nonzero;fill:#f4f4f5;fill-opacity:1" d="M785 23h230v331H785Zm0 0"/><path style="fill:none;stroke-width:10;stroke-linecap:butt;stroke-linejoin:miter;stroke:#334155;stroke-opacity:1;stroke-miterlimit:5" d="M0 0h228v329H0Zm0 0" transform="translate(786 24)"/></g><g style="fill:#000;fill-opacity:1"><use xlink:href="#l" x="836.62" y="335"/><use xlink:href="#d" x="851.06" y="335"/><use xlink:href="#e" x="862.54" y="335"/></g><g style="fill:#000;fill-opacity:1"><use xlink:href="#m" x="870.68" y="335"/><use xlink:href="#d" x="882.9" y="335"/><use xlink:href="#n" x="894.38" y="335"/><use xlink:href="#f" x="899.56" y="335"/><use xlink:href="#g" x="905.12" y="335"/><use xlink:href="#h" x="918.08" y="335"/><use xlink:href="#i" x="930.3" y="335"/><use xlink:href="#j" x="941.78" y="335"/><use xlink:href="#d" x="952.9" y="335"/></g><g clip-path="url(#M)"><path style="stroke:none;fill-rule:nonzero;fill:#93c5fd;fill-opacity:1" d="M785 246h230v45H785Zm0 0"/><path style="fill:none;stroke-width:10;stroke-linecap:butt;stroke-linejoin:miter;stroke:#334155;stroke-opacity:1;stroke-miterlimit:5" d="M0 0h228v43H0Zm0 0" transform="translate(786 247)"/></g><g style="fill:#000;fill-opacity:1"><use xlink:href="#p" x="811" y="277"/><use xlink:href="#q" x="826" y="277"/><use xlink:href="#r" x="841" y="277"/><use xlink:href="#s" x="856" y="277"/><use xlink:href="#t" x="871" y="277"/><use xlink:href="#u" x="886" y="277"/><use xlink:href="#v" x="901" y="277"/><use xlink:href="#w" x="916" y="277"/><use xlink:href="#x" x="931" y="277"/><use xlink:href="#y" x="946" y="277"/><use xlink:href="#t" x="961" y="277"/><use xlink:href="#w" x="976" y="277"/></g><g clip-path="url(#N)"><path style="stroke:none;fill-rule:nonzero;fill:#fdba74;fill-opacity:1" d="M785 40h230v85H785Zm0 0"/><path style="fill:none;stroke-width:10;stroke-linecap:butt;stroke-linejoin:miter;stroke:#334155;stroke-opacity:1;stroke-miterlimit:5" d="M0 0h228v83H0Zm0 0" transform="translate(786 41)"/></g><g style="fill:#000;fill-opacity:1"><use xlink:href="#A" x="825" y="91"/><use xlink:href="#t" x="840" y="91"/><use xlink:href="#B" x="855" y="91"/><use xlink:href="#s" x="870" y="91"/><use xlink:href="#v" x="885" y="91"/><use xlink:href="#p" x="900" y="91"/><use xlink:href="#t" x="915" y="91"/><use xlink:href="#C" x="930" y="91"/><use xlink:href="#w" x="945" y="91"/><use xlink:href="#s" x="960" y="91"/></g><g clip-path="url(#O)"><g clip-path="url(#P)" clip-rule="evenodd"><path style="stroke:none;fill-rule:nonzero;fill:#000;fill-opacity:1" d="M1008.941 38.691h43.825v225.153h-43.825Zm0 0"/></g></g><g style="fill:#000;fill-opacity:1"><use xlink:href="#F" x="1065.5" y="156"/><use xlink:href="#G" x="1080.5" y="156"/><use xlink:href="#H" x="1095.5" y="156"/><use xlink:href="#v" x="1110.5" y="156"/><use xlink:href="#s" x="1125.5" y="156"/><use xlink:href="#I" x="1140.5" y="156"/><use xlink:href="#p" x="1155.5" y="156"/><use xlink:href="#r" x="1170.5" y="156"/><use xlink:href="#J" x="1185.5" y="156"/></g><g style="fill:#000;fill-opacity:1"><use xlink:href="#Q" x="59" y="312"/><use xlink:href="#R" x="98" y="312"/><use xlink:href="#S" x="137" y="312"/><use xlink:href="#T" x="176" y="312"/><use xlink:href="#U" x="215" y="312"/><use xlink:href="#V" x="254" y="312"/></g><g clip-path="url(#W)"><g clip-path="url(#X)" clip-rule="evenodd"><path style="stroke:none;fill-rule:nonzero;fill:#000;fill-opacity:1" d="M19.992 330.078H330v26H19.992Zm0 0"/></g></g></svg>