<svg xmlns="http://www.w3.org/2000/svg" xmlns:xlink="http://www.w3.org/1999/xlink" width="1632" height="562pt" viewBox="0 0 1224 562" version="1.2"><defs><symbol overflow="visible" id="h"><path style="stroke:none" d="M1.438-25.203h18.718v6.594H17.5v-3.922h-5.219v19.875h3.953V0H5.328v-2.656h3.953v-19.875H4.11v3.922H1.438Zm0 0"/></symbol><symbol overflow="visible" id="i"><path style="stroke:none" d="M3.89-16.594c1.032-.601 2.192-1.035 3.485-1.297 1.3-.257 2.578-.39 3.828-.39 1.219 0 2.219.195 3 .578.781.375 1.39.871 1.828 1.484.446.617.75 1.313.907 2.094.156.781.234 1.57.234 2.36 0 .906-.027 1.874-.078 2.906a272.757 272.757 0 0 0-.11 3.093c0 1.211.07 2.352.22 3.422h2.421V0h-4.797l-.312-2.703h-.188a9.199 9.199 0 0 1-.656.828c-.281.336-.656.668-1.125 1-.469.324-1.043.605-1.719.844-.668.238-1.46.36-2.375.36-1.773 0-3.172-.454-4.203-1.36-1.031-.914-1.547-2.164-1.547-3.75 0-1.227.266-2.25.797-3.063.54-.82 1.316-1.445 2.328-1.875 1.008-.437 2.227-.687 3.656-.75 1.426-.07 3.032.024 4.813.281.113-1.101.129-2.019.047-2.75-.086-.738-.278-1.32-.578-1.75-.305-.437-.727-.742-1.266-.921-.531-.176-1.195-.266-1.984-.266-1.086 0-2.121.152-3.11.453-.98.305-1.855.606-2.625.906Zm5.297 14.5c.665 0 1.286-.101 1.86-.312a5.68 5.68 0 0 0 1.515-.828c.438-.344.797-.711 1.079-1.11.289-.394.507-.77.656-1.125v-2.515c-1.25-.22-2.406-.329-3.469-.329-1.055 0-1.965.118-2.734.344-.762.23-1.36.586-1.797 1.063-.43.48-.64 1.101-.64 1.86 0 .792.265 1.484.796 2.077.54.586 1.453.875 2.734.875Zm0 0"/></symbol><symbol overflow="visible" id="j"><path style="stroke:none" d="M15.766-4.86c0-.769-.305-1.363-.907-1.78-.593-.415-1.34-.75-2.234-1a36.145 36.145 0 0 0-2.89-.704 17.176 17.176 0 0 1-2.891-.86c-.887-.362-1.633-.85-2.235-1.468-.605-.613-.906-1.473-.906-2.578 0-.906.195-1.68.594-2.328a4.883 4.883 0 0 1 1.562-1.61c.657-.414 1.414-.726 2.282-.937a11.562 11.562 0 0 1 2.703-.313c1.676 0 3.117.215 4.328.641 1.207.418 2.176.856 2.906 1.313l-1.156 2.265a29.391 29.391 0 0 0-2.578-1.25c-.93-.394-2.086-.594-3.469-.594-.531 0-1.059.06-1.578.172-.512.106-.98.266-1.406.485-.418.219-.75.5-1 .844-.25.343-.375.773-.375 1.28 0 .626.296 1.106.89 1.438.602.336 1.348.617 2.235.844.894.23 1.863.45 2.906.656 1.039.2 2.004.492 2.89.875.895.387 1.641.903 2.235 1.547.601.649.906 1.524.906 2.625 0 1.656-.656 3.027-1.969 4.11C15.305-.103 13.348.438 10.734.438a12.67 12.67 0 0 1-2.343-.22 14.565 14.565 0 0 1-2.172-.577 12.33 12.33 0 0 1-1.828-.813 7.253 7.253 0 0 1-1.36-.922L4.47-4.422c.281.281.66.574 1.14.875.489.305 1.02.574 1.594.813.57.242 1.188.433 1.844.578a9.145 9.145 0 0 0 2 .219c.656 0 1.265-.051 1.828-.157a5.355 5.355 0 0 0 1.484-.515 2.744 2.744 0 0 0 1.032-.891c.25-.375.375-.828.375-1.36Zm0 0"/></symbol><symbol overflow="visible" id="k"><path style="stroke:none" d="M.86-25.203h5.843v14.906h1.969L15.766-18h3.39l-7.953 8.531 6.547 7.063h2.344V0h-3.719L8.672-8.14H6.703V0H3.922v-22.781H.859Zm0 0"/></symbol><symbol overflow="visible" id="o"><path style="stroke:none" d="M5-34.656c1.27-.29 2.633-.489 4.094-.594a63.207 63.207 0 0 1 4.36-.156c1.53 0 3.085.152 4.671.453 1.582.305 3.023.855 4.328 1.656 1.3.805 2.36 1.902 3.172 3.297.813 1.398 1.219 3.18 1.219 5.344 0 2.136-.387 3.937-1.157 5.406-.761 1.469-1.777 2.664-3.046 3.578-1.262.918-2.711 1.578-4.344 1.985-1.637.398-3.32.593-5.047.593h-.828c-.387 0-.79-.008-1.203-.031-.418-.02-.824-.047-1.219-.078a8.894 8.894 0 0 1-.844-.094V0H5Zm8.547 2.86c-.867 0-1.7.015-2.5.046-.805.031-1.434.117-1.89.25V-17c.163.063.429.105.796.125.363.023.742.043 1.14.063.407.011.79.015 1.157.015h.797c1.133 0 2.258-.11 3.375-.328a8.834 8.834 0 0 0 3.015-1.172c.907-.57 1.633-1.375 2.188-2.406.55-1.031.828-2.348.828-3.953 0-1.364-.262-2.504-.781-3.422a6.057 6.057 0 0 0-2.047-2.188 8.641 8.641 0 0 0-2.875-1.172 14.615 14.615 0 0 0-3.203-.359Zm0 0"/></symbol><symbol overflow="visible" id="p"><path style="stroke:none" d="M2.844-12.5c0-4.031 1.05-7.219 3.156-9.563 2.102-2.351 5.102-3.53 9-3.53 2.102 0 3.91.343 5.422 1.03 1.52.68 2.781 1.602 3.781 2.766 1 1.168 1.738 2.555 2.219 4.156.488 1.594.734 3.309.734 5.141 0 2-.273 3.809-.812 5.422C25.812-5.461 25.03-4.086 24-2.953c-1.031 1.137-2.309 2.012-3.828 2.625C18.66.285 16.937.594 15 .594c-2.063 0-3.867-.34-5.406-1.016-1.531-.687-2.797-1.613-3.797-2.781-1-1.164-1.746-2.547-2.234-4.14-.481-1.602-.72-3.321-.72-5.157ZM7-12.5c0 1.168.14 2.336.422 3.5a9.53 9.53 0 0 0 1.375 3.156 7.238 7.238 0 0 0 2.469 2.25c1.02.563 2.265.844 3.734.844 2.664 0 4.672-.82 6.016-2.469 1.351-1.656 2.03-4.082 2.03-7.281 0-1.195-.14-2.367-.421-3.516a9.08 9.08 0 0 0-1.406-3.125 7.254 7.254 0 0 0-2.5-2.25c-1.012-.57-2.25-.859-3.719-.859-2.668 0-4.668.82-6 2.453-1.336 1.637-2 4.07-2 7.297Zm0 0"/></symbol><symbol overflow="visible" id="q"><path style="stroke:none" d="M5.953-35h8.297v26.594c0 2.043.336 3.48 1.016 4.312.687.836 1.695 1.25 3.03 1.25.938 0 1.829-.164 2.673-.5.851-.332 1.797-.898 2.828-1.703l1.797 2.75a10.67 10.67 0 0 1-1.75 1.25 12.54 12.54 0 0 1-1.938.922c-.668.25-1.336.441-2 .578a9.608 9.608 0 0 1-1.86.203c-1.23 0-2.327-.164-3.296-.484-.969-.313-1.781-.817-2.438-1.516-.648-.707-1.136-1.633-1.468-2.781-.336-1.145-.5-2.57-.5-4.281v-23.25h-4.39Zm0 0"/></symbol><symbol overflow="visible" id="s"><path style="stroke:none" d="m22.844-23.25.5-4.75h-.25l-2.39 4.297-5.11 8.547h-1.25L9-23.75 6.703-28h-.25l.594 4.703V0H3v-35h3.844l8.312 13.297h.094l8-13.297H27V0h-4.156Zm0 0"/></symbol><symbol overflow="visible" id="t"><path style="stroke:none" d="M5.406-23.047c1.426-.832 3.04-1.43 4.844-1.797a25.94 25.94 0 0 1 5.297-.562c1.695 0 3.086.273 4.172.812 1.082.532 1.93 1.227 2.547 2.078.625.844 1.039 1.809 1.25 2.891.218 1.086.328 2.18.328 3.281 0 1.262-.032 2.61-.094 4.047-.063 1.43-.117 2.86-.156 4.297 0 1.668.101 3.25.312 4.75h3.344V0h-6.656l-.438-3.75h-.25c-.21.305-.511.688-.906 1.156-.398.461-.922.918-1.578 1.375-.649.45-1.438.84-2.375 1.172-.93.332-2.027.5-3.297.5-2.469 0-4.422-.629-5.86-1.89-1.43-1.27-2.14-3.008-2.14-5.22 0-1.695.375-3.109 1.125-4.234.75-1.132 1.82-2.004 3.219-2.609 1.406-.602 3.097-.953 5.078-1.047 1.988-.101 4.21.027 6.672.39.164-1.53.191-2.8.078-3.812-.117-1.02-.383-1.828-.797-2.422-.418-.601-1-1.03-1.75-1.28s-1.68-.376-2.781-.376c-1.5 0-2.934.211-4.297.625-1.367.418-2.578.84-3.64 1.266Zm7.344 20.14c.938 0 1.8-.144 2.594-.437.8-.3 1.5-.687 2.094-1.156a7.74 7.74 0 0 0 1.5-1.516 7.16 7.16 0 0 0 .906-1.578v-3.5c-1.73-.3-3.328-.453-4.797-.453-1.469 0-2.735.164-3.797.485-1.063.312-1.898.804-2.5 1.468-.605.668-.906 1.531-.906 2.594 0 1.105.375 2.063 1.125 2.875.75.813 2.008 1.219 3.781 1.219Zm0 0"/></symbol><symbol overflow="visible" id="u"><path style="stroke:none" d="M4.656-16.25c0-.3-.011-.691-.031-1.172-.023-.488-.047-.988-.078-1.5a37.369 37.369 0 0 0-.125-1.531c-.055-.5-.11-.93-.172-1.297H.906V-25h6.688l.453 4.047h.25c.332-.563.773-1.117 1.328-1.672.55-.55 1.191-1.05 1.922-1.5.738-.445 1.555-.8 2.453-1.063a9.813 9.813 0 0 1 2.844-.406c1.539 0 2.898.168 4.078.5 1.187.336 2.172.93 2.953 1.782.781.843 1.367 1.992 1.766 3.437.406 1.45.609 3.293.609 5.531V0h-3.906v-13.594c0-2.77-.45-4.851-1.344-6.25-.898-1.406-2.531-2.11-4.906-2.11-.867 0-1.711.18-2.532.532a8.438 8.438 0 0 0-2.218 1.375 9.294 9.294 0 0 0-1.75 1.969c-.5.75-.867 1.543-1.094 2.375V0H4.656Zm0 0"/></symbol><symbol overflow="visible" id="v"><path style="stroke:none" d="M26.203 1.25c0 1.563-.305 2.938-.906 4.125a7.934 7.934 0 0 1-2.469 2.922c-1.055.77-2.281 1.344-3.687 1.719-1.399.382-2.914.578-4.547.578-1.961 0-3.672-.2-5.14-.594-1.47-.398-2.735-.914-3.798-1.547l1.89-3.547c.302.258.692.516 1.173.766a13.084 13.084 0 0 0 3.703 1.219c.719.132 1.426.203 2.125.203 1.469 0 2.691-.137 3.672-.407.988-.261 1.781-.68 2.375-1.25.601-.562 1.035-1.292 1.297-2.187.27-.898.406-1.996.406-3.297v-2.797h-.203A7.764 7.764 0 0 1 19.14-.297c-1.2.594-2.746.89-4.641.89-3.805 0-6.594-1.054-8.375-3.171-1.781-2.113-2.672-5.406-2.672-9.875 0-4.258 1.129-7.485 3.39-9.672 2.27-2.188 5.641-3.281 10.11-3.281 2.063 0 3.817.148 5.266.437 1.457.282 2.785.637 3.984 1.063Zm-11.156-4c2.031 0 3.629-.523 4.797-1.578 1.164-1.05 1.984-2.66 2.453-4.828V-21c-1.469-.695-3.516-1.047-6.14-1.047-2.669 0-4.774.79-6.313 2.36-1.531 1.562-2.297 3.96-2.297 7.187 0 1.438.129 2.75.39 3.938.27 1.18.696 2.199 1.282 3.062a6.044 6.044 0 0 0 2.297 2.031c.957.48 2.132.719 3.53.719Zm0 0"/></symbol><symbol overflow="visible" id="w"><path style="stroke:none" d="M26.453-3.156a12.431 12.431 0 0 1-2.14 1.515c-.813.461-1.704.856-2.672 1.188-.961.336-1.965.586-3.016.766-1.055.187-2.11.28-3.172.28-2 0-3.773-.308-5.312-.921-1.532-.613-2.813-1.492-3.844-2.64C5.266-4.126 4.484-5.5 3.953-7.095c-.531-1.601-.797-3.406-.797-5.406 0-2.102.29-3.969.875-5.594.582-1.633 1.422-3 2.516-4.093 1.101-1.102 2.437-1.946 4-2.532 1.57-.582 3.32-.875 5.25-.875 1.406 0 2.789.184 4.156.547 1.363.367 2.57 1.059 3.625 2.078 1.05 1.012 1.86 2.414 2.422 4.203.563 1.782.758 4.09.594 6.922H7.25c0 3 .805 5.242 2.422 6.719 1.613 1.48 3.773 2.219 6.484 2.219.895 0 1.785-.102 2.672-.313A21.289 21.289 0 0 0 21.344-4c.8-.3 1.508-.633 2.125-1 .625-.363 1.101-.695 1.437-1Zm-10.547-19.14c-1.105 0-2.152.12-3.14.358a7.05 7.05 0 0 0-2.594 1.172c-.75.543-1.371 1.258-1.86 2.141-.48.887-.78 1.98-.906 3.281h15.547c-.168-2.207-.875-3.914-2.125-5.125-1.25-1.218-2.89-1.828-4.922-1.828Zm0 0"/></symbol><symbol overflow="visible" id="x"><path style="stroke:none" d="M3.297 0v-3.344h6.75v-18.312h-6.75V-25h9.36l.796 3.25h.25a17.96 17.96 0 0 1 3.797-2.64c1.395-.739 3.063-1.11 5-1.11 1.133 0 2.04.219 2.719.656.687.43 1.222 1.059 1.61 1.89.382.837.64 1.845.765 3.032.133 1.18.203 2.516.203 4.016l-3.5.062c0-2.133-.211-3.703-.625-4.703-.418-1-1.172-1.5-2.266-1.5-1.043 0-1.98.152-2.812.453-.836.293-1.559.657-2.172 1.094-.617.438-1.14.875-1.578 1.313-.43.43-.742.792-.938 1.093v14.75H23.5V0Zm0 0"/></symbol><symbol overflow="visible" id="A"><path style="stroke:none" d="M2.688-9.094c0-.176-.008-.394-.016-.656-.012-.27-.027-.55-.047-.844-.012-.289-.031-.578-.063-.86a20.419 20.419 0 0 0-.093-.733H.594V-14h3.719l.28 1.953h.141a6.304 6.304 0 0 1 1.907-1.625c.78-.445 1.726-.672 2.843-.672 2 0 3.504.555 4.516 1.656 1.008 1.106 1.516 2.907 1.516 5.407 0 1.18-.18 2.242-.532 3.187-.343.938-.836 1.735-1.468 2.39-.625.65-1.387 1.153-2.282 1.516-.898.352-1.886.532-2.968.532A9.251 9.251 0 0 1 6.36.172 6.478 6.478 0 0 1 5.624 0c-.242-.07-.5-.164-.781-.281v5.875H2.687Zm6.437-3.203c-.563 0-1.094.106-1.594.313-.492.21-.93.48-1.312.812-.375.336-.688.711-.938 1.125-.242.406-.386.82-.437 1.235v6.374c.406.282.863.5 1.375.657.52.156 1.203.234 2.047.234 1.488 0 2.68-.488 3.578-1.469.894-.976 1.344-2.41 1.344-4.296 0-1.583-.313-2.805-.938-3.672-.625-.875-1.668-1.313-3.125-1.313Zm0 0"/></symbol><symbol overflow="visible" id="B"><path style="stroke:none" d="M1.703-13.688c0-.863.14-1.671.422-2.421a5.46 5.46 0 0 1 1.266-1.985c.57-.57 1.28-1.02 2.125-1.343.843-.333 1.82-.5 2.937-.5 1.05 0 1.985.171 2.797.515.82.336 1.52.805 2.094 1.406.57.606 1.004 1.344 1.297 2.22.3.866.453 1.827.453 2.89 0 2.094-.262 3.933-.781 5.515-.524 1.586-1.25 2.93-2.188 4.032A9.965 9.965 0 0 1 8.797-.781C7.523-.164 6.14.207 4.64.344l-.407-1.766c1.227-.133 2.329-.437 3.297-.906a9.035 9.035 0 0 0 2.516-1.781 9.253 9.253 0 0 0 1.734-2.516c.446-.957.758-1.977.938-3.063-.305.313-.61.579-.922.797-.305.22-.64.399-1.016.532-.375.125-.789.214-1.234.265-.45.055-.961.078-1.531.078a7.56 7.56 0 0 1-2.454-.39 5.942 5.942 0 0 1-2-1.125 5.798 5.798 0 0 1-1.359-1.797c-.336-.695-.5-1.485-.5-2.36ZM4-13.921c0 1.344.406 2.356 1.219 3.031.812.668 1.89 1 3.234 1 1.063 0 1.977-.16 2.75-.484.781-.32 1.332-.727 1.656-1.219.032-.258.047-.469.047-.625v-.547c0-.656-.09-1.3-.265-1.937a5.158 5.158 0 0 0-.829-1.703 4.103 4.103 0 0 0-1.453-1.219c-.586-.313-1.28-.469-2.093-.469-1.344 0-2.391.367-3.141 1.094C4.375-16.27 4-15.242 4-13.922Zm0 0"/></symbol><symbol overflow="visible" id="K"><path style="stroke:none" d="M2.094-4.766c0-2.25 1.375-4.066 4.125-5.453a19.05 19.05 0 0 1-1.453-.86c-.45-.3-.84-.64-1.172-1.015a4.363 4.363 0 0 1-.766-1.281c-.187-.488-.281-1.05-.281-1.688 0-.687.14-1.328.422-1.921a4.37 4.37 0 0 1 1.203-1.547c.52-.438 1.156-.782 1.906-1.032s1.578-.375 2.484-.375c.864 0 1.645.118 2.344.344.696.219 1.29.532 1.781.938.5.398.88.867 1.141 1.406.258.543.39 1.121.39 1.734a5.651 5.651 0 0 1-.796 2.938c-.531.887-1.387 1.695-2.563 2.422.54.273 1.047.57 1.516.89.469.313.875.668 1.219 1.063.344.398.613.844.812 1.344.196.492.297 1.046.297 1.671 0 .793-.14 1.532-.422 2.22-.281.679-.699 1.261-1.25 1.75-.554.48-1.23.859-2.031 1.14-.805.281-1.734.422-2.797.422-.992 0-1.871-.14-2.64-.422C4.8-.36 4.163-.734 3.655-1.203a4.776 4.776 0 0 1-1.172-1.625 4.879 4.879 0 0 1-.39-1.938Zm10.39-.28c0-.54-.125-1.02-.375-1.438-.25-.414-.59-.79-1.015-1.125a7.822 7.822 0 0 0-1.438-.922 94.883 94.883 0 0 0-1.672-.844C6.641-8.727 5.68-8.008 5.11-7.219c-.574.782-.859 1.516-.859 2.203 0 .47.086.918.266 1.344.175.418.437.79.78 1.11a4 4 0 0 0 1.298.75c.508.18 1.101.265 1.781.265.54 0 1.055-.07 1.547-.219.5-.144.937-.363 1.312-.656.383-.289.688-.656.907-1.094.226-.437.343-.945.343-1.53Zm-7.75-10.095c0 .524.118.993.36 1.407.238.406.554.773.953 1.093.406.325.867.621 1.39.891.532.273 1.083.54 1.657.797.988-.645 1.726-1.297 2.219-1.953.5-.656.75-1.375.75-2.156 0-.47-.102-.883-.297-1.25a2.853 2.853 0 0 0-.782-.938 3.519 3.519 0 0 0-1.125-.594 4.176 4.176 0 0 0-1.343-.218c-.606 0-1.141.085-1.61.25-.46.167-.851.39-1.172.671a3.26 3.26 0 0 0-.734.938c-.18.344-.266.7-.266 1.062Zm0 0"/></symbol><symbol overflow="visible" id="M"><path style="stroke:none" d="m3.469 0 8.578-17.578H1.937v-2.016h12.376v1.813L5.765 0Zm0 0"/></symbol><symbol overflow="visible" id="O"><path style="stroke:none" d="M15.094-5.906c0 .804-.149 1.578-.438 2.328a5.995 5.995 0 0 1-1.281 1.984c-.555.574-1.242 1.043-2.063 1.407-.824.351-1.777.53-2.859.53-1.012 0-1.93-.156-2.75-.468a6.349 6.349 0 0 1-2.125-1.36 6.197 6.197 0 0 1-1.39-2.171c-.325-.864-.485-1.828-.485-2.89 0-1.759.254-3.423.766-4.985.52-1.57 1.238-2.953 2.156-4.14a11.534 11.534 0 0 1 3.313-2.923c1.28-.75 2.687-1.195 4.218-1.343l.39 1.796a8.933 8.933 0 0 0-3.233 1.032 9.919 9.919 0 0 0-2.563 2.015 10.707 10.707 0 0 0-1.781 2.672 9.614 9.614 0 0 0-.875 2.953c.144-.238.363-.488.656-.75.29-.258.633-.488 1.031-.687.407-.196.852-.36 1.344-.485a6.24 6.24 0 0 1 1.61-.203c.988 0 1.874.137 2.656.406.789.274 1.457.657 2 1.157.55.492.972 1.086 1.265 1.781.29.7.438 1.48.438 2.344Zm-2.297.218c0-1.3-.367-2.296-1.094-2.984-.73-.695-1.851-1.047-3.36-1.047-.542 0-1.046.07-1.515.203-.469.125-.89.297-1.266.516-.367.21-.687.453-.968.734a3.444 3.444 0 0 0-.64.844 4.013 4.013 0 0 0-.063.625v.531c0 .555.093 1.118.28 1.688.188.574.47 1.086.845 1.531.382.45.867.813 1.453 1.094.582.273 1.265.406 2.047.406.632 0 1.21-.11 1.734-.328.52-.227.973-.523 1.36-.89.382-.376.675-.813.874-1.313a4.233 4.233 0 0 0 .313-1.61Zm0 0"/></symbol><symbol overflow="visible" id="Q"><path style="stroke:none" d="M7.172-1.625c.707 0 1.36-.086 1.953-.266.602-.175 1.113-.445 1.531-.812.414-.363.739-.817.969-1.36.238-.539.36-1.175.36-1.906 0-1.343-.485-2.363-1.454-3.062-.96-.696-2.265-1.047-3.922-1.047l-2.64.14v-9.656h9.61v2.016h-7.5v5.672l1.39-.047c2.07 0 3.707.508 4.906 1.515 1.195 1 1.797 2.438 1.797 4.313 0 1.043-.184 1.965-.547 2.766a5.898 5.898 0 0 1-1.5 2.03c-.637.556-1.39.97-2.266 1.25-.867.282-1.808.423-2.828.423a8.877 8.877 0 0 1-1.61-.14c-.5-.087-.96-.184-1.374-.298a10.181 10.181 0 0 1-1.078-.39c-.305-.145-.516-.274-.64-.391l.89-1.813c.32.188.804.415 1.453.672.656.262 1.488.391 2.5.391Zm0 0"/></symbol><symbol overflow="visible" id="S"><path style="stroke:none" d="M16.234-6.11h-3.78V0H10.28v-6.11H1.234v-1.624l9.375-11.86h1.844v11.64h3.781Zm-5.953-9.984-6.469 8.14h6.47Zm0 0"/></symbol><symbol overflow="visible" id="U"><path style="stroke:none" d="M6.938-1.594c.75 0 1.437-.097 2.062-.297a5.312 5.312 0 0 0 1.64-.828A3.774 3.774 0 0 0 11.735-4c.258-.508.391-1.07.391-1.688 0-1.28-.453-2.195-1.36-2.75-.906-.55-2.124-.828-3.656-.828H5.313v-1.343l5.53-6.97H2.47v-2.015H13.53v2.016L8.016-11.11h.437c.863 0 1.649.12 2.36.359.707.242 1.32.586 1.843 1.031.52.45.926.992 1.219 1.625.29.637.438 1.356.438 2.156 0 1.012-.2 1.907-.594 2.688a5.982 5.982 0 0 1-1.61 1.984c-.668.532-1.453.934-2.359 1.204a10 10 0 0 1-2.89.406C5.91.344 5.081.27 4.374.125a11.92 11.92 0 0 1-1.906-.516l.562-1.968c.477.23 1.047.418 1.703.562.657.137 1.391.203 2.204.203Zm0 0"/></symbol><symbol overflow="visible" id="ab"><path style="stroke:none" d="M14-14.64c0 1.718-.813 3.636-2.438 5.75-1.624 2.105-3.89 4.398-6.796 6.874h9.843V0H2.188v-2.016c.351-.332.835-.77 1.453-1.312.613-.54 1.273-1.14 1.984-1.797a69.049 69.049 0 0 0 2.172-2.14 23.998 23.998 0 0 0 2-2.36 13.522 13.522 0 0 0 1.453-2.422c.375-.8.563-1.57.563-2.312 0-1.125-.297-2.004-.891-2.641-.586-.645-1.465-.969-2.64-.969-1 0-1.852.117-2.548.344a6.198 6.198 0 0 0-1.875.969l-.953-1.547a9.237 9.237 0 0 1 2.672-1.313c.945-.28 1.984-.422 3.11-.422 1.75 0 3.07.481 3.968 1.438.895.95 1.344 2.234 1.344 3.86Zm0 0"/></symbol><symbol overflow="visible" id="ad"><path style="stroke:none" d="M3.563-2.016h4.39V-16.75L3.47-13.61l-1.094-1.593 6.172-4.39h1.562v17.577h4.313V0H3.562Zm0 0"/></symbol><symbol overflow="visible" id="C"><path style="stroke:none" d="m-5.906-4.016-6.657-2.421v-.047l6.657-2.375Zm-8.375-1.421L0 .125v-1.938l-4.297-1.609v-6.031L0-11.016v-2.109l-14.281 5.578Zm0 0"/></symbol><symbol overflow="visible" id="D"><path style="stroke:none" d="m0-5.938-10.344-3.78v1.78l8.625 2.813v.047l-8.625 2.89V-.28L0-4.125Zm0 0"/></symbol><symbol overflow="visible" id="E"><path style="stroke:none" d="M-.047-10.438c.176.293.266.7.266 1.22 0 .437-.121.788-.36 1.046-.25.262-.656.39-1.218.39.562.47.968 1.016 1.218 1.641.239.618.36 1.282.36 2 0 .47-.055.914-.157 1.329a3.02 3.02 0 0 1-.5 1.093 2.502 2.502 0 0 1-.89.735c-.363.18-.805.265-1.328.265-.594 0-1.07-.097-1.438-.297A2.52 2.52 0 0 1-5-1.796a3.556 3.556 0 0 1-.531-1.126c-.125-.426-.227-.86-.313-1.297-.093-.468-.16-.91-.203-1.328a7.684 7.684 0 0 0-.203-1.11c-.082-.32-.207-.577-.375-.765-.164-.187-.41-.281-.734-.281-.375 0-.672.074-.891.219a1.372 1.372 0 0 0-.516.53 2.151 2.151 0 0 0-.25.75c-.039.274-.062.54-.062.798 0 .73.137 1.336.406 1.812.274.48.79.742 1.547.781v1.688c-.633-.02-1.172-.148-1.61-.39a2.995 2.995 0 0 1-1.078-.954 4.123 4.123 0 0 1-.578-1.375 7.054 7.054 0 0 1-.187-1.656c0-.469.039-.93.11-1.39.062-.458.198-.876.405-1.25.2-.376.485-.672.86-.891.375-.227.867-.344 1.469-.344h5.312c.406 0 .703-.02.89-.063.18-.05.266-.21.266-.484 0-.144-.03-.316-.093-.515Zm-5.297 2.75c.168.22.29.508.36.86.074.344.136.703.187 1.078.043.375.094.762.156 1.156.055.387.149.735.282 1.047.136.305.328.555.578.75.242.188.574.281 1 .281.281 0 .523-.054.719-.171a1.52 1.52 0 0 0 .468-.438c.117-.188.2-.398.25-.64.055-.239.078-.489.078-.75 0-.563-.07-1.04-.218-1.438-.157-.406-.348-.734-.579-.984a2.495 2.495 0 0 0-.765-.563 1.819 1.819 0 0 0-.766-.188Zm0 0"/></symbol><symbol overflow="visible" id="F"><path style="stroke:none" d="M-12.203-3.078h-2.078v1.703h2.078Zm1.86 1.703H0v-1.703h-10.344Zm0 0"/></symbol><symbol overflow="visible" id="G"><path style="stroke:none" d="M-14.281-1.375H0v-1.703h-14.281Zm0 0"/></symbol><symbol overflow="visible" id="H"><path style="stroke:none" d="M-14.281-1.344H0v-1.703h-1.375v-.031c.305-.188.559-.414.766-.688.21-.28.375-.57.5-.875.113-.3.195-.609.25-.921a5.6 5.6 0 0 0 .078-.86c0-.781-.14-1.469-.422-2.062a4.269 4.269 0 0 0-1.14-1.485 4.803 4.803 0 0 0-1.72-.875 7.242 7.242 0 0 0-2.078-.297c-.726 0-1.421.102-2.078.297-.656.2-1.234.496-1.734.89-.5.4-.895.892-1.188 1.485-.289.594-.437 1.293-.437 2.094 0 .719.133 1.383.39 1.984.262.594.68 1.032 1.25 1.313v.031h-5.343Zm9.015-8c.512 0 1.008.059 1.485.172.48.106.906.277 1.281.516.375.242.68.558.906.953.219.387.328.875.328 1.469 0 .586-.109 1.086-.328 1.5a2.928 2.928 0 0 1-.86 1 3.785 3.785 0 0 1-1.25.578 6.201 6.201 0 0 1-1.483.172c-.477 0-.946-.051-1.407-.157a3.768 3.768 0 0 1-1.25-.546 2.834 2.834 0 0 1-.89-.985c-.227-.406-.344-.894-.344-1.469 0-.539.11-1.015.328-1.421.21-.415.496-.75.86-1a3.738 3.738 0 0 1 1.218-.579c.461-.132.93-.203 1.406-.203Zm0 0"/></symbol><symbol overflow="visible" id="I"><path style="stroke:none" d="M-6.156-8.453v5.937a3.49 3.49 0 0 1-1.125-.265 3.16 3.16 0 0 1-.938-.594 2.749 2.749 0 0 1-.625-.906 2.939 2.939 0 0 1-.234-1.203c0-.426.078-.817.234-1.172.149-.352.352-.657.61-.907a3.03 3.03 0 0 1 .937-.625 3.271 3.271 0 0 1 1.14-.265Zm2.875-1.64v1.671c.68.149 1.183.453 1.515.922.336.46.5 1.047.5 1.766 0 .554-.086 1.039-.265 1.453a2.91 2.91 0 0 1-.75 1.031c-.32.262-.688.453-1.094.578a4.194 4.194 0 0 1-1.281.156v-7.75a8.49 8.49 0 0 0-1.985.188 5.703 5.703 0 0 0-1.921.75A4.458 4.458 0 0 0-10-7.86c-.383.605-.578 1.367-.578 2.28 0 .712.137 1.36.406 1.954.262.594.633 1.11 1.11 1.547.48.43 1.046.762 1.703 1 .656.242 1.375.36 2.156.36a8.815 8.815 0 0 0 2.187-.345A4.664 4.664 0 0 0-1.296-2 4.3 4.3 0 0 0-.173-3.531c.258-.602.39-1.32.39-2.156 0-1.165-.288-2.133-.874-2.907-.594-.781-1.469-1.281-2.625-1.5Zm0 0"/></symbol><symbol overflow="visible" id="V"><path style="stroke:none" d="M-7.14-2.656a8.163 8.163 0 0 1-2.126-.281 5.898 5.898 0 0 1-1.89-.876A4.509 4.509 0 0 1-12.5-5.359c-.344-.625-.516-1.368-.516-2.235 0-.875.172-1.625.516-2.25a4.387 4.387 0 0 1 1.344-1.531 5.768 5.768 0 0 1 1.89-.89 8.163 8.163 0 0 1 2.125-.282c.72 0 1.434.094 2.141.281.7.188 1.328.485 1.89.891.555.398 1 .906 1.344 1.531.336.625.5 1.375.5 2.25 0 .867-.164 1.61-.5 2.235a4.68 4.68 0 0 1-1.343 1.546A5.86 5.86 0 0 1-5-2.937a8.325 8.325 0 0 1-2.14.28Zm0 1.89c.968 0 1.906-.14 2.812-.421a7.16 7.16 0 0 0 2.39-1.297A6.185 6.185 0 0 0-.296-4.625c.406-.852.61-1.844.61-2.969 0-1.133-.204-2.129-.61-2.984a6.259 6.259 0 0 0-1.64-2.14c-.696-.571-1.493-1-2.391-1.282a9.202 9.202 0 0 0-5.61 0 6.913 6.913 0 0 0-2.39 1.281A6.389 6.389 0 0 0-14-10.579c-.414.856-.625 1.852-.625 2.985 0 1.125.21 2.117.625 2.969.418.855.977 1.57 1.672 2.14a7.011 7.011 0 0 0 2.39 1.297 9.294 9.294 0 0 0 2.797.422Zm0 0"/></symbol><symbol overflow="visible" id="W"><path style="stroke:none" d="M-7.016-8.297v-1.765c-.613.074-1.144.234-1.593.484-.446.25-.817.574-1.11.969-.289.398-.504.851-.64 1.359a6.064 6.064 0 0 0-.22 1.656c0 .813.15 1.528.438 2.14a4.327 4.327 0 0 0 1.172 1.532c.5.406 1.09.711 1.766.906.668.2 1.387.297 2.156.297.781 0 1.496-.101 2.14-.312a4.698 4.698 0 0 0 1.673-.922c.46-.406.82-.91 1.078-1.516.25-.601.375-1.3.375-2.094 0-1.32-.344-2.363-1.032-3.125-.695-.769-1.687-1.25-2.968-1.437v1.75c.804.105 1.422.398 1.86.875.437.469.655 1.121.655 1.953 0 .543-.101 1.008-.312 1.39-.219.387-.5.7-.844.938a3.692 3.692 0 0 1-1.203.531c-.457.118-.93.172-1.422.172-.508 0-1.008-.05-1.5-.156a4.063 4.063 0 0 1-1.297-.531 2.703 2.703 0 0 1-.89-.985c-.227-.414-.344-.93-.344-1.546 0-.72.183-1.29.547-1.72.355-.425.86-.706 1.515-.843Zm0 0"/></symbol><symbol overflow="visible" id="X"><path style="stroke:none" d="M0-9.844h-10.344v1.703H-4.5c.469 0 .902.063 1.297.188.387.125.73.32 1.031.578.293.25.516.57.672.953.156.375.234.824.234 1.344 0 .656-.18 1.172-.546 1.547-.375.367-.883.547-1.532.547h-7v1.703h6.797c.563 0 1.078-.055 1.547-.172.46-.113.855-.305 1.188-.578.335-.281.59-.645.765-1.094C.13-3.582.22-4.156.22-4.844c0-.758-.153-1.414-.453-1.968-.301-.563-.77-1.024-1.407-1.391v-.031H0Zm0 0"/></symbol><symbol overflow="visible" id="Y"><path style="stroke:none" d="M-10.344-1.344H3.937v-1.703h-5.312v-.031c.305-.188.559-.414.766-.688.21-.28.375-.57.5-.875.113-.3.195-.609.25-.921a5.6 5.6 0 0 0 .078-.86c0-.781-.14-1.469-.422-2.062a4.269 4.269 0 0 0-1.14-1.485 4.803 4.803 0 0 0-1.72-.875 7.242 7.242 0 0 0-2.078-.297c-.726 0-1.421.102-2.078.297-.656.2-1.234.496-1.734.89-.5.4-.895.892-1.188 1.485-.289.594-.437 1.293-.437 2.094 0 .719.133 1.383.39 1.984.262.594.68 1.032 1.25 1.313v.031h-1.406Zm5.078-8c.512 0 1.008.059 1.485.172.48.106.906.277 1.281.516.375.242.68.558.906.953.219.387.328.875.328 1.469 0 .586-.109 1.086-.328 1.5a2.928 2.928 0 0 1-.86 1 3.785 3.785 0 0 1-1.25.578 6.201 6.201 0 0 1-1.483.172c-.477 0-.946-.051-1.407-.157a3.768 3.768 0 0 1-1.25-.546 2.834 2.834 0 0 1-.89-.985c-.227-.406-.344-.894-.344-1.469 0-.539.11-1.015.328-1.421.21-.415.496-.75.86-1a3.738 3.738 0 0 1 1.218-.579c.461-.132.93-.203 1.406-.203Zm0 0"/></symbol><symbol overflow="visible" id="Z"><path style="stroke:none" d="M-5.078-2.516c-.508 0-1.004-.05-1.484-.156a4.087 4.087 0 0 1-1.282-.531 2.58 2.58 0 0 1-.89-.953c-.227-.407-.344-.895-.344-1.469 0-.582.11-1.078.328-1.484.219-.414.512-.754.875-1.016a3.55 3.55 0 0 1 1.25-.563c.469-.124.96-.187 1.469-.187.48 0 .953.059 1.422.172.46.105.875.289 1.25.547.367.25.664.578.89.984.219.399.328.883.328 1.453 0 .543-.101 1.016-.312 1.422a2.928 2.928 0 0 1-.86 1c-.363.262-.773.461-1.234.594a5.306 5.306 0 0 1-1.406.187Zm5.078-8h-14.281v1.704h5.328v.03c-.313.188-.57.419-.781.688a3.753 3.753 0 0 0-.5.875c-.125.305-.211.61-.266.922a5.24 5.24 0 0 0-.078.86c0 .78.148 1.468.437 2.062.282.594.668 1.09 1.157 1.484.48.399 1.046.696 1.703.891a7.543 7.543 0 0 0 2.078.281c.742 0 1.437-.097 2.094-.297a5.07 5.07 0 0 0 1.718-.89c.493-.395.883-.89 1.172-1.485.29-.593.438-1.289.438-2.093 0-.72-.125-1.375-.375-1.97a2.549 2.549 0 0 0-1.25-1.327v-.031H0Zm0 0"/></symbol><symbol overflow="visible" id="ai"><path style="stroke:none" d="M5.188-11.156v-7.86h5.578c1.625 0 2.812.336 3.562 1 .75.668 1.125 1.641 1.125 2.922 0 1.281-.375 2.266-1.125 2.953-.75.68-1.937 1.008-3.562.985ZM2.344-21.422V0h2.844v-8.766h6.546c2.157.024 3.786-.523 4.891-1.64 1.113-1.125 1.672-2.688 1.672-4.688 0-2-.559-3.55-1.672-4.656-1.105-1.113-2.734-1.672-4.89-1.672Zm0 0"/></symbol><symbol overflow="visible" id="aj"><path style="stroke:none" d="M1.828-15.516V0h2.547v-6.906c0-1 .098-1.88.297-2.64.207-.77.531-1.427.969-1.97.437-.539 1.015-.953 1.734-1.234.719-.281 1.586-.422 2.61-.422v-2.703c-1.376-.04-2.516.242-3.422.844-.899.605-1.653 1.539-2.266 2.797h-.063v-3.282Zm0 0"/></symbol><symbol overflow="visible" id="ak"><path style="stroke:none" d="M3.781-7.734c0-.946.125-1.786.375-2.516.25-.727.594-1.344 1.032-1.844a4.38 4.38 0 0 1 1.546-1.14 4.661 4.661 0 0 1 1.875-.391c.657 0 1.282.133 1.875.39a4.38 4.38 0 0 1 1.547 1.141c.438.5.781 1.117 1.031 1.844.25.73.376 1.57.376 2.516 0 .937-.126 1.773-.376 2.5-.25.73-.593 1.34-1.03 1.828a4.386 4.386 0 0 1-1.548 1.125 4.596 4.596 0 0 1-1.875.39 4.596 4.596 0 0 1-1.875-.39 4.386 4.386 0 0 1-1.546-1.125c-.438-.489-.782-1.098-1.032-1.828-.25-.727-.375-1.563-.375-2.5Zm-2.703 0c0 1.136.16 2.195.484 3.171C1.883-3.582 2.364-2.726 3-2A6.607 6.607 0 0 0 5.36-.281c.945.406 2.03.61 3.25.61 1.238 0 2.32-.204 3.25-.61A6.642 6.642 0 0 0 14.218-2a7.03 7.03 0 0 0 1.437-2.563c.32-.976.485-2.035.485-3.171 0-1.145-.164-2.211-.485-3.204a7.065 7.065 0 0 0-1.437-2.578 6.737 6.737 0 0 0-2.36-1.718c-.93-.426-2.011-.641-3.25-.641-1.218 0-2.304.215-3.25.64A6.702 6.702 0 0 0 3-13.514a7.3 7.3 0 0 0-1.438 2.578c-.324.992-.484 2.058-.484 3.203Zm0 0"/></symbol><symbol overflow="visible" id="al"><path style="stroke:none" d="M12.453-10.531h2.64c-.105-.914-.35-1.707-.734-2.375a5.148 5.148 0 0 0-1.453-1.672 6.004 6.004 0 0 0-2.031-.969 9.02 9.02 0 0 0-2.469-.328c-1.23 0-2.304.219-3.219.656a6.445 6.445 0 0 0-2.296 1.766c-.606.75-1.059 1.633-1.36 2.64-.304 1.012-.453 2.094-.453 3.25 0 1.168.156 2.235.469 3.204.312.968.77 1.804 1.375 2.5A6.193 6.193 0 0 0 5.203-.234c.906.375 1.953.562 3.14.562 1.977 0 3.54-.52 4.688-1.562 1.156-1.04 1.875-2.52 2.156-4.438h-2.624c-.157 1.2-.59 2.133-1.297 2.797-.711.656-1.696.984-2.954.984-.804 0-1.496-.156-2.078-.468a4.104 4.104 0 0 1-1.406-1.282 5.866 5.866 0 0 1-.797-1.812 8.854 8.854 0 0 1-.25-2.11c0-.78.078-1.535.235-2.265.164-.727.43-1.367.796-1.922a4.217 4.217 0 0 1 1.485-1.36c.625-.343 1.394-.515 2.312-.515 1.082 0 1.942.273 2.579.813.644.542 1.066 1.304 1.265 2.28Zm0 0"/></symbol><symbol overflow="visible" id="am"><path style="stroke:none" d="M12.688-9.234H3.78c.04-.602.172-1.172.39-1.704a4.51 4.51 0 0 1 .891-1.39 4.116 4.116 0 0 1 1.375-.953 4.498 4.498 0 0 1 1.782-.344c.644 0 1.226.117 1.75.344.531.23.988.543 1.375.937.394.387.707.852.937 1.39.227.544.364 1.118.406 1.72Zm2.468 4.312h-2.531c-.219 1.024-.672 1.781-1.36 2.281-.687.5-1.574.75-2.656.75-.843 0-1.578-.14-2.203-.421a4.243 4.243 0 0 1-1.515-1.126 4.51 4.51 0 0 1-.875-1.609 6.094 6.094 0 0 1-.235-1.937h11.61c.039-.946-.047-1.938-.266-2.97-.21-1.038-.59-2-1.14-2.874a6.727 6.727 0 0 0-2.188-2.188c-.906-.57-2.047-.859-3.422-.859-1.063 0-2.043.203-2.938.61a6.952 6.952 0 0 0-2.312 1.671c-.648.719-1.152 1.574-1.516 2.563-.355.98-.53 2.058-.53 3.234.038 1.18.21 2.266.515 3.266.312 1 .781 1.86 1.406 2.578A6.55 6.55 0 0 0 5.297-.266c.906.395 1.976.594 3.219.594 1.757 0 3.218-.437 4.375-1.312 1.164-.883 1.921-2.196 2.265-3.938Zm0 0"/></symbol><symbol overflow="visible" id="an"><path style="stroke:none" d="M3.484-4.89H.938c.03.96.222 1.777.578 2.452.363.668.847 1.211 1.453 1.626.601.406 1.289.699 2.062.875.782.175 1.602.265 2.469.265.781 0 1.566-.078 2.36-.234.788-.145 1.5-.406 2.124-.781a4.573 4.573 0 0 0 1.532-1.5c.382-.626.578-1.407.578-2.344 0-.739-.149-1.36-.438-1.86-.281-.5-.664-.91-1.14-1.234a6 6 0 0 0-1.625-.797 16.548 16.548 0 0 0-1.86-.515 63.18 63.18 0 0 0-1.812-.407 10.927 10.927 0 0 1-1.61-.484c-.48-.188-.875-.426-1.187-.719a1.43 1.43 0 0 1-.469-1.094c0-.394.098-.718.297-.968.207-.25.469-.446.781-.594.32-.156.676-.266 1.063-.328a7.48 7.48 0 0 1 1.172-.094c.414 0 .828.047 1.234.14.414.094.79.243 1.125.438.344.2.625.465.844.797.219.324.347.734.39 1.234h2.547c-.062-.937-.265-1.718-.61-2.343a3.945 3.945 0 0 0-1.358-1.5c-.563-.375-1.215-.633-1.954-.782a11.842 11.842 0 0 0-2.437-.234c-.68 0-1.367.09-2.063.266a6.14 6.14 0 0 0-1.859.78 4.255 4.255 0 0 0-1.344 1.36c-.343.563-.515 1.235-.515 2.016 0 1 .25 1.781.75 2.344.5.554 1.125.984 1.875 1.296.75.313 1.562.555 2.437.72.883.167 1.703.359 2.453.577.75.211 1.375.485 1.875.829.5.335.75.828.75 1.484 0 .48-.12.875-.36 1.187a2.33 2.33 0 0 1-.921.72 4.99 4.99 0 0 1-1.219.327c-.437.055-.855.078-1.25.078a8.012 8.012 0 0 1-1.515-.14 4.356 4.356 0 0 1-1.329-.5 2.681 2.681 0 0 1-.937-.922c-.242-.395-.371-.875-.39-1.438Zm0 0"/></symbol><symbol overflow="visible" id="ap"><path style="stroke:none" d="M2.063-21.422V0h2.562v-21.422Zm0 0"/></symbol><clipPath id="e"><path d="M110 80h158v69H110Zm0 0"/></clipPath><clipPath id="f"><path d="M124.398 80h129.204C261.555 80 268 86.445 268 94.398v40.204c0 7.953-6.445 14.398-14.398 14.398H124.398c-7.953 0-14.398-6.445-14.398-14.398V94.398C110 86.445 116.445 80 124.398 80Zm0 0"/></clipPath><clipPath id="b"><path d="M14.398 0h129.204C151.555 0 158 6.445 158 14.398v40.204C158 62.555 151.555 69 143.602 69H14.398C6.445 69 0 62.555 0 54.602V14.398C0 6.445 6.445 0 14.398 0Zm0 0"/></clipPath><clipPath id="a"><path d="M0 0h158v69H0z"/></clipPath><clipPath id="l"><path d="M366 41h501v146H366Zm0 0"/></clipPath><clipPath id="m"><path d="M616.5 187c138.348 0 250.5-32.684 250.5-73S754.848 41 616.5 41 366 73.684 366 114s112.152 73 250.5 73Zm0 0"/></clipPath><clipPath id="d"><path d="M250.5 146C388.848 146 501 113.316 501 73S388.848 0 250.5 0 0 32.684 0 73s112.152 73 250.5 73Zm0 0"/></clipPath><clipPath id="c"><path d="M0 0h501v146H0z"/></clipPath><clipPath id="y"><path d="M110 239h1013v239H110Zm0 0"/></clipPath><clipPath id="z"><path d="M994 257h76v169h-76Zm0 0"/></clipPath><clipPath id="J"><path d="M890 257h76v169h-76Zm0 0"/></clipPath><clipPath id="L"><path d="M786 257h76v169h-76Zm0 0"/></clipPath><clipPath id="N"><path d="M682 257h76v169h-76Zm0 0"/></clipPath><clipPath id="P"><path d="M578 257h76v169h-76Zm0 0"/></clipPath><clipPath id="R"><path d="M474 257h76v169h-76Zm0 0"/></clipPath><clipPath id="T"><path d="M370 257h76v169h-76Zm0 0"/></clipPath><clipPath id="aa"><path d="M266 257h76v169h-76Zm0 0"/></clipPath><clipPath id="ac"><path d="M162 257h76v169h-76Zm0 0"/></clipPath><clipPath id="ae"><path d="M265 105h102v19H265Zm0 0"/></clipPath><clipPath id="af"><path d="m348 105 19 9.5-19 9.5v-8h-83v-3h83Zm0 0"/></clipPath><clipPath id="ag"><path d="M512 185h103v55H512Zm0 0"/></clipPath><clipPath id="ah"><path d="m613.14 185.477 1.383 2.664-1.332.691-83.586 43.465 3.692 7.098-21.242.335 12.476-17.195 3.692 7.098 83.586-43.465Zm0 0"/></clipPath><g clip-path="url(#a)"><g clip-path="url(#b)" clip-rule="evenodd" id="g"><path style="fill:#fdba74;fill-opacity:1;stroke:none" d="M0 0h158v69H0z"/><path style="fill:none;stroke-width:10;stroke-linecap:butt;stroke-linejoin:miter;stroke:#3f3f46;stroke-opacity:1;stroke-miterlimit:5" d="M14.398 0h129.204C151.555 0 158 6.445 158 14.398v40.204C158 62.555 151.555 69 143.602 69H14.398C6.445 69 0 62.555 0 54.602V14.398C0 6.445 6.445 0 14.398 0Zm0 0"/></g></g><g clip-path="url(#c)"><g clip-path="url(#d)" clip-rule="evenodd" id="n"><path style="fill:#86efac;fill-opacity:1;stroke:none" d="M0 0h501v146H0z"/><path style="fill:none;stroke-width:10;stroke-linecap:butt;stroke-linejoin:miter;stroke:#3f3f46;stroke-opacity:1;stroke-miterlimit:5" d="M250.5 146C388.848 146 501 113.316 501 73S388.848 0 250.5 0 0 32.684 0 73s112.152 73 250.5 73Zm0 0"/></g></g></defs><g clip-path="url(#e)"><g clip-path="url(#f)" clip-rule="evenodd"><use xlink:href="#g" transform="translate(110 80)"/></g></g><g style="fill:#000;fill-opacity:1"><use xlink:href="#h" x="146.161" y="126.34"/><use xlink:href="#i" x="167.761" y="126.34"/><use xlink:href="#j" x="189.361" y="126.34"/><use xlink:href="#k" x="210.961" y="126.34"/></g><g clip-path="url(#l)"><g clip-path="url(#m)" clip-rule="evenodd"><use xlink:href="#n" transform="translate(366 41)"/></g></g><g style="fill:#000;fill-opacity:1"><use xlink:href="#o" x="437" y="130"/><use xlink:href="#p" x="467" y="130"/><use xlink:href="#p" x="497" y="130"/><use xlink:href="#q" x="527" y="130"/><use xlink:href="#r" x="557" y="130"/><use xlink:href="#s" x="587" y="130"/><use xlink:href="#t" x="617" y="130"/><use xlink:href="#u" x="647" y="130"/><use xlink:href="#t" x="677" y="130"/><use xlink:href="#v" x="707" y="130"/><use xlink:href="#w" x="737" y="130"/><use xlink:href="#x" x="767" y="130"/></g><g clip-path="url(#y)"><path style="fill:none;stroke-width:10;stroke-linecap:butt;stroke-linejoin:miter;stroke:#334155;stroke-opacity:1;stroke-miterlimit:5" d="M0 0h1013v239H0Zm0 0" transform="translate(110 239)"/></g><g clip-path="url(#z)"><path style="stroke:none;fill-rule:nonzero;fill:#93c5fd;fill-opacity:1" d="M993 256h78v171h-78Zm0 0"/><path style="fill:none;stroke-width:10;stroke-linecap:butt;stroke-linejoin:miter;stroke:#334155;stroke-opacity:1;stroke-miterlimit:5" d="M0 0h76v169H0Zm0 0" transform="translate(994 257)"/></g><g style="fill:#000;fill-opacity:1"><use xlink:href="#A" x="1015.2" y="459"/><use xlink:href="#B" x="1032" y="459"/></g><use xlink:href="#C" x="1039.5" y="381.5" style="fill:#000;fill-opacity:1"/><g style="fill:#000;fill-opacity:1"><use xlink:href="#D" x="1039.5" y="368.9"/><use xlink:href="#E" x="1039.5" y="358.9"/><use xlink:href="#F" x="1039.5" y="348.16"/><use xlink:href="#G" x="1039.5" y="343.72"/><use xlink:href="#E" x="1039.5" y="339.28"/><use xlink:href="#H" x="1039.5" y="328.54"/><use xlink:href="#G" x="1039.5" y="316.68"/><use xlink:href="#I" x="1039.5" y="312.24"/></g><g clip-path="url(#J)"><path style="stroke:none;fill-rule:nonzero;fill:#93c5fd;fill-opacity:1" d="M889 256h78v171h-78Zm0 0"/><path style="fill:none;stroke-width:10;stroke-linecap:butt;stroke-linejoin:miter;stroke:#334155;stroke-opacity:1;stroke-miterlimit:5" d="M0 0h76v169H0Zm0 0" transform="translate(890 257)"/></g><g style="fill:#000;fill-opacity:1"><use xlink:href="#A" x="911.2" y="459"/><use xlink:href="#K" x="928" y="459"/></g><use xlink:href="#C" x="935.5" y="381.5" style="fill:#000;fill-opacity:1"/><g style="fill:#000;fill-opacity:1"><use xlink:href="#D" x="935.5" y="368.9"/><use xlink:href="#E" x="935.5" y="358.9"/><use xlink:href="#F" x="935.5" y="348.16"/><use xlink:href="#G" x="935.5" y="343.72"/><use xlink:href="#E" x="935.5" y="339.28"/><use xlink:href="#H" x="935.5" y="328.54"/><use xlink:href="#G" x="935.5" y="316.68"/><use xlink:href="#I" x="935.5" y="312.24"/></g><g clip-path="url(#L)"><path style="stroke:none;fill-rule:nonzero;fill:#93c5fd;fill-opacity:1" d="M785 256h78v171h-78Zm0 0"/><path style="fill:none;stroke-width:10;stroke-linecap:butt;stroke-linejoin:miter;stroke:#334155;stroke-opacity:1;stroke-miterlimit:5" d="M0 0h76v169H0Zm0 0" transform="translate(786 257)"/></g><g style="fill:#000;fill-opacity:1"><use xlink:href="#A" x="807.2" y="459"/><use xlink:href="#M" x="824" y="459"/></g><use xlink:href="#C" x="831.5" y="381.5" style="fill:#000;fill-opacity:1"/><g style="fill:#000;fill-opacity:1"><use xlink:href="#D" x="831.5" y="368.9"/><use xlink:href="#E" x="831.5" y="358.9"/><use xlink:href="#F" x="831.5" y="348.16"/><use xlink:href="#G" x="831.5" y="343.72"/><use xlink:href="#E" x="831.5" y="339.28"/><use xlink:href="#H" x="831.5" y="328.54"/><use xlink:href="#G" x="831.5" y="316.68"/><use xlink:href="#I" x="831.5" y="312.24"/></g><g clip-path="url(#N)"><path style="stroke:none;fill-rule:nonzero;fill:#93c5fd;fill-opacity:1" d="M681 256h78v171h-78Zm0 0"/><path style="fill:none;stroke-width:10;stroke-linecap:butt;stroke-linejoin:miter;stroke:#334155;stroke-opacity:1;stroke-miterlimit:5" d="M0 0h76v169H0Zm0 0" transform="translate(682 257)"/></g><g style="fill:#000;fill-opacity:1"><use xlink:href="#A" x="703.2" y="459"/><use xlink:href="#O" x="720" y="459"/></g><use xlink:href="#C" x="727.5" y="381.5" style="fill:#000;fill-opacity:1"/><g style="fill:#000;fill-opacity:1"><use xlink:href="#D" x="727.5" y="368.9"/><use xlink:href="#E" x="727.5" y="358.9"/><use xlink:href="#F" x="727.5" y="348.16"/><use xlink:href="#G" x="727.5" y="343.72"/><use xlink:href="#E" x="727.5" y="339.28"/><use xlink:href="#H" x="727.5" y="328.54"/><use xlink:href="#G" x="727.5" y="316.68"/><use xlink:href="#I" x="727.5" y="312.24"/></g><g clip-path="url(#P)"><path style="stroke:none;fill-rule:nonzero;fill:#93c5fd;fill-opacity:1" d="M577 256h78v171h-78Zm0 0"/><path style="fill:none;stroke-width:10;stroke-linecap:butt;stroke-linejoin:miter;stroke:#334155;stroke-opacity:1;stroke-miterlimit:5" d="M0 0h76v169H0Zm0 0" transform="translate(578 257)"/></g><g style="fill:#000;fill-opacity:1"><use xlink:href="#A" x="599.2" y="459"/><use xlink:href="#Q" x="616" y="459"/></g><use xlink:href="#C" x="623.5" y="381.5" style="fill:#000;fill-opacity:1"/><g style="fill:#000;fill-opacity:1"><use xlink:href="#D" x="623.5" y="368.9"/><use xlink:href="#E" x="623.5" y="358.9"/><use xlink:href="#F" x="623.5" y="348.16"/><use xlink:href="#G" x="623.5" y="343.72"/><use xlink:href="#E" x="623.5" y="339.28"/><use xlink:href="#H" x="623.5" y="328.54"/><use xlink:href="#G" x="623.5" y="316.68"/><use xlink:href="#I" x="623.5" y="312.24"/></g><g clip-path="url(#R)"><path style="stroke:none;fill-rule:nonzero;fill:#93c5fd;fill-opacity:1" d="M473 256h78v171h-78Zm0 0"/><path style="fill:none;stroke-width:10;stroke-linecap:butt;stroke-linejoin:miter;stroke:#334155;stroke-opacity:1;stroke-miterlimit:5" d="M0 0h76v169H0Zm0 0" transform="translate(474 257)"/></g><g style="fill:#000;fill-opacity:1"><use xlink:href="#A" x="495.2" y="459"/><use xlink:href="#S" x="512" y="459"/></g><use xlink:href="#C" x="519.5" y="381.5" style="fill:#000;fill-opacity:1"/><g style="fill:#000;fill-opacity:1"><use xlink:href="#D" x="519.5" y="368.9"/><use xlink:href="#E" x="519.5" y="358.9"/><use xlink:href="#F" x="519.5" y="348.16"/><use xlink:href="#G" x="519.5" y="343.72"/><use xlink:href="#E" x="519.5" y="339.28"/><use xlink:href="#H" x="519.5" y="328.54"/><use xlink:href="#G" x="519.5" y="316.68"/><use xlink:href="#I" x="519.5" y="312.24"/></g><g clip-path="url(#T)"><path style="stroke:none;fill-rule:nonzero;fill:#fca5a5;fill-opacity:1" d="M369 256h78v171h-78Zm0 0"/><path style="fill:none;stroke-width:10;stroke-linecap:butt;stroke-linejoin:miter;stroke:#334155;stroke-opacity:1;stroke-miterlimit:5" d="M0 0h76v169H0Zm0 0" transform="translate(370 257)"/></g><g style="fill:#000;fill-opacity:1"><use xlink:href="#A" x="391.2" y="459"/><use xlink:href="#U" x="408" y="459"/></g><g style="fill:#000;fill-opacity:1"><use xlink:href="#V" x="415" y="384.85"/><use xlink:href="#W" x="415" y="369.65"/><use xlink:href="#W" x="415" y="358.91"/><use xlink:href="#X" x="415" y="348.17"/><use xlink:href="#Y" x="415" y="337.05"/><use xlink:href="#F" x="415" y="325.19"/><use xlink:href="#I" x="415" y="320.75"/><use xlink:href="#Z" x="415" y="310.01"/></g><g clip-path="url(#aa)"><path style="stroke:none;fill-rule:nonzero;fill:#fca5a5;fill-opacity:1" d="M265 256h78v171h-78Zm0 0"/><path style="fill:none;stroke-width:10;stroke-linecap:butt;stroke-linejoin:miter;stroke:#334155;stroke-opacity:1;stroke-miterlimit:5" d="M0 0h76v169H0Zm0 0" transform="translate(266 257)"/></g><g style="fill:#000;fill-opacity:1"><use xlink:href="#A" x="287.2" y="459"/><use xlink:href="#ab" x="304" y="459"/></g><g style="fill:#000;fill-opacity:1"><use xlink:href="#V" x="311" y="384.85"/><use xlink:href="#W" x="311" y="369.65"/><use xlink:href="#W" x="311" y="358.91"/><use xlink:href="#X" x="311" y="348.17"/><use xlink:href="#Y" x="311" y="337.05"/><use xlink:href="#F" x="311" y="325.19"/><use xlink:href="#I" x="311" y="320.75"/><use xlink:href="#Z" x="311" y="310.01"/></g><g clip-path="url(#ac)"><path style="stroke:none;fill-rule:nonzero;fill:#fca5a5;fill-opacity:1" d="M161 256h78v171h-78Zm0 0"/><path style="fill:none;stroke-width:10;stroke-linecap:butt;stroke-linejoin:miter;stroke:#334155;stroke-opacity:1;stroke-miterlimit:5" d="M0 0h76v169H0Zm0 0" transform="translate(162 257)"/></g><g style="fill:#000;fill-opacity:1"><use xlink:href="#A" x="183.2" y="459"/><use xlink:href="#ad" x="200" y="459"/></g><g style="fill:#000;fill-opacity:1"><use xlink:href="#V" x="207" y="384.85"/><use xlink:href="#W" x="207" y="369.65"/><use xlink:href="#W" x="207" y="358.91"/><use xlink:href="#X" x="207" y="348.17"/><use xlink:href="#Y" x="207" y="337.05"/><use xlink:href="#F" x="207" y="325.19"/><use xlink:href="#I" x="207" y="320.75"/><use xlink:href="#Z" x="207" y="310.01"/></g><g clip-path="url(#ae)"><g clip-path="url(#af)" clip-rule="evenodd"><path style="stroke:none;fill-rule:nonzero;fill:#000;fill-opacity:1" d="M264 104h104v21H264Zm0 0"/></g></g><g clip-path="url(#ag)"><g clip-path="url(#ah)" clip-rule="evenodd"><path style="stroke:none;fill-rule:nonzero;fill:#000;fill-opacity:1" d="M511.055 184.477h104.468v56.253H511.055Zm0 0"/></g></g><g style="fill:#000;fill-opacity:1"><use xlink:href="#ai" x="945.395" y="520"/><use xlink:href="#aj" x="964.835" y="520"/></g><g style="fill:#000;fill-opacity:1"><use xlink:href="#ak" x="974.285" y="520"/><use xlink:href="#al" x="991.505" y="520"/><use xlink:href="#am" x="1007.615" y="520"/><use xlink:href="#an" x="1023.725" y="520"/><use xlink:href="#an" x="1038.725" y="520"/><use xlink:href="#ao" x="1053.725" y="520"/><use xlink:href="#ai" x="1062.065" y="520"/><use xlink:href="#ak" x="1081.505" y="520"/><use xlink:href="#ak" x="1098.725" y="520"/><use xlink:href="#ap" x="1115.945" y="520"/></g></svg>