<?xml version="1.0" standalone="no"?>
<!DOCTYPE svg PUBLIC "-//W3C//DTD SVG 20010904//EN"
 "http://www.w3.org/TR/2001/REC-SVG-20010904/DTD/svg10.dtd">
<svg version="1.0" xmlns="http://www.w3.org/2000/svg"
 width="470.000000pt" height="470.000000pt" viewBox="0 0 470.000000 470.000000"
 preserveAspectRatio="xMidYMid meet">
<metadata>
Created by potrace 1.11, written by Peter Selinger 2001-2013
</metadata>
<g transform="translate(0.000000,470.000000) scale(0.100000,-0.100000)"
fill="#000000" stroke="none">
<path d="M2376 4393 c-4 -5 -11 -8 -16 -8 -4 0 -23 -12 -42 -27 -88 -73 -146
-115 -179 -130 -19 -10 -56 -35 -81 -58 -39 -34 -53 -40 -90 -40 -25 0 -47 -3
-51 -6 -3 -3 -32 -7 -64 -9 -105 -5 -153 -16 -231 -53 -19 -9 -39 -17 -45 -18
-7 -1 -30 -10 -52 -20 -22 -10 -43 -17 -47 -16 -5 1 -8 -2 -8 -6 0 -4 -17 -14
-37 -21 -21 -8 -40 -17 -43 -20 -3 -4 -25 -15 -49 -26 -42 -18 -181 -147 -190
-176 -3 -8 -7 -41 -9 -73 -3 -48 -9 -63 -28 -79 -13 -10 -24 -27 -24 -38 0
-11 -5 -30 -12 -42 -16 -30 -17 -186 -1 -217 7 -14 13 -32 13 -41 0 -9 3 -19
8 -23 4 -4 8 -12 8 -17 1 -5 3 -11 4 -14 8 -16 4 -33 -12 -54 -10 -13 -18 -31
-18 -41 0 -9 -3 -20 -7 -24 -4 -4 -8 -19 -9 -34 -1 -15 -3 -27 -4 -27 -1 0 -3
-39 -4 -87 -2 -49 2 -88 6 -88 5 0 7 -4 3 -9 -3 -5 -1 -12 3 -15 11 -7 14
-124 4 -130 -4 -2 -6 -42 -5 -88 2 -46 5 -162 8 -259 l5 -175 -40 -2 c-42 -3
-75 -26 -74 -52 0 -8 -6 -24 -13 -35 -10 -15 -13 -78 -13 -252 0 -128 4 -233
9 -233 8 0 7 -20 -5 -72 -5 -24 -3 -28 22 -34 16 -4 39 -14 51 -21 12 -8 27
-12 33 -8 23 14 40 -17 40 -71 0 -29 4 -55 8 -58 4 -2 7 -25 6 -50 -1 -25 1
-46 5 -46 4 0 7 -15 8 -32 1 -18 9 -62 18 -98 9 -36 18 -69 19 -75 1 -5 5 -16
10 -23 4 -7 6 -16 2 -19 -3 -3 1 -12 9 -20 8 -8 15 -23 15 -34 0 -11 11 -37
25 -59 14 -22 25 -44 25 -49 0 -5 7 -11 15 -15 8 -3 15 -10 15 -16 0 -14 27
-45 140 -157 133 -133 166 -163 177 -163 5 0 18 -8 29 -18 30 -27 72 -52 88
-52 8 0 19 -6 23 -14 4 -7 26 -19 48 -26 22 -7 45 -17 52 -22 7 -5 17 -7 22
-4 5 4 12 2 16 -4 4 -6 10 -8 15 -5 5 3 11 1 15 -5 3 -5 17 -10 31 -10 13 0
24 -3 24 -8 0 -4 27 -7 60 -6 33 1 60 -3 60 -7 0 -5 41 -9 90 -9 50 0 90 4 90
9 0 4 21 8 46 7 25 -1 48 2 50 6 3 5 16 8 30 8 13 0 24 4 24 9 0 5 9 7 19 4
10 -3 31 3 45 12 15 10 29 15 33 11 4 -3 17 1 30 10 14 8 34 17 46 19 11 3 23
8 26 12 3 5 39 24 79 43 40 19 80 42 89 52 8 10 20 15 24 12 5 -3 9 -1 9 4 0
5 8 12 18 15 24 8 70 38 102 67 15 14 41 37 58 52 17 14 28 28 26 31 -3 2 11
19 31 36 20 17 41 45 47 61 5 17 14 30 19 30 5 0 9 5 9 10 0 6 11 28 25 50 14
22 22 40 18 40 -5 0 0 5 10 11 9 5 17 18 17 28 0 10 7 24 15 31 9 7 14 19 11
27 -3 7 -1 13 4 13 6 0 10 6 10 14 0 7 9 25 20 39 11 14 20 32 20 41 0 9 5 16
10 16 6 0 10 6 10 14 0 23 33 75 50 79 8 1 27 -2 43 -7 22 -9 35 -6 72 14 43
23 57 40 35 40 -14 0 -12 16 3 32 7 7 14 16 15 20 7 24 15 46 25 68 6 14 9 31
8 37 -1 7 3 13 10 13 6 0 9 7 5 15 -3 8 -1 15 3 15 5 0 12 18 16 40 4 25 12
40 21 40 9 0 13 4 9 9 -3 5 -1 12 5 16 5 3 10 17 10 30 0 13 6 30 13 37 8 9
12 47 12 114 0 96 -1 103 -28 135 -15 19 -32 35 -37 35 -6 1 -21 2 -35 3 -28
1 -30 8 -13 48 6 15 12 35 12 43 1 8 5 20 9 27 4 6 4 18 1 27 -3 9 -1 16 5 16
6 0 11 8 11 18 0 10 6 26 14 37 7 11 12 29 10 40 -1 10 2 25 8 32 6 7 7 13 2
13 -5 0 -4 4 1 8 14 10 39 64 36 80 -1 6 2 12 7 12 9 0 8 89 -1 273 -3 54 1
77 17 110 11 23 23 43 27 45 5 2 5 10 2 18 -3 8 -1 14 4 14 11 0 48 70 44 84
-1 5 6 25 15 44 13 27 15 56 12 135 -2 67 -8 102 -16 105 -7 2 -10 7 -7 12 3
4 -2 13 -10 20 -8 7 -15 18 -15 26 0 7 -9 18 -21 25 -17 9 -20 18 -17 55 2 24
0 44 -4 44 -5 0 -8 9 -8 20 0 12 -7 34 -15 50 -9 17 -13 30 -10 30 8 0 -33 78
-45 85 -6 4 -8 10 -5 15 3 4 -2 10 -10 14 -8 3 -15 10 -15 17 0 15 -112 129
-127 129 -7 0 -13 4 -13 10 0 5 -11 12 -25 16 -30 8 -37 54 -7 54 10 0 28 7
40 16 12 8 22 12 22 9 0 -4 12 8 26 25 52 61 63 149 22 171 -12 6 -23 7 -27 3
-13 -18 -97 -57 -129 -61 -23 -3 -42 4 -66 22 -18 14 -36 25 -40 25 -4 0 -44
36 -88 80 -45 44 -85 80 -90 80 -5 0 -26 11 -48 25 -22 14 -40 22 -40 19 0 -4
-7 -1 -15 6 -8 7 -15 9 -15 4 0 -5 -4 -3 -9 5 -6 9 -38 15 -97 18 -82 5 -91 8
-116 35 -16 16 -28 26 -28 22 0 -3 -20 12 -45 35 -42 39 -90 66 -107 63 -5 -1
-8 3 -8 8 0 12 -143 14 -154 3z"/>
</g>
</svg>
