<svg xmlns="http://www.w3.org/2000/svg" xmlns:xlink="http://www.w3.org/1999/xlink" width="1632" height="700" viewBox="0 0 1224 525" version="1.2"><defs><symbol overflow="visible" id="i"><path style="stroke:none" d="M13.484-2.453c1.07 0 1.989-.149 2.75-.453.77-.301 1.364-.766 1.782-1.39.425-.634.64-1.442.64-2.423 0-.851-.199-1.566-.593-2.14-.399-.57-.946-1.055-1.641-1.454-.7-.394-1.512-.742-2.438-1.046-.93-.301-1.937-.614-3.03-.938a26.075 26.075 0 0 1-3.157-1.11 11.856 11.856 0 0 1-2.781-1.655 7.26 7.26 0 0 1-1.985-2.532c-.492-1.008-.734-2.25-.734-3.718 0-1.727.426-3.196 1.281-4.407.863-1.218 2.004-2.156 3.422-2.812 1.426-.657 2.988-.985 4.688-.985 1.445 0 2.738.2 3.874.594a7.415 7.415 0 0 1 2.985 1.969c.863.918 1.598 2.168 2.203 3.75l-1.844-.25.688-5.656h2.672v7.672h-3c-.375-1.125-.903-2.07-1.578-2.844a6.711 6.711 0 0 0-2.344-1.782c-.887-.414-1.86-.625-2.922-.625-1.012 0-1.867.157-2.563.47-.699.312-1.234.75-1.609 1.312-.367.562-.547 1.25-.547 2.062 0 .805.195 1.465.594 1.985.394.511.926.945 1.594 1.297.675.355 1.457.664 2.343.921a222.2 222.2 0 0 0 2.86.813c1.164.293 2.289.656 3.375 1.094a12.36 12.36 0 0 1 2.937 1.672 7.073 7.073 0 0 1 2.063 2.515c.508 1.012.765 2.258.765 3.735 0 1.886-.437 3.527-1.312 4.921-.875 1.399-2.078 2.465-3.61 3.204-1.53.726-3.324 1.093-5.375 1.093-1.585 0-3.093-.246-4.53-.734a9.741 9.741 0 0 1-3.798-2.375c-1.086-1.094-1.945-2.555-2.578-4.39l2.016.5L4.313 0H1.515v-9.11h3.156c.488 1.4 1.164 2.594 2.031 3.594A8.62 8.62 0 0 0 9.75-3.234a9.08 9.08 0 0 0 3.734.78Zm0 0"/></symbol><symbol overflow="visible" id="j"><path style="stroke:none" d="M7.703-10.375c0 1.281.133 2.418.406 3.406.282.98.68 1.813 1.204 2.5a4.95 4.95 0 0 0 1.906 1.547c.75.336 1.601.5 2.562.5 1.031 0 1.914-.195 2.656-.594A6.807 6.807 0 0 0 18.36-4.53a10.763 10.763 0 0 0 1.36-1.86l2.25 1.672a10.823 10.823 0 0 1-2.047 2.657C19.109-1.29 18.132-.688 17-.25c-1.137.438-2.484.656-4.047.656C10.68.406 8.688-.03 6.97-.906c-1.719-.875-3.07-2.125-4.047-3.75-.969-1.625-1.453-3.54-1.453-5.75 0-2.188.472-4.11 1.422-5.766a10.091 10.091 0 0 1 3.859-3.86c1.625-.913 3.445-1.374 5.469-1.374 1.633 0 3.07.25 4.312.75a7.826 7.826 0 0 1 3.14 2.218c.852.981 1.5 2.215 1.938 3.704.438 1.492.657 3.218.657 5.187H6.64v-2.594h10.703l-.985 1.032c-.03-1.395-.132-2.579-.297-3.547-.156-.969-.402-1.742-.734-2.328-.324-.594-.742-1.02-1.25-1.282-.5-.257-1.078-.39-1.734-.39-.688 0-1.313.168-1.875.5-.555.324-1.04.828-1.453 1.515-.407.68-.73 1.54-.97 2.578-.23 1.043-.343 2.274-.343 3.688Zm0 0"/></symbol><symbol overflow="visible" id="k"><path style="stroke:none" d="M17.063-21.156v5.453a3.19 3.19 0 0 0-.688-.188c-.262-.039-.54-.07-.828-.093a7.94 7.94 0 0 0-.875-.047c-.656 0-1.25.078-1.781.234a4.843 4.843 0 0 0-1.454.672c-.437.305-.835.7-1.187 1.188-.355.492-.71 1.09-1.063 1.796l-.046-2.328c.414-1.344.898-2.523 1.453-3.547.562-1.03 1.242-1.836 2.047-2.422.812-.582 1.789-.875 2.937-.875.332 0 .625.016.875.047.258.024.461.059.61.11ZM1.188 0v-2.172h.046c.739 0 1.344-.086 1.813-.265.476-.176.719-.524.719-1.047v-13.657c0-.32-.075-.566-.22-.734-.148-.164-.386-.305-.718-.422a9.385 9.385 0 0 0-1.265-.36l-.375-.077v-2.25h8.359v6.422L10-14.97v11.89c0 .25.156.446.469.579.32.137.707.227 1.156.266.445.043.848.062 1.203.062h.5V0Zm0 0"/></symbol><symbol overflow="visible" id="l"><path style="stroke:none" d="M18.578-17.953c0-.164-.14-.317-.422-.453a3.607 3.607 0 0 0-1.047-.297 7.698 7.698 0 0 0-1.28-.11h-.079v-2.171h7.953v2.172h-.094c-.324 0-.64.058-.953.171a2.158 2.158 0 0 0-.843.532c-.25.242-.47.578-.657 1.015L15 0H9.14L2.75-17.422c-.117-.383-.281-.672-.5-.86a1.8 1.8 0 0 0-.797-.405 4.472 4.472 0 0 0-1.125-.125H.281v-2.172H11.72v2.172h-.078c-.461 0-.918.015-1.375.046-.45.024-.825.055-1.125.094-.305.043-.454.117-.454.219l5.5 15.578-.828-.36Zm0 0"/></symbol><symbol overflow="visible" id="x"><path style="stroke:none" d="M1.438-26.766v-2.343H15c2.352 0 4.492.328 6.422.984 1.926.656 3.594 1.61 5 2.86 1.406 1.242 2.488 2.757 3.25 4.546.77 1.782 1.156 3.809 1.156 6.078 0 2.274-.387 4.305-1.156 6.094a13.058 13.058 0 0 1-3.25 4.61c-1.406 1.28-3.074 2.261-5 2.937-1.93.668-4.07 1-6.422 1H1.437v-2.344h.454c.789 0 1.445-.086 1.968-.265.52-.176.782-.579.782-1.204v-21.484c0-.57-.262-.957-.782-1.156-.523-.207-1.18-.313-1.968-.313Zm13.359.407h-3.64V-2.75h3.64c1.394 0 2.648-.266 3.765-.797a8.047 8.047 0 0 0 2.891-2.312c.813-1.008 1.426-2.254 1.844-3.735.426-1.476.64-3.16.64-5.047 0-1.882-.214-3.554-.64-5.015-.418-1.469-1.031-2.692-1.844-3.672a7.915 7.915 0 0 0-2.89-2.25c-1.118-.52-2.372-.781-3.766-.781Zm0 0"/></symbol><symbol overflow="visible" id="y"><path style="stroke:none" d="M6.766-24.484c-1.043 0-1.891-.27-2.547-.813-.657-.539-.985-1.289-.985-2.25 0-.957.329-1.707.985-2.25.656-.55 1.504-.828 2.547-.828 1.093 0 1.957.277 2.593.828.645.543.97 1.293.97 2.25 0 .961-.325 1.711-.97 2.25-.636.543-1.5.813-2.593.813Zm3.234 3.5v17.5c0 .523.242.87.734 1.046.5.18 1.102.266 1.813.266h.047V0H1.188v-2.172h.046c.739 0 1.352-.086 1.844-.265.488-.176.735-.524.735-1.047v-13.657c0-.488-.18-.82-.532-1-.355-.175-.93-.347-1.719-.515l-.375-.078v-2.25Zm0 0"/></symbol><symbol overflow="visible" id="z"><path style="stroke:none" d="M13.813-2.375c1.07 0 1.992-.223 2.765-.672a7.237 7.237 0 0 0 1.985-1.687 19.671 19.671 0 0 0 1.453-1.985l2.125 1.672A13.995 13.995 0 0 1 20-2.234c-.813.836-1.797 1.484-2.953 1.953-1.149.457-2.512.687-4.094.687-2.242 0-4.23-.445-5.969-1.344-1.73-.906-3.086-2.175-4.062-3.812-.969-1.645-1.453-3.563-1.453-5.75 0-2.238.488-4.164 1.468-5.781.989-1.614 2.376-2.867 4.157-3.766 1.781-.906 3.86-1.36 6.234-1.36 1.469 0 2.766.15 3.89.438 1.126.282 2.063.617 2.813 1 .75.387 1.301.742 1.657 1.063v5.25h-5v-5.047c.32.031.597.133.828.297a1.549 1.549 0 0 1 .688 1.297c0 .25-.056.484-.157.703-.387-.657-.977-1.192-1.766-1.61-.793-.425-1.695-.64-2.703-.64-1.242 0-2.281.328-3.125.984-.844.656-1.484 1.602-1.922 2.828-.437 1.23-.656 2.68-.656 4.344 0 1.262.133 2.39.406 3.39.27 1 .656 1.856 1.156 2.563a5.113 5.113 0 0 0 1.876 1.625c.738.367 1.57.547 2.5.547Zm0 0"/></symbol><symbol overflow="visible" id="C"><path style="stroke:none" d="M16.313-26.563a6.199 6.199 0 0 0-3.172.844c-.97.555-1.805 1.356-2.5 2.407-.7 1.054-1.235 2.32-1.61 3.796-.367 1.48-.547 3.133-.547 4.953 0 1.899.18 3.59.547 5.079.375 1.492.914 2.746 1.625 3.765.707 1.024 1.582 1.809 2.625 2.36 1.04.543 2.219.812 3.531.812 1.446 0 2.72-.336 3.813-1.015 1.094-.688 2.016-1.645 2.766-2.876.75-1.226 1.289-2.625 1.625-4.187l2.656 1.031c-.438 1.969-1.164 3.711-2.172 5.219a10.707 10.707 0 0 1-3.89 3.516C20.022-.016 18.163.406 16.03.406c-2.105 0-4.043-.36-5.812-1.078A13.356 13.356 0 0 1 5.656-3.75c-1.281-1.32-2.281-2.898-3-4.734-.71-1.832-1.062-3.86-1.062-6.079 0-2.207.36-4.226 1.078-6.062.726-1.832 1.742-3.41 3.047-4.734 1.3-1.32 2.789-2.344 4.468-3.063 1.676-.726 3.473-1.094 5.391-1.094 1.914 0 3.52.313 4.813.938 1.3.625 2.363 1.484 3.187 2.578.82 1.094 1.445 2.367 1.875 3.813l-1.875-.329.735-6.593h2.828v9.015h-3.203c-.407-1.312-.95-2.453-1.625-3.422-.668-.968-1.493-1.718-2.47-2.25-.98-.53-2.155-.797-3.53-.797Zm0 0"/></symbol><symbol overflow="visible" id="D"><path style="stroke:none" d="M1.438 0v-2.344h.406c.55 0 1.031-.05 1.437-.156.406-.113.735-.305.985-.578.25-.27.375-.61.375-1.016v-21.25c0-.406-.125-.707-.375-.906-.25-.207-.579-.344-.985-.406a8.516 8.516 0 0 0-1.437-.11h-.407v-2.343h11.485L25.047-5.656l-.813-.047V-26.11c0-.145-.152-.266-.453-.36a6.661 6.661 0 0 0-1.14-.218c-.45-.051-.93-.079-1.438-.079h-.578v-2.343h9.797v2.343h-.453c-.492 0-.95.047-1.375.141-.418.094-.75.266-1 .516-.25.242-.375.578-.375 1.015V0h-6.11L6.72-27.547l.906.078V-3c0 .117.148.23.453.344.3.105.68.183 1.14.234.47.055.946.078 1.438.078h.578V0Zm0 0"/></symbol><symbol overflow="visible" id="o"><path style="stroke:none" d="M8.61-7.688 12.218 0h4.719v-1.438h-.204c-.21 0-.402-.019-.578-.062a1.158 1.158 0 0 1-.437-.203 1.377 1.377 0 0 1-.328-.406l-3.125-5.985Zm-2.063 6v-13.671h1.875c.676 0 1.234.136 1.672.406.437.262.77.625 1 1.094.238.468.36 1.043.36 1.718 0 .7-.118 1.309-.345 1.829a2.416 2.416 0 0 1-1.015 1.187c-.461.273-1.059.406-1.797.406H6.078v1.656h2.516c.176 0 .351-.003.531-.015.176-.02.344-.035.5-.047.156-.02.305-.047.453-.078 1.156-.125 2.129-.399 2.922-.828.79-.438 1.395-1.004 1.813-1.703.414-.696.624-1.5.624-2.407 0-.988-.261-1.847-.78-2.578-.512-.726-1.247-1.297-2.204-1.703-.96-.414-2.121-.625-3.484-.625H.859v1.453h.25c.477 0 .868.059 1.172.172.301.106.453.336.453.688v12.437c0 .344-.152.574-.453.688-.304.117-.695.171-1.172.171H.86V0h7.438v-1.438h-.25c-.18 0-.356-.003-.531-.015A4.16 4.16 0 0 1 7.03-1.5a3.317 3.317 0 0 1-.36-.063c-.085-.03-.124-.07-.124-.125Zm0 0"/></symbol><symbol overflow="visible" id="p"><path style="stroke:none" d="M4.531-6.078c0 .742.07 1.39.219 1.953.156.563.383 1.043.688 1.438.312.386.68.68 1.109.874.437.2.937.297 1.5.297.601 0 1.117-.113 1.547-.343.437-.227.804-.52 1.11-.875.3-.364.554-.723.765-1.079l1.39 1.047a5.959 5.959 0 0 1-1.171 1.563c-.481.45-1.06.805-1.735 1.062-.668.25-1.46.375-2.375.375-1.324 0-2.492-.254-3.5-.765a5.603 5.603 0 0 1-2.36-2.188C1.165-3.676.892-4.8.892-6.094c0-1.281.27-2.398.812-3.36a5.741 5.741 0 0 1 2.234-2.233c.958-.54 2.032-.813 3.22-.813.956 0 1.8.152 2.53.453.727.293 1.336.73 1.829 1.313.5.586.879 1.32 1.14 2.203.27.875.406 1.898.406 3.062H4.079v-1.61h6.078l-.61.641c-.01-.789-.07-1.46-.171-2.015-.094-.55-.234-1-.422-1.344-.18-.344-.418-.594-.719-.75a2.078 2.078 0 0 0-1.03-.25c-.376 0-.731.102-1.063.297-.325.2-.606.496-.844.89-.242.387-.43.876-.563 1.47-.136.593-.203 1.28-.203 2.062Zm0 0"/></symbol><symbol overflow="visible" id="q"><path style="stroke:none" d="M5.813-17.64v15.5c0 .324.14.53.421.624.29.094.645.141 1.063.141h.047V0H.64v-1.375h.03c.446 0 .813-.047 1.095-.14.28-.094.421-.301.421-.626v-13.14c0-.207-.054-.364-.156-.469a1.01 1.01 0 0 0-.437-.25 5.08 5.08 0 0 0-.735-.203l-.234-.047v-1.39Zm0 0"/></symbol><symbol overflow="visible" id="r"><path style="stroke:none" d="M8.953-7.39v1.359c-.648.086-1.215.187-1.703.312-.48.117-.906.258-1.281.422a3.425 3.425 0 0 0-.89.563c-.231.21-.403.453-.516.734a2.186 2.186 0 0 0-.172.875c0 .355.066.664.203.922.133.25.328.445.578.578.258.137.562.203.906.203.445 0 .844-.11 1.188-.328.343-.227.648-.55.921-.969.27-.414.508-.898.72-1.453l.015 1.719A4.949 4.949 0 0 1 7.984-1a3.893 3.893 0 0 1-1.343.922 4.756 4.756 0 0 1-1.766.312c-.781 0-1.469-.12-2.063-.359-.593-.25-1.062-.617-1.406-1.11C1.07-1.722.906-2.311.906-3c0-.676.172-1.254.516-1.734.344-.477.848-.891 1.516-1.235.675-.343 1.515-.629 2.515-.86 1-.226 2.164-.413 3.5-.562ZM8.641 0v-2.453h-.266v-6.235c0-.53-.078-.953-.234-1.265a1.357 1.357 0 0 0-.657-.672c-.28-.133-.64-.203-1.078-.203-.636 0-1.164.14-1.578.422a3.328 3.328 0 0 0-.984 1c-.117-.176-.168-.336-.156-.485.007-.156.05-.3.124-.437a1.07 1.07 0 0 1 .344-.344 1.56 1.56 0 0 1 .547-.219v2.485H1.734v-2.531c.239-.196.582-.415 1.032-.657.445-.238 1.004-.445 1.671-.625.676-.187 1.454-.281 2.329-.281.738 0 1.414.078 2.03.234a4.689 4.689 0 0 1 1.626.72c.476.323.848.745 1.11 1.265.257.523.39 1.148.39 1.875v6.219c0 .199.055.351.172.453.125.105.297.183.515.234.22.043.473.07.766.078l.063.031V0Zm0 0"/></symbol><symbol overflow="visible" id="s"><path style="stroke:none" d="M8.61-2.156 7.687-.281 6.5.984 1.687-10.062a1.667 1.667 0 0 0-.343-.5.96.96 0 0 0-.485-.25 2.666 2.666 0 0 0-.687-.079H.14v-1.375h6.796v1.375h-.046c-.274 0-.543.012-.813.032-.262.011-.48.027-.656.046-.18.024-.266.063-.266.126Zm0 1.719a23.874 23.874 0 0 1-1.344 2.734c-.45.77-.907 1.394-1.375 1.875-.461.476-.946.832-1.454 1.062a3.872 3.872 0 0 1-1.656.36c-.449 0-.824-.055-1.125-.157a2.53 2.53 0 0 1-.718-.328V2.36c.062.008.19.055.39.141.195.094.445.18.75.266a3.594 3.594 0 0 0 2.047-.016c.332-.105.66-.293.984-.563.32-.261.633-.636.938-1.124.3-.481.601-1.098.906-1.86l.422-.937 3.672-8.641c0-.102-.086-.191-.25-.266a2.566 2.566 0 0 0-.61-.171 3.925 3.925 0 0 0-.78-.079h-.063v-1.375h4.86v1.375h-.017c-.21 0-.406.032-.593.094-.188.063-.36.172-.516.328-.156.149-.305.367-.437.656Zm0 0"/></symbol><symbol overflow="visible" id="t"><path style="stroke:none" d="M4.156-7.297h6.782l.03 1.656H4.064Zm2.907-8.453.64.984L3.437-1.875c0 .086.083.164.25.234.165.075.376.125.626.157.25.03.507.046.78.046h.329V0H.219v-1.438h.125c.363 0 .648-.066.86-.203.218-.132.398-.41.546-.828l4.875-14.578h3.813l5.046 14.938c.094.28.254.464.485.546.226.086.52.125.875.125h.093V0H9.625v-1.438h.39c.25 0 .505-.003.766-.015.27-.02.492-.05.672-.094.176-.039.266-.086.266-.14Zm0 0"/></symbol><symbol overflow="visible" id="u"><path style="stroke:none" d="M7.797 5.36H.625V3.983h.047c.289 0 .547-.023.765-.062.227-.043.407-.121.532-.235.125-.105.187-.261.187-.468V-9.906c0-.196-.047-.344-.14-.438-.086-.094-.227-.176-.422-.25-.2-.07-.45-.14-.75-.203l-.219-.047v-1.422h4.922v3.172l.266.125V3.766c0 .05.085.093.265.125.176.03.383.05.625.062.25.02.473.031.672.031h.422ZM9.453.233C8.828.234 8.27.156 7.781 0a4.07 4.07 0 0 1-1.343-.703 6.345 6.345 0 0 1-1.141-1.235l.031-2.671c.27.605.567 1.132.89 1.578.321.437.68.777 1.079 1.015.394.243.844.36 1.344.36.468 0 .875-.102 1.218-.313.344-.218.625-.531.844-.937.227-.414.395-.899.5-1.453a9.517 9.517 0 0 0 .172-1.875c0-.688-.055-1.297-.156-1.829-.106-.539-.274-1-.5-1.374-.219-.383-.492-.672-.813-.86-.312-.187-.695-.281-1.14-.281-.5 0-.954.125-1.36.375-.406.242-.781.601-1.125 1.078-.336.48-.664 1.059-.984 1.734v-2.328c.406-.625.812-1.14 1.219-1.547.406-.406.859-.71 1.359-.921.508-.208 1.094-.313 1.75-.313 1.113 0 2.082.262 2.906.781.832.524 1.473 1.25 1.922 2.188.457.93.688 2.027.688 3.297 0 1.261-.243 2.382-.72 3.359-.48.969-1.148 1.73-2 2.281-.855.555-1.843.828-2.968.828Zm0 0"/></symbol><symbol overflow="visible" id="E"><path style="stroke:none" d="M.703 0v-1.375H.75c.281 0 .531-.016.75-.047.227-.039.406-.117.531-.234.133-.114.203-.274.203-.485v-7.765c0-.196-.054-.344-.156-.438a1.239 1.239 0 0 0-.422-.25 4.946 4.946 0 0 0-.75-.203l-.203-.047v-1.422h4.89v2.625l.266.094v7.969c0 .043.067.086.204.125.144.043.32.07.53.078H7.22V0Zm14.735 0H8.905v-1.375h.625c.207-.008.38-.035.516-.078.144-.04.219-.082.219-.125v-6.797c0-.477-.055-.863-.157-1.156a1.276 1.276 0 0 0-.5-.672c-.218-.145-.515-.219-.89-.219-.438 0-.856.11-1.25.328-.387.219-.75.54-1.094.953-.336.418-.656.938-.969 1.563l-.031-2.047a6.652 6.652 0 0 1 1.188-1.563c.437-.425.937-.75 1.5-.968a4.887 4.887 0 0 1 1.843-.344c.82 0 1.524.152 2.11.453.593.305 1.05.75 1.375 1.344.332.594.5 1.344.5 2.25v6.312c0 .211.066.371.203.485.133.117.312.195.531.234.219.031.473.047.766.047h.046Zm0 0"/></symbol><symbol overflow="visible" id="F"><path style="stroke:none" d="M3.984-14.25c-.625 0-1.125-.16-1.5-.484-.375-.332-.562-.782-.562-1.344 0-.563.187-1 .562-1.313.375-.32.875-.484 1.5-.484s1.125.164 1.5.484c.375.313.563.75.563 1.313 0 .562-.188 1.012-.563 1.344-.375.324-.875.484-1.5.484Zm1.891 1.984V-2.14c0 .325.145.532.438.625.289.094.648.141 1.078.141h.03V0H.72v-1.375H.75c.426 0 .781-.047 1.063-.14.289-.094.437-.301.437-.626v-7.765c0-.29-.11-.489-.328-.594-.211-.102-.54-.203-.984-.297l-.235-.047v-1.422Zm0 0"/></symbol><symbol overflow="visible" id="G"><path style="stroke:none" d="M14.328-10.016c-.637-.093-1.2-.156-1.687-.187a6.224 6.224 0 0 0-1.266.031c-.355.043-.64.152-.86.328l-.437-.219c.238-.476.504-.894.797-1.25.3-.363.629-.664.984-.906A3.198 3.198 0 0 1 13-12.703c.406-.094.848-.11 1.328-.047Zm-7.531 6.22c-1.074 0-2.024-.173-2.844-.517-.812-.351-1.45-.851-1.906-1.5-.45-.656-.672-1.421-.672-2.296 0-.883.227-1.657.688-2.313.468-.656 1.109-1.164 1.921-1.531.813-.363 1.75-.547 2.813-.547 1.07 0 2.016.184 2.828.547.813.367 1.445.875 1.906 1.531.469.656.703 1.43.703 2.313 0 .875-.234 1.64-.703 2.296-.46.649-1.094 1.149-1.906 1.5-.813.344-1.758.516-2.828.516Zm0-1.563c.426 0 .789-.098 1.094-.297.312-.196.546-.492.703-.89.156-.407.234-.923.234-1.548s-.078-1.14-.234-1.547c-.156-.406-.39-.71-.703-.921-.305-.22-.668-.329-1.094-.329-.418 0-.781.11-1.094.329-.305.21-.539.515-.703.921-.168.407-.25.922-.25 1.547 0 .617.082 1.125.25 1.531.164.407.398.711.703.907.313.199.676.297 1.094.297ZM6.125 5.656c-1.168 0-2.203-.093-3.11-.281-.906-.18-1.617-.484-2.124-.922-.512-.43-.766-1-.766-1.719 0-.398.113-.75.344-1.062.226-.305.586-.578 1.078-.828C2.035.602 2.672.367 3.453.14l.922.671c-.355.145-.64.305-.86.485a1.779 1.779 0 0 0-.468.578c-.094.207-.14.422-.14.64 0 .344.116.626.359.844.25.227.629.395 1.14.5.52.114 1.188.172 2 .172h.766c.8 0 1.488-.086 2.062-.25.582-.156 1.024-.383 1.329-.672.3-.28.453-.605.453-.968 0-.356-.133-.61-.391-.766-.25-.148-.734-.219-1.453-.219h-5.86l-.124-.25A5.579 5.579 0 0 1 1.89.172a2.5 2.5 0 0 1-.735-.86A2.58 2.58 0 0 1 .938-1.78c0-.446.113-.86.343-1.235.227-.382.578-.738 1.047-1.062.477-.32 1.07-.61 1.781-.86l1.172.625a3.922 3.922 0 0 0-.86.438 1.965 1.965 0 0 0-.546.5.957.957 0 0 0-.172.563c0 .304.133.527.406.671.282.137.704.204 1.266.204h3.969c1.02 0 1.879.117 2.578.343.707.23 1.238.586 1.594 1.063.363.469.546 1.062.546 1.781 0 .988-.304 1.813-.906 2.469-.594.656-1.406 1.14-2.437 1.453-1.031.32-2.188.484-3.469.484Zm0 0"/></symbol><symbol overflow="visible" id="H"><path style="stroke:none" d="M5.875-17.64v16.062c0 .043.07.086.219.125.144.043.316.07.515.078H7.25V0H.703v-1.375H.75c.281 0 .531-.016.75-.047.227-.039.41-.117.547-.234.133-.114.203-.274.203-.485v-13.14c0-.207-.047-.364-.14-.469a1.01 1.01 0 0 0-.438-.25 5.08 5.08 0 0 0-.734-.203l-.235-.047v-1.39ZM15.453 0H8.922v-1.375h.609c.207-.008.383-.035.531-.078.157-.04.235-.082.235-.125v-6.797c0-.477-.055-.863-.156-1.156a1.276 1.276 0 0 0-.5-.672c-.22-.145-.524-.219-.907-.219-.449 0-.867.11-1.25.328-.386.219-.75.54-1.093.953a8.302 8.302 0 0 0-.985 1.563v-2.063a6.542 6.542 0 0 1 1.172-1.546 4.6 4.6 0 0 1 1.5-.97 4.763 4.763 0 0 1 1.828-.343c.82 0 1.531.152 2.125.453.602.305 1.067.75 1.39 1.344.333.594.5 1.344.5 2.25v6.312c0 .325.142.532.423.625.289.094.644.141 1.062.141h.047Zm0 0"/></symbol><symbol overflow="visible" id="I"><path style="stroke:none" d="M9.281.234a6.07 6.07 0 0 1-1.797-.25 4.03 4.03 0 0 1-1.406-.812c-.418-.375-.812-.86-1.187-1.453l.03-2.703c.352.699.704 1.296 1.048 1.796.351.493.734.872 1.14 1.141.414.262.88.39 1.391.39.457 0 .86-.1 1.203-.312.344-.218.625-.531.844-.937.226-.414.398-.899.515-1.453a9.517 9.517 0 0 0 .172-1.875c0-.688-.058-1.297-.171-1.829-.118-.539-.282-1-.5-1.374-.211-.383-.477-.672-.797-.86a2.207 2.207 0 0 0-1.125-.281c-.512 0-.977.133-1.391.39-.418.25-.813.641-1.188 1.172-.367.524-.746 1.184-1.14 1.985L4.89-9.313c.468-.738.921-1.343 1.359-1.812.438-.469.91-.813 1.422-1.031.52-.227 1.129-.344 1.828-.344 1.094 0 2.05.262 2.875.781.832.524 1.473 1.25 1.922 2.188.445.93.672 2.027.672 3.297 0 1.261-.242 2.382-.719 3.359-.48.969-1.148 1.73-2 2.281-.844.555-1.836.828-2.969.828ZM2.016-15.28c0-.207-.047-.364-.141-.469a1.01 1.01 0 0 0-.438-.25 5.08 5.08 0 0 0-.734-.203l-.25-.047v-1.39h5.188v14.874l-.407.25L4.25.047H2.016Zm0 0"/></symbol><symbol overflow="visible" id="J"><path style="stroke:none" d="M14.375-6.125c0 1.25-.281 2.355-.844 3.313-.554.96-1.34 1.71-2.36 2.25-1.023.53-2.202.796-3.546.796-1.355 0-2.543-.265-3.563-.796a5.76 5.76 0 0 1-2.343-2.25C1.164-3.77.89-4.876.89-6.126c0-.938.156-1.797.468-2.578.313-.79.766-1.461 1.36-2.016.601-.562 1.316-1 2.14-1.312.82-.313 1.743-.469 2.766-.469 1.008 0 1.926.156 2.75.469.82.312 1.535.75 2.14 1.312a5.42 5.42 0 0 1 1.376 2.016c.32.781.484 1.64.484 2.578Zm-9.75 0c0 .98.117 1.824.36 2.531.25.7.597 1.235 1.046 1.61.446.367.977.546 1.594.546.625 0 1.16-.18 1.61-.546.445-.375.785-.91 1.015-1.61.238-.707.36-1.55.36-2.531 0-1-.122-1.844-.36-2.531-.23-.696-.57-1.227-1.016-1.594-.449-.363-.984-.547-1.609-.547-.617 0-1.148.184-1.594.547-.449.367-.797.898-1.047 1.594-.242.687-.359 1.531-.359 2.531Zm0 0"/></symbol><symbol overflow="visible" id="K"><path style="stroke:none" d="M10.016-12.344v3.203a6.567 6.567 0 0 0-.891-.171 4.458 4.458 0 0 0-.516-.032c-.375 0-.726.047-1.046.14a2.605 2.605 0 0 0-.875.407c-.25.188-.481.43-.688.719-.21.281-.406.637-.594 1.062V-8.5c.219-.758.489-1.438.813-2.031.32-.594.722-1.055 1.203-1.39.476-.345 1.05-.517 1.719-.517.195 0 .367.012.515.032.156.011.274.031.36.062ZM.703 0v-1.375H.75c.426 0 .781-.047 1.063-.14.28-.094.421-.301.421-.626v-7.765c0-.196-.054-.344-.156-.438a1.239 1.239 0 0 0-.422-.25 4.946 4.946 0 0 0-.75-.203l-.203-.047v-1.422h4.89V-8.5l.266-.266v6.844c0 .156.098.281.297.375.196.086.426.137.688.156.27.012.508.016.718.016h.266V0Zm0 0"/></symbol><symbol overflow="visible" id="N"><path style="stroke:none" d="M.547-12.266h9.078v1.641H.547Zm9.875-5.468v1.78c-.2-.07-.465-.155-.797-.25a3.996 3.996 0 0 0-1.078-.14c-.45 0-.84.086-1.172.25-.324.157-.578.434-.766.828-.18.387-.265.922-.265 1.61v12.078c0 .043.086.086.265.125.188.043.422.07.704.078h1.234V0H.766v-1.375h.265c.532 0 .942-.05 1.235-.156.3-.114.453-.32.453-.625v-11.235c0-1.164.25-2.082.75-2.75.5-.664 1.16-1.14 1.984-1.422A8.13 8.13 0 0 1 8.141-18c.476 0 .925.027 1.343.078.414.043.727.106.938.188Zm0 0"/></symbol><symbol overflow="visible" id="O"><path style="stroke:none" d="M1.734-8.328h7.454v2.672H1.734Zm0 0"/></symbol><symbol overflow="visible" id="P"><path style="stroke:none" d="M13.844-2.188c0 .293.129.485.39.579.27.093.63.156 1.079.187l.078.031V0h-4.922v-2.781l-.25.094v-12.594c0-.207-.047-.364-.14-.469-.095-.102-.247-.188-.454-.25-.21-.07-.477-.14-.797-.203l-.219-.047v-1.39h5.235ZM6.578-12.5c.695 0 1.313.105 1.844.313.531.21 1.004.527 1.422.953.414.418.789.949 1.125 1.593l-.031 2.344c-.336-.75-.684-1.367-1.047-1.86-.356-.488-.735-.847-1.141-1.077a2.703 2.703 0 0 0-1.36-.344c-.46 0-.867.11-1.218.328-.344.21-.633.512-.86.906-.23.387-.402.867-.515 1.438A9.414 9.414 0 0 0 4.625-6c0 .68.055 1.281.172 1.813.113.53.281.992.5 1.375.226.374.504.656.828.843.332.188.71.282 1.14.282.52 0 .985-.125 1.391-.375.406-.258.79-.649 1.156-1.172.376-.532.75-1.204 1.126-2.016l.03 2.281c-.398.719-.808 1.313-1.234 1.781-.43.47-.914.825-1.453 1.063-.531.238-1.156.36-1.875.36-1.105 0-2.07-.255-2.89-.766-.825-.52-1.47-1.25-1.938-2.188C1.118-3.656.891-4.75.891-6c0-1.281.238-2.406.718-3.375.477-.977 1.149-1.742 2.016-2.297.863-.55 1.848-.828 2.953-.828Zm0 0"/></symbol><symbol overflow="visible" id="S"><path style="stroke:none" d="M6.531-2.297v-13.062h-.937c-.625 0-1.14.027-1.547.078-.399.043-.695.14-.89.297-.188.148-.29.367-.298.656l-.218 2.515H.797v-5.234h15.281v5.235h-1.844l-.187-2.516c-.024-.29-.133-.508-.328-.656-.2-.157-.496-.254-.89-.297-.4-.051-.907-.078-1.532-.078h-.953v13.062c0 .344.148.574.453.688.3.117.691.171 1.172.171h.375V0H4.53v-1.438h.36c.476 0 .867-.054 1.171-.171.313-.114.47-.344.47-.688Zm0 0"/></symbol><symbol overflow="visible" id="T"><path style="stroke:none" d="M5.594-12.266v8.329c0 .48.05.874.156 1.187.102.313.266.543.484.688.227.148.536.218.922.218.414 0 .805-.097 1.172-.297.363-.207.719-.515 1.063-.921.343-.407.675-.938 1-1.594v2.093c-.356.626-.758 1.149-1.204 1.563-.449.406-.945.715-1.484.922a4.87 4.87 0 0 1-1.781.312c-.781 0-1.477-.148-2.078-.437a3.121 3.121 0 0 1-1.39-1.344c-.325-.613-.485-1.367-.485-2.266v-6.093c0-.29-.106-.492-.313-.61-.21-.113-.547-.207-1.015-.28l-.235-.048v-1.422Zm7.937 0v10.079c0 .199.055.351.172.453.125.105.297.183.516.234a4.7 4.7 0 0 0 .781.078l.094.031V0h-4.922v-2.656l-.266-.063v-7.187a.622.622 0 0 0-.39-.61c-.25-.113-.618-.203-1.094-.265l-.406-.063v-1.422Zm0 0"/></symbol><symbol overflow="visible" id="U"><path style="stroke:none" d="M8.14-3.047c0-.289-.085-.523-.25-.703a1.99 1.99 0 0 0-.64-.484 5.23 5.23 0 0 0-.938-.344 30.073 30.073 0 0 0-1.109-.297c-.492-.125-.98-.27-1.469-.438a5.506 5.506 0 0 1-1.343-.656 3.26 3.26 0 0 1-.985-1.078c-.25-.437-.375-.992-.375-1.672 0-.812.207-1.5.625-2.062.414-.57 1.004-1.004 1.766-1.297.77-.3 1.676-.453 2.719-.453.832 0 1.55.07 2.156.203.613.125 1.113.277 1.5.453.394.18.672.328.828.453v2.516H7.937v-2.14c.227-.009.407.023.532.093a.556.556 0 0 1 .25.281c.039.106.05.227.031.36a1.188 1.188 0 0 1-.11.406c-.18-.207-.39-.39-.64-.547a2.518 2.518 0 0 0-.828-.328 4.59 4.59 0 0 0-1.031-.11c-.668 0-1.172.133-1.516.391-.336.262-.5.617-.5 1.063 0 .312.082.57.25.765.164.2.395.367.688.5.289.137.617.258.984.36.363.105.75.203 1.156.296.488.137.984.29 1.484.454.5.167.958.39 1.376.671.414.282.742.637.984 1.063.25.418.375.937.375 1.562 0 .836-.219 1.555-.656 2.157-.43.593-1.055 1.054-1.875 1.375-.825.312-1.836.468-3.032.468-.836 0-1.593-.062-2.28-.187-.68-.125-1.263-.285-1.75-.484a7.894 7.894 0 0 1-1.204-.625v-2.735h2.734v2.86a1.937 1.937 0 0 1-.625-.422 1.366 1.366 0 0 1-.296-.485.755.755 0 0 1 0-.437.535.535 0 0 1 .25-.281c.238.273.515.492.828.656.312.168.66.297 1.046.39.395.086.829.125 1.297.125.457 0 .86-.062 1.204-.187.343-.133.609-.32.796-.563.188-.238.282-.539.282-.906Zm0 0"/></symbol><symbol overflow="visible" id="V"><path style="stroke:none" d="M.125-10.625v-1.516h.094c.383 0 .719-.023 1-.078.289-.062.508-.172.656-.328.156-.164.234-.39.234-.672l2.204.953h4.546v1.641Zm5.469 6.406c0 .637.07 1.153.218 1.547.157.387.375.668.657.844.281.168.617.25 1.015.25.32 0 .625-.035.907-.11.28-.07.5-.125.656-.156v1.672a4.706 4.706 0 0 1-.563.188c-.23.07-.5.125-.812.156-.305.039-.637.062-1 .062a6.98 6.98 0 0 1-2.375-.39 3.37 3.37 0 0 1-1.719-1.36c-.43-.656-.64-1.535-.64-2.64v-7.672L2.108-12l.032-3.594h3.453Zm0 0"/></symbol><symbol overflow="visible" id="W"><path style="stroke:none" d="M9.531-15.453c-.68 0-1.297.168-1.86.5-.554.324-1.03.793-1.437 1.406-.398.606-.71 1.328-.937 2.172-.219.844-.328 1.797-.328 2.86 0 1.074.11 2.038.328 2.89.226.855.547 1.586.953 2.188.406.593.91 1.054 1.516 1.374.613.325 1.304.485 2.078.485.812 0 1.531-.203 2.156-.61a5.235 5.235 0 0 0 1.594-1.671c.437-.707.754-1.516.953-2.422l1.656.672c-.262 1.136-.683 2.148-1.265 3.03A6.218 6.218 0 0 1 12.671-.5c-.93.492-2.024.734-3.281.734-1.243 0-2.375-.21-3.407-.625a7.841 7.841 0 0 1-2.671-1.796 8.254 8.254 0 0 1-1.75-2.782C1.145-6.039.938-7.223.938-8.516c0-1.3.21-2.488.64-3.562a8.595 8.595 0 0 1 1.781-2.766 7.8 7.8 0 0 1 2.594-1.797 7.855 7.855 0 0 1 3.14-.64c1.126 0 2.067.187 2.829.562a4.78 4.78 0 0 1 1.844 1.532c.468.656.832 1.417 1.093 2.28l-1.156-.171.438-3.969h1.765v5.313h-2.031a7.433 7.433 0 0 0-.938-1.954 4.312 4.312 0 0 0-1.406-1.296c-.554-.313-1.219-.47-2-.47Zm0 0"/></symbol><symbol overflow="visible" id="X"><path style="stroke:none" d="M7.938-1.531c.625 0 1.148-.086 1.578-.266a2.169 2.169 0 0 0 1.015-.797c.239-.363.36-.816.36-1.36 0-.5-.118-.913-.344-1.25a2.608 2.608 0 0 0-.953-.843 7.148 7.148 0 0 0-1.406-.594c-.543-.175-1.126-.363-1.75-.562a19.248 19.248 0 0 1-1.86-.625 6.491 6.491 0 0 1-1.64-.969 4.435 4.435 0 0 1-1.172-1.5c-.282-.594-.422-1.32-.422-2.187 0-1 .25-1.852.75-2.563a4.967 4.967 0 0 1 2.015-1.656 6.46 6.46 0 0 1 2.735-.578c.832 0 1.578.117 2.234.343.656.22 1.238.606 1.75 1.157.52.543.957 1.293 1.313 2.25l-1.125-.078.453-3.438h1.64v4.5h-1.906a4.661 4.661 0 0 0-.906-1.61 3.914 3.914 0 0 0-1.344-1.015 3.95 3.95 0 0 0-1.687-.36c-.575 0-1.063.095-1.47.282a2.244 2.244 0 0 0-.921.766c-.21.312-.313.703-.313 1.171 0 .461.114.84.344 1.141.227.293.54.54.938.735.394.199.847.374 1.36.53.519.15 1.07.305 1.655.47.688.18 1.348.398 1.985.656.644.25 1.219.57 1.719.953.5.387.894.883 1.187 1.484.3.594.453 1.328.453 2.203 0 1.106-.25 2.063-.75 2.875-.5.805-1.2 1.422-2.094 1.86-.898.426-1.949.64-3.156.64-.93 0-1.808-.14-2.64-.421a6.002 6.002 0 0 1-2.25-1.407c-.657-.644-1.168-1.52-1.532-2.625l1.25.188L2.594 0H.844v-5.328h1.984c.29.773.688 1.445 1.188 2.016a5.323 5.323 0 0 0 1.78 1.328 5.15 5.15 0 0 0 2.141.453Zm0 0"/></symbol><symbol overflow="visible" id="Y"><path style="stroke:none" d="M10.844-10.422c0-.094-.086-.176-.25-.25a2.389 2.389 0 0 0-.625-.156c-.25-.04-.5-.063-.75-.063h-.047v-1.375h4.797v1.375h-.031c-.211 0-.407.028-.594.079a1.155 1.155 0 0 0-.5.296c-.149.149-.266.356-.36.625L8.906 0h-3.61l-3.64-10.078c-.086-.227-.187-.395-.312-.5a1.043 1.043 0 0 0-.485-.235 2.602 2.602 0 0 0-.671-.078H.14v-1.375h6.765v1.375H6.86c-.28 0-.558.012-.828.032-.261.011-.48.027-.656.046-.18.024-.266.063-.266.126l3.172 9.03-.406-.327Zm0 0"/></symbol><symbol overflow="visible" id="Z"><path style="stroke:none" d="M.86 0v-1.438h.25c.312 0 .593-.03.843-.093s.442-.172.578-.328a.882.882 0 0 0 .203-.594v-12.281c0-.239-.07-.414-.203-.532-.136-.125-.328-.207-.578-.25a4.249 4.249 0 0 0-.844-.078H.86v-1.453h6.797l7.032 13.86-.485-.204v-11.843c0-.07-.094-.13-.281-.172a4.338 4.338 0 0 0-.672-.125 6.05 6.05 0 0 0-.86-.063h-.312v-1.453h5.875v1.453h-.265c-.325 0-.61.031-.86.094-.242.063-.43.156-.562.281-.137.125-.203.32-.203.578V0h-3.72L4.079-16.078l.531.062v14.22c0 .042.086.093.266.155.176.055.398.102.672.141.281.043.566.063.86.063h.343V0Zm0 0"/></symbol><symbol overflow="visible" id="aa"><path style="stroke:none" d="m10.39-9.078-.406-.11L12.484 0h3.5l2.72-9.89c.07-.25.179-.446.327-.594.145-.145.317-.25.516-.313.195-.062.398-.094.61-.094h.03v-1.375H15.36v1.375h.047c.29 0 .555.024.797.063.238.031.43.086.578.156.157.074.242.168.266.281l-2.39 8.922.609-.625-2.782-10.172h-2.89L6.719-1.422l.547-.64-2.22-8.626c0-.062.083-.101.25-.124.165-.02.38-.036.641-.047.27-.02.547-.032.829-.032h.046v-1.375H.141v1.375h.047c.226 0 .43.024.609.063.187.031.348.105.484.219a.947.947 0 0 1 .282.484L4.421 0H7.89Zm0 0"/></symbol><symbol overflow="visible" id="ab"><path style="stroke:none" d="M15.64 0H8.595v-1.375h.625c.207-.008.379-.035.515-.078.145-.04.22-.082.22-.125L6.436-6.234v-.391l4.22-3.844c0-.125-.106-.21-.313-.265a3.672 3.672 0 0 0-.735-.125c-.28-.02-.53-.032-.75-.032h-.14v-1.375h6.094v1.375h-.047c-.313 0-.618.043-.907.125a3.07 3.07 0 0 0-.843.36 5.834 5.834 0 0 0-.782.562L8.516-6.438l.625-1.625 4.484 5.86c.176.219.367.39.578.515.207.118.43.2.672.25.238.043.477.063.719.063h.047ZM5.876-17.64v16.062c0 .043.07.086.219.125.144.043.32.07.531.078h.625V0H.719v-1.375H.75c.426 0 .781-.047 1.063-.14.289-.094.437-.301.437-.626v-13.14c0-.207-.047-.364-.14-.469a1.01 1.01 0 0 0-.438-.25 5.08 5.08 0 0 0-.734-.203l-.235-.047v-1.39Zm0 0"/></symbol><symbol overflow="visible" id="ac"><path style="stroke:none" d="M6.547-15.344v13.047c0 .211.055.375.172.5.125.117.281.2.468.25.188.043.391.074.61.094.226.012.453.016.672.016h.406V0H.859v-1.438h.25c.477 0 .868-.054 1.172-.171.301-.114.453-.344.453-.688v-12.437c0-.352-.152-.582-.453-.688-.304-.113-.695-.172-1.172-.172H.86v-1.453h12.97v4.781H12.03l-.203-2.03c-.012-.29-.121-.509-.328-.657-.2-.156-.492-.258-.875-.313-.375-.05-.855-.078-1.438-.078Zm-.672 6.031c.676-.03 1.336-.054 1.984-.078a2268.284 2268.284 0 0 1 3.907-.187v2.047l-1.97-.094c-.648-.04-1.292-.078-1.937-.11a64.46 64.46 0 0 0-1.984-.062Zm0 0"/></symbol><symbol overflow="visible" id="ad"><path style="stroke:none" d="M.86-15.594v-1.453h7.952c1.376 0 2.626.195 3.75.578 1.126.387 2.098.946 2.922 1.672a7.346 7.346 0 0 1 1.922 2.672c.446 1.043.672 2.23.672 3.563 0 1.324-.226 2.511-.672 3.562a7.773 7.773 0 0 1-1.922 2.703 8.43 8.43 0 0 1-2.921 1.719C11.437-.191 10.187 0 8.813 0H.859v-1.438h.266c.469 0 .86-.054 1.172-.171.312-.114.469-.344.469-.688v-12.437c0-.32-.157-.547-.47-.672-.312-.125-.702-.188-1.171-.188Zm7.827.281H6.579v13.579h2.11c.812 0 1.546-.149 2.203-.454a4.584 4.584 0 0 0 1.687-1.328c.477-.582.844-1.296 1.094-2.14.25-.852.375-1.82.375-2.907 0-1.093-.125-2.054-.375-2.89-.25-.832-.617-1.535-1.094-2.11a4.58 4.58 0 0 0-1.687-1.296c-.657-.301-1.391-.454-2.204-.454Zm0 0"/></symbol><clipPath id="a"><path d="M290 42h918v447H290Zm0 0"/></clipPath><clipPath id="b"><path d="M298 42h902a8 8 0 0 1 8 8v431a8 8 0 0 1-8 8H298a8 8 0 0 1-8-8V50a8 8 0 0 1 8-8Zm0 0"/></clipPath><clipPath id="c"><path d="M307 140h636v266H307Zm0 0"/></clipPath><clipPath id="d"><path d="M315 140h620a8 8 0 0 1 8 8v250a8 8 0 0 1-8 8H315a8 8 0 0 1-8-8V148a8 8 0 0 1 8-8Zm0 0"/></clipPath><clipPath id="e"><path d="M505 256h233v15H505Zm0 0"/></clipPath><clipPath id="f"><path d="M724.016 256.969 738 264l-14.016 6.969.012-6-217.5-.469-1-.004.008-2 1 .004 217.5.469Zm0 0"/></clipPath><clipPath id="g"><path d="M959 200h220v250H959Zm0 0"/></clipPath><clipPath id="h"><path d="M967 200h204a8 8 0 0 1 8 8v234a8 8 0 0 1-8 8H967a8 8 0 0 1-8-8V208a8 8 0 0 1 8-8Zm0 0"/></clipPath><clipPath id="m"><path d="M988 242h162v51H988Zm0 0"/></clipPath><clipPath id="n"><path d="M996 242h146a8 8 0 0 1 8 8v35a8 8 0 0 1-8 8H996a8 8 0 0 1-8-8v-35a8 8 0 0 1 8-8Zm0 0"/></clipPath><clipPath id="v"><path d="M24 108h220v311H24Zm0 0"/></clipPath><clipPath id="w"><path d="M32 108h204a8 8 0 0 1 8 8v295a8 8 0 0 1-8 8H32a8 8 0 0 1-8-8V116a8 8 0 0 1 8-8Zm0 0"/></clipPath><clipPath id="A"><path d="M318 199h188v126H318Zm0 0"/></clipPath><clipPath id="B"><path d="M412 325c51.914 0 94-28.207 94-63s-42.086-63-94-63-94 28.207-94 63 42.086 63 94 63Zm0 0"/></clipPath><clipPath id="L"><path d="M738 202h188v126H738Zm0 0"/></clipPath><clipPath id="M"><path d="M832 328c51.914 0 94-28.207 94-63s-42.086-63-94-63-94 28.207-94 63 42.086 63 94 63Zm0 0"/></clipPath><clipPath id="Q"><path d="M213 257h105v15H213Zm0 0"/></clipPath><clipPath id="R"><path d="M304.07 257.863 318 265l-14.066 6.863.054-6-88.996-.863-1-.012.02-1.996.996.008 89.004.863Zm0 0"/></clipPath><clipPath id="ae"><path d="M53 237h162v51H53Zm0 0"/></clipPath><clipPath id="af"><path d="M61 237h146a8 8 0 0 1 8 8v35a8 8 0 0 1-8 8H61a8 8 0 0 1-8-8v-35a8 8 0 0 1 8-8Zm0 0"/></clipPath><clipPath id="ag"><path d="M925 258h63v14h-63Zm0 0"/></clipPath><clipPath id="ah"><path d="m974 258 14 7-14 7v-6h-49v-2h49Zm0 0"/></clipPath></defs><g clip-path="url(#a)"><g clip-path="url(#b)" clip-rule="evenodd"><path style="stroke:none;fill-rule:nonzero;fill:#22c55e;fill-opacity:.02" d="M289 41h920v449H289Zm0 0"/><path style="fill:none;stroke-width:2;stroke-linecap:butt;stroke-linejoin:miter;stroke:#22c55e;stroke-opacity:1;stroke-miterlimit:5" d="M8 0h902a8 8 0 0 1 8 8v431a8 8 0 0 1-8 8H8a8 8 0 0 1-8-8V8a8 8 0 0 1 8-8Zm0 0" transform="translate(290 42)"/></g></g><g clip-path="url(#c)"><g clip-path="url(#d)" clip-rule="evenodd"><path style="stroke:none;fill-rule:nonzero;fill:#eab308;fill-opacity:.1" d="M306 139h638v268H306Zm0 0"/><path style="fill:none;stroke-width:2;stroke-linecap:butt;stroke-linejoin:miter;stroke:#eab308;stroke-opacity:1;stroke-miterlimit:5" d="M8 0h620a8 8 0 0 1 8 8v250a8 8 0 0 1-8 8H8a8 8 0 0 1-8-8V8a8 8 0 0 1 8-8Zm0 0" transform="translate(307 140)"/></g></g><g clip-path="url(#e)"><g clip-path="url(#f)" clip-rule="evenodd"><path style="stroke:none;fill-rule:nonzero;fill:#eab308;fill-opacity:1" d="M504.496 255.969H739v16H504.496Zm0 0"/></g></g><g clip-path="url(#g)"><g clip-path="url(#h)" clip-rule="evenodd"><path style="stroke:none;fill-rule:nonzero;fill:#3b82f6;fill-opacity:.1" d="M958 199h222v252H958Zm0 0"/><path style="fill:none;stroke-width:2;stroke-linecap:butt;stroke-linejoin:miter;stroke:#3b82f6;stroke-opacity:1;stroke-miterlimit:5" d="M8 0h204a8 8 0 0 1 8 8v234a8 8 0 0 1-8 8H8a8 8 0 0 1-8-8V8a8 8 0 0 1 8-8Zm0 0" transform="translate(959 200)"/></g></g><g style="fill:#000;fill-opacity:1"><use xlink:href="#i" x="1002.465" y="422"/><use xlink:href="#j" x="1028.816" y="422"/></g><use xlink:href="#k" x="1052.338" y="422" style="fill:#000;fill-opacity:1"/><use xlink:href="#l" x="1070.939" y="422" style="fill:#000;fill-opacity:1"/><use xlink:href="#j" x="1093.969" y="422" style="fill:#000;fill-opacity:1"/><use xlink:href="#k" x="1117.491" y="422" style="fill:#000;fill-opacity:1"/><g clip-path="url(#m)"><g clip-path="url(#n)" clip-rule="evenodd"><path style="stroke:none;fill-rule:nonzero;fill:#3b82f6;fill-opacity:.1" d="M987 241h164v53H987Zm0 0"/><path style="fill:none;stroke-width:2;stroke-linecap:butt;stroke-linejoin:miter;stroke:#3b82f6;stroke-opacity:1;stroke-miterlimit:5" d="M8 0h146a8 8 0 0 1 8 8v35a8 8 0 0 1-8 8H8a8 8 0 0 1-8-8V8a8 8 0 0 1 8-8Zm0 0" transform="translate(988 242)"/></g></g><g style="fill:#000;fill-opacity:1"><use xlink:href="#o" x="1008.472" y="275"/><use xlink:href="#p" x="1025.5" y="275"/></g><use xlink:href="#q" x="1039.144" y="275" style="fill:#000;fill-opacity:1"/><use xlink:href="#r" x="1046.86" y="275" style="fill:#000;fill-opacity:1"/><use xlink:href="#s" x="1060.024" y="275" style="fill:#000;fill-opacity:1"/><use xlink:href="#t" x="1080.424" y="275" style="fill:#000;fill-opacity:1"/><use xlink:href="#u" x="1097.452" y="275" style="fill:#000;fill-opacity:1"/><use xlink:href="#u" x="1113.472" y="275" style="fill:#000;fill-opacity:1"/><g clip-path="url(#v)"><g clip-path="url(#w)" clip-rule="evenodd"><path style="stroke:none;fill-rule:nonzero;fill:#ef4444;fill-opacity:.1" d="M23 107h222v313H23Zm0 0"/><path style="fill:none;stroke-width:2;stroke-linecap:butt;stroke-linejoin:miter;stroke:#ef4444;stroke-opacity:1;stroke-miterlimit:5" d="M8 0h204a8 8 0 0 1 8 8v295a8 8 0 0 1-8 8H8a8 8 0 0 1-8-8V8a8 8 0 0 1 8-8Zm0 0" transform="translate(24 108)"/></g></g><g style="fill:#000;fill-opacity:1"><use xlink:href="#x" x="64.213" y="182"/><use xlink:href="#j" x="96.882" y="182"/></g><use xlink:href="#l" x="119.752" y="182" style="fill:#000;fill-opacity:1"/><use xlink:href="#y" x="143.728" y="182" style="fill:#000;fill-opacity:1"/><use xlink:href="#z" x="157.086" y="182" style="fill:#000;fill-opacity:1"/><use xlink:href="#j" x="180.243" y="182" style="fill:#000;fill-opacity:1"/><g clip-path="url(#A)"><g clip-path="url(#B)" clip-rule="evenodd"><path style="stroke:none;fill-rule:nonzero;fill:#eab308;fill-opacity:.1" d="M317 198h190v128H317Zm0 0"/><path style="fill:none;stroke-width:2;stroke-linecap:butt;stroke-linejoin:miter;stroke:#eab308;stroke-opacity:1;stroke-miterlimit:5" d="M94 126c51.914 0 94-28.207 94-63S145.914 0 94 0 0 28.207 0 63s42.086 63 94 63Zm0 0" transform="translate(318 199)"/></g></g><g style="fill:#000;fill-opacity:1"><use xlink:href="#C" x="365.411" y="262"/><use xlink:href="#x" x="394.427" y="262"/><use xlink:href="#D" x="426.927" y="262"/></g><use xlink:href="#E" x="357.33" y="290" style="fill:#000;fill-opacity:1"/><use xlink:href="#p" x="373.215" y="290" style="fill:#000;fill-opacity:1"/><use xlink:href="#F" x="387.003" y="290" style="fill:#000;fill-opacity:1"/><g style="fill:#000;fill-opacity:1"><use xlink:href="#G" x="394.911" y="290"/><use xlink:href="#H" x="409.359" y="290"/></g><use xlink:href="#I" x="424.995" y="290" style="fill:#000;fill-opacity:1"/><use xlink:href="#J" x="440.864" y="290" style="fill:#000;fill-opacity:1"/><use xlink:href="#K" x="456.111" y="290" style="fill:#000;fill-opacity:1"/><g style="fill:#000;fill-opacity:1"><use xlink:href="#C" x="785.411" y="265"/><use xlink:href="#x" x="814.427" y="265"/><use xlink:href="#D" x="846.927" y="265"/></g><g clip-path="url(#L)"><g clip-path="url(#M)" clip-rule="evenodd"><path style="stroke:none;fill-rule:nonzero;fill:#eab308;fill-opacity:.1" d="M737 201h190v128H737Zm0 0"/><path style="fill:none;stroke-width:2;stroke-linecap:butt;stroke-linejoin:miter;stroke:#eab308;stroke-opacity:1;stroke-miterlimit:5" d="M94 126c51.914 0 94-28.207 94-63S145.914 0 94 0 0 28.207 0 63s42.086 63 94 63Zm0 0" transform="translate(738 202)"/></g></g><g style="fill:#000;fill-opacity:1"><use xlink:href="#N" x="786.682" y="293"/><use xlink:href="#r" x="796.21" y="293"/></g><use xlink:href="#K" x="809.938" y="293" style="fill:#000;fill-opacity:1"/><use xlink:href="#O" x="820.738" y="293" style="fill:#000;fill-opacity:1"/><use xlink:href="#p" x="831.85" y="293" style="fill:#000;fill-opacity:1"/><use xlink:href="#E" x="845.65" y="293" style="fill:#000;fill-opacity:1"/><use xlink:href="#P" x="861.538" y="293" style="fill:#000;fill-opacity:1"/><g clip-path="url(#Q)"><g clip-path="url(#R)" clip-rule="evenodd"><path style="stroke:none;fill-rule:nonzero;fill:#000;fill-opacity:1" d="M212.992 256.863H319v16H212.992Zm0 0"/></g></g><g style="fill:#000;fill-opacity:1"><use xlink:href="#S" x="813.385" y="86"/><use xlink:href="#K" x="830.307" y="86"/><use xlink:href="#T" x="840.917" y="86"/></g><use xlink:href="#U" x="856.52" y="86" style="fill:#000;fill-opacity:1"/><use xlink:href="#V" x="868.522" y="86" style="fill:#000;fill-opacity:1"/><use xlink:href="#p" x="877.693" y="86" style="fill:#000;fill-opacity:1"/><use xlink:href="#P" x="891.567" y="86" style="fill:#000;fill-opacity:1"/><use xlink:href="#W" x="913.412" y="86" style="fill:#000;fill-opacity:1"/><use xlink:href="#q" x="930.502" y="86" style="fill:#000;fill-opacity:1"/><use xlink:href="#J" x="938.233" y="86" style="fill:#000;fill-opacity:1"/><use xlink:href="#T" x="953.475" y="86" style="fill:#000;fill-opacity:1"/><use xlink:href="#P" x="968.981" y="86" style="fill:#000;fill-opacity:1"/><use xlink:href="#X" x="990.826" y="86" style="fill:#000;fill-opacity:1"/><use xlink:href="#p" x="1006.309" y="86" style="fill:#000;fill-opacity:1"/><use xlink:href="#K" x="1020.087" y="86" style="fill:#000;fill-opacity:1"/><use xlink:href="#Y" x="1030.985" y="86" style="fill:#000;fill-opacity:1"/><use xlink:href="#p" x="1044.572" y="86" style="fill:#000;fill-opacity:1"/><use xlink:href="#K" x="1058.35" y="86" style="fill:#000;fill-opacity:1"/><use xlink:href="#Z" x="1074.963" y="86" style="fill:#000;fill-opacity:1"/><use xlink:href="#p" x="1093.373" y="86" style="fill:#000;fill-opacity:1"/><use xlink:href="#V" x="1107.152" y="86" style="fill:#000;fill-opacity:1"/><use xlink:href="#aa" x="1116.922" y="86" style="fill:#000;fill-opacity:1"/><use xlink:href="#J" x="1136.773" y="86" style="fill:#000;fill-opacity:1"/><use xlink:href="#K" x="1152.015" y="86" style="fill:#000;fill-opacity:1"/><use xlink:href="#ab" x="1162.529" y="86" style="fill:#000;fill-opacity:1"/><g style="fill:#000;fill-opacity:1"><use xlink:href="#ac" x="664.214" y="172"/><use xlink:href="#r" x="677.637" y="172"/></g><use xlink:href="#U" x="691.517" y="172" style="fill:#000;fill-opacity:1"/><use xlink:href="#V" x="703.524" y="172" style="fill:#000;fill-opacity:1"/><use xlink:href="#ad" x="719.066" y="172" style="fill:#000;fill-opacity:1"/><use xlink:href="#p" x="738.225" y="172" style="fill:#000;fill-opacity:1"/><use xlink:href="#q" x="751.865" y="172" style="fill:#000;fill-opacity:1"/><use xlink:href="#F" x="759.576" y="172" style="fill:#000;fill-opacity:1"/><use xlink:href="#Y" x="767.383" y="172" style="fill:#000;fill-opacity:1"/><use xlink:href="#p" x="780.974" y="172" style="fill:#000;fill-opacity:1"/><use xlink:href="#K" x="794.757" y="172" style="fill:#000;fill-opacity:1"/><use xlink:href="#s" x="805.613" y="172" style="fill:#000;fill-opacity:1"/><use xlink:href="#W" x="826.027" y="172" style="fill:#000;fill-opacity:1"/><use xlink:href="#H" x="843.098" y="172" style="fill:#000;fill-opacity:1"/><use xlink:href="#r" x="858.945" y="172" style="fill:#000;fill-opacity:1"/><use xlink:href="#E" x="872.681" y="172" style="fill:#000;fill-opacity:1"/><use xlink:href="#E" x="888.576" y="172" style="fill:#000;fill-opacity:1"/><use xlink:href="#p" x="904.471" y="172" style="fill:#000;fill-opacity:1"/><use xlink:href="#q" x="918.11" y="172" style="fill:#000;fill-opacity:1"/><g clip-path="url(#ae)"><g clip-path="url(#af)" clip-rule="evenodd"><path style="stroke:none;fill-rule:nonzero;fill:#ef4444;fill-opacity:.1" d="M52 236h164v53H52Zm0 0"/><path style="fill:none;stroke-width:2;stroke-linecap:butt;stroke-linejoin:miter;stroke:#ef4444;stroke-opacity:1;stroke-miterlimit:5" d="M8 0h146a8 8 0 0 1 8 8v35a8 8 0 0 1-8 8H8a8 8 0 0 1-8-8V8a8 8 0 0 1 8-8Zm0 0" transform="translate(53 237)"/></g></g><g style="fill:#000;fill-opacity:1"><use xlink:href="#o" x="73.472" y="270"/><use xlink:href="#p" x="90.5" y="270"/></g><use xlink:href="#q" x="104.144" y="270" style="fill:#000;fill-opacity:1"/><use xlink:href="#r" x="111.86" y="270" style="fill:#000;fill-opacity:1"/><use xlink:href="#s" x="125.024" y="270" style="fill:#000;fill-opacity:1"/><use xlink:href="#t" x="145.424" y="270" style="fill:#000;fill-opacity:1"/><use xlink:href="#u" x="162.452" y="270" style="fill:#000;fill-opacity:1"/><use xlink:href="#u" x="178.472" y="270" style="fill:#000;fill-opacity:1"/><g clip-path="url(#ag)"><g clip-path="url(#ah)" clip-rule="evenodd"><path style="stroke:none;fill-rule:nonzero;fill:#eab308;fill-opacity:1" d="M924 257h65v16h-65Zm0 0"/></g></g></svg>