<svg xmlns="http://www.w3.org/2000/svg" xmlns:xlink="http://www.w3.org/1999/xlink" width="796" height="832" viewBox="0 0 597 624" version="1.2"><defs><symbol overflow="visible" id="h"><path style="stroke:none" d="M.188-15.328h6.53v1.312h-.343c-.21 0-.43.012-.656.032-.23.011-.422.03-.578.062-.149.024-.22.063-.22.125L7.5-2.187l-.266.046 3.016-13.187h3.39L16.72-2.25h-.266l2.469-11.375c0-.082-.074-.148-.219-.203a2.22 2.22 0 0 0-.547-.14 4.247 4.247 0 0 0-.625-.048h-.328v-1.312h4.656v1.312h-.109c-.336 0-.617.063-.844.188-.218.125-.367.375-.437.75L17.562 0h-3.5l-2.984-13.016.219.016L8.312 0H4.688l-3.11-13.297c-.074-.32-.219-.52-.437-.594-.211-.082-.48-.125-.813-.125h-.14Zm0 0"/></symbol><symbol overflow="visible" id="i"><path style="stroke:none" d="M4.078-5.438c0 .649.067 1.227.203 1.735.133.5.336.93.61 1.281.28.344.613.606 1 .781.394.18.843.266 1.343.266.54 0 1.004-.102 1.391-.313a3.69 3.69 0 0 0 1-.796c.281-.313.516-.633.703-.97l1.25.97a5.747 5.747 0 0 1-1.062 1.406 4.57 4.57 0 0 1-1.547.953c-.594.227-1.309.344-2.14.344-1.2 0-2.25-.227-3.157-.688a5.185 5.185 0 0 1-2.125-1.984c-.5-.852-.75-1.863-.75-3.031 0-1.133.242-2.133.734-3a5.327 5.327 0 0 1 2.016-2.032c.863-.488 1.828-.734 2.89-.734.864 0 1.625.137 2.282.406a4.01 4.01 0 0 1 1.64 1.188c.446.523.79 1.18 1.032 1.969.238.792.359 1.718.359 2.78H3.687v-1.437h5.454l-.547.578c-.012-.718-.063-1.328-.156-1.828-.086-.508-.211-.914-.376-1.218a1.674 1.674 0 0 0-.656-.672 1.881 1.881 0 0 0-.922-.22c-.336 0-.652.09-.953.267-.293.18-.547.449-.765.812-.211.355-.375.797-.5 1.328-.125.524-.188 1.14-.188 1.86Zm0 0"/></symbol><symbol overflow="visible" id="j"><path style="stroke:none" d="M8.36.219a5.163 5.163 0 0 1-1.61-.235A3.88 3.88 0 0 1 5.484-.75a6.145 6.145 0 0 1-1.062-1.266v-2.5c.32.637.64 1.18.953 1.625.32.45.664.793 1.031 1.032.364.23.774.343 1.235.343.414 0 .78-.093 1.093-.28.313-.196.567-.474.766-.829.195-.363.348-.797.453-1.297.102-.508.156-1.07.156-1.687 0-.625-.054-1.172-.156-1.641A4.442 4.442 0 0 0 9.5-8.484a1.925 1.925 0 0 0-.719-.766 1.855 1.855 0 0 0-1-.266c-.468 0-.89.121-1.265.36-.375.23-.73.586-1.063 1.062a15.344 15.344 0 0 0-1.031 1.781v-2.093c.406-.656.805-1.192 1.203-1.61a3.907 3.907 0 0 1 1.297-.921c.469-.208 1.008-.313 1.625-.313 1 0 1.867.234 2.61.703.738.469 1.312 1.133 1.718 1.985.414.843.625 1.828.625 2.953 0 1.148-.219 2.156-.656 3.03-.43.868-1.028 1.548-1.797 2.048-.774.5-1.668.75-2.688.75ZM1.812-13.75c0-.176-.043-.313-.125-.406-.086-.094-.215-.164-.391-.219a5.334 5.334 0 0 0-.672-.172l-.219-.047v-1.281h4.672V-2.5l-.375.234L3.828.047H1.813Zm0 0"/></symbol><symbol overflow="visible" id="k"><path style="stroke:none" d="M7.313-2.75c0-.25-.075-.46-.22-.64a1.54 1.54 0 0 0-.577-.438 5.15 5.15 0 0 0-.844-.297c-.313-.082-.64-.172-.984-.266-.45-.113-.891-.238-1.329-.375a5.037 5.037 0 0 1-1.218-.593 2.994 2.994 0 0 1-.891-.985c-.219-.394-.328-.894-.328-1.5 0-.718.187-1.332.562-1.843.375-.52.907-.91 1.594-1.172.695-.27 1.516-.407 2.453-.407.75 0 1.399.059 1.953.172.551.117 1 .25 1.344.406.344.157.586.293.735.407v2.297H7.14v-1.922c.207-.02.367 0 .484.062a.385.385 0 0 1 .219.25c.039.106.05.219.031.344a1.136 1.136 0 0 1-.094.36 2.017 2.017 0 0 0-.593-.5 2.468 2.468 0 0 0-.75-.297 3.624 3.624 0 0 0-.907-.11c-.605 0-1.058.125-1.36.375a1.154 1.154 0 0 0-.452.953c0 .262.07.485.219.672.156.18.359.328.609.453.258.117.555.219.89.313.333.093.68.183 1.047.265.438.118.883.25 1.344.407.457.156.867.359 1.234.609.364.25.657.57.876.953.226.375.343.852.343 1.422 0 .742-.199 1.383-.594 1.922-.386.543-.949.96-1.687 1.25-.742.281-1.652.422-2.734.422-.75 0-1.434-.059-2.047-.172a8.02 8.02 0 0 1-1.563-.438A10.352 10.352 0 0 1 .563-.92v-2.485h2.453v2.562a1.72 1.72 0 0 1-.563-.39 1.256 1.256 0 0 1-.25-.454.606.606 0 0 1 0-.39.46.46 0 0 1 .188-.25c.238.242.492.445.765.61.281.155.598.273.953.343.352.063.739.094 1.157.094.414 0 .78-.051 1.093-.157.313-.101.547-.265.704-.484.164-.226.25-.504.25-.828Zm0 0"/></symbol><symbol overflow="visible" id="l"><path style="stroke:none" d="M12.938-5.5c0 1.117-.258 2.105-.766 2.969A5.257 5.257 0 0 1 10.062-.5c-.906.48-1.976.719-3.203.719C5.641.219 4.58-.02 3.672-.5a5.348 5.348 0 0 1-2.125-2.031c-.5-.864-.75-1.852-.75-2.969 0-.852.14-1.629.422-2.328.281-.695.691-1.3 1.234-1.813a5.735 5.735 0 0 1 1.922-1.187c.738-.281 1.566-.422 2.484-.422.914 0 1.743.14 2.485.422.738.281 1.379.68 1.922 1.187.539.512.953 1.118 1.234 1.813.29.7.438 1.476.438 2.328Zm-8.766 0c0 .875.101 1.633.312 2.266.22.636.532 1.12.938 1.453.406.324.883.484 1.437.484.563 0 1.047-.16 1.454-.484.406-.332.71-.817.921-1.453.207-.633.313-1.391.313-2.266 0-.906-.106-1.664-.313-2.281-.21-.625-.515-1.098-.921-1.422-.407-.332-.891-.5-1.454-.5-.554 0-1.03.168-1.437.5-.406.324-.719.797-.938 1.422-.21.617-.312 1.375-.312 2.281Zm0 0"/></symbol><symbol overflow="visible" id="m"><path style="stroke:none" d="M7.281-1.36c.563 0 1.04-.117 1.438-.359a3.81 3.81 0 0 0 1.031-.875c.29-.351.54-.695.75-1.031l1.203.953a6.693 6.693 0 0 1-1.11 1.469c-.437.437-.964.789-1.577 1.047-.618.25-1.34.375-2.172.375-1.2 0-2.25-.235-3.157-.703a5.273 5.273 0 0 1-2.124-2C1.05-3.348.796-4.352.796-5.5c0-1.188.258-2.203.781-3.047A5.263 5.263 0 0 1 3.75-10.53c.938-.477 2.035-.719 3.297-.719.789 0 1.484.086 2.078.25a8.909 8.909 0 0 1 1.484.547c.395.2.68.383.86.547v2.844h-2.64V-9.72c.187.031.343.09.468.172a.63.63 0 0 1 .265.297.798.798 0 0 1-.046.781c-.2-.351-.508-.644-.922-.875a2.817 2.817 0 0 0-1.422-.36c-.649 0-1.195.18-1.64.532-.45.344-.79.828-1.016 1.453-.23.625-.344 1.367-.344 2.219 0 .625.066 1.2.203 1.719.145.511.348.949.61 1.312.257.356.581.633.968.828.395.188.836.282 1.328.282Zm0 0"/></symbol><symbol overflow="visible" id="n"><path style="stroke:none" d="M14.094 0h-6.36v-1.234h.063c.144 0 .312-.004.5-.016.187-.02.344-.04.469-.063.132-.03.203-.066.203-.109L5.813-5.609v-.344l3.75-3.438c0-.113-.094-.195-.282-.25a3.952 3.952 0 0 0-.656-.109 8.856 8.856 0 0 0-.672-.031h-.14v-1.25h5.515v1.25h-.047c-.273 0-.543.039-.812.11a3.04 3.04 0 0 0-.75.327 3.853 3.853 0 0 0-.703.516L7.687-5.781l.547-1.453 4.032 5.25c.156.199.328.355.515.468.188.106.39.18.61.22.218.042.441.062.671.062h.032ZM5.297-15.875v14.453c0 .043.066.078.203.11.133.023.29.042.469.062.176.012.336.016.484.016h.063V0H.64v-1.234h.03c.407 0 .735-.047.985-.141.25-.094.375-.273.375-.547V-13.75c0-.176-.047-.313-.14-.406-.086-.094-.215-.164-.391-.219a4.562 4.562 0 0 0-.656-.172l-.219-.047v-1.281Zm0 0"/></symbol><symbol overflow="visible" id="o"><path style="stroke:none" d="M.11-9.563v-1.359h.077c.352 0 .657-.023.907-.078.258-.05.457-.145.593-.281.145-.133.22-.336.22-.61l2 .86h4.077v1.469ZM5.03-3.827c0 .594.067 1.062.203 1.406.133.344.329.594.579.75.257.149.566.219.921.219.29 0 .563-.024.813-.078.25-.063.445-.114.594-.157v1.532a2.085 2.085 0 0 1-.5.172 4.63 4.63 0 0 1-.735.14C6.633.196 6.332.22 6 .22a6.217 6.217 0 0 1-2.14-.36 3.067 3.067 0 0 1-1.547-1.234C1.937-1.957 1.75-2.75 1.75-3.75v-6.875l.156-.172v-3.234h3.125Zm0 0"/></symbol><symbol overflow="visible" id="p"><path style="stroke:none" d="M3.781-6.688c0-1.082.102-2.097.313-3.046.207-.946.488-1.829.843-2.641.364-.82.758-1.547 1.188-2.172a10.91 10.91 0 0 1 1.281-1.578v-.078H5.328a9.764 9.764 0 0 0-1.687 1.64 11.835 11.835 0 0 0-1.438 2.22c-.418.812-.746 1.698-.984 2.655-.242.961-.36 1.961-.36 3 0 1.032.118 2.028.36 2.985.238.96.566 1.851.984 2.672.414.812.895 1.547 1.438 2.203a9.764 9.764 0 0 0 1.687 1.64h2.078V2.75c-.43-.438-.855-.969-1.281-1.594A13.597 13.597 0 0 1 4.937-1a14.133 14.133 0 0 1-1.156-5.688Zm0 0"/></symbol><symbol overflow="visible" id="q"><path style="stroke:none" d="M7.14-1.406c.563 0 1.036-.07 1.423-.219a1.86 1.86 0 0 0 .906-.719c.219-.332.328-.742.328-1.234 0-.445-.106-.817-.313-1.11a2.65 2.65 0 0 0-.859-.765 5.959 5.959 0 0 0-1.266-.531c-.492-.157-1.015-.32-1.578-.5a16.482 16.482 0 0 1-1.672-.563 5.945 5.945 0 0 1-1.468-.875 3.994 3.994 0 0 1-1.047-1.344c-.262-.53-.39-1.187-.39-1.968 0-.907.222-1.676.671-2.313a4.451 4.451 0 0 1 1.813-1.484c.75-.344 1.57-.516 2.468-.516.727 0 1.39.106 1.985.313.601.199 1.132.543 1.593 1.03.47.493.864 1.169 1.188 2.032l-1.016-.047.422-3.11h1.469v4.063h-1.719c-.2-.582-.469-1.07-.812-1.468a3.506 3.506 0 0 0-1.22-.907 3.673 3.673 0 0 0-1.5-.312c-.523 0-.964.086-1.327.25a1.807 1.807 0 0 0-.813.672c-.187.293-.281.648-.281 1.062 0 .406.098.746.297 1.016.207.262.484.484.828.672.352.187.766.351 1.234.484.47.125.961.262 1.485.406.613.157 1.207.352 1.781.579.582.23 1.102.523 1.563.874.457.344.816.79 1.078 1.329.257.53.39 1.195.39 1.984 0 1-.23 1.867-.687 2.594-.45.719-1.078 1.277-1.89 1.672-.806.382-1.735.578-2.798.578a7.374 7.374 0 0 1-2.39-.39A5.298 5.298 0 0 1 3-1.438c-.594-.594-1.063-1.391-1.406-2.391l1.125.172L2.329 0H.75v-4.813h1.813c.25.711.601 1.32 1.062 1.829a4.661 4.661 0 0 0 3.516 1.578Zm0 0"/></symbol><symbol overflow="visible" id="r"><path style="stroke:none" d="M8.047-6.656v1.25c-.574.062-1.078.152-1.516.265a6.064 6.064 0 0 0-1.156.391 3.013 3.013 0 0 0-.813.5c-.21.188-.367.406-.468.656-.094.242-.14.5-.14.781 0 .325.054.602.171.829.125.23.3.406.531.53.239.118.516.173.828.173.383 0 .735-.102 1.047-.313a2.96 2.96 0 0 0 .828-.86c.25-.362.47-.796.657-1.296v1.547c-.211.523-.485.96-.829 1.312-.343.356-.75.633-1.218.829a4.222 4.222 0 0 1-1.578.28C3.68.219 3.062.11 2.53-.108a2.824 2.824 0 0 1-1.25-1C.988-1.547.844-2.08.844-2.703c0-.602.148-1.117.453-1.547.3-.438.754-.805 1.36-1.11.6-.312 1.35-.57 2.25-.78a29.28 29.28 0 0 1 3.14-.516ZM7.78 0v-2.203h-.25v-5.61c0-.468-.07-.835-.203-1.109a1.269 1.269 0 0 0-.594-.61c-.261-.124-.586-.187-.968-.187-.575 0-1.047.125-1.422.375a2.778 2.778 0 0 0-.89.906c-.106-.164-.153-.316-.142-.453a.78.78 0 0 1 .126-.375.886.886 0 0 1 .312-.312c.133-.094.297-.16.484-.203v2.25H1.563v-2.313c.207-.156.515-.344.921-.562.407-.227.91-.426 1.516-.594a8.12 8.12 0 0 1 2.094-.25c.656 0 1.258.07 1.812.203.563.137 1.051.356 1.469.656.426.293.758.672 1 1.141.238.469.36 1.031.36 1.688v5.593c0 .157.05.282.156.375.113.094.265.168.453.219.195.043.426.074.687.094h.063V0Zm0 0"/></symbol><symbol overflow="visible" id="s"><path style="stroke:none" d="M.5-11.031h8.156v1.469H.5Zm8.89-4.922v1.61a6.771 6.771 0 0 0-.734-.22 3.697 3.697 0 0 0-.969-.124c-.386 0-.73.074-1.03.218-.305.149-.54.39-.704.735-.168.343-.25.836-.25 1.468v10.844c0 .043.082.078.25.11.164.023.375.042.625.062.258.012.55.016.875.016h.234V0h-7v-1.234h.235c.476 0 .848-.047 1.11-.141.269-.102.405-.3.405-.594v-10.078c0-1.05.227-1.875.688-2.469a3.883 3.883 0 0 1 1.813-1.296 7.16 7.16 0 0 1 2.375-.391c.445 0 .859.027 1.234.078.375.043.656.102.844.172Zm0 0"/></symbol><symbol overflow="visible" id="t"><path style="stroke:none" d="M5.031-11.031v7.484c0 .438.047.793.14 1.063.095.273.24.48.438.625.207.136.485.203.829.203.375 0 .722-.086 1.046-.266.332-.187.657-.469.97-.844.312-.375.608-.847.89-1.421v1.906a5.63 5.63 0 0 1-1.078 1.39 4.12 4.12 0 0 1-1.329.829 4.39 4.39 0 0 1-1.609.28c-.7 0-1.32-.132-1.86-.39A2.888 2.888 0 0 1 2.204-1.39c-.293-.55-.437-1.234-.437-2.046v-5.454c0-.257-.094-.441-.282-.546-.187-.102-.492-.192-.906-.266L.36-9.734v-1.297Zm7.14 0v9.062c0 .157.056.282.173.375.125.094.281.168.469.219.195.043.425.074.687.094h.11V0H9.155v-2.39l-.234-.047v-6.454a.56.56 0 0 0-.344-.546c-.23-.102-.562-.192-1-.266l-.36-.031v-1.297Zm0 0"/></symbol><symbol overflow="visible" id="u"><path style="stroke:none" d="M5.219-15.875v13.953c0 .274.129.453.39.547.258.094.586.14.985.14h.015V0H.58v-1.234h.03c.395 0 .72-.047.97-.141.257-.094.39-.273.39-.547V-13.75c0-.176-.047-.313-.14-.406-.087-.094-.216-.164-.391-.219a4.562 4.562 0 0 0-.657-.172l-.219-.047v-1.281Zm0 0"/></symbol><symbol overflow="visible" id="v"><path style="stroke:none" d="M3.734-6.688c0-1.082-.105-2.097-.312-3.046a13.85 13.85 0 0 0-.86-2.641 13.135 13.135 0 0 0-1.171-2.172 11.457 11.457 0 0 0-1.282-1.578v-.078h2.079a10.05 10.05 0 0 1 1.687 1.64c.54.657 1.02 1.399 1.438 2.22a12.42 12.42 0 0 1 1.344 5.656c0 1.03-.122 2.027-.36 2.984-.242.96-.57 1.851-.984 2.672a12.38 12.38 0 0 1-1.438 2.203 10.05 10.05 0 0 1-1.688 1.64H.11V2.75c.426-.438.852-.969 1.282-1.594C1.816.531 2.207-.187 2.562-1c.364-.813.649-1.691.86-2.64.207-.958.312-1.973.312-3.047Zm0 0"/></symbol><symbol overflow="visible" id="x"><path style="stroke:none" d="M5.875-2.094v-11.719h-.844c-.562 0-1.023.024-1.375.063-.355.043-.62.137-.797.281-.168.137-.265.336-.296.594l-.172 2.266H.719v-4.72h13.765v4.72h-1.671l-.188-2.266c-.012-.258-.105-.457-.281-.594-.18-.144-.446-.238-.797-.281-.356-.04-.813-.063-1.375-.063h-.844v11.72c0 .312.133.523.406.624.282.106.633.157 1.063.157h.328V0H4.078v-1.313h.328c.426 0 .774-.05 1.047-.156.281-.101.422-.312.422-.625Zm0 0"/></symbol><symbol overflow="visible" id="y"><path style="stroke:none" d="M7.75-15.328H.781v1.312H1c.426 0 .773.055 1.047.157.281.093.422.304.422.625v11.14c0 .313-.14.524-.422.625-.274.106-.621.157-1.047.157H.781V0h12.094v-5.047h-1.719l-.203 2.563c-.023.261-.121.46-.297.593-.18.125-.453.215-.828.266-.375.043-.86.063-1.453.063H5.922v-11.704c0-.3.144-.5.437-.593.29-.102.66-.157 1.11-.157h.281Zm0 0"/></symbol><symbol overflow="visible" id="z"><path style="stroke:none" d="m9.063-1.14-.594-.907 3.797-11.578c0-.082-.075-.148-.22-.203a2.266 2.266 0 0 0-.562-.14 4.773 4.773 0 0 0-.671-.048h-.297v-1.312h4.687v1.312h-.094c-.355 0-.632.059-.828.172-.187.117-.351.371-.484.766L9.484 0H6L1.531-13.406c-.086-.27-.23-.438-.437-.5-.2-.07-.465-.11-.797-.11h-.11v-1.312h6.579v1.312H6.39c-.22 0-.438.012-.657.032a4.44 4.44 0 0 0-.578.062c-.156.024-.234.063-.234.125Zm0 0"/></symbol><symbol overflow="visible" id="A"><path style="stroke:none" d="M.781 0v-1.313H1c.281 0 .531-.019.75-.062.227-.05.406-.133.531-.25a.6.6 0 0 0 .188-.469v-11.14c0-.22-.063-.38-.188-.485-.125-.113-.304-.191-.531-.234a4.273 4.273 0 0 0-.75-.063H.781v-1.312h6.5L10.75-3.297l-.64-.875 3.468-11.156H20v1.312h-.234c-.282 0-.54.024-.766.063-.23.043-.406.121-.531.234-.117.106-.172.266-.172.485v11.14c0 .2.055.356.172.469.125.117.3.2.531.25.227.043.484.063.766.063H20V0h-6.734v-1.313h.187c.227 0 .445-.003.656-.015.207-.02.38-.047.516-.078.133-.04.203-.082.203-.125V-14.86l.266.046L10.438.047H8.546L3.859-14.828h.313v13.297c0 .043.07.086.219.125.156.031.347.058.578.078.226.012.441.016.64.016h.11V0Zm0 0"/></symbol><symbol overflow="visible" id="B"><path style="stroke:none" d="M10.047-16.016H7.64L-.344 2.954h2.422Zm0 0"/></symbol><symbol overflow="visible" id="C"><path style="stroke:none" d="M9.031-11.094v2.86a8.606 8.606 0 0 1-.39-.079 2.948 2.948 0 0 0-.438-.062 3.45 3.45 0 0 0-1.39.094c-.282.086-.543.21-.782.375a2.323 2.323 0 0 0-.64.64c-.18.274-.356.59-.532.954v-1.329a8.682 8.682 0 0 1 .735-1.843c.289-.532.648-.946 1.078-1.25.426-.301.945-.454 1.562-.454.164 0 .32.012.47.032.144.011.253.031.327.062ZM.625 0v-1.234h.047c.383 0 .703-.047.953-.141.258-.094.39-.273.39-.547V-8.89c0-.175-.042-.312-.124-.406-.086-.094-.215-.164-.391-.219a6.663 6.663 0 0 0-.672-.187l-.203-.031v-1.297h4.422v3.39l.25-.234v6.125c0 .156.082.273.25.344.176.074.379.12.61.14.238.024.452.032.64.032h.25V0Zm0 0"/></symbol><symbol overflow="visible" id="D"><path style="stroke:none" d="M1.906.797v-9.688a.5.5 0 0 0-.172-.406c-.105-.101-.261-.18-.468-.234a6.46 6.46 0 0 0-.75-.172l-.25-.031v-1.297h4.89V.516c0 .863-.117 1.586-.343 2.171-.231.583-.555 1.051-.97 1.407-.405.351-.898.61-1.468.765A6.999 6.999 0 0 1 .5 5.094c-.45 0-.86-.032-1.234-.094-.383-.055-.672-.121-.86-.203v-1.64c.23.081.48.155.75.218.262.07.547.11.86.11.406 0 .742-.087 1.015-.25.282-.157.492-.434.64-.829.157-.398.235-.933.235-1.61Zm1.547-13.625c-.562 0-1.015-.14-1.36-.422-.335-.29-.5-.691-.5-1.203 0-.508.165-.906.5-1.188.345-.28.798-.421 1.36-.421.563 0 1.008.14 1.344.421.344.282.516.68.516 1.188 0 .512-.172.914-.516 1.203-.336.281-.781.422-1.344.422Zm0 0"/></symbol><symbol overflow="visible" id="E"><path style="stroke:none" d="M.625 0v-1.234h.047a3.3 3.3 0 0 0 .687-.063c.196-.039.352-.11.47-.203a.514.514 0 0 0 .187-.422V-8.89c0-.175-.043-.312-.125-.406-.086-.094-.215-.164-.391-.219a6.663 6.663 0 0 0-.672-.187l-.203-.031v-1.297h4.422v2.375l.25.062v7.172c0 .043.062.078.187.11.125.023.274.042.454.062.187.012.359.016.515.016h.063V0Zm13.281 0h-5.89v-1.234h.03c.165 0 .345-.004.532-.016.188-.02.344-.04.469-.063.125-.03.187-.066.187-.109v-6.11c0-.413-.046-.757-.14-1.03-.086-.27-.23-.47-.438-.594-.199-.125-.469-.188-.812-.188-.399 0-.766.094-1.11.281-.343.188-.671.477-.984.86a8.12 8.12 0 0 0-.89 1.406v-1.86c.3-.562.648-1.03 1.046-1.405a4.04 4.04 0 0 1 1.36-.876 4.356 4.356 0 0 1 1.656-.312c.726 0 1.36.137 1.89.406.54.274.961.68 1.266 1.219.3.531.453 1.21.453 2.031v5.672c0 .18.055.32.172.422.113.094.27.164.469.203.195.043.426.063.687.063h.047Zm0 0"/></symbol><symbol overflow="visible" id="G"><path style="stroke:none" d="M8.656.219c-1.125 0-2.164-.188-3.11-.563a7.309 7.309 0 0 1-2.484-1.61 7.449 7.449 0 0 1-1.64-2.484C1.035-5.405.844-6.483.844-7.671c0-1.176.191-2.242.578-3.203a7.294 7.294 0 0 1 1.64-2.484 7.367 7.367 0 0 1 2.485-1.61c.945-.383 1.984-.578 3.11-.578 1.124 0 2.16.195 3.109.578a7.445 7.445 0 0 1 2.484 1.61 7.075 7.075 0 0 1 1.64 2.484c.383.96.579 2.027.579 3.203 0 1.188-.196 2.266-.578 3.234a7.22 7.22 0 0 1-1.641 2.485c-.71.7-1.54 1.234-2.484 1.61-.95.374-1.985.562-3.11.562Zm0-1.64a3.55 3.55 0 0 0 1.703-.407 3.884 3.884 0 0 0 1.313-1.219c.363-.539.648-1.195.86-1.969.206-.77.312-1.656.312-2.656 0-.988-.106-1.867-.313-2.64-.21-.77-.496-1.422-.86-1.954-.366-.539-.804-.945-1.312-1.218a3.473 3.473 0 0 0-1.703-.422c-.605 0-1.168.14-1.687.422-.512.273-.953.68-1.328 1.218-.368.532-.653 1.184-.86 1.954-.21.773-.312 1.652-.312 2.64 0 1 .101 1.887.312 2.656.207.774.492 1.43.86 1.97.375.53.816.937 1.328 1.218.52.273 1.082.406 1.687.406Zm0 0"/></symbol><symbol overflow="visible" id="H"><path style="stroke:none" d="M3.578-12.828c-.555 0-1-.14-1.344-.422-.336-.29-.5-.691-.5-1.203 0-.508.164-.906.5-1.188.344-.28.79-.421 1.344-.421.563 0 1.008.14 1.344.421.344.282.516.68.516 1.188 0 .512-.172.914-.516 1.203-.336.281-.781.422-1.344.422Zm1.719 1.797v9.11c0 .273.125.452.375.546.258.094.586.14.984.14h.016V0H.64v-1.234h.03c.384 0 .708-.047.97-.141.257-.094.39-.273.39-.547V-8.89c0-.257-.101-.437-.297-.53-.187-.095-.484-.188-.89-.282l-.219-.031v-1.297Zm0 0"/></symbol><symbol overflow="visible" id="I"><path style="stroke:none" d="M12.89-9a14.21 14.21 0 0 0-1.53-.172 5.83 5.83 0 0 0-1.126.016c-.312.043-.578.14-.796.297l-.376-.188a6.27 6.27 0 0 1 .72-1.14 3.92 3.92 0 0 1 .859-.797c.32-.207.671-.352 1.046-.438a3.606 3.606 0 0 1 1.204-.047ZM6.11-3.406c-.962 0-1.81-.156-2.548-.469-.73-.32-1.304-.773-1.718-1.36-.407-.581-.61-1.269-.61-2.062 0-.789.207-1.476.625-2.062.414-.594.989-1.055 1.72-1.391.737-.332 1.581-.5 2.53-.5.946 0 1.79.168 2.532.5.75.336 1.332.797 1.75 1.39.414.587.625 1.274.625 2.063 0 .793-.211 1.48-.625 2.063-.418.586-1 1.039-1.75 1.359-.743.313-1.586.469-2.532.469Zm0-1.438c.382 0 .71-.082.984-.25.281-.176.492-.445.64-.812.145-.364.22-.82.22-1.375 0-.54-.075-1-.22-1.375-.148-.375-.359-.656-.64-.844-.274-.188-.602-.281-.985-.281-.375 0-.699.094-.968.281-.274.188-.485.469-.641.844-.148.375-.219.836-.219 1.375 0 .554.07 1.011.219 1.375.156.367.367.636.64.812.27.168.594.25.97.25ZM5.5 5.094c-1.043 0-1.977-.086-2.797-.25-.812-.168-1.45-.446-1.906-.828-.461-.387-.688-.903-.688-1.547 0-.367.102-.688.313-.969.207-.273.523-.516.953-.734.438-.22 1.008-.434 1.719-.641l.844.61a4.402 4.402 0 0 0-.766.453c-.2.156-.344.32-.438.5a1.365 1.365 0 0 0-.125.578c0 .3.11.546.329.734.226.195.57.348 1.03.453.47.113 1.067.172 1.798.172h.671c.72 0 1.333-.078 1.844-.234.52-.149.922-.344 1.203-.594.282-.25.422-.543.422-.875 0-.313-.12-.543-.36-.688-.23-.136-.663-.203-1.296-.203H2.984L2.875.828A5.815 5.815 0 0 1 1.687.156a2.02 2.02 0 0 1-.656-.781 2.421 2.421 0 0 1-.187-.969c0-.406.101-.781.312-1.125.207-.344.524-.66.953-.953.426-.289.954-.55 1.579-.781l1.062.562a4.241 4.241 0 0 0-.766.391 1.983 1.983 0 0 0-.5.453.9.9 0 0 0-.156.516c0 .281.125.484.375.61.25.116.629.171 1.14.171h3.563c.914 0 1.688.105 2.313.313.625.21 1.101.527 1.437.953.332.43.5.96.5 1.609 0 .895-.273 1.633-.812 2.219-.543.594-1.278 1.031-2.203 1.312-.93.29-1.97.438-3.125.438Zm0 0"/></symbol><symbol overflow="visible" id="J"><path style="stroke:none" d="M8.578-13.89c-.605 0-1.164.152-1.672.453-.5.292-.933.71-1.297 1.25-.355.542-.636 1.195-.843 1.953-.2.761-.297 1.617-.297 2.562 0 .969.097 1.836.297 2.594.207.762.492 1.414.859 1.953.363.543.816.96 1.36 1.25.55.281 1.175.422 1.874.422.727 0 1.375-.176 1.938-.531a4.53 4.53 0 0 0 1.437-1.5 7.03 7.03 0 0 0 .829-2.172l1.515.578c-.23 1.043-.61 1.965-1.14 2.766a5.525 5.525 0 0 1-2.032 1.859c-.836.45-1.824.672-2.969.672-1.105 0-2.12-.188-3.046-.563a7.026 7.026 0 0 1-2.407-1.625c-.68-.695-1.203-1.531-1.578-2.5-.375-.968-.562-2.035-.562-3.203 0-1.164.191-2.226.578-3.187.394-.97.926-1.801 1.594-2.5a7.099 7.099 0 0 1 2.343-1.61 7.044 7.044 0 0 1 2.829-.578c1.007 0 1.847.168 2.515.5a4.45 4.45 0 0 1 1.656 1.39 6.992 6.992 0 0 1 1 2.032l-1.03-.125.39-3.578h1.594v4.765h-1.86a5.81 5.81 0 0 0-.828-1.75 3.794 3.794 0 0 0-1.281-1.156c-.492-.281-1.078-.422-1.766-.422Zm0 0"/></symbol><symbol overflow="visible" id="K"><path style="stroke:none" d="M5.938-1.531v-12.25h1.656c.656 0 1.203.12 1.64.36.438.23.77.573 1 1.03.227.45.344 1.012.344 1.688 0 .668-.121 1.246-.36 1.734-.23.48-.573.844-1.03 1.094-.45.25-1.012.375-1.688.375H5.297v1.547h2.781c1.238 0 2.3-.203 3.188-.61.894-.406 1.582-.968 2.062-1.687.488-.719.735-1.563.735-2.531 0-1.406-.516-2.516-1.547-3.328-1.024-.813-2.465-1.22-4.329-1.22H.829v1.313h.203c.438 0 .79.055 1.063.157.27.093.406.304.406.625v11.14c0 .313-.137.524-.406.625-.274.106-.625.157-1.063.157H.828V0h7.016v-1.313h-.547c-.156 0-.313-.003-.469-.015a3.577 3.577 0 0 1-.437-.047 3.824 3.824 0 0 1-.329-.063c-.085-.019-.125-.05-.125-.093Zm0 0"/></symbol><symbol overflow="visible" id="L"><path style="stroke:none" d="M5.875-5.922c0 .813.078 1.496.234 2.047.157.543.383.977.688 1.297.3.324.664.562 1.094.719.425.148.906.218 1.437.218.5 0 .957-.078 1.375-.234a2.71 2.71 0 0 0 1.094-.734c.312-.332.547-.77.703-1.313.156-.55.234-1.219.234-2v-7.64c0-.07-.043-.133-.125-.188a1.11 1.11 0 0 0-.359-.156 2.583 2.583 0 0 0-.5-.078 4.637 4.637 0 0 0-.5-.032h-.188v-1.312h5.063v1.312h-.203c-.293 0-.555.028-.781.079a1.12 1.12 0 0 0-.532.28c-.125.137-.187.321-.187.548v7.187c0 1.086-.149 2.016-.438 2.797-.293.773-.71 1.406-1.25 1.906-.53.5-1.152.867-1.859 1.094-.7.227-1.453.344-2.266.344-.918 0-1.757-.121-2.515-.36A5.297 5.297 0 0 1 4.14-1.234c-.543-.489-.965-1.118-1.266-1.891-.305-.781-.453-1.71-.453-2.797v-7.312c0-.32-.14-.532-.422-.625-.273-.102-.621-.157-1.047-.157H.734v-1.312h6.844v1.312h-.187c-.18 0-.356.008-.532.016-.168 0-.328.016-.484.047a7.932 7.932 0 0 0-.36.062c-.093.024-.14.055-.14.094Zm0 0"/></symbol><symbol overflow="visible" id="M"><path style="stroke:none" d="M.781-14.016v-1.312h7.14c1.24 0 2.364.172 3.376.515 1.02.344 1.898.844 2.64 1.5a6.733 6.733 0 0 1 1.72 2.407c.413.937.624 2.008.624 3.203 0 1.187-.21 2.258-.625 3.203a7.041 7.041 0 0 1-1.719 2.422 7.452 7.452 0 0 1-2.64 1.547C10.285-.176 9.16 0 7.922 0H.782v-1.313h.234c.425 0 .773-.05 1.046-.156.282-.101.422-.312.422-.625v-11.14c0-.29-.14-.493-.421-.61-.274-.113-.622-.172-1.047-.172Zm7.063.235H5.922v12.219h1.922c.718 0 1.367-.133 1.953-.407a4.172 4.172 0 0 0 1.531-1.203c.426-.531.75-1.176.969-1.937.219-.77.328-1.633.328-2.594 0-.969-.11-1.828-.328-2.578-.219-.758-.543-1.399-.969-1.922-.43-.52-.937-.91-1.531-1.172a4.61 4.61 0 0 0-1.953-.406Zm0 0"/></symbol><symbol overflow="visible" id="N"><path style="stroke:none" d="M7.016 4.813H.562V3.577H.61c.258 0 .489-.023.688-.062.195-.043.351-.118.469-.22a.5.5 0 0 0 .171-.405V-8.891c0-.175-.042-.312-.125-.406-.074-.094-.199-.164-.375-.219a6.272 6.272 0 0 0-.687-.187l-.188-.031v-1.297h4.422v2.875l.235.11V3.39c0 .039.078.078.234.109.164.031.36.05.578.063.227.007.426.015.594.015h.39Zm1.5-4.594a5.16 5.16 0 0 1-1.5-.203 3.737 3.737 0 0 1-1.204-.641 5.738 5.738 0 0 1-1.046-1.11l.03-2.437a6.97 6.97 0 0 0 .798 1.438c.289.398.613.699.968.906.364.21.77.312 1.22.312.413 0 .773-.093 1.077-.28.313-.196.567-.474.766-.829.207-.363.36-.797.453-1.297.102-.508.156-1.07.156-1.687 0-.625-.046-1.172-.14-1.641a3.809 3.809 0 0 0-.453-1.234 2.042 2.042 0 0 0-.735-.766 1.855 1.855 0 0 0-1-.266c-.46 0-.875.118-1.25.344-.367.23-.699.563-1 1-.304.43-.59.945-.86 1.547l-.03-2.14a7.473 7.473 0 0 1 1.109-1.376c.375-.363.785-.64 1.234-.828a4.043 4.043 0 0 1 1.547-.281c1.008 0 1.883.234 2.625.703.739.469 1.313 1.133 1.719 1.985.414.843.625 1.828.625 2.953 0 1.148-.219 2.156-.656 3.03-.43.868-1.024 1.548-1.781 2.048-.762.5-1.653.75-2.672.75Zm0 0"/></symbol><symbol overflow="visible" id="w"><path style="stroke:none" d="M6.313 2.375h10.171c.657 0 1.149-.168 1.485-.5.332-.336.5-.867.5-1.594v-7.984c0-.727-.168-1.254-.5-1.578-.336-.332-.828-.5-1.485-.5H6.36c-.668 0-1.171.168-1.515.5-.344.336-.516.86-.516 1.578V.28c0 .727.16 1.258.484 1.594.333.332.833.5 1.5.5ZM6.234-9.469h.782v-2.734c0-.969.18-1.813.546-2.531a4.158 4.158 0 0 1 1.547-1.672c.664-.395 1.426-.594 2.282-.594.863 0 1.625.2 2.28.594a4.158 4.158 0 0 1 1.548 1.672c.375.718.562 1.562.562 2.53v2.735h.766v-2.734c0-.844-.125-1.602-.375-2.281a4.83 4.83 0 0 0-1.078-1.75 4.697 4.697 0 0 0-1.64-1.125 5.359 5.359 0 0 0-2.063-.391c-.743 0-1.43.133-2.063.39a4.672 4.672 0 0 0-1.625 1.126c-.46.48-.82 1.062-1.078 1.75-.262.68-.39 1.437-.39 2.28Zm0 0"/></symbol><clipPath id="a"><path d="M7.2 0h582.6c3.977 0 7.2 3.223 7.2 7.2v609.6c0 3.977-3.223 7.2-7.2 7.2H7.2a7.199 7.199 0 0 1-7.2-7.2V7.2C0 3.222 3.223 0 7.2 0Zm0 0"/></clipPath><clipPath id="b"><path d="M51 78h494v509H51Zm0 0"/></clipPath><clipPath id="c"><path d="M58.2 78h479.6c3.977 0 7.2 3.223 7.2 7.2v494.6c0 3.977-3.223 7.2-7.2 7.2H58.2a7.199 7.199 0 0 1-7.2-7.2V85.2c0-3.977 3.223-7.2 7.2-7.2Zm0 0"/></clipPath><clipPath id="d"><path d="M87 236h426v311H87Zm0 0"/></clipPath><clipPath id="e"><path d="M94.2 236h411.6c3.977 0 7.2 3.223 7.2 7.2v296.6c0 3.977-3.223 7.2-7.2 7.2H94.2a7.199 7.199 0 0 1-7.2-7.2V243.2c0-3.977 3.223-7.2 7.2-7.2Zm0 0"/></clipPath><clipPath id="f"><path d="M121 294h353v234H121Zm0 0"/></clipPath><clipPath id="g"><path d="M128.2 294h338.6c3.977 0 7.2 3.223 7.2 7.2v219.6c0 3.977-3.223 7.2-7.2 7.2H128.2a7.199 7.199 0 0 1-7.2-7.2V301.2c0-3.977 3.223-7.2 7.2-7.2Zm0 0"/></clipPath></defs><g clip-path="url(#a)" clip-rule="evenodd"><path style="fill:#22c55e;fill-opacity:.1;stroke:none" d="M0 0h597v624H0z"/><path style="fill:none;stroke-width:1.8;stroke-linecap:butt;stroke-linejoin:miter;stroke:#22c55e;stroke-opacity:1;stroke-miterlimit:5" d="M7.2 0h582.6c3.977 0 7.2 3.223 7.2 7.2v609.6c0 3.977-3.223 7.2-7.2 7.2H7.2a7.199 7.199 0 0 1-7.2-7.2V7.2C0 3.222 3.223 0 7.2 0Zm0 0"/></g><g clip-path="url(#b)"><g clip-path="url(#c)" clip-rule="evenodd"><path style="stroke:none;fill-rule:nonzero;fill:#3b82f6;fill-opacity:.1" d="M50 77h496v511H50Zm0 0"/><path style="fill:none;stroke-width:1.8;stroke-linecap:butt;stroke-linejoin:miter;stroke:#3b82f6;stroke-opacity:1;stroke-miterlimit:5" d="M7.2 0h479.6c3.977 0 7.2 3.223 7.2 7.2v494.6c0 3.977-3.223 7.2-7.2 7.2H7.2a7.199 7.199 0 0 1-7.2-7.2V7.2C0 3.222 3.223 0 7.2 0Zm0 0" transform="translate(51 78)"/></g></g><g clip-path="url(#d)"><g clip-path="url(#e)" clip-rule="evenodd"><path style="stroke:none;fill-rule:nonzero;fill:#3b82f6;fill-opacity:.1" d="M86 235h428v313H86Zm0 0"/><path style="fill:none;stroke-width:1.8;stroke-linecap:butt;stroke-linejoin:miter;stroke:#3b82f6;stroke-opacity:1;stroke-miterlimit:5" d="M7.2 0h411.6c3.977 0 7.2 3.223 7.2 7.2v296.6c0 3.977-3.223 7.2-7.2 7.2H7.2a7.199 7.199 0 0 1-7.2-7.2V7.2C0 3.222 3.223 0 7.2 0Zm0 0" transform="translate(87 236)"/></g></g><g clip-path="url(#f)"><g clip-path="url(#g)" clip-rule="evenodd"><path style="stroke:none;fill-rule:nonzero;fill:#3b82f6;fill-opacity:.1" d="M120 293h355v236H120Zm0 0"/><path style="fill:none;stroke-width:3.6;stroke-linecap:butt;stroke-linejoin:miter;stroke:#3b82f6;stroke-opacity:1;stroke-miterlimit:5" d="M7.2 0h338.6c3.977 0 7.2 3.223 7.2 7.2v219.6c0 3.977-3.223 7.2-7.2 7.2H7.2a7.199 7.199 0 0 1-7.2-7.2V7.2C0 3.222 3.223 0 7.2 0Zm0 0" transform="translate(121 294)"/></g></g><use xlink:href="#h" x="69.261" y="114" style="fill:#000;fill-opacity:1"/><use xlink:href="#i" x="90.407" y="114" style="fill:#000;fill-opacity:1"/><use xlink:href="#j" x="102.687" y="114" style="fill:#000;fill-opacity:1"/><use xlink:href="#k" x="116.93" y="114" style="fill:#000;fill-opacity:1"/><use xlink:href="#l" x="127.712" y="114" style="fill:#000;fill-opacity:1"/><g style="fill:#000;fill-opacity:1"><use xlink:href="#m" x="141.439" y="114"/><use xlink:href="#n" x="153.751" y="114"/></g><use xlink:href="#i" x="167.471" y="114" style="fill:#000;fill-opacity:1"/><use xlink:href="#o" x="179.881" y="114" style="fill:#000;fill-opacity:1"/><use xlink:href="#p" x="193.867" y="114" style="fill:#000;fill-opacity:1"/><use xlink:href="#q" x="201.424" y="114" style="fill:#000;fill-opacity:1"/><use xlink:href="#o" x="214.976" y="114" style="fill:#000;fill-opacity:1"/><use xlink:href="#r" x="223.482" y="114" style="fill:#000;fill-opacity:1"/><use xlink:href="#o" x="235.706" y="114" style="fill:#000;fill-opacity:1"/><use xlink:href="#i" x="243.974" y="114" style="fill:#000;fill-opacity:1"/><use xlink:href="#s" x="256.319" y="114" style="fill:#000;fill-opacity:1"/><use xlink:href="#t" x="265.313" y="114" style="fill:#000;fill-opacity:1"/><use xlink:href="#u" x="279.273" y="114" style="fill:#000;fill-opacity:1"/><use xlink:href="#v" x="286.222" y="114" style="fill:#000;fill-opacity:1"/><use xlink:href="#w" x="16.311" y="39" style="fill:#34c759;fill-opacity:1"/><g style="fill:#34c759;fill-opacity:1"><use xlink:href="#x" x="44.273" y="39"/><use xlink:href="#y" x="59.479" y="39"/></g><use xlink:href="#q" x="73.158" y="39" style="fill:#34c759;fill-opacity:1"/><g style="fill:#000;fill-opacity:1"><use xlink:href="#z" x="106.043" y="275"/><use xlink:href="#A" x="121.446" y="275"/></g><use xlink:href="#i" x="141.99" y="275" style="fill:#000;fill-opacity:1"/><use xlink:href="#k" x="154.39" y="275" style="fill:#000;fill-opacity:1"/><use xlink:href="#k" x="165.171" y="275" style="fill:#000;fill-opacity:1"/><use xlink:href="#B" x="175.649" y="275" style="fill:#000;fill-opacity:1"/><use xlink:href="#x" x="186.019" y="275" style="fill:#000;fill-opacity:1"/><use xlink:href="#C" x="201.271" y="275" style="fill:#000;fill-opacity:1"/><g style="fill:#000;fill-opacity:1"><use xlink:href="#l" x="210.604" y="275"/><use xlink:href="#D" x="224.322" y="275"/></g><g style="fill:#000;fill-opacity:1"><use xlink:href="#r" x="230.934" y="275"/><use xlink:href="#E" x="243.291" y="275"/><use xlink:href="#F" x="257.593" y="275"/></g><use xlink:href="#p" x="263.038" y="275" style="fill:#000;fill-opacity:1"/><use xlink:href="#q" x="270.6" y="275" style="fill:#000;fill-opacity:1"/><use xlink:href="#o" x="284.146" y="275" style="fill:#000;fill-opacity:1"/><use xlink:href="#r" x="292.658" y="275" style="fill:#000;fill-opacity:1"/><use xlink:href="#o" x="304.886" y="275" style="fill:#000;fill-opacity:1"/><use xlink:href="#i" x="313.161" y="275" style="fill:#000;fill-opacity:1"/><g style="fill:#000;fill-opacity:1"><use xlink:href="#u" x="325.432" y="275"/><use xlink:href="#i" x="332.389" y="275"/></g><use xlink:href="#k" x="344.79" y="275" style="fill:#000;fill-opacity:1"/><g style="fill:#000;fill-opacity:1"><use xlink:href="#k" x="355.57" y="275"/><use xlink:href="#v" x="366.416" y="275"/></g><use xlink:href="#G" x="161.14" y="417" style="fill:#000;fill-opacity:1"/><use xlink:href="#C" x="178.504" y="417" style="fill:#000;fill-opacity:1"/><use xlink:href="#H" x="188.012" y="417" style="fill:#000;fill-opacity:1"/><use xlink:href="#I" x="195.134" y="417" style="fill:#000;fill-opacity:1"/><use xlink:href="#H" x="208.133" y="417" style="fill:#000;fill-opacity:1"/><use xlink:href="#E" x="215.211" y="417" style="fill:#000;fill-opacity:1"/><use xlink:href="#r" x="229.513" y="417" style="fill:#000;fill-opacity:1"/><use xlink:href="#u" x="241.866" y="417" style="fill:#000;fill-opacity:1"/><use xlink:href="#x" x="254.27" y="417" style="fill:#000;fill-opacity:1"/><use xlink:href="#J" x="269.133" y="417" style="fill:#000;fill-opacity:1"/><use xlink:href="#K" x="284.422" y="417" style="fill:#000;fill-opacity:1"/><use xlink:href="#B" x="297.241" y="417" style="fill:#000;fill-opacity:1"/><use xlink:href="#L" x="307.35" y="417" style="fill:#000;fill-opacity:1"/><g style="fill:#000;fill-opacity:1"><use xlink:href="#M" x="324.218" y="417"/><use xlink:href="#K" x="341.347" y="417"/></g><use xlink:href="#N" x="361.415" y="417" style="fill:#000;fill-opacity:1"/><use xlink:href="#r" x="375.662" y="417" style="fill:#000;fill-opacity:1"/><g style="fill:#000;fill-opacity:1"><use xlink:href="#m" x="387.888" y="417"/><use xlink:href="#n" x="400.2" y="417"/></g><use xlink:href="#i" x="413.92" y="417" style="fill:#000;fill-opacity:1"/><use xlink:href="#o" x="426.33" y="417" style="fill:#000;fill-opacity:1"/></svg>