<svg xmlns="http://www.w3.org/2000/svg" xmlns:xlink="http://www.w3.org/1999/xlink" width="1632" height="365pt" viewBox="0 0 1224 365" version="1.2"><defs><symbol overflow="visible" id="e"><path style="stroke:none" d="M13.484-2.453c1.07 0 1.989-.149 2.75-.453.77-.301 1.364-.766 1.782-1.39.425-.634.64-1.442.64-2.423 0-.851-.199-1.566-.593-2.14-.399-.57-.946-1.055-1.641-1.454-.7-.394-1.512-.742-2.438-1.046-.93-.301-1.937-.614-3.03-.938a26.075 26.075 0 0 1-3.157-1.11 11.856 11.856 0 0 1-2.781-1.655 7.26 7.26 0 0 1-1.985-2.532c-.492-1.008-.734-2.25-.734-3.718 0-1.727.426-3.196 1.281-4.407.863-1.218 2.004-2.156 3.422-2.812 1.426-.657 2.988-.985 4.688-.985 1.445 0 2.738.2 3.874.594a7.415 7.415 0 0 1 2.985 1.969c.863.918 1.598 2.168 2.203 3.75l-1.844-.25.688-5.656h2.672v7.672h-3c-.375-1.125-.903-2.07-1.578-2.844a6.711 6.711 0 0 0-2.344-1.782c-.887-.414-1.86-.625-2.922-.625-1.012 0-1.867.157-2.563.47-.699.312-1.234.75-1.609 1.312-.367.562-.547 1.25-.547 2.062 0 .805.195 1.465.594 1.985.394.511.926.945 1.594 1.297.675.355 1.457.664 2.343.921a222.2 222.2 0 0 0 2.86.813c1.164.293 2.289.656 3.375 1.094a12.36 12.36 0 0 1 2.937 1.672 7.073 7.073 0 0 1 2.063 2.515c.508 1.012.765 2.258.765 3.735 0 1.886-.437 3.527-1.312 4.921-.875 1.399-2.078 2.465-3.61 3.204-1.53.726-3.324 1.093-5.375 1.093-1.585 0-3.093-.246-4.53-.734a9.741 9.741 0 0 1-3.798-2.375c-1.086-1.094-1.945-2.555-2.578-4.39l2.016.5L4.313 0H1.515v-9.11h3.156c.488 1.4 1.164 2.594 2.031 3.594A8.62 8.62 0 0 0 9.75-3.234a9.08 9.08 0 0 0 3.734.78Zm0 0"/></symbol><symbol overflow="visible" id="f"><path style="stroke:none" d="M7.703-10.375c0 1.281.133 2.418.406 3.406.282.98.68 1.813 1.204 2.5a4.95 4.95 0 0 0 1.906 1.547c.75.336 1.601.5 2.562.5 1.031 0 1.914-.195 2.656-.594A6.807 6.807 0 0 0 18.36-4.53a10.763 10.763 0 0 0 1.36-1.86l2.25 1.672a10.823 10.823 0 0 1-2.047 2.657C19.109-1.29 18.132-.688 17-.25c-1.137.438-2.484.656-4.047.656C10.68.406 8.688-.03 6.97-.906c-1.719-.875-3.07-2.125-4.047-3.75-.969-1.625-1.453-3.54-1.453-5.75 0-2.188.472-4.11 1.422-5.766a10.091 10.091 0 0 1 3.859-3.86c1.625-.913 3.445-1.374 5.469-1.374 1.633 0 3.07.25 4.312.75a7.826 7.826 0 0 1 3.14 2.218c.852.981 1.5 2.215 1.938 3.704.438 1.492.657 3.218.657 5.187H6.64v-2.594h10.703l-.985 1.032c-.03-1.395-.132-2.579-.297-3.547-.156-.969-.402-1.742-.734-2.328-.324-.594-.742-1.02-1.25-1.282-.5-.257-1.078-.39-1.734-.39-.688 0-1.313.168-1.875.5-.555.324-1.04.828-1.453 1.515-.407.68-.73 1.54-.97 2.578-.23 1.043-.343 2.274-.343 3.688Zm0 0"/></symbol><symbol overflow="visible" id="g"><path style="stroke:none" d="M17.063-21.156v5.453a3.19 3.19 0 0 0-.688-.188c-.262-.039-.54-.07-.828-.093a7.94 7.94 0 0 0-.875-.047c-.656 0-1.25.078-1.781.234a4.843 4.843 0 0 0-1.454.672c-.437.305-.835.7-1.187 1.188-.355.492-.71 1.09-1.063 1.796l-.046-2.328c.414-1.344.898-2.523 1.453-3.547.562-1.03 1.242-1.836 2.047-2.422.812-.582 1.789-.875 2.937-.875.332 0 .625.016.875.047.258.024.461.059.61.11ZM1.188 0v-2.172h.046c.739 0 1.344-.086 1.813-.265.476-.176.719-.524.719-1.047v-13.657c0-.32-.075-.566-.22-.734-.148-.164-.386-.305-.718-.422a9.385 9.385 0 0 0-1.265-.36l-.375-.077v-2.25h8.359v6.422L10-14.97v11.89c0 .25.156.446.469.579.32.137.707.227 1.156.266.445.043.848.062 1.203.062h.5V0Zm0 0"/></symbol><symbol overflow="visible" id="h"><path style="stroke:none" d="M18.578-17.953c0-.164-.14-.317-.422-.453a3.607 3.607 0 0 0-1.047-.297 7.698 7.698 0 0 0-1.28-.11h-.079v-2.171h7.953v2.172h-.094c-.324 0-.64.058-.953.171a2.158 2.158 0 0 0-.843.532c-.25.242-.47.578-.657 1.015L15 0H9.14L2.75-17.422c-.117-.383-.281-.672-.5-.86a1.8 1.8 0 0 0-.797-.405 4.472 4.472 0 0 0-1.125-.125H.281v-2.172H11.72v2.172h-.078c-.461 0-.918.015-1.375.046-.45.024-.825.055-1.125.094-.305.043-.454.117-.454.219l5.5 15.578-.828-.36Zm0 0"/></symbol><symbol overflow="visible" id="u"><path style="stroke:none" d="M1.438-26.766v-2.343H15c2.352 0 4.492.328 6.422.984 1.926.656 3.594 1.61 5 2.86 1.406 1.242 2.488 2.757 3.25 4.546.77 1.782 1.156 3.809 1.156 6.078 0 2.274-.387 4.305-1.156 6.094a13.058 13.058 0 0 1-3.25 4.61c-1.406 1.28-3.074 2.261-5 2.937-1.93.668-4.07 1-6.422 1H1.437v-2.344h.454c.789 0 1.445-.086 1.968-.265.52-.176.782-.579.782-1.204v-21.484c0-.57-.262-.957-.782-1.156-.523-.207-1.18-.313-1.968-.313Zm13.359.407h-3.64V-2.75h3.64c1.394 0 2.648-.266 3.765-.797a8.047 8.047 0 0 0 2.891-2.312c.813-1.008 1.426-2.254 1.844-3.735.426-1.476.64-3.16.64-5.047 0-1.882-.214-3.554-.64-5.015-.418-1.469-1.031-2.692-1.844-3.672a7.915 7.915 0 0 0-2.89-2.25c-1.118-.52-2.372-.781-3.766-.781Zm0 0"/></symbol><symbol overflow="visible" id="v"><path style="stroke:none" d="M6.766-24.484c-1.043 0-1.891-.27-2.547-.813-.657-.539-.985-1.289-.985-2.25 0-.957.329-1.707.985-2.25.656-.55 1.504-.828 2.547-.828 1.093 0 1.957.277 2.593.828.645.543.97 1.293.97 2.25 0 .961-.325 1.711-.97 2.25-.636.543-1.5.813-2.593.813Zm3.234 3.5v17.5c0 .523.242.87.734 1.046.5.18 1.102.266 1.813.266h.047V0H1.188v-2.172h.046c.739 0 1.352-.086 1.844-.265.488-.176.735-.524.735-1.047v-13.657c0-.488-.18-.82-.532-1-.355-.175-.93-.347-1.719-.515l-.375-.078v-2.25Zm0 0"/></symbol><symbol overflow="visible" id="w"><path style="stroke:none" d="M13.813-2.375c1.07 0 1.992-.223 2.765-.672a7.237 7.237 0 0 0 1.985-1.687 19.671 19.671 0 0 0 1.453-1.985l2.125 1.672A13.995 13.995 0 0 1 20-2.234c-.813.836-1.797 1.484-2.953 1.953-1.149.457-2.512.687-4.094.687-2.242 0-4.23-.445-5.969-1.344-1.73-.906-3.086-2.175-4.062-3.812-.969-1.645-1.453-3.563-1.453-5.75 0-2.238.488-4.164 1.468-5.781.989-1.614 2.376-2.867 4.157-3.766 1.781-.906 3.86-1.36 6.234-1.36 1.469 0 2.766.15 3.89.438 1.126.282 2.063.617 2.813 1 .75.387 1.301.742 1.657 1.063v5.25h-5v-5.047c.32.031.597.133.828.297a1.549 1.549 0 0 1 .688 1.297c0 .25-.056.484-.157.703-.387-.657-.977-1.192-1.766-1.61-.793-.425-1.695-.64-2.703-.64-1.242 0-2.281.328-3.125.984-.844.656-1.484 1.602-1.922 2.828-.437 1.23-.656 2.68-.656 4.344 0 1.262.133 2.39.406 3.39.27 1 .656 1.856 1.156 2.563a5.113 5.113 0 0 0 1.876 1.625c.738.367 1.57.547 2.5.547Zm0 0"/></symbol><symbol overflow="visible" id="k"><path style="stroke:none" d="M8.61-7.688 12.218 0h4.719v-1.438h-.204c-.21 0-.402-.019-.578-.062a1.158 1.158 0 0 1-.437-.203 1.377 1.377 0 0 1-.328-.406l-3.125-5.985Zm-2.063 6v-13.671h1.875c.676 0 1.234.136 1.672.406.437.262.77.625 1 1.094.238.468.36 1.043.36 1.718 0 .7-.118 1.309-.345 1.829a2.416 2.416 0 0 1-1.015 1.187c-.461.273-1.059.406-1.797.406H6.078v1.656h2.516c.176 0 .351-.003.531-.015.176-.02.344-.035.5-.047.156-.02.305-.047.453-.078 1.156-.125 2.129-.399 2.922-.828.79-.438 1.395-1.004 1.813-1.703.414-.696.624-1.5.624-2.407 0-.988-.261-1.847-.78-2.578-.512-.726-1.247-1.297-2.204-1.703-.96-.414-2.121-.625-3.484-.625H.859v1.453h.25c.477 0 .868.059 1.172.172.301.106.453.336.453.688v12.437c0 .344-.152.574-.453.688-.304.117-.695.171-1.172.171H.86V0h7.438v-1.438h-.25c-.18 0-.356-.003-.531-.015A4.16 4.16 0 0 1 7.03-1.5a3.317 3.317 0 0 1-.36-.063c-.085-.03-.124-.07-.124-.125Zm0 0"/></symbol><symbol overflow="visible" id="l"><path style="stroke:none" d="M4.531-6.078c0 .742.07 1.39.219 1.953.156.563.383 1.043.688 1.438.312.386.68.68 1.109.874.437.2.937.297 1.5.297.601 0 1.117-.113 1.547-.343.437-.227.804-.52 1.11-.875.3-.364.554-.723.765-1.079l1.39 1.047a5.959 5.959 0 0 1-1.171 1.563c-.481.45-1.06.805-1.735 1.062-.668.25-1.46.375-2.375.375-1.324 0-2.492-.254-3.5-.765a5.603 5.603 0 0 1-2.36-2.188C1.165-3.676.892-4.8.892-6.094c0-1.281.27-2.398.812-3.36a5.741 5.741 0 0 1 2.234-2.233c.958-.54 2.032-.813 3.22-.813.956 0 1.8.152 2.53.453.727.293 1.336.73 1.829 1.313.5.586.879 1.32 1.14 2.203.27.875.406 1.898.406 3.062H4.079v-1.61h6.078l-.61.641c-.01-.789-.07-1.46-.171-2.015-.094-.55-.234-1-.422-1.344-.18-.344-.418-.594-.719-.75a2.078 2.078 0 0 0-1.03-.25c-.376 0-.731.102-1.063.297-.325.2-.606.496-.844.89-.242.387-.43.876-.563 1.47-.136.593-.203 1.28-.203 2.062Zm0 0"/></symbol><symbol overflow="visible" id="m"><path style="stroke:none" d="M5.813-17.64v15.5c0 .324.14.53.421.624.29.094.645.141 1.063.141h.047V0H.64v-1.375h.03c.446 0 .813-.047 1.095-.14.28-.094.421-.301.421-.626v-13.14c0-.207-.054-.364-.156-.469a1.01 1.01 0 0 0-.437-.25 5.08 5.08 0 0 0-.735-.203l-.234-.047v-1.39Zm0 0"/></symbol><symbol overflow="visible" id="n"><path style="stroke:none" d="M8.953-7.39v1.359c-.648.086-1.215.187-1.703.312-.48.117-.906.258-1.281.422a3.425 3.425 0 0 0-.89.563c-.231.21-.403.453-.516.734a2.186 2.186 0 0 0-.172.875c0 .355.066.664.203.922.133.25.328.445.578.578.258.137.562.203.906.203.445 0 .844-.11 1.188-.328.343-.227.648-.55.921-.969.27-.414.508-.898.72-1.453l.015 1.719A4.949 4.949 0 0 1 7.984-1a3.893 3.893 0 0 1-1.343.922 4.756 4.756 0 0 1-1.766.312c-.781 0-1.469-.12-2.063-.359-.593-.25-1.062-.617-1.406-1.11C1.07-1.722.906-2.311.906-3c0-.676.172-1.254.516-1.734.344-.477.848-.891 1.516-1.235.675-.343 1.515-.629 2.515-.86 1-.226 2.164-.413 3.5-.562ZM8.641 0v-2.453h-.266v-6.235c0-.53-.078-.953-.234-1.265a1.357 1.357 0 0 0-.657-.672c-.28-.133-.64-.203-1.078-.203-.636 0-1.164.14-1.578.422a3.328 3.328 0 0 0-.984 1c-.117-.176-.168-.336-.156-.485.007-.156.05-.3.124-.437a1.07 1.07 0 0 1 .344-.344 1.56 1.56 0 0 1 .547-.219v2.485H1.734v-2.531c.239-.196.582-.415 1.032-.657.445-.238 1.004-.445 1.671-.625.676-.187 1.454-.281 2.329-.281.738 0 1.414.078 2.03.234a4.689 4.689 0 0 1 1.626.72c.476.323.848.745 1.11 1.265.257.523.39 1.148.39 1.875v6.219c0 .199.055.351.172.453.125.105.297.183.515.234.22.043.473.07.766.078l.063.031V0Zm0 0"/></symbol><symbol overflow="visible" id="o"><path style="stroke:none" d="M8.61-2.156 7.687-.281 6.5.984 1.687-10.062a1.667 1.667 0 0 0-.343-.5.96.96 0 0 0-.485-.25 2.666 2.666 0 0 0-.687-.079H.14v-1.375h6.796v1.375h-.046c-.274 0-.543.012-.813.032-.262.011-.48.027-.656.046-.18.024-.266.063-.266.126Zm0 1.719a23.874 23.874 0 0 1-1.344 2.734c-.45.77-.907 1.394-1.375 1.875-.461.476-.946.832-1.454 1.062a3.872 3.872 0 0 1-1.656.36c-.449 0-.824-.055-1.125-.157a2.53 2.53 0 0 1-.718-.328V2.36c.062.008.19.055.39.141.195.094.445.18.75.266a3.594 3.594 0 0 0 2.047-.016c.332-.105.66-.293.984-.563.32-.261.633-.636.938-1.124.3-.481.601-1.098.906-1.86l.422-.937 3.672-8.641c0-.102-.086-.191-.25-.266a2.566 2.566 0 0 0-.61-.171 3.925 3.925 0 0 0-.78-.079h-.063v-1.375h4.86v1.375h-.017c-.21 0-.406.032-.593.094-.188.063-.36.172-.516.328-.156.149-.305.367-.437.656Zm0 0"/></symbol><symbol overflow="visible" id="q"><path style="stroke:none" d="M4.156-7.297h6.782l.03 1.656H4.064Zm2.907-8.453.64.984L3.437-1.875c0 .086.083.164.25.234.165.075.376.125.626.157.25.03.507.046.78.046h.329V0H.219v-1.438h.125c.363 0 .648-.066.86-.203.218-.132.398-.41.546-.828l4.875-14.578h3.813l5.046 14.938c.094.28.254.464.485.546.226.086.52.125.875.125h.093V0H9.625v-1.438h.39c.25 0 .505-.003.766-.015.27-.02.492-.05.672-.094.176-.039.266-.086.266-.14Zm0 0"/></symbol><symbol overflow="visible" id="r"><path style="stroke:none" d="M7.797 5.36H.625V3.983h.047c.289 0 .547-.023.765-.062.227-.043.407-.121.532-.235.125-.105.187-.261.187-.468V-9.906c0-.196-.047-.344-.14-.438-.086-.094-.227-.176-.422-.25-.2-.07-.45-.14-.75-.203l-.219-.047v-1.422h4.922v3.172l.266.125V3.766c0 .05.085.093.265.125.176.03.383.05.625.062.25.02.473.031.672.031h.422ZM9.453.233C8.828.234 8.27.156 7.781 0a4.07 4.07 0 0 1-1.343-.703 6.345 6.345 0 0 1-1.141-1.235l.031-2.671c.27.605.567 1.132.89 1.578.321.437.68.777 1.079 1.015.394.243.844.36 1.344.36.468 0 .875-.102 1.218-.313.344-.218.625-.531.844-.937.227-.414.395-.899.5-1.453a9.517 9.517 0 0 0 .172-1.875c0-.688-.055-1.297-.156-1.829-.106-.539-.274-1-.5-1.374-.219-.383-.492-.672-.813-.86-.312-.187-.695-.281-1.14-.281-.5 0-.954.125-1.36.375-.406.242-.781.601-1.125 1.078-.336.48-.664 1.059-.984 1.734v-2.328c.406-.625.812-1.14 1.219-1.547.406-.406.859-.71 1.359-.921.508-.208 1.094-.313 1.75-.313 1.113 0 2.082.262 2.906.781.832.524 1.473 1.25 1.922 2.188.457.93.688 2.027.688 3.297 0 1.261-.243 2.382-.72 3.359-.48.969-1.148 1.73-2 2.281-.855.555-1.843.828-2.968.828Zm0 0"/></symbol><symbol overflow="visible" id="B"><path style="stroke:none" d="M6.547-15.344v13.047c0 .211.055.375.172.5.125.117.281.2.468.25.188.043.391.074.61.094.226.012.453.016.672.016h.406V0H.859v-1.438h.25c.477 0 .868-.054 1.172-.171.301-.114.453-.344.453-.688v-12.437c0-.352-.152-.582-.453-.688-.304-.113-.695-.172-1.172-.172H.86v-1.453h12.97v4.781H12.03l-.203-2.03c-.012-.29-.121-.509-.328-.657-.2-.156-.492-.258-.875-.313-.375-.05-.855-.078-1.438-.078Zm-.672 6.031c.676-.03 1.336-.054 1.984-.078a2268.284 2268.284 0 0 1 3.907-.187v2.047l-1.97-.094c-.648-.04-1.292-.078-1.937-.11a64.46 64.46 0 0 0-1.984-.062Zm0 0"/></symbol><symbol overflow="visible" id="C"><path style="stroke:none" d="M8.14-3.047c0-.289-.085-.523-.25-.703a1.99 1.99 0 0 0-.64-.484 5.23 5.23 0 0 0-.938-.344 30.073 30.073 0 0 0-1.109-.297c-.492-.125-.98-.27-1.469-.438a5.506 5.506 0 0 1-1.343-.656 3.26 3.26 0 0 1-.985-1.078c-.25-.437-.375-.992-.375-1.672 0-.812.207-1.5.625-2.062.414-.57 1.004-1.004 1.766-1.297.77-.3 1.676-.453 2.719-.453.832 0 1.55.07 2.156.203.613.125 1.113.277 1.5.453.394.18.672.328.828.453v2.516H7.937v-2.14c.227-.009.407.023.532.093a.556.556 0 0 1 .25.281c.039.106.05.227.031.36a1.188 1.188 0 0 1-.11.406c-.18-.207-.39-.39-.64-.547a2.518 2.518 0 0 0-.828-.328 4.59 4.59 0 0 0-1.031-.11c-.668 0-1.172.133-1.516.391-.336.262-.5.617-.5 1.063 0 .312.082.57.25.765.164.2.395.367.688.5.289.137.617.258.984.36.363.105.75.203 1.156.296.488.137.984.29 1.484.454.5.167.958.39 1.376.671.414.282.742.637.984 1.063.25.418.375.937.375 1.562 0 .836-.219 1.555-.656 2.157-.43.593-1.055 1.054-1.875 1.375-.825.312-1.836.468-3.032.468-.836 0-1.593-.062-2.28-.187-.68-.125-1.263-.285-1.75-.484a7.894 7.894 0 0 1-1.204-.625v-2.735h2.734v2.86a1.937 1.937 0 0 1-.625-.422 1.366 1.366 0 0 1-.296-.485.755.755 0 0 1 0-.437.535.535 0 0 1 .25-.281c.238.273.515.492.828.656.312.168.66.297 1.046.39.395.086.829.125 1.297.125.457 0 .86-.062 1.204-.187.343-.133.609-.32.796-.563.188-.238.282-.539.282-.906Zm0 0"/></symbol><symbol overflow="visible" id="D"><path style="stroke:none" d="M.125-10.625v-1.516h.094c.383 0 .719-.023 1-.078.289-.062.508-.172.656-.328.156-.164.234-.39.234-.672l2.204.953h4.546v1.641Zm5.469 6.406c0 .637.07 1.153.218 1.547.157.387.375.668.657.844.281.168.617.25 1.015.25.32 0 .625-.035.907-.11.28-.07.5-.125.656-.156v1.672a4.706 4.706 0 0 1-.563.188c-.23.07-.5.125-.812.156-.305.039-.637.062-1 .062a6.98 6.98 0 0 1-2.375-.39 3.37 3.37 0 0 1-1.719-1.36c-.43-.656-.64-1.535-.64-2.64v-7.672L2.108-12l.032-3.594h3.453Zm0 0"/></symbol><symbol overflow="visible" id="E"><path style="stroke:none" d="M.86-15.594v-1.453h7.952c1.376 0 2.626.195 3.75.578 1.126.387 2.098.946 2.922 1.672a7.346 7.346 0 0 1 1.922 2.672c.446 1.043.672 2.23.672 3.563 0 1.324-.226 2.511-.672 3.562a7.773 7.773 0 0 1-1.922 2.703 8.43 8.43 0 0 1-2.921 1.719C11.437-.191 10.187 0 8.813 0H.859v-1.438h.266c.469 0 .86-.054 1.172-.171.312-.114.469-.344.469-.688v-12.437c0-.32-.157-.547-.47-.672-.312-.125-.702-.188-1.171-.188Zm7.827.281H6.579v13.579h2.11c.812 0 1.546-.149 2.203-.454a4.584 4.584 0 0 0 1.687-1.328c.477-.582.844-1.296 1.094-2.14.25-.852.375-1.82.375-2.907 0-1.093-.125-2.054-.375-2.89-.25-.832-.617-1.535-1.094-2.11a4.58 4.58 0 0 0-1.687-1.296c-.657-.301-1.391-.454-2.204-.454Zm0 0"/></symbol><symbol overflow="visible" id="F"><path style="stroke:none" d="M3.984-14.25c-.625 0-1.125-.16-1.5-.484-.375-.332-.562-.782-.562-1.344 0-.563.187-1 .562-1.313.375-.32.875-.484 1.5-.484s1.125.164 1.5.484c.375.313.563.75.563 1.313 0 .562-.188 1.012-.563 1.344-.375.324-.875.484-1.5.484Zm1.891 1.984V-2.14c0 .325.145.532.438.625.289.094.648.141 1.078.141h.03V0H.72v-1.375H.75c.426 0 .781-.047 1.063-.14.289-.094.437-.301.437-.626v-7.765c0-.29-.11-.489-.328-.594-.211-.102-.54-.203-.984-.297l-.235-.047v-1.422Zm0 0"/></symbol><symbol overflow="visible" id="G"><path style="stroke:none" d="M10.844-10.422c0-.094-.086-.176-.25-.25a2.389 2.389 0 0 0-.625-.156c-.25-.04-.5-.063-.75-.063h-.047v-1.375h4.797v1.375h-.031c-.211 0-.407.028-.594.079a1.155 1.155 0 0 0-.5.296c-.149.149-.266.356-.36.625L8.906 0h-3.61l-3.64-10.078c-.086-.227-.187-.395-.312-.5a1.043 1.043 0 0 0-.485-.235 2.602 2.602 0 0 0-.671-.078H.14v-1.375h6.765v1.375H6.86c-.28 0-.558.012-.828.032-.261.011-.48.027-.656.046-.18.024-.266.063-.266.126l3.172 9.03-.406-.327Zm0 0"/></symbol><symbol overflow="visible" id="H"><path style="stroke:none" d="M10.016-12.344v3.203a6.567 6.567 0 0 0-.891-.171 4.458 4.458 0 0 0-.516-.032c-.375 0-.726.047-1.046.14a2.605 2.605 0 0 0-.875.407c-.25.188-.481.43-.688.719-.21.281-.406.637-.594 1.062V-8.5c.219-.758.489-1.438.813-2.031.32-.594.722-1.055 1.203-1.39.476-.345 1.05-.517 1.719-.517.195 0 .367.012.515.032.156.011.274.031.36.062ZM.703 0v-1.375H.75c.426 0 .781-.047 1.063-.14.28-.094.421-.301.421-.626v-7.765c0-.196-.054-.344-.156-.438a1.239 1.239 0 0 0-.422-.25 4.946 4.946 0 0 0-.75-.203l-.203-.047v-1.422h4.89V-8.5l.266-.266v6.844c0 .156.098.281.297.375.196.086.426.137.688.156.27.012.508.016.718.016h.266V0Zm0 0"/></symbol><symbol overflow="visible" id="I"><path style="stroke:none" d="M9.531-15.453c-.68 0-1.297.168-1.86.5-.554.324-1.03.793-1.437 1.406-.398.606-.71 1.328-.937 2.172-.219.844-.328 1.797-.328 2.86 0 1.074.11 2.038.328 2.89.226.855.547 1.586.953 2.188.406.593.91 1.054 1.516 1.374.613.325 1.304.485 2.078.485.812 0 1.531-.203 2.156-.61a5.235 5.235 0 0 0 1.594-1.671c.437-.707.754-1.516.953-2.422l1.656.672c-.262 1.136-.683 2.148-1.265 3.03A6.218 6.218 0 0 1 12.671-.5c-.93.492-2.024.734-3.281.734-1.243 0-2.375-.21-3.407-.625a7.841 7.841 0 0 1-2.671-1.796 8.254 8.254 0 0 1-1.75-2.782C1.145-6.039.938-7.223.938-8.516c0-1.3.21-2.488.64-3.562a8.595 8.595 0 0 1 1.781-2.766 7.8 7.8 0 0 1 2.594-1.797 7.855 7.855 0 0 1 3.14-.64c1.126 0 2.067.187 2.829.562a4.78 4.78 0 0 1 1.844 1.532c.468.656.832 1.417 1.093 2.28l-1.156-.171.438-3.969h1.765v5.313h-2.031a7.433 7.433 0 0 0-.938-1.954 4.312 4.312 0 0 0-1.406-1.296c-.554-.313-1.219-.47-2-.47Zm0 0"/></symbol><symbol overflow="visible" id="J"><path style="stroke:none" d="M5.875-17.64v16.062c0 .043.07.086.219.125.144.043.316.07.515.078H7.25V0H.703v-1.375H.75c.281 0 .531-.016.75-.047.227-.039.41-.117.547-.234.133-.114.203-.274.203-.485v-13.14c0-.207-.047-.364-.14-.469a1.01 1.01 0 0 0-.438-.25 5.08 5.08 0 0 0-.734-.203l-.235-.047v-1.39ZM15.453 0H8.922v-1.375h.609c.207-.008.383-.035.531-.078.157-.04.235-.082.235-.125v-6.797c0-.477-.055-.863-.156-1.156a1.276 1.276 0 0 0-.5-.672c-.22-.145-.524-.219-.907-.219-.449 0-.867.11-1.25.328-.386.219-.75.54-1.093.953a8.302 8.302 0 0 0-.985 1.563v-2.063a6.542 6.542 0 0 1 1.172-1.546 4.6 4.6 0 0 1 1.5-.97 4.763 4.763 0 0 1 1.828-.343c.82 0 1.531.152 2.125.453.602.305 1.067.75 1.39 1.344.333.594.5 1.344.5 2.25v6.312c0 .325.142.532.423.625.289.094.644.141 1.062.141h.047Zm0 0"/></symbol><symbol overflow="visible" id="K"><path style="stroke:none" d="M.703 0v-1.375H.75c.281 0 .531-.016.75-.047.227-.039.406-.117.531-.234.133-.114.203-.274.203-.485v-7.765c0-.196-.054-.344-.156-.438a1.239 1.239 0 0 0-.422-.25 4.946 4.946 0 0 0-.75-.203l-.203-.047v-1.422h4.89v2.625l.266.094v7.969c0 .043.067.086.204.125.144.043.32.07.53.078H7.22V0Zm14.735 0H8.905v-1.375h.625c.207-.008.38-.035.516-.078.144-.04.219-.082.219-.125v-6.797c0-.477-.055-.863-.157-1.156a1.276 1.276 0 0 0-.5-.672c-.218-.145-.515-.219-.89-.219-.438 0-.856.11-1.25.328-.387.219-.75.54-1.094.953-.336.418-.656.938-.969 1.563l-.031-2.047a6.652 6.652 0 0 1 1.188-1.563c.437-.425.937-.75 1.5-.968a4.887 4.887 0 0 1 1.843-.344c.82 0 1.524.152 2.11.453.593.305 1.05.75 1.375 1.344.332.594.5 1.344.5 2.25v6.312c0 .211.066.371.203.485.133.117.312.195.531.234.219.031.473.047.766.047h.046Zm0 0"/></symbol><symbol overflow="visible" id="N"><path style="stroke:none" d="M10.234 3.844H26.72c1.062 0 1.86-.274 2.39-.813.54-.543.813-1.398.813-2.562V-12.47c0-1.187-.274-2.047-.813-2.578-.53-.539-1.328-.812-2.39-.812H10.312c-1.085 0-1.902.273-2.453.812-.554.543-.828 1.402-.828 2.578V.47c0 1.164.258 2.02.782 2.562.53.54 1.335.813 2.421.813Zm-.109-19.188h1.234v-4.453c0-1.55.301-2.91.907-4.078.601-1.164 1.441-2.07 2.515-2.719 1.07-.644 2.301-.968 3.688-.968 1.394 0 2.625.324 3.687.968 1.063.649 1.895 1.555 2.5 2.719.602 1.168.907 2.527.907 4.078v4.453h1.265v-4.453c0-1.363-.21-2.594-.625-3.687-.406-1.102-.984-2.047-1.734-2.828a7.605 7.605 0 0 0-2.657-1.813c-1.023-.426-2.136-.64-3.343-.64-1.211 0-2.324.214-3.344.64a7.616 7.616 0 0 0-2.64 1.813c-.75.78-1.337 1.726-1.75 2.828-.407 1.093-.61 2.324-.61 3.687Zm0 0"/></symbol><symbol overflow="visible" id="P"><path style="stroke:none" d="M9.453-3.297V-22.5H7.984c-.886 0-1.617.043-2.187.125-.574.074-1 .227-1.281.453-.282.219-.446.54-.485.953l-.36 3.719H1.126v-7.594h22.219v7.594h-2.547l-.36-3.719c-.042-.414-.203-.734-.484-.953-.281-.226-.71-.379-1.281-.453-.574-.082-1.305-.125-2.188-.125h-1.468v19.203c0 .524.222.867.671 1.031.458.157 1.024.235 1.704.235h.53V0H6.548v-2.031h.516c.707 0 1.28-.078 1.718-.235.446-.164.672-.507.672-1.03Zm0 0"/></symbol><symbol overflow="visible" id="Q"><path style="stroke:none" d="M12.5-24.844H1.219v2.032h.36c.694 0 1.265.085 1.702.25.446.156.672.492.672 1v18.265c0 .524-.226.867-.672 1.031-.437.157-1.008.235-1.703.235h-.36V0H20.75v-8.156h-2.625l-.375 4.203c-.031.437-.2.765-.5.984-.305.211-.75.356-1.344.438-.594.074-1.37.11-2.328.11H9.563v-19.204c0-.488.234-.805.703-.953.476-.156 1.07-.235 1.78-.235h.454Zm0 0"/></symbol><symbol overflow="visible" id="R"><path style="stroke:none" d="M11.547-2.14c.914 0 1.691-.126 2.328-.376.645-.257 1.145-.656 1.5-1.187.363-.54.547-1.219.547-2.031 0-.75-.172-1.364-.516-1.844-.336-.477-.797-.883-1.39-1.219-.594-.344-1.29-.64-2.079-.89a117.99 117.99 0 0 0-2.593-.813 25.997 25.997 0 0 1-2.672-.922 9.559 9.559 0 0 1-2.39-1.422 6.416 6.416 0 0 1-1.704-2.172c-.418-.863-.625-1.925-.625-3.187 0-1.469.367-2.719 1.11-3.75.738-1.04 1.71-1.844 2.921-2.406 1.22-.563 2.547-.844 3.985-.844 1.238 0 2.344.172 3.312.515.969.336 1.817.891 2.547 1.672.738.782 1.363 1.852 1.875 3.203l-1.61-.14.641-4.89h2.313v6.53h-2.625c-.336-.925-.79-1.722-1.36-2.39a5.8 5.8 0 0 0-2-1.516 5.718 5.718 0 0 0-2.453-.531c-.867 0-1.593.137-2.187.406-.594.274-1.047.649-1.36 1.125-.304.469-.453 1.059-.453 1.766 0 .648.16 1.195.485 1.64.332.438.789.813 1.375 1.125a10.74 10.74 0 0 0 2.015.782c.758.219 1.555.449 2.391.687a21.77 21.77 0 0 1 2.906.938c.938.375 1.774.851 2.516 1.422a5.925 5.925 0 0 1 1.75 2.156c.426.855.64 1.93.64 3.219 0 1.586-.37 2.968-1.109 4.156-.73 1.187-1.75 2.101-3.062 2.734-1.305.625-2.828.938-4.578.938-1.356 0-2.649-.211-3.876-.625a8.48 8.48 0 0 1-3.25-2.016C3.864-3.234 3.125-4.5 2.595-6.094l1.75.39L3.704 0H1.265v-7.766H4.03c.414 1.168.992 2.172 1.735 3.016a7.932 7.932 0 0 0 2.609 1.938c1 .449 2.055.671 3.172.671Zm0 0"/></symbol><symbol overflow="visible" id="S"><path style="stroke:none" d="M6.25-2.203V-14.72h-.89c-.594 0-1.087.028-1.47.078-.386.043-.667.137-.843.282-.18.148-.281.355-.313.625l-.203 2.437H.766v-5.031h14.64v5.031h-1.765l-.188-2.437a.786.786 0 0 0-.312-.625c-.188-.145-.47-.239-.844-.282-.375-.05-.867-.078-1.469-.078h-.89v12.516c0 .336.144.558.437.672.29.105.66.156 1.11.156h.359V0h-7.5v-1.375h.343c.458 0 .833-.05 1.125-.156.29-.114.438-.336.438-.672Zm0 0"/></symbol><symbol overflow="visible" id="T"><path style="stroke:none" d="M8.25-16.328H.828v1.375h.235c.457 0 .832.058 1.125.172.289.105.437.324.437.656v11.922c0 .336-.148.558-.438.672-.292.105-.667.156-1.124.156H.828V0h12.875v-5.375h-1.812l-.235 2.734c-.011.274-.117.48-.312.625-.188.137-.485.235-.89.297-.4.055-.907.078-1.532.078H6.297v-12.484c0-.332.148-.55.453-.656.313-.114.71-.172 1.203-.172h.297Zm0 0"/></symbol><symbol overflow="visible" id="U"><path style="stroke:none" d="M7.61-1.469c.6 0 1.109-.082 1.515-.25.414-.176.738-.437.969-.781.226-.344.344-.781.344-1.313 0-.476-.11-.874-.329-1.187a2.746 2.746 0 0 0-.906-.797 7.368 7.368 0 0 0-1.36-.578c-.523-.164-1.085-.344-1.687-.531A17.359 17.359 0 0 1 4.391-7.5a6.026 6.026 0 0 1-1.579-.938 4.286 4.286 0 0 1-1.124-1.421c-.274-.57-.407-1.27-.407-2.094 0-.969.239-1.79.719-2.469A4.758 4.758 0 0 1 3.922-16c.8-.375 1.68-.563 2.64-.563.782 0 1.489.11 2.125.329a4.08 4.08 0 0 1 1.688 1.093c.5.524.922 1.246 1.266 2.172l-1.079-.047.438-3.312h1.563V-12h-1.829c-.21-.613-.5-1.129-.875-1.547a3.848 3.848 0 0 0-1.28-.984 3.8 3.8 0 0 0-1.61-.344c-.555 0-1.024.09-1.407.266-.386.168-.68.414-.875.734-.199.313-.296.695-.296 1.14 0 .43.101.782.312 1.063.219.281.516.524.89.719.376.2.813.371 1.313.515.5.137 1.024.282 1.578.438.657.168 1.29.375 1.907.625a6.877 6.877 0 0 1 1.656.922c.488.367.867.836 1.14 1.406.282.574.422 1.281.422 2.125 0 1.063-.242 1.98-.718 2.75-.48.774-1.153 1.367-2.016 1.781-.855.414-1.86.625-3.016.625a7.928 7.928 0 0 1-2.515-.406 5.734 5.734 0 0 1-2.157-1.36c-.636-.632-1.132-1.484-1.484-2.546l1.188.219L2.484 0H.813v-5.11h1.906c.27.743.644 1.383 1.125 1.923a5.23 5.23 0 0 0 1.703 1.265 4.838 4.838 0 0 0 2.062.453Zm0 0"/></symbol><symbol overflow="visible" id="V"><path style="stroke:none" d="M3.984-6.984h6.532v1.578H3.89Zm2.782-8.125.625.968L3.28-1.797c0 .086.078.164.235.234.164.063.375.11.625.141.25.031.492.047.734.047h.328V0h-5v-1.375h.125c.344 0 .617-.063.828-.188.207-.132.38-.41.516-.828l4.672-13.937h3.687l4.797 14.297c.094.261.25.437.469.531.226.086.508.125.844.125h.093V0H9.22v-1.375h.375c.238 0 .484-.004.734-.016.258-.02.473-.05.64-.093.165-.04.25-.082.25-.125Zm0 0"/></symbol><symbol overflow="visible" id="W"><path style="stroke:none" d="M13.781-5.156V0H.828v-1.375h.235c.457 0 .832-.05 1.125-.156.289-.114.437-.336.437-.672v-11.922c0-.332-.148-.55-.438-.656-.292-.114-.667-.172-1.124-.172H.828v-1.375h12.313v4.578h-1.735l-.187-1.938a.889.889 0 0 0-.328-.624c-.18-.145-.454-.243-.829-.297a8.394 8.394 0 0 0-1.374-.094H6.296v13.062h2.766c.476 0 .882-.007 1.218-.03.332-.032.61-.083.828-.157.22-.082.383-.188.5-.313a.824.824 0 0 0 .188-.5l.234-2.515Zm-8.14-3.922c.613-.031 1.218-.055 1.812-.078l1.781-.094 1.782-.094v1.953a90.51 90.51 0 0 1-1.782-.078l-1.78-.093c-.595-.032-1.2-.055-1.813-.079Zm0 0"/></symbol><symbol overflow="visible" id="X"><path style="stroke:none" d="M.828-14.953v-1.375h7.61c1.32 0 2.519.187 3.593.562 1.082.368 2.02.899 2.813 1.594a6.932 6.932 0 0 1 1.828 2.547c.426 1 .64 2.137.64 3.406 0 1.281-.214 2.43-.64 3.438a7.39 7.39 0 0 1-1.828 2.578c-.793.719-1.73 1.265-2.813 1.64C10.957-.188 9.758 0 8.437 0H.829v-1.375h.25c.457 0 .832-.05 1.125-.156.29-.114.438-.336.438-.672v-11.922c0-.3-.149-.516-.438-.64-.293-.126-.668-.188-1.125-.188Zm7.5.281H6.297v13.016h2.031c.781 0 1.485-.145 2.11-.438a4.447 4.447 0 0 0 1.624-1.265c.446-.563.79-1.254 1.032-2.079.238-.82.36-1.75.36-2.78 0-1.02-.122-1.93-.36-2.735-.242-.813-.586-1.492-1.031-2.047a4.364 4.364 0 0 0-1.626-1.25c-.624-.281-1.328-.422-2.109-.422Zm0 0"/></symbol><clipPath id="a"><path d="M445 47h360v266H445Zm0 0"/></clipPath><clipPath id="b"><path d="M453 47h344a8 8 0 0 1 8 8v250a8 8 0 0 1-8 8H453a8 8 0 0 1-8-8V55a8 8 0 0 1 8-8Zm0 0"/></clipPath><clipPath id="c"><path d="M901 44h220v266H901Zm0 0"/></clipPath><clipPath id="d"><path d="M909 44h204a8 8 0 0 1 8 8v250a8 8 0 0 1-8 8H909a8 8 0 0 1-8-8V52a8 8 0 0 1 8-8Zm0 0"/></clipPath><clipPath id="i"><path d="M930 148h162v54H930Zm0 0"/></clipPath><clipPath id="j"><path d="M938 148h146a8 8 0 0 1 8 8v38a8 8 0 0 1-8 8H938a8 8 0 0 1-8-8v-38a8 8 0 0 1 8-8Zm0 0"/></clipPath><clipPath id="s"><path d="M103 24h220v311H103Zm0 0"/></clipPath><clipPath id="t"><path d="M111 24h204a8 8 0 0 1 8 8v295a8 8 0 0 1-8 8H111a8 8 0 0 1-8-8V32a8 8 0 0 1 8-8Zm0 0"/></clipPath><clipPath id="x"><path d="M293 173h196v14H293Zm0 0"/></clipPath><clipPath id="y"><path d="m475 173 14 7-14 7v-6H293v-2h182Zm0 0"/></clipPath><clipPath id="z"><path d="M776 170h153v15H776Zm0 0"/></clipPath><clipPath id="A"><path d="M914.953 170.094 929 177l-13.953 7.094-.04-6-137 .906-1 .008-.015-2 1-.008 137-.906Zm0 0"/></clipPath><clipPath id="L"><path d="M132 153h162v51H132Zm0 0"/></clipPath><clipPath id="M"><path d="M140 153h146a8 8 0 0 1 8 8v35a8 8 0 0 1-8 8H140a8 8 0 0 1-8-8v-35a8 8 0 0 1 8-8Zm0 0"/></clipPath></defs><g clip-path="url(#a)"><g clip-path="url(#b)" clip-rule="evenodd"><path style="stroke:none;fill-rule:nonzero;fill:#eab308;fill-opacity:.1" d="M444 46h362v268H444Zm0 0"/><path style="fill:none;stroke-width:2;stroke-linecap:butt;stroke-linejoin:miter;stroke:#eab308;stroke-opacity:1;stroke-miterlimit:5" d="M8 0h344a8 8 0 0 1 8 8v250a8 8 0 0 1-8 8H8a8 8 0 0 1-8-8V8a8 8 0 0 1 8-8Zm0 0" transform="translate(445 47)"/></g></g><g clip-path="url(#c)"><g clip-path="url(#d)" clip-rule="evenodd"><path style="stroke:none;fill-rule:nonzero;fill:#3b82f6;fill-opacity:.1" d="M900 43h222v268H900Zm0 0"/><path style="fill:none;stroke-width:2;stroke-linecap:butt;stroke-linejoin:miter;stroke:#3b82f6;stroke-opacity:1;stroke-miterlimit:5" d="M8 0h204a8 8 0 0 1 8 8v250a8 8 0 0 1-8 8H8a8 8 0 0 1-8-8V8a8 8 0 0 1 8-8Zm0 0" transform="translate(901 44)"/></g></g><g style="fill:#000;fill-opacity:1"><use xlink:href="#e" x="944.465" y="279.536"/><use xlink:href="#f" x="970.816" y="279.536"/></g><use xlink:href="#g" x="994.338" y="279.536" style="fill:#000;fill-opacity:1"/><use xlink:href="#h" x="1012.939" y="279.536" style="fill:#000;fill-opacity:1"/><use xlink:href="#f" x="1035.969" y="279.536" style="fill:#000;fill-opacity:1"/><use xlink:href="#g" x="1059.491" y="279.536" style="fill:#000;fill-opacity:1"/><g clip-path="url(#i)"><g clip-path="url(#j)" clip-rule="evenodd"><path style="stroke:none;fill-rule:nonzero;fill:#3b82f6;fill-opacity:.1" d="M929 147h164v56H929Zm0 0"/><path style="fill:none;stroke-width:2;stroke-linecap:butt;stroke-linejoin:miter;stroke:#3b82f6;stroke-opacity:1;stroke-miterlimit:5" d="M8 0h146a8 8 0 0 1 8 8v38a8 8 0 0 1-8 8H8a8 8 0 0 1-8-8V8a8 8 0 0 1 8-8Zm0 0" transform="translate(930 148)"/></g></g><g style="fill:#000;fill-opacity:1"><use xlink:href="#k" x="950.472" y="182.588"/><use xlink:href="#l" x="967.5" y="182.588"/></g><use xlink:href="#m" x="981.144" y="182.588" style="fill:#000;fill-opacity:1"/><use xlink:href="#n" x="988.86" y="182.588" style="fill:#000;fill-opacity:1"/><use xlink:href="#o" x="1002.024" y="182.588" style="fill:#000;fill-opacity:1"/><use xlink:href="#p" x="1016.388" y="182.588" style="fill:#000;fill-opacity:1"/><use xlink:href="#q" x="1022.424" y="182.588" style="fill:#000;fill-opacity:1"/><use xlink:href="#r" x="1039.452" y="182.588" style="fill:#000;fill-opacity:1"/><use xlink:href="#r" x="1055.472" y="182.588" style="fill:#000;fill-opacity:1"/><g clip-path="url(#s)"><g clip-path="url(#t)" clip-rule="evenodd"><path style="stroke:none;fill-rule:nonzero;fill:#ef4444;fill-opacity:.1" d="M102 23h222v313H102Zm0 0"/><path style="fill:none;stroke-width:2;stroke-linecap:butt;stroke-linejoin:miter;stroke:#ef4444;stroke-opacity:1;stroke-miterlimit:5" d="M8 0h204a8 8 0 0 1 8 8v295a8 8 0 0 1-8 8H8a8 8 0 0 1-8-8V8a8 8 0 0 1 8-8Zm0 0" transform="translate(103 24)"/></g></g><g style="fill:#000;fill-opacity:1"><use xlink:href="#u" x="143.213" y="98"/><use xlink:href="#f" x="175.882" y="98"/></g><use xlink:href="#h" x="198.752" y="98" style="fill:#000;fill-opacity:1"/><use xlink:href="#v" x="222.728" y="98" style="fill:#000;fill-opacity:1"/><use xlink:href="#w" x="236.086" y="98" style="fill:#000;fill-opacity:1"/><use xlink:href="#f" x="259.243" y="98" style="fill:#000;fill-opacity:1"/><g clip-path="url(#x)"><g clip-path="url(#y)" clip-rule="evenodd"><path style="stroke:none;fill-rule:nonzero;fill:#22c55e;fill-opacity:1" d="M292 172h198v16H292Zm0 0"/></g></g><g clip-path="url(#z)"><g clip-path="url(#A)" clip-rule="evenodd"><path style="stroke:none;fill-rule:nonzero;fill:#000;fill-opacity:1" d="M775.992 169.094H930v16H775.992Zm0 0"/></g></g><g style="fill:#000;fill-opacity:1"><use xlink:href="#B" x="504.214" y="185"/><use xlink:href="#n" x="517.637" y="185"/></g><use xlink:href="#C" x="531.517" y="185" style="fill:#000;fill-opacity:1"/><use xlink:href="#D" x="543.524" y="185" style="fill:#000;fill-opacity:1"/><use xlink:href="#E" x="559.066" y="185" style="fill:#000;fill-opacity:1"/><use xlink:href="#l" x="578.225" y="185" style="fill:#000;fill-opacity:1"/><use xlink:href="#m" x="591.865" y="185" style="fill:#000;fill-opacity:1"/><use xlink:href="#F" x="599.576" y="185" style="fill:#000;fill-opacity:1"/><use xlink:href="#G" x="607.383" y="185" style="fill:#000;fill-opacity:1"/><use xlink:href="#l" x="620.974" y="185" style="fill:#000;fill-opacity:1"/><use xlink:href="#H" x="634.757" y="185" style="fill:#000;fill-opacity:1"/><use xlink:href="#o" x="645.613" y="185" style="fill:#000;fill-opacity:1"/><use xlink:href="#I" x="666.027" y="185" style="fill:#000;fill-opacity:1"/><use xlink:href="#J" x="683.098" y="185" style="fill:#000;fill-opacity:1"/><use xlink:href="#n" x="698.945" y="185" style="fill:#000;fill-opacity:1"/><use xlink:href="#K" x="712.681" y="185" style="fill:#000;fill-opacity:1"/><use xlink:href="#K" x="728.576" y="185" style="fill:#000;fill-opacity:1"/><use xlink:href="#l" x="744.471" y="185" style="fill:#000;fill-opacity:1"/><use xlink:href="#m" x="758.11" y="185" style="fill:#000;fill-opacity:1"/><g clip-path="url(#L)"><g clip-path="url(#M)" clip-rule="evenodd"><path style="stroke:none;fill-rule:nonzero;fill:#ef4444;fill-opacity:.1" d="M131 152h164v53H131Zm0 0"/><path style="fill:none;stroke-width:2;stroke-linecap:butt;stroke-linejoin:miter;stroke:#ef4444;stroke-opacity:1;stroke-miterlimit:5" d="M8 0h146a8 8 0 0 1 8 8v35a8 8 0 0 1-8 8H8a8 8 0 0 1-8-8V8a8 8 0 0 1 8-8Zm0 0" transform="translate(132 153)"/></g></g><g style="fill:#000;fill-opacity:1"><use xlink:href="#k" x="152.472" y="186"/><use xlink:href="#l" x="169.5" y="186"/></g><use xlink:href="#m" x="183.144" y="186" style="fill:#000;fill-opacity:1"/><use xlink:href="#n" x="190.86" y="186" style="fill:#000;fill-opacity:1"/><use xlink:href="#o" x="204.024" y="186" style="fill:#000;fill-opacity:1"/><use xlink:href="#q" x="224.424" y="186" style="fill:#000;fill-opacity:1"/><use xlink:href="#r" x="241.452" y="186" style="fill:#000;fill-opacity:1"/><use xlink:href="#r" x="257.472" y="186" style="fill:#000;fill-opacity:1"/><use xlink:href="#N" x="323.3" y="167" style="fill:#34c759;fill-opacity:1"/><g style="fill:#34c759;fill-opacity:1"><use xlink:href="#O" x="360.622" y="167"/><use xlink:href="#P" x="369.337" y="167"/></g><use xlink:href="#Q" x="393.806" y="167" style="fill:#34c759;fill-opacity:1"/><use xlink:href="#R" x="415.838" y="167" style="fill:#34c759;fill-opacity:1"/><g style="fill:#000;fill-opacity:1"><use xlink:href="#S" x="830.43" y="209"/><use xlink:href="#T" x="846.61" y="209"/></g><use xlink:href="#U" x="861.181" y="209" style="fill:#000;fill-opacity:1"/><g style="fill:#000;fill-opacity:1"><use xlink:href="#V" x="819.981" y="246"/><use xlink:href="#W" x="836.429" y="246"/></g><g style="fill:#000;fill-opacity:1"><use xlink:href="#V" x="851.335" y="246"/><use xlink:href="#X" x="867.782" y="246"/></g></svg>