<svg xmlns="http://www.w3.org/2000/svg" xmlns:xlink="http://www.w3.org/1999/xlink" width="1042.834" height="870.462" viewBox="0 0 782.126 652.847" version="1.2"><defs><clipPath id="S"><path d="M106 273h597v144H106Zm0 0"/></clipPath><clipPath id="T"><path d="M106.566 413.758c.387 2.465.391 2.465.395 2.465.004 0 .012-.004.02-.004a224.79 224.79 0 0 1 1.57-.246c1.05-.168 2.61-.414 4.644-.739 4.07-.652 10.047-1.609 17.664-2.851 15.239-2.48 37.051-6.078 63.344-10.563 52.59-8.96 123.121-21.457 194.89-35.574 71.755-14.113 144.786-29.86 202.356-45.332 28.781-7.734 53.75-15.414 72.79-22.809 9.515-3.695 17.605-7.335 23.96-10.902 6.305-3.535 11.137-7.121 13.91-10.785l-3.98-3.012c-2.14 2.824-6.238 6-12.371 9.442-6.078 3.406-13.93 6.953-23.328 10.605-18.793 7.297-43.567 14.922-72.278 22.637-57.402 15.43-130.304 31.148-202.023 45.258-71.711 14.105-142.2 26.59-194.762 35.55a8503.365 8503.365 0 0 1-63.308 10.555c-7.614 1.238-13.582 2.2-17.653 2.848-2.031.324-3.59.57-4.636.738a209.943 209.943 0 0 0-1.489.234.596.596 0 0 0-.074.012c-.012 0-.016.004-.02.004-.003 0-.007 0 .38 2.469Zm0 0"/></clipPath><linearGradient id="U" gradientUnits="userSpaceOnUse" x1="-.038" y1="0" x2=".997" y2="0" gradientTransform="scale(590.10808 -590.10808) rotate(8.636 10.372 1.514)"><stop offset="0" style="stop-color:#0f25e5;stop-opacity:1"/><stop offset=".125" style="stop-color:#0f25e5;stop-opacity:1"/><stop offset=".188" style="stop-color:#0f25e5;stop-opacity:1"/><stop offset=".219" style="stop-color:#0f25e5;stop-opacity:1"/><stop offset=".223" style="stop-color:#1124e4;stop-opacity:1"/><stop offset=".227" style="stop-color:#1324e2;stop-opacity:1"/><stop offset=".23" style="stop-color:#1424e1;stop-opacity:1"/><stop offset=".234" style="stop-color:#1524e0;stop-opacity:1"/><stop offset=".238" style="stop-color:#1724de;stop-opacity:1"/><stop offset=".242" style="stop-color:#1823dd;stop-opacity:1"/><stop offset=".246" style="stop-color:#1a23dc;stop-opacity:1"/><stop offset=".25" style="stop-color:#1b23da;stop-opacity:1"/><stop offset=".254" style="stop-color:#1c23d9;stop-opacity:1"/><stop offset=".258" style="stop-color:#1e22d8;stop-opacity:1"/><stop offset=".262" style="stop-color:#1f22d6;stop-opacity:1"/><stop offset=".266" style="stop-color:#2122d5;stop-opacity:1"/><stop offset=".27" style="stop-color:#2222d4;stop-opacity:1"/><stop offset=".273" style="stop-color:#2322d2;stop-opacity:1"/><stop offset=".277" style="stop-color:#2521d1;stop-opacity:1"/><stop offset=".281" style="stop-color:#2621d0;stop-opacity:1"/><stop offset=".285" style="stop-color:#2821ce;stop-opacity:1"/><stop offset=".289" style="stop-color:#2921cd;stop-opacity:1"/><stop offset=".293" style="stop-color:#2a21cb;stop-opacity:1"/><stop offset=".297" style="stop-color:#2c20ca;stop-opacity:1"/><stop offset=".301" style="stop-color:#2d20c9;stop-opacity:1"/><stop offset=".305" style="stop-color:#2f20c7;stop-opacity:1"/><stop offset=".309" style="stop-color:#3020c6;stop-opacity:1"/><stop offset=".313" style="stop-color:#321fc5;stop-opacity:1"/><stop offset=".316" style="stop-color:#331fc3;stop-opacity:1"/><stop offset=".32" style="stop-color:#341fc2;stop-opacity:1"/><stop offset=".324" style="stop-color:#361fc1;stop-opacity:1"/><stop offset=".328" style="stop-color:#371fbf;stop-opacity:1"/><stop offset=".332" style="stop-color:#391ebe;stop-opacity:1"/><stop offset=".336" style="stop-color:#3a1ebd;stop-opacity:1"/><stop offset=".34" style="stop-color:#3b1ebb;stop-opacity:1"/><stop offset=".344" style="stop-color:#3d1eba;stop-opacity:1"/><stop offset=".348" style="stop-color:#3e1eb9;stop-opacity:1"/><stop offset=".352" style="stop-color:#401db7;stop-opacity:1"/><stop offset=".355" style="stop-color:#411db6;stop-opacity:1"/><stop offset=".359" style="stop-color:#421db5;stop-opacity:1"/><stop offset=".363" style="stop-color:#441db3;stop-opacity:1"/><stop offset=".367" style="stop-color:#451cb2;stop-opacity:1"/><stop offset=".371" style="stop-color:#471cb0;stop-opacity:1"/><stop offset=".375" style="stop-color:#481caf;stop-opacity:1"/><stop offset=".379" style="stop-color:#491cae;stop-opacity:1"/><stop offset=".383" style="stop-color:#4b1cac;stop-opacity:1"/><stop offset=".387" style="stop-color:#4c1bab;stop-opacity:1"/><stop offset=".391" style="stop-color:#4e1baa;stop-opacity:1"/><stop offset=".395" style="stop-color:#4f1ba8;stop-opacity:1"/><stop offset=".398" style="stop-color:#511ba7;stop-opacity:1"/><stop offset=".402" style="stop-color:#521ba6;stop-opacity:1"/><stop offset=".406" style="stop-color:#531aa4;stop-opacity:1"/><stop offset=".41" style="stop-color:#551aa3;stop-opacity:1"/><stop offset=".414" style="stop-color:#561aa2;stop-opacity:1"/><stop offset=".418" style="stop-color:#581aa0;stop-opacity:1"/><stop offset=".422" style="stop-color:#59199f;stop-opacity:1"/><stop offset=".426" style="stop-color:#5a199e;stop-opacity:1"/><stop offset=".43" style="stop-color:#5c199c;stop-opacity:1"/><stop offset=".434" style="stop-color:#5d199b;stop-opacity:1"/><stop offset=".438" style="stop-color:#5f199a;stop-opacity:1"/><stop offset=".441" style="stop-color:#601898;stop-opacity:1"/><stop offset=".445" style="stop-color:#611897;stop-opacity:1"/><stop offset=".449" style="stop-color:#631896;stop-opacity:1"/><stop offset=".453" style="stop-color:#641894;stop-opacity:1"/><stop offset=".457" style="stop-color:#661793;stop-opacity:1"/><stop offset=".461" style="stop-color:#671791;stop-opacity:1"/><stop offset=".465" style="stop-color:#681790;stop-opacity:1"/><stop offset=".469" style="stop-color:#6a178f;stop-opacity:1"/><stop offset=".473" style="stop-color:#6b178d;stop-opacity:1"/><stop offset=".477" style="stop-color:#6d168c;stop-opacity:1"/><stop offset=".48" style="stop-color:#6e168b;stop-opacity:1"/><stop offset=".484" style="stop-color:#701689;stop-opacity:1"/><stop offset=".488" style="stop-color:#711688;stop-opacity:1"/><stop offset=".492" style="stop-color:#721687;stop-opacity:1"/><stop offset=".496" style="stop-color:#741585;stop-opacity:1"/><stop offset=".5" style="stop-color:#751584;stop-opacity:1"/><stop offset=".504" style="stop-color:#771583;stop-opacity:1"/><stop offset=".508" style="stop-color:#781581;stop-opacity:1"/><stop offset=".512" style="stop-color:#791480;stop-opacity:1"/><stop offset=".516" style="stop-color:#7b147f;stop-opacity:1"/><stop offset=".52" style="stop-color:#7c147d;stop-opacity:1"/><stop offset=".523" style="stop-color:#7e147c;stop-opacity:1"/><stop offset=".527" style="stop-color:#7f147b;stop-opacity:1"/><stop offset=".531" style="stop-color:#801379;stop-opacity:1"/><stop offset=".535" style="stop-color:#821378;stop-opacity:1"/><stop offset=".539" style="stop-color:#831376;stop-opacity:1"/><stop offset=".543" style="stop-color:#851375;stop-opacity:1"/><stop offset=".547" style="stop-color:#861374;stop-opacity:1"/><stop offset=".551" style="stop-color:#871272;stop-opacity:1"/><stop offset=".555" style="stop-color:#891271;stop-opacity:1"/><stop offset=".559" style="stop-color:#8a1270;stop-opacity:1"/><stop offset=".563" style="stop-color:#8c126e;stop-opacity:1"/><stop offset=".566" style="stop-color:#8d116d;stop-opacity:1"/><stop offset=".57" style="stop-color:#8f116c;stop-opacity:1"/><stop offset=".574" style="stop-color:#90116a;stop-opacity:1"/><stop offset=".578" style="stop-color:#911169;stop-opacity:1"/><stop offset=".582" style="stop-color:#931168;stop-opacity:1"/><stop offset=".586" style="stop-color:#941066;stop-opacity:1"/><stop offset=".59" style="stop-color:#961065;stop-opacity:1"/><stop offset=".594" style="stop-color:#971064;stop-opacity:1"/><stop offset=".598" style="stop-color:#981062;stop-opacity:1"/><stop offset=".602" style="stop-color:#9a1061;stop-opacity:1"/><stop offset=".605" style="stop-color:#9b0f60;stop-opacity:1"/><stop offset=".609" style="stop-color:#9d0f5e;stop-opacity:1"/><stop offset=".613" style="stop-color:#9e0f5d;stop-opacity:1"/><stop offset=".617" style="stop-color:#9f0f5b;stop-opacity:1"/><stop offset=".621" style="stop-color:#a10e5a;stop-opacity:1"/><stop offset=".625" style="stop-color:#a20e59;stop-opacity:1"/><stop offset=".629" style="stop-color:#a40e57;stop-opacity:1"/><stop offset=".633" style="stop-color:#a50e56;stop-opacity:1"/><stop offset=".637" style="stop-color:#a60e55;stop-opacity:1"/><stop offset=".641" style="stop-color:#a80d53;stop-opacity:1"/><stop offset=".645" style="stop-color:#a90d52;stop-opacity:1"/><stop offset=".648" style="stop-color:#ab0d51;stop-opacity:1"/><stop offset=".652" style="stop-color:#ac0d4f;stop-opacity:1"/><stop offset=".656" style="stop-color:#ae0c4e;stop-opacity:1"/><stop offset=".66" style="stop-color:#af0c4d;stop-opacity:1"/><stop offset=".664" style="stop-color:#b00c4b;stop-opacity:1"/><stop offset=".668" style="stop-color:#b20c4a;stop-opacity:1"/><stop offset=".672" style="stop-color:#b30c49;stop-opacity:1"/><stop offset=".676" style="stop-color:#b50b47;stop-opacity:1"/><stop offset=".68" style="stop-color:#b60b46;stop-opacity:1"/><stop offset=".684" style="stop-color:#b70b45;stop-opacity:1"/><stop offset=".688" style="stop-color:#b90b43;stop-opacity:1"/><stop offset=".691" style="stop-color:#ba0b42;stop-opacity:1"/><stop offset=".695" style="stop-color:#bc0a41;stop-opacity:1"/><stop offset=".699" style="stop-color:#bd0a3f;stop-opacity:1"/><stop offset=".703" style="stop-color:#be0a3e;stop-opacity:1"/><stop offset=".707" style="stop-color:#c00a3c;stop-opacity:1"/><stop offset=".711" style="stop-color:#c1093b;stop-opacity:1"/><stop offset=".715" style="stop-color:#c3093a;stop-opacity:1"/><stop offset=".719" style="stop-color:#c40938;stop-opacity:1"/><stop offset=".723" style="stop-color:#c50937;stop-opacity:1"/><stop offset=".727" style="stop-color:#c70936;stop-opacity:1"/><stop offset=".73" style="stop-color:#c80834;stop-opacity:1"/><stop offset=".734" style="stop-color:#ca0833;stop-opacity:1"/><stop offset=".738" style="stop-color:#cb0832;stop-opacity:1"/><stop offset=".742" style="stop-color:#cd0830;stop-opacity:1"/><stop offset=".746" style="stop-color:#ce082f;stop-opacity:1"/><stop offset=".75" style="stop-color:#cf072e;stop-opacity:1"/><stop offset=".754" style="stop-color:#d1072c;stop-opacity:1"/><stop offset=".758" style="stop-color:#d2072b;stop-opacity:1"/><stop offset=".762" style="stop-color:#d4072a;stop-opacity:1"/><stop offset=".766" style="stop-color:#d50628;stop-opacity:1"/><stop offset=".77" style="stop-color:#d60627;stop-opacity:1"/><stop offset=".773" style="stop-color:#d80626;stop-opacity:1"/><stop offset=".777" style="stop-color:#d90624;stop-opacity:1"/><stop offset=".781" style="stop-color:#db0623;stop-opacity:1"/><stop offset=".785" style="stop-color:#dc0521;stop-opacity:1"/><stop offset=".789" style="stop-color:#dd0520;stop-opacity:1"/><stop offset=".793" style="stop-color:#df051f;stop-opacity:1"/><stop offset=".797" style="stop-color:#e0051d;stop-opacity:1"/><stop offset=".801" style="stop-color:#e2041c;stop-opacity:1"/><stop offset=".805" style="stop-color:#e3041b;stop-opacity:1"/><stop offset=".809" style="stop-color:#e40419;stop-opacity:1"/><stop offset=".813" style="stop-color:#e60418;stop-opacity:1"/><stop offset=".816" style="stop-color:#e70417;stop-opacity:1"/><stop offset=".82" style="stop-color:#e90315;stop-opacity:1"/><stop offset=".824" style="stop-color:#ea0314;stop-opacity:1"/><stop offset=".828" style="stop-color:#ec0313;stop-opacity:1"/><stop offset=".832" style="stop-color:#ed0311;stop-opacity:1"/><stop offset=".836" style="stop-color:#ee0310;stop-opacity:1"/><stop offset=".84" style="stop-color:#f0020f;stop-opacity:1"/><stop offset=".844" style="stop-color:#f1020d;stop-opacity:1"/><stop offset=".848" style="stop-color:#f3020c;stop-opacity:1"/><stop offset=".852" style="stop-color:#f4020b;stop-opacity:1"/><stop offset=".855" style="stop-color:#f50109;stop-opacity:1"/><stop offset=".859" style="stop-color:#f70108;stop-opacity:1"/><stop offset=".863" style="stop-color:#f80106;stop-opacity:1"/><stop offset=".867" style="stop-color:#fa0105;stop-opacity:1"/><stop offset=".871" style="stop-color:#fb0104;stop-opacity:1"/><stop offset=".875" style="stop-color:#fc0002;stop-opacity:1"/><stop offset=".879" style="stop-color:#fe0001;stop-opacity:1"/><stop offset=".883" style="stop-color:red;stop-opacity:1"/><stop offset=".891" style="stop-color:red;stop-opacity:1"/><stop offset=".906" style="stop-color:red;stop-opacity:1"/><stop offset=".938" style="stop-color:red;stop-opacity:1"/><stop offset="1" style="stop-color:red;stop-opacity:1"/></linearGradient></defs><path style="stroke:none;fill-rule:nonzero;fill:#000;fill-opacity:.25" d="m55.125 604.543 699.219 1v-1.996l-699.215-1ZM55.125 603.543V28.187h-1.996v575.356Zm0 0"/><path style="stroke:none;fill-rule:nonzero;fill:#000;fill-opacity:.5" d="M105.758 587.324c36.566-5.484 63.847-15.43 84.707-28.91 20.883-13.496 35.207-30.457 45.969-49.777 10.738-19.278 17.93-40.91 24.566-63.723 6.66-22.887 12.746-46.894 21.309-71.34 17.074-48.73 43.87-98.781 103.972-142.355 60.184-43.633 153.957-80.914 305.254-103.61l-.742-4.941c-151.723 22.766-246.371 60.23-307.445 104.508-61.153 44.336-88.45 95.36-105.75 144.746-8.625 24.613-14.797 48.926-21.395 71.598-6.617 22.75-13.683 43.93-24.133 62.687-10.425 18.719-24.218 35.027-44.316 48.012-20.117 13.004-46.676 22.758-82.738 28.168ZM39.145 297.887Zm-9.993-.965H27.88c-.39 0-.8-.07-1.234-.207a5.285 5.285 0 0 1-1.274-.61 4.62 4.62 0 0 1-1.07-.972l.738-.906c.426.296.871.554 1.332.777a3.4 3.4 0 0 0 1.477.328h1.304Zm0-3.633H27.88c-.39 0-.8-.07-1.234-.207a5.285 5.285 0 0 1-1.274-.61 4.62 4.62 0 0 1-1.07-.972l.738-.906c.426.297.871.558 1.332.781.461.215.953.324 1.477.324h1.304Zm9.993-3.012Zm0-1.757H24.613v-1.762h6.469v-7.746h-6.469v-1.762h14.532v1.762h-6.5v7.746h6.5Zm0-13.032Zm.253-4.738c0 .691-.128 1.316-.39 1.879a3.248 3.248 0 0 1-1.14 1.344c-.505.328-1.11.496-1.817.496-.625 0-1.133-.125-1.52-.371-.39-.246-.699-.575-.922-.985a5.239 5.239 0 0 1-.496-1.363 16.55 16.55 0 0 1-.27-1.512 65.7 65.7 0 0 1-.19-1.61c-.048-.417-.126-.718-.235-.91-.11-.19-.297-.288-.566-.288h-.059c-.7 0-1.242.191-1.633.574-.387.379-.582.953-.582 1.723 0 .8.176 1.425.527 1.882.348.454.723.774 1.122.957l-.57 1.59c-.66-.285-1.177-.664-1.544-1.136a4.188 4.188 0 0 1-.781-1.56 6.473 6.473 0 0 1-.227-1.675c0-.351.043-.754.125-1.207.082-.457.25-.898.504-1.324.258-.434.641-.79 1.157-1.074.515-.282 1.207-.426 2.074-.426h7.18v1.676h-1.477v.086c.234.113.488.3.758.566.27.266.5.617.687 1.059.192.437.285.976.285 1.609Zm-1.503-.254c0-.664-.13-1.223-.391-1.676-.262-.457-.598-.804-1.008-1.035a2.544 2.544 0 0 0-1.297-.355h-1.535c.086.07.164.226.234.468.067.235.13.512.18.825.047.304.09.605.129.898.031.29.059.524.082.703.059.434.148.844.277 1.219.125.375.309.68.563.91.246.227.582.34 1.008.34.578 0 1.02-.215 1.316-.645.293-.437.442-.988.442-1.652Zm1.25-6.266Zm0-1.53H28.246v-1.618h1.645v-.113c-.54-.2-.977-.559-1.313-1.078a3.17 3.17 0 0 1-.504-1.762c0-.121.004-.274.008-.461.004-.184.012-.32.023-.418h1.704c-.016.059-.04.188-.067.39-.031.2-.05.41-.05.633 0 .528.113 1.004.335 1.418.22.41.52.739.907.98.382.235.82.352 1.312.352h6.899Zm0-5.571Zm.226-5.645c0 .907-.23 1.707-.687 2.403-.465.695-1.118 1.242-1.961 1.633-.844.394-1.848.59-3 .59-1.145 0-2.137-.196-2.98-.59-.84-.391-1.493-.938-1.95-1.637-.461-.703-.688-1.512-.688-2.43 0-.707.118-1.27.352-1.68.234-.414.5-.734.797-.949.293-.222.535-.394.723-.52v-.14h-5.364v-1.676h14.532v1.617h-1.676v.2c.199.125.449.297.75.527.3.227.566.55.804.969.23.422.348.984.348 1.683Zm-1.504-.226c0-.672-.176-1.242-.527-1.703-.356-.465-.844-.817-1.469-1.059-.629-.242-1.355-.36-2.176-.36-.812 0-1.527.118-2.136.352-.614.239-1.094.586-1.434 1.051-.344.465-.516 1.035-.516 1.719 0 .707.18 1.3.547 1.773.36.469.848.82 1.465 1.055.617.234 1.309.348 2.074.348.774 0 1.48-.118 2.114-.356.629-.238 1.129-.594 1.504-1.062.367-.473.554-1.059.554-1.758Zm1.278-6.535Zm-6.56-3.207h6.56v1.675H28.246v-1.617h1.703v-.144c-.554-.254-1-.64-1.336-1.164-.34-.52-.508-1.192-.508-2.012 0-.738.149-1.387.454-1.938.296-.554.75-.984 1.363-1.293.605-.304 1.371-.46 2.297-.46h6.926v1.675h-6.813c-.855 0-1.523.223-2 .668-.484.442-.723 1.055-.723 1.828 0 .536.114 1.012.348 1.434.23.418.57.746 1.012.984.445.243.984.364 1.617.364Zm6.56-8.48Zm.226-6.102c0 1.05-.234 1.957-.695 2.718-.469.758-1.121 1.34-1.961 1.754-.84.406-1.82.61-2.934.61-1.117 0-2.101-.203-2.953-.61-.855-.414-1.523-.984-2-1.719-.484-.738-.723-1.597-.723-2.582 0-.566.094-1.128.282-1.68a4.177 4.177 0 0 1 .922-1.51c.421-.454.98-.817 1.675-1.087.696-.27 1.551-.406 2.567-.406h.71v8.402h-1.445v-6.699c-.617 0-1.164.125-1.648.371-.48.238-.863.586-1.14 1.035-.282.446-.419.969-.419 1.574 0 .668.164 1.243.496 1.73.325.485.75.856 1.278 1.114a3.72 3.72 0 0 0 1.687.39h.965c.824 0 1.52-.14 2.094-.425.566-.289 1-.687 1.297-1.2.293-.507.441-1.1.441-1.78a3.58 3.58 0 0 0-.187-1.192 2.536 2.536 0 0 0-.567-.93 2.567 2.567 0 0 0-.949-.601l.453-1.617a3.634 3.634 0 0 1 1.45.86c.41.401.73.898.964 1.487.227.59.34 1.258.34 1.993Zm-.226-5.524Zm-8.458-9.254.426 1.504c-.25.098-.496.235-.73.422-.242.18-.442.426-.598.734-.156.313-.234.715-.234 1.2 0 .668.152 1.222.46 1.668.305.441.688.66 1.157.66.418 0 .746-.153.988-.453.239-.305.442-.778.602-1.418l.398-1.618c.235-.976.598-1.703 1.086-2.18.48-.476 1.102-.714 1.863-.714.625 0 1.184.18 1.676.539.492.352.88.848 1.164 1.488.282.637.426 1.38.426 2.227 0 1.113-.242 2.031-.726 2.762-.48.726-1.184 1.187-2.114 1.382l-.394-1.59c.586-.152 1.023-.437 1.316-.859.293-.426.442-.98.442-1.668 0-.777-.165-1.398-.497-1.855-.336-.465-.738-.696-1.207-.696a1.27 1.27 0 0 0-.949.395c-.262.266-.457.672-.582 1.223l-.426 1.816c-.238.996-.605 1.73-1.101 2.2-.5.46-1.125.695-1.88.695-.612 0-1.16-.176-1.632-.52-.473-.352-.844-.824-1.113-1.426-.27-.605-.403-1.289-.403-2.058 0-1.078.235-1.922.707-2.54a3.848 3.848 0 0 1 1.875-1.32Zm8.458-1.183Zm-8.458-9.254.426 1.504c-.25.097-.496.234-.73.422-.242.18-.442.425-.598.734-.156.312-.234.715-.234 1.2 0 .667.152 1.222.46 1.667.305.441.688.66 1.157.66.418 0 .746-.152.988-.453.239-.305.442-.777.602-1.418l.398-1.617c.235-.977.598-1.703 1.086-2.18.48-.476 1.102-.715 1.863-.715.625 0 1.184.18 1.676.54.492.351.88.847 1.164 1.488.282.637.426 1.379.426 2.226 0 1.114-.242 2.032-.726 2.762-.48.727-1.184 1.188-2.114 1.383l-.394-1.59c.586-.152 1.023-.437 1.316-.86.293-.425.442-.98.442-1.667 0-.778-.165-1.399-.497-1.856-.336-.465-.738-.695-1.207-.695a1.27 1.27 0 0 0-.949.394c-.262.266-.457.672-.582 1.223l-.426 1.816c-.238.997-.605 1.731-1.101 2.2-.5.46-1.125.695-1.88.695-.612 0-1.16-.176-1.632-.52-.473-.351-.844-.824-1.113-1.425-.27-.606-.403-1.293-.403-2.059 0-1.078.235-1.922.707-2.539a3.848 3.848 0 0 1 1.875-1.32Zm8.458-1.184Zm-14.532-3.008h1.278c.386 0 .8.07 1.242.211.433.137.86.34 1.27.61.406.265.761.586 1.062.964l-.738.91a8.73 8.73 0 0 0-1.325-.773 3.386 3.386 0 0 0-1.484-.336h-1.305Zm0-3.632h1.278c.386 0 .8.07 1.242.21.433.137.86.34 1.27.61.406.265.761.59 1.062.965l-.738.91a9.435 9.435 0 0 0-1.325-.774 3.383 3.383 0 0 0-1.484-.332h-1.305Zm14.532-6.59Zm-10.899-6.383h1.418v5.875h-1.418Zm10.899 4.113H26.742c-.625 0-1.144-.144-1.562-.437a2.729 2.729 0 0 1-.934-1.145 3.56 3.56 0 0 1-.312-1.48c0-.414.03-.75.097-1.008a4.21 4.21 0 0 1 .184-.582l1.45.48a11.5 11.5 0 0 0-.106.356c-.043.148-.067.34-.067.582 0 .554.14.953.418 1.199.281.242.692.363 1.23.363h12.005Zm0-4.48Zm.226-5.957c0 .984-.234 1.847-.703 2.59-.469.738-1.125 1.312-1.965 1.73-.844.41-1.828.617-2.953.617-1.133 0-2.125-.207-2.973-.617-.843-.418-1.504-.992-1.972-1.73-.465-.743-.7-1.606-.7-2.59 0-.985.235-1.844.7-2.582.468-.743 1.129-1.32 1.972-1.73.848-.419 1.84-.626 2.973-.626 1.125 0 2.11.207 2.953.625.84.41 1.496.988 1.965 1.73.469.739.703 1.598.703 2.583Zm-1.504 0c0-.75-.191-1.364-.574-1.844a3.417 3.417 0 0 0-1.512-1.074 5.822 5.822 0 0 0-2.031-.348c-.727 0-1.406.117-2.035.348-.63.234-1.137.59-1.524 1.074-.39.48-.582 1.094-.582 1.844 0 .746.192 1.359.582 1.843.387.48.895.84 1.524 1.07a5.786 5.786 0 0 0 2.035.348c.73 0 1.406-.113 2.031-.347a3.41 3.41 0 0 0 1.512-1.07c.383-.485.574-1.098.574-1.844Zm1.278-5.961Zm0-1.535H28.246v-1.618h1.645v-.113c-.54-.2-.977-.559-1.313-1.078a3.167 3.167 0 0 1-.504-1.758c0-.125.004-.277.008-.46a4.44 4.44 0 0 1 .023-.419h1.704c-.016.055-.04.184-.067.39-.031.196-.05.407-.05.63 0 .531.113 1.004.335 1.418.22.414.52.738.907.98.382.238.82.356 1.312.356h6.899Zm0-11.52Zm0-1.531H28.246v-1.672h10.899Zm-12.715-.852c0 .328-.11.61-.332.844a1.068 1.068 0 0 1-.805.348c-.309 0-.578-.114-.8-.348a1.18 1.18 0 0 1-.333-.844c0-.324.11-.605.332-.836a1.06 1.06 0 0 1 .801-.355c.312 0 .582.117.805.355.222.23.332.512.332.836Zm12.715-2.355Zm0-1.531H28.246v-1.622h1.703v-.14a2.738 2.738 0 0 1-1.355-1.098c-.328-.508-.489-1.113-.489-1.824 0-.719.16-1.316.489-1.797.32-.48.773-.855 1.355-1.125v-.113a3.172 3.172 0 0 1-1.34-1.258c-.336-.559-.504-1.227-.504-2.008 0-.973.305-1.77.915-2.39.605-.622 1.546-.93 2.832-.93h7.293v1.676h-7.293c-.805 0-1.38.218-1.727.66-.344.437-.516.957-.516 1.55 0 .77.23 1.364.696 1.782.457.422 1.039.633 1.742.633h7.098v1.703H31.68c-.621 0-1.117.199-1.496.601-.383.403-.575.922-.575 1.555 0 .434.114.84.348 1.219.23.375.55.675.965.91.406.226.875.34 1.41.34h6.813Zm0-15.833Zm4.085-1.53H28.246v-1.622h1.73v-.195c-.187-.125-.43-.293-.722-.512-.297-.223-.563-.539-.797-.953-.234-.414-.352-.977-.352-1.688 0-.918.227-1.726.688-2.425.457-.7 1.11-1.246 1.95-1.637.843-.395 1.835-.59 2.98-.59 1.152 0 2.156.195 3 .59.843.39 1.496.934 1.96 1.629.458.695.688 1.496.688 2.406 0 .7-.117 1.262-.348 1.68-.238.422-.503.746-.804.972-.301.227-.551.403-.75.528v.14h5.761Zm-9.535-1.65c.82 0 1.547-.12 2.176-.359.625-.242 1.113-.593 1.469-1.058.351-.465.527-1.031.527-1.703 0-.7-.187-1.285-.554-1.754-.376-.473-.876-.824-1.504-1.063-.633-.242-1.34-.363-2.114-.363-.765 0-1.457.121-2.074.355-.617.235-1.105.586-1.465 1.06-.367.468-.547 1.054-.547 1.765 0 .68.172 1.254.516 1.718.34.461.82.813 1.434 1.047.609.239 1.324.356 2.136.356Zm5.45-8.995Zm-14.532-3.207h14.532v1.675H24.613Zm14.532-1.532Zm.226-6.101c0 1.05-.234 1.953-.695 2.715a4.65 4.65 0 0 1-1.961 1.754c-.84.406-1.82.609-2.934.609-1.117 0-2.101-.203-2.953-.61-.855-.41-1.523-.984-2-1.718-.484-.735-.723-1.598-.723-2.582 0-.567.094-1.125.282-1.68a4.177 4.177 0 0 1 .922-1.512c.421-.453.98-.816 1.675-1.086.696-.27 1.551-.402 2.567-.402h.71v8.399h-1.445v-6.696c-.617 0-1.164.121-1.648.367-.48.243-.863.586-1.14 1.036-.282.445-.419.968-.419 1.574 0 .668.164 1.246.496 1.73.325.485.75.856 1.278 1.117a3.77 3.77 0 0 0 1.687.391h.965c.824 0 1.52-.144 2.094-.426.566-.289 1-.691 1.297-1.199.293-.512.441-1.105.441-1.781 0-.442-.062-.84-.187-1.192a2.505 2.505 0 0 0-.567-.93 2.574 2.574 0 0 0-.949-.605l.453-1.617a3.634 3.634 0 0 1 1.45.86c.41.402.73.898.964 1.488.227.594.34 1.258.34 1.996Zm-.226-5.528Zm0-1.53H28.246v-1.618h1.703v-.144a2.738 2.738 0 0 1-1.355-1.098c-.328-.508-.489-1.113-.489-1.824 0-.72.16-1.317.489-1.793.32-.485.773-.86 1.355-1.13v-.112a3.172 3.172 0 0 1-1.34-1.258c-.336-.559-.504-1.227-.504-2.008 0-.973.305-1.77.915-2.39.605-.618 1.546-.93 2.832-.93h7.293v1.675h-7.293c-.805 0-1.38.22-1.727.66-.344.438-.516.958-.516 1.555 0 .766.23 1.36.696 1.778.457.421 1.039.632 1.742.632h7.098v1.703H31.68c-.621 0-1.117.2-1.496.602-.383.402-.575.922-.575 1.555 0 .433.114.843.348 1.218.23.375.55.68.965.91.406.227.875.34 1.41.34h6.813Zm0-15.833Zm.226-6.101c0 1.05-.234 1.957-.695 2.718a4.666 4.666 0 0 1-1.961 1.75c-.84.407-1.82.61-2.934.61-1.117 0-2.101-.203-2.953-.61-.855-.41-1.523-.984-2-1.714-.484-.739-.723-1.602-.723-2.582 0-.57.094-1.13.282-1.684.191-.55.496-1.055.922-1.512.421-.453.98-.812 1.675-1.082.696-.273 1.551-.406 2.567-.406h.71v8.398h-1.445v-6.695c-.617 0-1.164.121-1.648.367-.48.242-.863.586-1.14 1.035-.282.446-.419.973-.419 1.579 0 .664.164 1.242.496 1.73.325.48.75.852 1.278 1.113a3.72 3.72 0 0 0 1.687.39h.965c.824 0 1.52-.144 2.094-.425.566-.289 1-.687 1.297-1.2.293-.51.441-1.105.441-1.78 0-.442-.062-.836-.187-1.192a2.536 2.536 0 0 0-.567-.93 2.518 2.518 0 0 0-.949-.601l.453-1.617a3.581 3.581 0 0 1 1.45.855c.41.403.73.899.964 1.492.227.59.34 1.254.34 1.993Zm-.226-5.528Zm-6.56-3.207h6.56v1.676H28.246v-1.617h1.703v-.14c-.554-.259-1-.645-1.336-1.165-.34-.52-.508-1.191-.508-2.015 0-.739.149-1.383.454-1.938.296-.555.75-.984 1.363-1.289.605-.309 1.371-.46 2.297-.46h6.926v1.67h-6.813c-.855 0-1.523.224-2 .669-.484.445-.723 1.055-.723 1.828 0 .535.114 1.016.348 1.434.23.418.57.746 1.012.988.445.242.984.36 1.617.36Zm6.56-8.476Zm-10.899-6.274h1.418v5.649h-1.418Zm-2.61 4v-1.672H36.02c.476 0 .828-.07 1.066-.207.23-.14.387-.32.469-.539a2.21 2.21 0 0 0 .113-.703c0-.183-.012-.336-.027-.453-.028-.117-.043-.21-.059-.285l1.504-.34c.043.113.086.273.129.477.047.203.07.46.07.773 0 .473-.101.938-.305 1.39-.203.45-.515.825-.93 1.122-.417.293-.94.437-1.573.437Zm13.509-4.984Zm0-1.535H28.246v-1.672h10.899Zm-12.715-.852c0 .328-.11.61-.332.848-.223.23-.493.347-.805.347a1.08 1.08 0 0 1-.8-.347 1.196 1.196 0 0 1-.333-.848c0-.324.11-.605.332-.836.223-.234.492-.355.801-.355.312 0 .582.12.805.355.222.23.332.512.332.836Zm12.715-2.355Zm-6.56-3.207h6.56v1.675H28.246v-1.617h1.703v-.144c-.554-.254-1-.64-1.336-1.16-.34-.524-.508-1.196-.508-2.016 0-.738.149-1.383.454-1.938.296-.554.75-.984 1.363-1.292.605-.305 1.371-.461 2.297-.461h6.926v1.675h-6.813c-.855 0-1.523.223-2 .668-.484.442-.723 1.055-.723 1.828 0 .536.114 1.012.348 1.434.23.418.57.746 1.012.988.445.239.984.36 1.617.36Zm6.56-8.48Zm4.312-5.93c0 .808-.105 1.503-.312 2.085-.204.583-.473 1.067-.81 1.454a4.452 4.452 0 0 1-1.065.918l-.934-1.336c.2-.153.426-.344.68-.575.261-.23.484-.546.675-.949.192-.406.29-.941.29-1.597 0-.88-.211-1.606-.637-2.176-.426-.574-1.094-.86-2.004-.86h-2.211v.141c.2.125.445.297.738.523.29.223.547.547.774.965.222.418.332.98.332 1.692 0 .879-.207 1.668-.625 2.367-.414.695-1.02 1.246-1.817 1.652-.793.403-1.758.606-2.894.606-1.117 0-2.086-.196-2.914-.59-.832-.39-1.477-.938-1.93-1.637-.461-.703-.688-1.512-.688-2.43 0-.707.118-1.27.352-1.687.234-.422.5-.742.797-.965.293-.226.535-.402.723-.523v-.172h-1.73v-1.617h11.206c.938 0 1.7.214 2.285.64.594.418 1.024.988 1.301 1.7.277.71.418 1.5.418 2.37Zm-5.988.058c0-.672-.153-1.242-.461-1.703-.309-.465-.75-.816-1.328-1.059-.575-.242-1.266-.359-2.07-.359-.786 0-1.477.117-2.079.352-.601.238-1.07.586-1.414 1.05-.34.465-.508 1.036-.508 1.72 0 .706.18 1.3.54 1.773.359.468.84.82 1.445 1.054.605.235 1.277.348 2.015.348.758 0 1.426-.117 2.008-.356a3.05 3.05 0 0 0 1.363-1.062c.325-.473.489-1.059.489-1.758Zm0 0"/><use xlink:href="#a" x="39.143" y="297.886" style="fill:#000;fill-opacity:1"/><use xlink:href="#b" x="39.143" y="290.281" style="fill:#000;fill-opacity:1"/><use xlink:href="#c" x="39.143" y="275.496" style="fill:#000;fill-opacity:1"/><use xlink:href="#d" x="39.143" y="264.23" style="fill:#000;fill-opacity:1"/><use xlink:href="#e" x="39.143" y="257.129" style="fill:#000;fill-opacity:1"/><use xlink:href="#f" x="39.143" y="244.728" style="fill:#000;fill-opacity:1"/><use xlink:href="#g" x="39.143" y="233.036" style="fill:#000;fill-opacity:1"/><use xlink:href="#h" x="39.143" y="221.402" style="fill:#000;fill-opacity:1"/><use xlink:href="#h" x="39.143" y="210.959" style="fill:#000;fill-opacity:1"/><use xlink:href="#i" x="39.143" y="200.516" style="fill:#000;fill-opacity:1"/><use xlink:href="#j" x="39.143" y="192.911" style="fill:#000;fill-opacity:1"/><use xlink:href="#k" x="39.143" y="187.292" style="fill:#000;fill-opacity:1"/><use xlink:href="#l" x="39.143" y="180.542" style="fill:#000;fill-opacity:1"/><use xlink:href="#d" x="39.143" y="168.623" style="fill:#000;fill-opacity:1"/><use xlink:href="#j" x="39.143" y="161.188" style="fill:#000;fill-opacity:1"/><use xlink:href="#m" x="39.143" y="155.57" style="fill:#000;fill-opacity:1"/><use xlink:href="#n" x="39.143" y="150.831" style="fill:#000;fill-opacity:1"/><use xlink:href="#o" x="39.143" y="133.464" style="fill:#000;fill-opacity:1"/><use xlink:href="#p" x="39.143" y="121.29" style="fill:#000;fill-opacity:1"/><use xlink:href="#g" x="39.143" y="116.551" style="fill:#000;fill-opacity:1"/><use xlink:href="#n" x="39.143" y="104.916" style="fill:#000;fill-opacity:1"/><use xlink:href="#g" x="39.143" y="87.549" style="fill:#000;fill-opacity:1"/><use xlink:href="#f" x="39.143" y="75.915" style="fill:#000;fill-opacity:1"/><use xlink:href="#q" x="39.143" y="64.223" style="fill:#000;fill-opacity:1"/><use xlink:href="#m" x="39.143" y="56.958" style="fill:#000;fill-opacity:1"/><use xlink:href="#f" x="39.143" y="52.219" style="fill:#000;fill-opacity:1"/><use xlink:href="#r" x="39.143" y="40.528" style="fill:#000;fill-opacity:1"/><path style="stroke:none;fill-rule:nonzero;fill:#000;fill-opacity:.5" d="M633.477 628.516Zm1.761 0v-14.528h8.711v1.559h-6.953v4.91h6.3v1.563h-6.3v6.496Zm9.282 0Zm8.402-4.453v-6.442h1.672v10.895h-1.672v-1.844h-.113a3.584 3.584 0 0 1-1.196 1.41c-.539.383-1.218.574-2.043.574-.68 0-1.285-.148-1.816-.445-.527-.3-.945-.758-1.246-1.363-.305-.61-.453-1.38-.453-2.305v-6.922h1.672v6.809c0 .793.222 1.43.668 1.902.449.473 1.02.707 1.714.707.418 0 .84-.105 1.274-.316.433-.215.797-.54 1.09-.98.297-.442.449-1 .449-1.68Zm3.207 4.453Zm3.207-6.555v6.555h-1.676V617.62h1.617v1.7h.145c.254-.551.64-.997 1.164-1.333.52-.34 1.191-.511 2.012-.511.738 0 1.382.152 1.937.453.555.3.985.754 1.293 1.363.305.605.461 1.371.461 2.3v6.923h-1.676v-6.809c0-.86-.222-1.523-.668-2.004-.441-.48-1.054-.723-1.828-.723-.535 0-1.012.118-1.433.348-.418.235-.746.57-.985 1.016-.242.445-.363.984-.363 1.617Zm8.48 6.555Zm5.957.226c-1.02 0-1.902-.242-2.636-.722a4.72 4.72 0 0 1-1.703-1.993c-.399-.847-.598-1.816-.598-2.902 0-1.105.203-2.082.61-2.93.413-.851.984-1.515 1.718-1.996.738-.48 1.598-.722 2.582-.722.766 0 1.457.144 2.07.425a3.977 3.977 0 0 1 1.512 1.192c.395.511.637 1.11.73 1.789h-1.671c-.13-.496-.414-.938-.852-1.32-.437-.387-1.023-.583-1.762-.583-.652 0-1.222.172-1.714.512-.489.336-.868.813-1.145 1.426-.27.61-.402 1.328-.402 2.148 0 .844.133 1.579.394 2.2.27.625.649 1.109 1.137 1.457.492.343 1.07.515 1.73.515a2.98 2.98 0 0 0 1.188-.226c.351-.153.652-.367.898-.653a2.53 2.53 0 0 0 .528-1.023h1.672a3.85 3.85 0 0 1-.704 1.738 3.903 3.903 0 0 1-1.468 1.223c-.606.297-1.309.445-2.114.445Zm5.2-.226Zm6.273-10.895v1.418h-5.648v-1.418Zm-4-2.613h1.672v10.387c0 .472.07.828.207 1.062.14.234.32.39.54.469.222.078.456.113.702.113.184 0 .336-.008.453-.027.117-.024.211-.043.285-.055l.34 1.504c-.113.039-.273.082-.476.125-.203.047-.461.07-.774.07-.472 0-.937-.101-1.39-.304a2.741 2.741 0 0 1-1.121-.93c-.293-.414-.438-.942-.438-1.574Zm4.984 13.508Zm1.536 0V617.62h1.672v10.895Zm.851-12.711a1.2 1.2 0 0 1-.847-.336 1.074 1.074 0 0 1-.348-.801c0-.313.117-.578.348-.8a1.2 1.2 0 0 1 .847-.337c.324 0 .606.114.836.336.235.223.356.488.356.801 0 .312-.121.578-.356.8-.23.223-.512.337-.836.337Zm2.356 12.71Zm5.96.227c-.984 0-1.847-.234-2.59-.703-.738-.465-1.316-1.121-1.73-1.965-.414-.84-.617-1.824-.617-2.949 0-1.137.203-2.125.617-2.973.414-.847.992-1.504 1.73-1.972.743-.47 1.606-.703 2.59-.703.981 0 1.844.234 2.583.703.742.468 1.316 1.125 1.73 1.972.414.848.625 1.836.625 2.973 0 1.125-.21 2.11-.625 2.95-.414.843-.988 1.5-1.73 1.964-.739.469-1.602.703-2.582.703Zm0-1.504c.747 0 1.36-.191 1.844-.574.48-.383.84-.887 1.07-1.512.231-.625.348-1.3.348-2.027a5.86 5.86 0 0 0-.347-2.035 3.436 3.436 0 0 0-1.07-1.528c-.485-.386-1.098-.582-1.844-.582-.75 0-1.364.196-1.848.582-.48.387-.84.899-1.07 1.528a5.86 5.86 0 0 0-.348 2.035c0 .727.117 1.402.348 2.027.23.625.59 1.13 1.07 1.512.484.383 1.098.574 1.848.574Zm5.962 1.278Zm3.207-6.555v6.555h-1.676V617.62h1.617v1.7h.14c.258-.551.645-.997 1.165-1.333.52-.34 1.191-.511 2.015-.511.739 0 1.383.152 1.938.453.55.3.984.754 1.289 1.363.308.605.46 1.371.46 2.3v6.923h-1.671v-6.809c0-.86-.223-1.523-.668-2.004-.445-.48-1.055-.723-1.832-.723-.531 0-1.012.118-1.43.348-.418.235-.746.57-.988 1.016-.242.445-.36.984-.36 1.617Zm8.476 6.555Zm4.738.257a4.467 4.467 0 0 1-1.879-.39 3.246 3.246 0 0 1-1.34-1.145c-.331-.5-.495-1.105-.495-1.816 0-.625.12-1.129.367-1.516a2.55 2.55 0 0 1 .988-.922c.41-.222.863-.39 1.36-.5a17.04 17.04 0 0 1 1.511-.27c.664-.081 1.2-.148 1.61-.19.417-.047.722-.126.91-.235.195-.105.289-.297.289-.566v-.055c0-.703-.192-1.246-.574-1.633-.38-.387-.954-.582-1.723-.582-.8 0-1.426.176-1.88.524-.456.351-.773.726-.956 1.12l-1.59-.566c.281-.66.66-1.176 1.133-1.547.48-.375 1-.632 1.562-.78a6.593 6.593 0 0 1 1.672-.227c.352 0 .754.043 1.207.128.461.079.903.247 1.328.504.43.254.786.641 1.07 1.157.286.515.427 1.207.427 2.07v7.18h-1.676v-1.477h-.082c-.114.238-.305.492-.57.762-.262.27-.618.496-1.055.687-.442.188-.977.285-1.614.285Zm.258-1.507c.66 0 1.219-.13 1.672-.387a2.69 2.69 0 0 0 1.04-1.008c.234-.414.35-.844.35-1.3v-1.532c-.07.086-.226.164-.464.234a7.673 7.673 0 0 1-.824.176c-.309.051-.61.09-.903.13-.289.034-.523.062-.703.085-.433.055-.84.149-1.219.277a2.068 2.068 0 0 0-.906.559c-.23.246-.344.582-.344 1.008 0 .582.215 1.023.649 1.32.433.293.984.438 1.652.438Zm6.262 1.25Zm3.207-14.528v14.528h-1.676v-14.528Zm1.535 14.528Zm1.531 0V617.62h1.676v10.895Zm.852-12.711c-.328 0-.61-.114-.844-.336a1.06 1.06 0 0 1-.347-.801c0-.313.113-.578.347-.8.235-.223.516-.337.844-.337.324 0 .605.114.836.336.238.223.355.488.355.801 0 .312-.117.578-.355.8-.23.223-.512.337-.836.337Zm2.355 12.71Zm6.274-10.894v1.418h-5.649v-1.418Zm-4.004-2.613h1.676v10.387c0 .472.07.828.207 1.062.14.234.32.39.539.469.222.078.457.113.703.113.184 0 .336-.008.453-.027.117-.024.211-.043.281-.055l.344 1.504c-.113.039-.273.082-.476.125-.204.047-.461.07-.774.07-.473 0-.937-.101-1.39-.304a2.741 2.741 0 0 1-1.122-.93c-.293-.414-.441-.942-.441-1.574Zm4.988 13.508Zm2.614 4.086c-.286 0-.54-.024-.762-.07a1.993 1.993 0 0 1-.461-.13l.426-1.472c.406.101.765.14 1.078.113.312-.031.59-.168.832-.418.246-.246.469-.648.672-1.2l.312-.85-4.027-10.954h1.816l3.008 8.68h.113l3.008-8.68h1.817l-4.63 12.484c-.206.563-.464 1.028-.769 1.399a2.942 2.942 0 0 1-1.074.828c-.402.18-.856.27-1.36.27Zm0 0"/><use xlink:href="#s" x="633.478" y="628.516" style="fill:#000;fill-opacity:1"/><use xlink:href="#t" x="644.521" y="628.516" style="fill:#000;fill-opacity:1"/><use xlink:href="#u" x="656.127" y="628.516" style="fill:#000;fill-opacity:1"/><use xlink:href="#v" x="667.819" y="628.516" style="fill:#000;fill-opacity:1"/><use xlink:href="#w" x="678.971" y="628.516" style="fill:#000;fill-opacity:1"/><use xlink:href="#x" x="686.235" y="628.516" style="fill:#000;fill-opacity:1"/><use xlink:href="#y" x="690.974" y="628.516" style="fill:#000;fill-opacity:1"/><use xlink:href="#u" x="702.893" y="628.516" style="fill:#000;fill-opacity:1"/><use xlink:href="#z" x="714.584" y="628.516" style="fill:#000;fill-opacity:1"/><use xlink:href="#A" x="725.85" y="628.516" style="fill:#000;fill-opacity:1"/><use xlink:href="#x" x="730.589" y="628.516" style="fill:#000;fill-opacity:1"/><use xlink:href="#w" x="735.328" y="628.516" style="fill:#000;fill-opacity:1"/><use xlink:href="#B" x="742.593" y="628.516" style="fill:#000;fill-opacity:1"/><path style="stroke:none;fill-rule:nonzero;fill:#000;fill-opacity:1" d="M343.8 115.09Zm13.88-12.684-2.258.637a4.096 4.096 0 0 0-.629-1.094c-.27-.363-.637-.66-1.106-.894-.468-.235-1.066-.352-1.796-.352-1 0-1.836.23-2.5.692-.66.453-.993 1.03-.993 1.734 0 .625.227 1.117.684 1.48.453.36 1.16.664 2.125.903l2.43.597c1.46.356 2.547.899 3.265 1.63.715.722 1.075 1.656 1.075 2.796a4.15 4.15 0 0 1-.809 2.512c-.531.738-1.277 1.32-2.234 1.746-.957.426-2.07.637-3.34.637-1.668 0-3.051-.36-4.14-1.086-1.095-.723-1.786-1.778-2.075-3.168l2.383-.598c.226.879.656 1.54 1.285 1.98.64.438 1.473.66 2.504.66 1.168 0 2.097-.25 2.785-.745.695-.504 1.043-1.106 1.043-1.809 0-.566-.2-1.043-.594-1.426-.398-.39-1.008-.683-1.832-.875l-2.723-.636c-1.496-.356-2.597-.907-3.3-1.649-.696-.754-1.043-1.691-1.043-2.82 0-.922.261-1.738.777-2.45.527-.706 1.238-1.265 2.14-1.671.907-.403 1.938-.606 3.087-.606 1.617 0 2.886.356 3.808 1.067.93.707 1.59 1.644 1.98 2.808Zm1.777 12.684Zm9.41-16.344v2.129h-8.472v-2.129Zm-6.004-3.918h2.512v15.578c0 .711.102 1.242.309 1.598.214.348.484.582.808.703.332.113.684.168 1.055.168.277 0 .504-.012.68-.04.18-.038.32-.065.425-.085l.512 2.254c-.172.066-.41.129-.715.191-.304.07-.691.11-1.16.11a5.021 5.021 0 0 1-2.086-.461 4.156 4.156 0 0 1-1.68-1.39c-.441-.626-.66-1.415-.66-2.364Zm7.48 20.262Zm7.11.383c-1.035 0-1.976-.196-2.82-.586a4.835 4.835 0 0 1-2.012-1.711c-.496-.754-.742-1.66-.742-2.727 0-.933.183-1.695.55-2.277a3.967 3.967 0 0 1 1.481-1.383 7.84 7.84 0 0 1 2.043-.746c.75-.168 1.508-.305 2.266-.402.992-.13 1.8-.223 2.418-.29.62-.07 1.078-.187 1.36-.347.292-.164.437-.45.437-.852v-.086c0-1.05-.29-1.867-.864-2.449-.566-.582-1.43-.87-2.586-.87-1.199 0-2.136.26-2.82.784-.68.528-1.16 1.086-1.434 1.684l-2.386-.852c.426-.992.996-1.765 1.703-2.32.719-.559 1.5-.95 2.344-1.172a9.735 9.735 0 0 1 2.511-.34c.524 0 1.125.067 1.809.192a5.794 5.794 0 0 1 1.988.757c.645.383 1.18.961 1.606 1.735.425.773.64 1.808.64 3.105v10.77h-2.511v-2.215h-.13c-.167.355-.452.734-.85 1.14-.395.403-.927.75-1.587 1.032-.656.285-1.465.426-2.414.426Zm.383-2.254c.992 0 1.832-.196 2.512-.586.687-.39 1.207-.895 1.554-1.512a3.842 3.842 0 0 0 .532-1.95v-2.296c-.106.129-.34.246-.704.352-.355.097-.765.187-1.234.265-.46.07-.91.133-1.351.192-.434.05-.782.093-1.051.129a9.602 9.602 0 0 0-1.832.414c-.563.183-1.016.464-1.364.84-.34.37-.511.874-.511 1.511 0 .871.324 1.531.968 1.98.653.438 1.48.66 2.48.66Zm9.394 1.87Zm9.407-16.343v2.129h-8.469v-2.129Zm-6-3.918h2.511v15.578c0 .711.102 1.242.309 1.598.211.348.48.582.809.703.332.113.683.168 1.05.168.278 0 .504-.012.684-.04.176-.038.316-.065.426-.085l.508 2.254a4.522 4.522 0 0 1-.711.191c-.305.07-.692.11-1.16.11-.711 0-1.407-.153-2.086-.461a4.13 4.13 0 0 1-1.68-1.39c-.442-.626-.66-1.415-.66-2.364Zm7.48 20.262Zm2.297 0V98.746h2.512v16.344Zm1.277-19.07c-.488 0-.91-.165-1.265-.5a1.607 1.607 0 0 1-.524-1.204c0-.464.176-.867.524-1.199.355-.336.777-.5 1.265-.5.489 0 .91.164 1.258.5.352.332.531.735.531 1.2a1.6 1.6 0 0 1-.53 1.203c-.348.335-.77.5-1.259.5Zm3.536 19.07Zm8.941.34c-1.535 0-2.852-.36-3.961-1.086-1.105-.723-1.957-1.719-2.555-2.989-.593-1.27-.89-2.722-.89-4.351 0-1.66.304-3.125.914-4.395.617-1.277 1.476-2.277 2.574-2.992 1.105-.722 2.398-1.086 3.875-1.086 1.148 0 2.184.215 3.105.64.922.427 1.68 1.02 2.266 1.786.59.766.957 1.66 1.098 2.684h-2.512c-.191-.746-.617-1.407-1.277-1.98-.653-.583-1.532-.872-2.637-.872-.98 0-1.84.254-2.578.766-.73.504-1.3 1.215-1.711 2.136-.406.918-.61 1.993-.61 3.227 0 1.262.2 2.363.598 3.297.406.937.973 1.664 1.703 2.183.739.516 1.602.778 2.598.778.652 0 1.242-.114 1.777-.34.532-.23.98-.555 1.352-.98.367-.426.629-.938.785-1.532h2.512a5.776 5.776 0 0 1-1.055 2.606c-.55.765-1.285 1.375-2.203 1.832-.906.445-1.965.668-3.168.668Zm16.227-.34Zm6.003 0-4.98-16.344h2.637l3.535 12.512h.168l3.492-12.512h2.68l3.449 12.469h.172l3.531-12.469h2.64l-4.98 16.344h-2.469l-3.578-12.559h-.254l-3.574 12.559Zm17.79 0Zm9.152.34c-1.578 0-2.934-.348-4.078-1.043-1.133-.703-2.012-1.68-2.63-2.938-.609-1.261-.913-2.73-.913-4.402 0-1.676.304-3.152.914-4.43.617-1.281 1.476-2.285 2.578-3 1.105-.722 2.394-1.086 3.871-1.086.852 0 1.691.145 2.523.426a6.292 6.292 0 0 1 2.266 1.383c.68.633 1.223 1.469 1.629 2.512.402 1.043.605 2.328.605 3.851v1.067h-12.597v-2.172h10.043c0-.922-.184-1.746-.551-2.47a4.2 4.2 0 0 0-1.555-1.714c-.668-.418-1.453-.625-2.363-.625-1 0-1.863.246-2.594.742a4.898 4.898 0 0 0-1.672 1.918 5.605 5.605 0 0 0-.586 2.531v1.45c0 1.234.211 2.28.637 3.136.434.852 1.035 1.5 1.801 1.95.766.437 1.656.66 2.672.66.66 0 1.254-.094 1.785-.278a3.846 3.846 0 0 0 1.395-.851c.39-.383.69-.86.906-1.426l2.426.68a5.382 5.382 0 0 1-1.29 2.172c-.601.617-1.347 1.097-2.234 1.445-.887.344-1.883.512-2.988.512Zm8.289-.34Zm2.637 0V93.297h2.511v8.043h.215c.184-.281.438-.645.766-1.082.332-.45.808-.848 1.426-1.195.625-.352 1.468-.532 2.53-.532 1.38 0 2.59.344 3.641 1.031 1.051.692 1.872 1.665 2.457 2.93.59 1.262.883 2.75.883 4.469 0 1.73-.293 3.23-.882 4.5-.586 1.262-1.403 2.242-2.446 2.937-1.043.688-2.246 1.032-3.61 1.032-1.05 0-1.89-.172-2.519-.52-.633-.355-1.117-.758-1.46-1.203-.34-.453-.602-.832-.786-1.129h-.297v2.512Zm2.468-8.172c0 1.234.184 2.324.543 3.266.364.937.891 1.671 1.586 2.203.696.527 1.547.789 2.555.789 1.05 0 1.926-.278 2.629-.832.71-.559 1.242-1.313 1.598-2.254.359-.953.543-2.008.543-3.172 0-1.148-.18-2.188-.536-3.11-.347-.93-.875-1.66-1.586-2.203-.699-.543-1.582-.816-2.648-.816-1.02 0-1.879.258-2.574.777-.696.508-1.223 1.227-1.574 2.149-.356.914-.536 1.98-.536 3.203Zm13.504 8.172Zm13.88-12.684-2.259.637a4.188 4.188 0 0 0-.625-1.094c-.27-.363-.64-.66-1.109-.894-.469-.235-1.066-.352-1.797-.352-1 0-1.836.23-2.5.692-.66.453-.992 1.03-.992 1.734 0 .625.226 1.117.684 1.48.453.36 1.164.664 2.128.903l2.426.597c1.461.356 2.551.899 3.266 1.63.715.722 1.074 1.656 1.074 2.796a4.15 4.15 0 0 1-.809 2.512c-.53.738-1.277 1.32-2.234 1.746-.957.426-2.07.637-3.34.637-1.668 0-3.047-.36-4.14-1.086-1.094-.723-1.786-1.778-2.075-3.168l2.383-.598c.227.879.656 1.54 1.29 1.98.636.438 1.468.66 2.5.66 1.167 0 2.097-.25 2.784-.745.696-.504 1.043-1.106 1.043-1.809 0-.566-.195-1.043-.593-1.426-.399-.39-1.008-.683-1.832-.875l-2.723-.636c-1.496-.356-2.598-.907-3.3-1.649-.696-.754-1.044-1.691-1.044-2.82 0-.922.262-1.738.778-2.45.527-.706 1.238-1.265 2.14-1.671.906-.403 1.938-.606 3.086-.606 1.617 0 2.887.356 3.809 1.067.93.707 1.59 1.644 1.98 2.808Zm1.777 12.684Zm2.3 0V98.746h2.512v16.344Zm1.278-19.07a1.77 1.77 0 0 1-1.266-.5 1.607 1.607 0 0 1-.523-1.204c0-.464.175-.867.523-1.199a1.77 1.77 0 0 1 1.266-.5c.488 0 .906.164 1.254.5.355.332.53.735.53 1.2 0 .468-.175.87-.53 1.203-.348.335-.766.5-1.254.5Zm3.535 19.07Zm9.406-16.344v2.129h-8.469v-2.129Zm-6-3.918h2.512v15.578c0 .711.101 1.242.308 1.598.211.348.48.582.809.703.332.113.684.168 1.05.168.278 0 .505-.012.684-.04.176-.038.317-.065.426-.085l.508 2.254a4.522 4.522 0 0 1-.711.191c-.305.07-.691.11-1.16.11-.711 0-1.406-.153-2.086-.461a4.13 4.13 0 0 1-1.68-1.39c-.441-.626-.66-1.415-.66-2.364Zm7.305 20.262Zm9.152.34c-1.574 0-2.933-.348-4.078-1.043-1.133-.703-2.012-1.68-2.629-2.938-.61-1.261-.914-2.73-.914-4.402 0-1.676.305-3.152.914-4.43.617-1.281 1.477-2.285 2.578-3 1.106-.722 2.399-1.086 3.871-1.086.852 0 1.692.145 2.524.426a6.292 6.292 0 0 1 2.265 1.383c.684.633 1.227 1.469 1.63 2.512.405 1.043.605 2.328.605 3.851v1.067h-12.598v-2.172h10.047c0-.922-.188-1.746-.555-2.47a4.2 4.2 0 0 0-1.554-1.714c-.668-.418-1.454-.625-2.364-.625-1 0-1.863.246-2.593.742a4.898 4.898 0 0 0-1.672 1.918 5.605 5.605 0 0 0-.586 2.531v1.45c0 1.234.215 2.28.64 3.136.43.852 1.032 1.5 1.797 1.95.766.437 1.656.66 2.672.66.66 0 1.254-.094 1.785-.278a3.846 3.846 0 0 0 1.395-.851c.39-.383.691-.86.906-1.426l2.426.68a5.339 5.339 0 0 1-1.29 2.172c-.6.617-1.347 1.097-2.234 1.445-.886.344-1.882.512-2.988.512Zm16.715-.34Zm8.898 6.469c-1.214 0-2.257-.157-3.129-.465-.87-.309-1.601-.711-2.18-1.215a6.502 6.502 0 0 1-1.374-1.598l2-1.402c.226.297.515.637.863 1.02.348.39.824.726 1.426 1.011.61.293 1.406.438 2.394.438 1.32 0 2.41-.32 3.266-.957.86-.641 1.29-1.641 1.29-3.004v-3.32h-.216c-.183.3-.445.667-.785 1.109-.336.433-.816.816-1.45 1.16-.62.332-1.468.5-2.53.5-1.32 0-2.504-.313-3.555-.938-1.043-.625-1.867-1.53-2.48-2.722-.602-1.196-.903-2.64-.903-4.344 0-1.676.293-3.133.883-4.375.59-1.246 1.406-2.21 2.457-2.894 1.05-.688 2.266-1.032 3.64-1.032 1.063 0 1.907.18 2.532.531.633.348 1.113.747 1.449 1.196.34.437.602.8.785 1.082h.258v-2.594h2.426v16.813c0 1.406-.32 2.546-.957 3.425-.633.887-1.485 1.536-2.555 1.95-1.066.418-2.25.625-3.555.625Zm-.086-8.98c1.008 0 1.86-.231 2.555-.692.695-.461 1.223-1.125 1.586-1.989.36-.867.543-1.902.543-3.109 0-1.176-.18-2.215-.531-3.117-.356-.902-.883-1.606-1.578-2.117-.696-.512-1.551-.766-2.575-.766-1.062 0-1.949.27-2.66.809-.703.539-1.23 1.261-1.586 2.172-.347.906-.52 1.914-.52 3.02 0 1.136.177 2.14.532 3.01.363.868.895 1.548 1.598 2.044.707.492 1.586.734 2.636.734Zm9.45 2.51Zm9.152.34c-1.574 0-2.934-.347-4.074-1.042-1.137-.703-2.012-1.68-2.63-2.938-.609-1.261-.913-2.73-.913-4.402 0-1.676.304-3.152.914-4.43.617-1.281 1.476-2.285 2.574-3 1.106-.722 2.399-1.086 3.875-1.086.852 0 1.692.145 2.52.426a6.307 6.307 0 0 1 2.27 1.383c.679.633 1.222 1.469 1.624 2.512.406 1.043.61 2.328.61 3.851v1.067h-12.602v-2.172h10.047c0-.922-.184-1.746-.555-2.47a4.174 4.174 0 0 0-1.555-1.714c-.664-.418-1.453-.625-2.359-.625-1 0-1.867.246-2.598.742a4.929 4.929 0 0 0-1.671 1.918 5.605 5.605 0 0 0-.586 2.531v1.45c0 1.234.214 2.28.64 3.136.434.852 1.032 1.5 1.797 1.95.766.437 1.656.66 2.672.66a5.46 5.46 0 0 0 1.79-.278 3.846 3.846 0 0 0 1.394-.851c.39-.383.691-.86.902-1.426l2.426.68a5.374 5.374 0 0 1-1.285 2.172c-.606.617-1.348 1.097-2.235 1.445-.887.344-1.887.512-2.992.512Zm8.29-.34Zm4.812-9.831v9.832h-2.512V98.746h2.426v2.55h.21a4.673 4.673 0 0 1 1.747-2c.78-.507 1.789-.765 3.023-.765 1.106 0 2.074.227 2.902.684.832.445 1.477 1.125 1.938 2.043.46.906.691 2.055.691 3.445v10.387h-2.511v-10.215c0-1.285-.332-2.285-1-3-.664-.727-1.582-1.086-2.743-1.086-.804 0-1.52.172-2.152.52a3.704 3.704 0 0 0-1.476 1.523c-.364.664-.543 1.477-.543 2.426Zm12.718 9.832Zm9.153.34c-1.578 0-2.934-.348-4.078-1.043-1.133-.703-2.012-1.68-2.63-2.938-.609-1.261-.913-2.73-.913-4.402 0-1.676.304-3.152.914-4.43.617-1.281 1.476-2.285 2.578-3 1.105-.722 2.394-1.086 3.87-1.086.852 0 1.692.145 2.524.426a6.292 6.292 0 0 1 2.266 1.383c.68.633 1.223 1.469 1.629 2.512.402 1.043.605 2.328.605 3.851v1.067h-12.597v-2.172h10.043c0-.922-.184-1.746-.551-2.47a4.2 4.2 0 0 0-1.555-1.714c-.668-.418-1.453-.625-2.363-.625-1 0-1.863.246-2.598.742a4.92 4.92 0 0 0-1.668 1.918 5.605 5.605 0 0 0-.586 2.531v1.45c0 1.234.211 2.28.637 3.136.434.852 1.035 1.5 1.8 1.95.766.437 1.657.66 2.673.66.656 0 1.254-.094 1.785-.278a3.846 3.846 0 0 0 1.394-.851c.391-.383.692-.86.907-1.426l2.425.68a5.382 5.382 0 0 1-1.289 2.172c-.601.617-1.347 1.097-2.234 1.445-.887.344-1.883.512-2.988.512Zm8.289-.34Zm2.297 0V98.746h2.425v2.469h.172c.297-.809.836-1.465 1.617-1.969.782-.504 1.66-.758 2.641-.758.184 0 .414.004.691.012.274.008.485.02.625.031v2.555a7.777 7.777 0 0 0-.582-.098 6.152 6.152 0 0 0-.949-.074c-.793 0-1.504.168-2.129.5a3.798 3.798 0 0 0-1.468 1.363c-.352.575-.532 1.23-.532 1.97v10.343Zm8.851 0Zm7.11.383c-1.036 0-1.977-.196-2.82-.586a4.835 4.835 0 0 1-2.013-1.711c-.496-.754-.746-1.66-.746-2.727 0-.933.188-1.695.555-2.277a3.938 3.938 0 0 1 1.48-1.383 7.84 7.84 0 0 1 2.044-.746c.75-.168 1.507-.305 2.265-.402.992-.13 1.797-.223 2.414-.29.625-.07 1.078-.187 1.364-.347.292-.164.437-.45.437-.852v-.086c0-1.05-.29-1.867-.863-2.449-.567-.582-1.43-.87-2.586-.87-1.2 0-2.137.26-2.82.784-.68.528-1.16 1.086-1.438 1.684l-2.383-.852c.426-.992.992-1.765 1.703-2.32a6.472 6.472 0 0 1 2.34-1.172 9.757 9.757 0 0 1 2.512-.34c.527 0 1.129.067 1.808.192a5.813 5.813 0 0 1 1.993.757c.644.383 1.18.961 1.605 1.735.426.773.64 1.808.64 3.105v10.77H643.5v-2.215h-.129c-.168.355-.453.734-.851 1.14-.399.403-.926.75-1.586 1.032-.66.285-1.465.426-2.414.426Zm.382-2.254c.993 0 1.828-.196 2.512-.586.688-.39 1.207-.895 1.555-1.512a3.881 3.881 0 0 0 .531-1.95v-2.296c-.105.129-.34.246-.703.352-.356.097-.766.187-1.235.265-.46.07-.91.133-1.351.192-.434.05-.785.093-1.055.129a9.629 9.629 0 0 0-1.828.414c-.562.183-1.015.464-1.363.84-.34.37-.512.874-.512 1.511 0 .871.324 1.531.969 1.98.652.438 1.48.66 2.48.66Zm9.395 1.87Zm9.406-16.343v2.129h-8.473v-2.129Zm-6.004-3.918h2.512v15.578c0 .711.105 1.242.309 1.598.214.348.484.582.808.703.336.113.688.168 1.055.168.277 0 .504-.012.68-.04.18-.038.32-.065.425-.085l.512 2.254a4.522 4.522 0 0 1-.71.191c-.306.07-.692.11-1.161.11-.711 0-1.406-.153-2.086-.461a4.167 4.167 0 0 1-1.684-1.39c-.437-.626-.66-1.415-.66-2.364Zm7.309 20.262Zm8.937.34c-1.476 0-2.77-.352-3.883-1.051-1.109-.703-1.972-1.688-2.597-2.95-.617-1.261-.926-2.738-.926-4.425 0-1.703.309-3.192.926-4.461.625-1.27 1.488-2.254 2.597-2.957 1.114-.703 2.407-1.055 3.883-1.055 1.477 0 2.766.352 3.875 1.055 1.114.703 1.977 1.687 2.594 2.957.625 1.27.938 2.758.938 4.46 0 1.688-.313 3.165-.938 4.427-.617 1.261-1.48 2.246-2.594 2.949-1.11.7-2.398 1.05-3.875 1.05Zm0-2.254c1.121 0 2.043-.29 2.766-.864.726-.574 1.262-1.328 1.61-2.265.347-.938.519-1.953.519-3.043 0-1.094-.172-2.113-.52-3.055-.347-.945-.883-1.707-1.61-2.289-.722-.582-1.644-.87-2.765-.87-1.12 0-2.043.288-2.765.87-.727.582-1.262 1.344-1.61 2.29-.347.94-.52 1.96-.52 3.054 0 1.09.173 2.105.52 3.043.348.937.883 1.691 1.61 2.266.722.574 1.644.863 2.765.863Zm8.942 1.914Zm2.297 0V98.746h2.43v2.469h.167c.297-.809.836-1.465 1.617-1.969.782-.504 1.66-.758 2.641-.758.184 0 .414.004.691.012.278.008.485.02.63.031v2.555a8.456 8.456 0 0 0-.587-.098 6.075 6.075 0 0 0-.949-.074c-.793 0-1.504.168-2.125.5a3.77 3.77 0 0 0-1.469 1.363c-.355.575-.535 1.23-.535 1.97v10.343Zm0 0"/><use xlink:href="#C" x="343.802" y="115.09" style="fill:#000;fill-opacity:1"/><use xlink:href="#D" x="359.467" y="115.09" style="fill:#000;fill-opacity:1"/><use xlink:href="#E" x="370.363" y="115.09" style="fill:#000;fill-opacity:1"/><use xlink:href="#D" x="387.262" y="115.09" style="fill:#000;fill-opacity:1"/><use xlink:href="#F" x="398.159" y="115.09" style="fill:#000;fill-opacity:1"/><use xlink:href="#G" x="405.268" y="115.09" style="fill:#000;fill-opacity:1"/><use xlink:href="#H" x="421.996" y="115.09" style="fill:#000;fill-opacity:1"/><use xlink:href="#I" x="430.424" y="115.09" style="fill:#000;fill-opacity:1"/><use xlink:href="#J" x="454.216" y="115.09" style="fill:#000;fill-opacity:1"/><use xlink:href="#K" x="471.668" y="115.09" style="fill:#000;fill-opacity:1"/><use xlink:href="#C" x="490.269" y="115.09" style="fill:#000;fill-opacity:1"/><use xlink:href="#F" x="505.934" y="115.09" style="fill:#000;fill-opacity:1"/><use xlink:href="#D" x="513.042" y="115.09" style="fill:#000;fill-opacity:1"/><use xlink:href="#J" x="523.753" y="115.09" style="fill:#000;fill-opacity:1"/><use xlink:href="#H" x="541.205" y="115.09" style="fill:#000;fill-opacity:1"/><use xlink:href="#L" x="549.633" y="115.09" style="fill:#000;fill-opacity:1"/><use xlink:href="#J" x="567.894" y="115.09" style="fill:#000;fill-opacity:1"/><use xlink:href="#M" x="585.346" y="115.09" style="fill:#000;fill-opacity:1"/><use xlink:href="#J" x="602.883" y="115.09" style="fill:#000;fill-opacity:1"/><use xlink:href="#N" x="620.335" y="115.09" style="fill:#000;fill-opacity:1"/><use xlink:href="#E" x="631.487" y="115.09" style="fill:#000;fill-opacity:1"/><use xlink:href="#D" x="648.386" y="115.09" style="fill:#000;fill-opacity:1"/><use xlink:href="#O" x="659.097" y="115.09" style="fill:#000;fill-opacity:1"/><use xlink:href="#N" x="676.975" y="115.09" style="fill:#000;fill-opacity:1"/><path style="stroke:none;fill-rule:nonzero;fill:#000;fill-opacity:1" d="M467.664 382.79Zm8.938.343c-1.473 0-2.77-.352-3.883-1.055-1.106-.703-1.973-1.683-2.598-2.95-.617-1.26-.926-2.737-.926-4.425 0-1.703.309-3.187.926-4.457.625-1.273 1.492-2.258 2.598-2.96 1.113-.704 2.41-1.052 3.883-1.052 1.476 0 2.77.348 3.875 1.051 1.113.703 1.98 1.688 2.597 2.961.621 1.27.934 2.754.934 4.457 0 1.688-.313 3.164-.934 4.426-.617 1.266-1.484 2.246-2.597 2.95-1.106.702-2.399 1.054-3.875 1.054Zm0-2.258c1.12 0 2.043-.285 2.77-.863.722-.575 1.257-1.328 1.605-2.266.347-.937.52-1.95.52-3.043 0-1.094-.173-2.11-.52-3.055-.348-.941-.883-1.707-1.606-2.289-.726-.578-1.648-.87-2.77-.87-1.12 0-2.042.292-2.765.87-.723.582-1.258 1.348-1.606 2.29a8.772 8.772 0 0 0-.523 3.054c0 1.094.176 2.106.523 3.043.348.938.883 1.692 1.606 2.266.723.578 1.644.863 2.766.863Zm8.386 1.914Zm6 0-4.98-16.344h2.64l3.536 12.516h.168l3.492-12.516h2.68l3.449 12.473h.168l3.535-12.473h2.637l-4.977 16.344h-2.469l-3.578-12.555h-.254l-3.578 12.555Zm18.348 0Zm4.809-9.832v9.832h-2.512v-16.344h2.43V369h.21a4.65 4.65 0 0 1 1.747-2c.78-.512 1.785-.766 3.02-.766 1.108 0 2.077.227 2.905.68.832.445 1.477 1.129 1.938 2.043.46.906.691 2.059.691 3.45v10.382h-2.511v-10.215c0-1.285-.333-2.285-1-3-.668-.722-1.583-1.086-2.747-1.086-.8 0-1.515.176-2.148.524a3.726 3.726 0 0 0-1.48 1.52c-.36.667-.543 1.476-.543 2.425Zm21.148 9.832Zm2.64 0v-21.793h2.512v8.047h.211c.184-.285.442-.648.766-1.086.336-.45.808-.844 1.426-1.191.625-.356 1.468-.532 2.535-.532 1.375 0 2.59.344 3.637 1.032 1.05.687 1.87 1.664 2.46 2.925.586 1.262.883 2.754.883 4.47 0 1.73-.297 3.23-.883 4.5-.59 1.265-1.406 2.241-2.449 2.937-1.043.691-2.246 1.035-3.605 1.035-1.051 0-1.89-.176-2.524-.524-.632-.355-1.117-.754-1.457-1.203a14.993 14.993 0 0 1-.789-1.125h-.297v2.508Zm2.47-8.172c0 1.235.179 2.324.542 3.27.36.933.89 1.668 1.586 2.199.696.527 1.543.789 2.551.789 1.05 0 1.926-.277 2.629-.828.71-.563 1.242-1.313 1.598-2.258.359-.95.543-2.008.543-3.172 0-1.148-.18-2.183-.532-3.105-.347-.93-.879-1.664-1.586-2.203-.703-.547-1.586-.82-2.652-.82-1.02 0-1.879.257-2.574.777-.696.511-1.219 1.226-1.574 2.148-.356.918-.532 1.984-.532 3.203Zm13.503 8.172Zm4.809-21.793v21.793h-2.512v-21.793Zm2.3 21.793Zm8.942.344c-1.477 0-2.773-.352-3.887-1.055-1.105-.703-1.972-1.683-2.593-2.95-.622-1.26-.93-2.737-.93-4.425 0-1.703.308-3.187.93-4.457.62-1.273 1.488-2.258 2.593-2.96 1.114-.704 2.41-1.052 3.887-1.052 1.473 0 2.766.348 3.871 1.051 1.113.703 1.98 1.688 2.598 2.961.625 1.27.937 2.754.937 4.457 0 1.688-.312 3.164-.937 4.426-.617 1.266-1.485 2.246-2.598 2.95-1.105.702-2.398 1.054-3.871 1.054Zm0-2.258c1.121 0 2.043-.285 2.766-.863.722-.575 1.257-1.328 1.605-2.266.348-.937.524-1.95.524-3.043 0-1.094-.176-2.11-.524-3.055-.348-.941-.883-1.707-1.605-2.289-.723-.578-1.645-.87-2.766-.87s-2.043.292-2.77.87c-.722.582-1.257 1.348-1.605 2.29a8.772 8.772 0 0 0-.523 3.054c0 1.094.175 2.106.523 3.043.348.938.883 1.692 1.606 2.266.726.578 1.648.863 2.769.863Zm8.941 1.914Zm8.895 6.473c-1.215 0-2.254-.157-3.129-.469-.871-.305-1.598-.711-2.18-1.215-.574-.496-1.035-1.027-1.375-1.594l2-1.406c.227.297.516.64.864 1.024.347.39.824.726 1.425 1.007.61.293 1.41.438 2.395.438 1.32 0 2.41-.32 3.266-.957.859-.637 1.289-1.64 1.289-3v-3.32h-.211c-.188.296-.45.664-.79 1.105-.331.434-.816.82-1.449 1.16-.62.332-1.468.5-2.53.5-1.321 0-2.505-.312-3.556-.937-1.042-.621-1.867-1.532-2.48-2.723-.602-1.191-.902-2.64-.902-4.344 0-1.672.293-3.129.883-4.37.59-1.25 1.406-2.216 2.457-2.895 1.05-.688 2.265-1.032 3.64-1.032 1.063 0 1.91.176 2.531.532.633.347 1.114.742 1.45 1.191.34.438.601.8.785 1.086h.258v-2.598h2.425v16.813c0 1.406-.32 2.547-.957 3.43-.632.886-1.484 1.535-2.554 1.945-1.063.418-2.25.629-3.555.629Zm-.086-8.98c1.008 0 1.86-.231 2.555-.696.695-.461 1.222-1.121 1.586-1.988.363-.868.543-1.903.543-3.106 0-1.18-.176-2.219-.532-3.12-.355-.9-.882-1.606-1.574-2.118-.695-.512-1.555-.766-2.578-.766-1.062 0-1.95.27-2.66.809-.703.539-1.23 1.262-1.586 2.172-.348.906-.52 1.914-.52 3.023 0 1.133.176 2.137.532 3.012.363.863.894 1.543 1.597 2.043.707.488 1.586.734 2.637.734Zm17.879 2.507Zm13.875-12.684-2.254.641a4.225 4.225 0 0 0-.629-1.098c-.27-.363-.637-.66-1.105-.894-.47-.234-1.07-.352-1.801-.352-1 0-1.832.23-2.5.692-.66.457-.988 1.035-.988 1.734 0 .625.226 1.117.68 1.48.452.364 1.163.665 2.128.907l2.426.594c1.46.355 2.55.898 3.266 1.628.718.723 1.078 1.657 1.078 2.797 0 .938-.27 1.778-.809 2.512-.535.738-1.277 1.32-2.238 1.746-.957.426-2.07.64-3.34.64-1.668 0-3.047-.362-4.14-1.085-1.09-.723-1.782-1.781-2.075-3.172l2.383-.598c.227.883.656 1.54 1.289 1.98.637.442 1.473.661 2.5.661 1.172 0 2.102-.25 2.79-.746.694-.504 1.042-1.106 1.042-1.809a1.9 1.9 0 0 0-.598-1.425c-.394-.391-1.007-.68-1.828-.872l-2.726-.64c-1.496-.356-2.594-.903-3.297-1.649-.695-.75-1.043-1.691-1.043-2.82 0-.922.258-1.738.777-2.445.524-.711 1.239-1.27 2.137-1.672.91-.406 1.937-.606 3.086-.606 1.617 0 2.89.352 3.812 1.063.93.71 1.586 1.644 1.977 2.808Zm1.781 12.684Zm3.914 6.133a5.27 5.27 0 0 1-1.136-.11c-.332-.062-.563-.125-.692-.19l.637-2.212c.613.156 1.152.211 1.617.168.469-.043.887-.25 1.246-.625.371-.371.707-.969 1.012-1.8l.469-1.278-6.047-16.43h2.726l4.512 13.024h.172l4.512-13.024h2.722l-6.937 18.73c-.313.845-.7 1.544-1.16 2.095-.461.562-.996.976-1.606 1.246-.605.27-1.285.406-2.047.406Zm12.766-6.133Zm13.879-12.684-2.258.641a4.116 4.116 0 0 0-.629-1.098c-.27-.363-.637-.66-1.105-.894-.47-.234-1.067-.352-1.797-.352-1 0-1.836.23-2.504.692-.656.457-.988 1.035-.988 1.734 0 .625.226 1.117.68 1.48.456.364 1.163.665 2.128.907l2.426.594c1.465.355 2.55.898 3.27 1.628.714.723 1.074 1.657 1.074 2.797 0 .938-.27 1.778-.809 2.512-.531.738-1.277 1.32-2.234 1.746-.957.426-2.075.64-3.344.64-1.664 0-3.047-.362-4.137-1.085-1.094-.723-1.785-1.781-2.078-3.172l2.387-.598c.226.883.656 1.54 1.285 1.98.64.442 1.473.661 2.5.661 1.172 0 2.102-.25 2.789-.746.695-.504 1.043-1.106 1.043-1.809 0-.566-.2-1.043-.594-1.425-.398-.391-1.008-.68-1.832-.872l-2.722-.64c-1.5-.356-2.598-.903-3.301-1.649-.696-.75-1.043-1.691-1.043-2.82 0-.922.258-1.738.777-2.445.524-.711 1.238-1.27 2.14-1.672.907-.406 1.934-.606 3.087-.606 1.617 0 2.886.352 3.808 1.063.93.71 1.59 1.644 1.98 2.808Zm1.777 12.684Zm9.406-16.344v2.13h-8.468v-2.13Zm-6-3.914h2.512v15.578c0 .707.102 1.243.309 1.594.21.348.48.582.808.703.332.114.684.172 1.055.172.273 0 .504-.015.68-.043.175-.035.32-.062.425-.086l.512 2.258c-.172.063-.41.125-.715.191-.304.07-.691.106-1.16.106a5.078 5.078 0 0 1-2.086-.457 4.134 4.134 0 0 1-1.68-1.395c-.44-.625-.66-1.41-.66-2.363Zm7.305 20.258Zm9.152.344c-1.574 0-2.933-.348-4.074-1.043-1.137-.703-2.012-1.684-2.629-2.938-.61-1.265-.918-2.73-.918-4.406 0-1.676.309-3.148.918-4.426.617-1.285 1.473-2.285 2.574-3.004 1.106-.722 2.399-1.082 3.875-1.082.852 0 1.692.141 2.52.426a6.2 6.2 0 0 1 2.27 1.383c.68.629 1.222 1.469 1.625 2.512.406 1.043.609 2.324.609 3.851v1.063h-12.602v-2.172h10.047c0-.922-.183-1.742-.554-2.469a4.166 4.166 0 0 0-1.555-1.71c-.664-.419-1.453-.63-2.36-.63-1 0-1.867.25-2.597.746a4.918 4.918 0 0 0-1.672 1.914 5.633 5.633 0 0 0-.586 2.536v1.445c0 1.234.215 2.281.64 3.14.434.852 1.032 1.5 1.798 1.946.765.441 1.656.66 2.671.66.66 0 1.254-.094 1.79-.277a3.793 3.793 0 0 0 1.394-.852c.387-.383.691-.855.902-1.426l2.426.684a5.36 5.36 0 0 1-1.285 2.168c-.606.617-1.348 1.101-2.238 1.45-.887.339-1.883.51-2.989.51Zm8.29-.344Zm2.3 0v-16.344h2.426V369h.211c.34-.875.89-1.55 1.648-2.031.762-.492 1.672-.735 2.739-.735 1.078 0 1.972.243 2.691.735.723.48 1.285 1.156 1.692 2.031h.171a4.74 4.74 0 0 1 1.883-2.012c.836-.504 1.84-.754 3.012-.754 1.46 0 2.656.457 3.586 1.371.93.907 1.394 2.325 1.394 4.247v10.937h-2.511v-10.937c0-1.207-.332-2.067-.993-2.586-.66-.52-1.433-.778-2.328-.778-1.148 0-2.039.348-2.672 1.043-.632.688-.945 1.563-.945 2.617v10.641h-2.555v-11.191c0-.93-.3-1.68-.906-2.246-.601-.575-1.379-.864-2.328-.864-.656 0-1.266.176-1.832.524a3.919 3.919 0 0 0-1.363 1.445c-.34.61-.508 1.316-.508 2.117v10.215Zm0 0"/><use xlink:href="#O" x="467.664" y="382.791" style="fill:#000;fill-opacity:1"/><use xlink:href="#I" x="484.988" y="382.791" style="fill:#000;fill-opacity:1"/><use xlink:href="#M" x="509.336" y="382.791" style="fill:#000;fill-opacity:1"/><use xlink:href="#H" x="526.873" y="382.791" style="fill:#000;fill-opacity:1"/><use xlink:href="#K" x="535.301" y="382.791" style="fill:#000;fill-opacity:1"/><use xlink:href="#P" x="553.903" y="382.791" style="fill:#000;fill-opacity:1"/><use xlink:href="#O" x="561.011" y="382.791" style="fill:#000;fill-opacity:1"/><use xlink:href="#L" x="578.889" y="382.791" style="fill:#000;fill-opacity:1"/><use xlink:href="#H" x="597.15" y="382.791" style="fill:#000;fill-opacity:1"/><use xlink:href="#C" x="605.578" y="382.791" style="fill:#000;fill-opacity:1"/><use xlink:href="#Q" x="621.242" y="382.791" style="fill:#000;fill-opacity:1"/><use xlink:href="#C" x="637.928" y="382.791" style="fill:#000;fill-opacity:1"/><use xlink:href="#D" x="653.592" y="382.791" style="fill:#000;fill-opacity:1"/><use xlink:href="#J" x="664.303" y="382.791" style="fill:#000;fill-opacity:1"/><use xlink:href="#R" x="681.755" y="382.791" style="fill:#000;fill-opacity:1"/><g clip-path="url(#S)"><g clip-path="url(#T)"><path style="stroke:none;fill-rule:nonzero;fill:url(#U)" d="m119.617 504.695-34.64-228.07 603.695-91.691 34.64 228.07Zm0 0"/></g></g></svg>