<svg viewBox="-305 -150 1500 1500" xmlns="http://www.w3.org/2000/svg"><rect x="-305" y="-150" width="100%" height="100%" fill="#ef4444" rx="30"/><path d="m996.081 668.472-42.838 4.204c-68.388 5.225-136.749 16.137-204.613 22.686-1.69-2.75-4.997-2.297-7.005-.386-6.772-.593-14.362-5.77-20.496-.385-.199-.028-.398-.061-.6-.08-10.922-20.963-18.47-43.322-25.799-65.711-4.676-13.765-10.969-27.09-22.597-36.332-19.844-13.775-65.31-41.708-88.613-40.534-.386-4.172-2.33-8.472-5.525-11.25 7.04-12-21.103-19.828-23.088-18.437 1.272-40.088-17.585-74.902-59.165-82.885-37.25-7.762-90.233-9.066-110.267 29.863-2.202-.248-24.713-.366-26.89-.122-3.388-4.289-40.577 36.354-25.335 50.503-136.272 60.282-213.757 53.089-251.475 222.558-5.1 15.92-5.47 33.34-10.855 48.906-19.156 44.73-34.694 92.362-38.56 141.034-9.34 2.393-10.414 18.86.404 21.242 4.132.91 7.587 2.155 10.6 4.514-2.355 39.886 7.292 131 13.37 130.719 12.393 39.443 67.675 50.575 106.812 36.714-6.747 12.693 0 20.674 0 27.456 140.827 5.328 294.807 2.259 435.595 9.566 18.01-.256 36.951 4.423 54.714 1.73 10.833-2.597 10.851-19.63-.137-21.736l48.013-10.428c-1.073-.405 19.791-14.283 35.56-40.216 14.678-29.01 4.688-64.028 11.34-95.584 51.943-4.248 104.746-6.064 156.122-14.861 7.005 20.959 37.33-4.107 46.968-14.19l-.036-.047c4.664-1.276 8.405-5.648 8.53-10.824 3.271-4.674 3.958-11.262.821-15.78 14.378-82.967 36.3-167.68 44.222-251.427 2.8-.62 5.438-1.848 7.674-3.74l-.18-.181c3.788-4.224 4.525-11.515-1.792-15.104-5.095-2.898-9.349-2-14.879-1.455Z" fill="#FFF"/><path d="M388.072 460.183c4.243-10.663 18.586-6.518 16.987 4.684-.957 6.71-4.632 13.797-7.933 19.678-2.688 4.787-5.754 9.46-9.911 13.047a406.574 406.574 0 0 0 22.957 19.872c8.594 6.891 17.63 13.243 26.972 19.081 8.19 5.12 16.752 9.656 24.473 15.498 7.179 5.431 13.719 11.963 17.047 20.49 3.545 9.08 2.004 18.458-.606 27.532l-.3 1.026c-2.667 8.99-7.284 19.827-.882 28.297 3.259 4.312 7.997 7.366 12.088 10.813a93.91 93.91 0 0 1 10.179 9.975c6.825 7.802 12.376 16.581 15.879 26.363l.313.89c3.003 8.658 5.197 19.266 1.14 27.768-1.164 2.437-4.918 1.645-5.57-.728-1.474-5.376-1.397-11.006-2.633-16.458-1.286-5.67-3.426-11.052-6.221-16.144-5.408-9.85-12.732-18.265-21.385-25.379l-2.59-2.106c-6.75-5.54-12.952-11.417-14.322-20.585-1.466-9.809 2.464-19.153 4.99-28.437 1.762-6.47 2.337-12.672.434-18.519-2.325 3.795-5.497 7.397-8.006 10.61-4.997 6.401-10.041 12.763-15.072 19.137-5.158 6.536-10.19 13.175-14.98 19.986a1137.161 1137.161 0 0 0-6.376 9.18c-1.59 2.306-3.805 4.61-5.537 6.962.42 1.258.389 2.708-.374 3.738-9.185 12.41-22.252-13.484-25.66-20.026-6.94-13.323-12.105-27.477-19.068-40.797-7.215-13.808-15.431-27.248-24.588-39.854-5.54-7.625-11.747-14.787-16.814-22.654-11.937 10.824-27.645 18.08-42.073 24.66-15.853 7.23-32.322 13.134-48.575 19.404l-4.801 1.865c-28.005 10.93-56.694 22.937-79.971 42.35-27.353 22.813-43.535 54.61-55.582 87.535-13.868 37.905-25.341 76.833-36.036 115.736a2094.217 2094.217 0 0 0-15.548 59.96c-4.302 17.671-7.868 35.52-12.848 53.01 10.1-.358 21.619 3.552 30.242 4.681 39.299 5.144 78.069 13.344 115.172 27.541 4.583 1.754 5.909 6.331 4.91 10.041 2.644-.746 5.285-1.502 7.928-2.244-2.896-4.437-1.514-12.369-1.286-17.287l.014-.338c.234-6.553.945-13.113 1.406-19.654.878-12.469 2.02-24.847 3.54-37.244l.388-3.1c1.722-13.488 2.995-27.055 4.874-40.52l.222-1.54c-.901-3.446-1.95-6.849-3.051-10.237-2.934-9.025-7.075-17.52-10.704-26.26-.428-1.03 1.038-1.62 1.723-1.004 6.146 5.53 11.028 12.543 14.95 19.88.068-.347.128-.694.199-1.04l.447-2.203c1.104-5.372 2.446-11.024 5.742-15.38.35-.464 1.045-.56 1.377 0 3.154 5.336 3.507 12.095 3.992 18.168.549 6.87.618 13.827.52 20.716-.188 13.463-1.137 26.964-1.893 40.405-.742 13.208-2.198 26.25-4.075 39.327l-.357 2.453c-.918 6.225-1.67 12.528-2.88 18.71l-.341 1.683c-.647 3.066-1.045 7.39-2.333 10.98a9176.8 9176.8 0 0 1 99.579-27.148c24.033-6.414 48.09-12.732 72.139-19.09 1.269-2.287 2.849-4.423 4.82-6.332 6.498-6.292 15.108-9.099 23.005-4.256.642.395.696 1.401 0 1.782a146.319 146.319 0 0 0-4.518 2.56l14.44-3.912c10.793-2.925 21.715-6.58 32.762-8.619 20.347-10.04 42.23-17.309 63.665-24.492l2.526-.854c10.974-3.742 22.326-7.93 33.665-10.005 8.3-1.518 18.045.314 21.383 8.818 4.226 2.785 8.202 6.058 12.039 9.277 2.774 2.326 5.433 4.8 8.137 7.207l.498.438c2.21 1.918 3.962 3.202 4.505 6.255.28 1.577-.722 3.71-2.667 3.5-5.951-.637-10.79-7.535-14.826-11.654-3.118-3.184-6.261-6.476-9.107-9.975-1.66.903-3.933.741-4.99-1.259-5.475-10.369-20.476-3.184-28.776-.725l-11.89 3.52a2742.736 2742.736 0 0 0-17.82 5.334c-16.303 4.951-32.527 10.492-48.98 15.04 1.473 1.617 1.27 4.495-1.526 5.59-12.878 5.053-27.006 7.666-40.385 11.133a8404.297 8404.297 0 0 0-25.328 6.612 20.705 20.705 0 0 0-2.926 8.083c-1.611 11.351 1.495 24.447 4.52 35.425l.457 1.638c2.487 8.826 6.146 19.646 13.76 25.22 1.86 1.358 4.227 2.304 6.613 2.518a49608.132 49608.132 0 0 1 44.728-23.003c2.763-1.419 5.316.502 5.936 2.786 5.259-.863 10.506-2.223 15.285-3.845 8.03-2.727 14.3-7.928 21.828-11.525 14.566-6.958 29.44 1.59 42.482 8.087l3.006 1.477c5.848 2.838 18.016 8.29 20.822.528 2.714-7.508-5.867-15.532-11.41-18.91-6.605-4.03-14.297-6.186-21.763-7.982a136.661 136.661 0 0 0-12.92-2.474c-4.923-.693-10.01-.589-14.75-2.186-2.356-.792-2.718-4.534 0-5.152 7.298-1.66 16.008.151 23.624 2.002l3.98.981c7.674 1.883 15.42 4.246 22.41 8.002 5.082 2.732 10.446 6.882 13.95 11.962 3.043-2.827 6.83-2.73 10.775-1.683l2.14.596c3.537.98 6.403 1.654 9.844.975.46-2.503.926-5.007 1.425-7.51 4.903-24.615 10.28-49.135 16.213-73.524 10.234-42.068 22.076-83.674 35.426-124.853l1.34-4.117c3.079-9.419 5.557-19.68 10.52-28.334 4.696-8.182 12.218-12.895 21.155-15.39 10.142-2.833 20.799-4.315 31.145-6.228 2.308-.426 4.622-.83 6.932-1.25-1.952-3.525-3.41-7.526-4.722-10.596l-.23-.532c-2.82-6.429-5.353-12.973-7.8-19.553l-1.828-4.946c-4.417-11.91-8.976-23.626-15.185-34.766-6.536-11.724-15.207-21.309-26.016-29.242-22.038-16.176-48.601-24.427-69.976-41.714-.876-.708.247-1.919 1.136-1.47 14.433 7.251 30.014 12.182 45.026 18.086l2.96 1.168c11.867 4.704 23.917 9.825 34.187 17.44 11.45 8.492 20.468 19.038 27.246 31.58 6.68 12.361 10.953 26.198 15.666 39.402l1.26 3.518c1.9 5.276 3.865 10.536 6.115 15.67 1.786 4.076 5.119 8.73 6.634 13.385 4.145-.719 8.289-1.44 12.438-2.133a1993.737 1993.737 0 0 1 271.81-26.399c3.567-.1 5.407 3.3 4.877 6.407-8.735 51.681-16.502 103.54-25.024 155.26a9492.262 9492.262 0 0 1-11.397 67.673c-1.967 11.422-4.241 22.8-6.104 34.24-1.504 9.237-2.596 18.547-5.178 27.571-2.316 8.091-5.87 15.893-11.707 22.066-6.292 6.654-15.074 9.875-23.914 11.397-22.441 3.862-45.46 5.44-68.082 8.012l-120.447 13.703c1.76 16 1.892 31.748 1.084 47.933l-.46 8.836c-.377 7.106-.826 14.224-1.847 21.257-1.28 8.823-5.316 16.294-11.261 22.884-5.46 6.052-12.091 11.216-18.542 16.164-6.696 5.138-13.615 10.097-21.488 13.274l-1.022.406c-6.907 2.696-19.864 6.872-29.304 5.346 1.234 6.183 3.622 12.831 1.505 18.95-.982 2.84-4.697 4.257-6.973 1.84-4.51-4.79-4.861-11.119-5.93-17.369a496.632 496.632 0 0 1-2.92-19.574c-1.645-12.65-2.926-25.418-3.317-38.176a465.119 465.119 0 0 1 .459-39.31c.363-6.72.813-13.438 1.666-20.116a403.26 403.26 0 0 1 1.16-8.539c.156-1.036.328-2.067.513-3.096l-10.811 1.22c-16.577 1.85-33.161 3.521-49.855 3.781-1.977.03-3.498-.87-4.492-2.18-1.06 1.724-2.903 2.958-5.544 2.948-23.313-.087-45.023-7.71-66.227-16.694-10.688-4.53-21.21-9.434-31.914-13.925-9.991-4.192-20.672-7.183-30.422-11.905l-25.62 13.438a11.093 11.093 0 0 1-.685 1.81c-1.668 3.404-4.957 5.251-8.316 6.642-3.224 1.338-6.563 1.754-9.816 1.416a38410.106 38410.106 0 0 1-58.313 30.503l-19.452 10.14c-38.756 20.18-77.36 40.69-116.36 60.394l-2.87 1.445c-13.471 6.755-27.936 13.602-42.885 18.711-.266 3.784-.098 7.464.219 11.47l.076.871c.446 4.733 1.402 10.664-2.395 14.033-1.975 1.752-5.503 1.76-6.846-.883-2.437-4.79-.25-12.344.523-17.549.274-1.85.608-3.754 1.102-5.6-17.138 5.102-34.795 7.576-52.235 4.711-16.98-2.787-30.131-13.484-40.733-26.568-11.19-13.807-19.14-29.898-23.406-47.147-4.855-19.628-5.172-39.898-5.058-60.003.12-21.409.913-42.924 3.517-64.189-2.853-.67-6.017-1.25-8.9-1.05-1.428 2.284-4.198 3.246-6.701 2.95-5.443 6.002 8.363 12.137 12.775 13.673 1.532.534 1.368 3.022-.4 2.947l-1.112-.053c-6.818-.363-13.861-1.527-17.87-7.862-3.211-5.078-2.246-11.094 1.583-15.235 2.529-23.912 8.575-47.197 14.202-70.523 5.522-22.895 11.663-45.643 18.172-68.276l2.918-10.13c10.248-35.489 20.96-71.264 35.097-105.342 7.059-17.016 15.19-33.719 26.214-48.556 10.275-13.83 22.406-25.666 36.35-35.774 25.995-18.846 56.497-30.233 86.467-41.081l1.342-.486c15.53-5.618 31.024-11.303 46.378-17.39 13.579-5.383 26.588-12.208 40.103-17.672a69.458 69.458 0 0 1-1.271-2.418l-.25.21a2.556 2.556 0 0 1-.132.098c-1.36.942-3.36.48-4.48-.578-3.163-2.984-2.092-6.296.019-9.39l.275-.395c2.582-3.617 4.885-7.44 7.268-11.189l1.492-2.343c4-6.262 8.203-12.565 13.537-17.74a29.092 29.092 0 0 1 8.039-5.53c-.245-.518 1.903-1.577 2.512-1.044 9.077-3.322 19.52-2.626 29.416-1.71m356.624 544.951-12.62 1.435a8695.726 8695.726 0 0 1-41.665 4.62l-30.172 3.28c-.077 1.72-.286 3.401-.324 4.7-.197 6.697-.344 13.397-.483 20.096a465.159 465.159 0 0 0 .91 40.271c.858 12.986 1.986 25.974 3.74 38.873l.359 2.578.208 1.356c1.43.138 2.837.818 4.006 2.215 2.552 3.047 11.793.085 15.402-1.199 5.935-2.112 11.524-5.68 16.68-9.258 5.037-3.494 9.572-7.567 13.93-11.859l3.565-3.526c3.547-3.525 7.098-7.28 9.27-11.713 2.948-6.012 3.329-13.392 4.193-19.94 1.064-8.054 2.33-16.107 3.67-24.12m-357.024-122.35-1.31.343c-47.55 12.635-95.03 25.643-142.727 37.72-23.604 5.978-47.32 11.521-70.953 17.384l-3.826.957c-18.644 4.712-37.512 10.383-51.79 23.906-.526.498-1.291-.267-.795-.796 15.387-16.38 37.27-23.314 58.283-29.325 3.884-1.11 7.773-2.196 11.658-3.3-28.576-10.188-57.603-19.05-87.3-25.372-7.647-1.628-15.383-2.823-23.024-4.457-5.33-1.14-10.534-2.788-15.806-4.156l-4.147-1.043-.056 13.108c-.069 18.565-.036 37.115.912 55.677l.179 3.44c1.105 20.656 2.83 41.742 10.16 61.22 5.958 15.828 15.453 30.74 27.87 42.268 6.283 5.833 13.038 10.374 21.388 12.616 7.753 2.081 15.876 2.325 23.846 1.77 38.229-2.667 72.259-23.434 105.467-40.628 54.317-28.123 108.64-56.232 163.012-84.247a26.67 26.67 0 0 1-4.113-3.464c-7.291-7.53-11.137-17.838-13.663-27.82-2.69-10.627-4.297-22.016-4.484-32.986m70.402 75.126a.71.71 0 0 1 1.058.607c.168 4.153-2.127 8.25-3.842 11.99l-.181.4c-2.083 4.633-4.364 9.205-6.723 13.705a677.143 677.143 0 0 1-14.73 26.655c-10.283 17.641-21.711 34.54-35.22 49.9-3.05 3.47-8.068-.98-6.11-4.716 9.44-18.01 20.445-35.015 31.773-51.872 5.67-8.44 11.338-16.888 17.065-25.29a464.06 464.06 0 0 1 7.294-10.439l1.499-2.058m572.072-348.958c-47.717 1.441-95.378 4.553-142.868 9.43a1958.409 1958.409 0 0 0-159.31 23.007l-5.468 1.028c-9.118 1.728-20.257 2.441-28.375 7.312-8.56 5.135-10.872 15.867-13.72 24.717a1975.865 1975.865 0 0 0-9.786 31.31c-12.608 41.542-24.125 83.445-34.4 125.625-5.1 20.937-9.624 41.991-14.392 63.004-4.236 18.67-8.91 37.13-13.793 55.612a5.43 5.43 0 0 1 2.23-1.014c24.249-5.159 49-7.4 73.61-10.25l2.382-.279c25.459-2.994 50.918-5.966 76.392-8.83l168.659-18.967c9.947-1.118 20.603-1.27 30.283-3.939 16.458-4.54 20.315-22.94 23.076-37.593l.084-.443c8.325-44.273 14.952-88.93 22.716-133.316M591.405 964.028c-6.548-.432-15.51-6.429-20.478-5.999 2.608 4.376 3.785 9.367 2.282 14.697-4.183 14.832-23.1 7.158-32.212 2.627-7.471-3.717-14.685-8.265-22.956-10.006-9.37-1.97-15.718 1.756-23.634 6.051-6.502 3.527-13.583 6.06-20.865 7.371-3.872.698-7.55.772-11.221.5-.221.18-.47.347-.754.496l-1.942 1.02c8.78.401 17.725 3.111 25.897 5.592 8.468 2.57 16.78 5.668 25.05 8.836l8.134 3.127c20.066 7.683 40.836 14.98 62.552 14.916 1.56-.004 2.84.428 3.847 1.133m-30.336-96.835c6.469-.79 12.44.057 17.609 4.268 6.234 5.078 10.422 13.5 19.384 14.053 2.613.161 3.22 3.835.623 4.603-6.671 1.975-12.072-1.634-16.617-6.32l-3.056-3.193c-4.491-4.65-8.634-8.246-16.255-7.968-8.162.298-16.338 2.184-24.447 3.143a888.485 888.485 0 0 1-27.585 2.811c-.428.037-.501-.637-.1-.736l10.32-2.569m33.88-34.538 1.067-.107c9.393-.912 17.984-.947 26.374 4.106l1.609.973c7.564 4.597 15.797 10.013 20.527 17.457.774 1.22-.505 2.652-1.8 2.342-9.091-2.182-15.737-8.852-23.382-13.844-8.58-5.602-17.443-4.678-27.226-3.808-9.472.843-18.94 2.001-28.318 3.58-8.813 1.482-17.654 3.822-26.556 4.568l.002-.018c-1.017-.002-1.597-1.529-.56-2.047 9.034-4.51 19.497-6.646 29.324-8.707m314.304-97.34c-.908-4.343 4.434-6.357 6.909-2.912l.527.727c5.349 7.328 13.085 16.524 12.692 25.844 4.702.103 9.577 2.96 11.409 7.203.846 1.963 1.134 4.29.947 6.697 4.274.332 8.935 3.138 11.548 5.87 4.33 4.53 4.672 10.93 1.566 16.221-6.775 11.536-21.574 15.732-34.067 16.67l-.445.031c-12.904.892-31.498.651-40.346-10.42-8.535-10.679.898-19.325 10.57-24.02-2.517-2.299-3.821-5.596-2.595-9.073 2.153-6.11 9.754-8.472 14.049-12.72 5.235-5.18 8.695-12.285 7.316-19.713m7.012 8.986c-1.424 6.184-4.92 11.84-9.79 16.322a38.135 38.135 0 0 1-6.062 4.551l-.26.151c-1.92 1.078-6.641 3.098-6.278 5.517.374 2.486 8.065 6.377 10.16 6.38.478 0 .748.744.26.96-3.798 1.678-7.116 2.397-10.83.624-2.482 2.534-4.893 5.156-7.281 7.755-4.224 4.6-2.78 9.455 2.21 12.88 8.019 5.501 20.207 5.367 29.562 4.967 9.416-.402 19.48-2.502 26.836-8.774l.32-.279c3.998-3.555 7.649-9.579 1.528-13.003-2.398-1.34-4.987-1.262-7.263-1.914-2.13 4.175-5.586 7.52-9.802 8.164-3.407.521-5.753-3.76-2.654-5.81l.696-.432c3.892-2.484 7.213-6.31 7.125-11.293-.06-3.459-4.89-7.827-8.037-4.577l-.143.155c-2.634 2.968-7.271-.772-5.54-4.06l.084-.15M226.862 635.675c-.012-.743 1.033-1.02 1.398-.378 6.112 10.753 9.308 23.934 12.564 35.781 3.409 12.41 6.162 24.946 8.636 37.574 5.008 25.571 7.677 50.995 7.859 77.057.024 3.721-6.038 4.711-6.631.898-3.937-25.35-7.71-50.728-11.676-76.072-1.996-12.747-4.32-25.445-6.541-38.154m54.9-17.977c-.45-1.483 1.707-1.979 2.259-.623 12.266 30.11 16.42 64.231 8.546 95.996-1.206 4.86-8.322 2.754-7.413-2.044M445.588 627.65c-.062-1.11 1.379-1.285 1.922-.52 5.812 8.188 8.223 19.155 18.42 23.387 5.09 2.113 10.82 1.745 15.318 5.314 3.007 2.387 5.313 6.155 3.056 9.77-.728 1.168-2.766 1.753-3.754.484-1.442-1.849-2.205-4.063-4.164-5.449-2.763-1.955-6.49-2.076-9.657-2.995-4.098-1.188-7.71-3.267-10.668-6.356m86.625-160.218c.599-.305 1.174-.11 1.557.408.547.738.48 1.456-.19 1.962.895 1.829 1.952 6.41 2.103 7.078a322.766 322.766 0 0 0 1.944 8.078c1.374 5.417 2.578 10.876 3.953 16.295 1.458 5.744 3.195 11.427 5.128 17.028.125.363.262.733.406 1.108l.22.568.054-.086c.393-.621 1.21-.187 1.114.469-.09.598-.211 1.193-.313 1.79l.203.537c1.264 3.403 2.13 6.987-.19 9.99-.868 1.122-1.823 1.787-3.013 1.985-1.908 6.29-4.302 12.463-6.865 18.391l-.751 1.732c-3.77 8.65-7.791 17.186-13.794 24.55-6.554 8.04-15.57 13.53-21.278 22.34-2.656 4.098-4.504 8.407-6.004 13.035l-.564 1.757c-1.065 3.274-2.293 6.446-5.364 8.366-.98.612-2.448.417-3.238-.418-6.297-6.66.295-19.099 4.092-25.548 5.278-8.968 12.917-14.705 20.566-21.47 8.245-7.294 13.504-17.05 18.59-26.66 3.117-5.889 6.125-11.904 9.292-17.818-3.31-2.923-4.368-8.732-5.49-12.77l-.101-.362c-1.853-6.466-3.325-13.1-4.255-19.763-.895-6.407-1.268-12.721-1.032-19.164l.069-1.64m15.453 18.724c-.731-1.002.479-2.137 1.482-1.928 6.099 1.26 12.06 4.952 17.534 7.937l.584.317c4.369 2.356 8.765 5.242 11.059 9.819 2.495 4.974 2.29 10.704 1.95 16.11l-.033.505c-.417 6.483-.484 13.22-1.856 19.585-.702 3.258-3.653 4.176-6.176 3.406-3.002 9.48-11.435 16.463-17.595 23.943-7.854 9.536-6.376 22.411-5.555 33.896.332 4.65-5.452 5.972-8.431 3.491l-6.865-5.702a926.266 926.266 0 0 1-3.424-2.863 201.91 201.91 0 0 1-2.9-2.485l-1.432-1.264c-.635-.568-3.436-3.697-4.255-3.827-1.983-.315-6.696 4.913-8.31 6.553l-.204.204c-3.036 2.977-5.78 6.18-8.334 9.577-.47.624-1.39.106-1.053-.615 2.29-4.904 4.952-9.593 8.113-13.98l.638-.875c2.103-2.834 4.926-7.838 8.638-8.675 4.533-1.02 9.059 3.524 12.357 6.047l.208.158a322.373 322.373 0 0 1 4.668 3.581c-.162-8.55.918-17.19 5.333-24.56 3.113-5.197 7.777-9.046 11.768-13.512 4.443-4.973 6.763-11.085 10.785-16.264.518-.666 1.232-1.025 2.005-1.139.155-4.163.768-8.368 1.242-12.487l.137-1.233c.479-4.474 1.61-9.94-.58-14.131-2.07-3.959-6.818-6.753-10.334-9.439l-2.872-2.227M357.074 474.24a22.351 22.351 0 0 0-5.11 4.034c-4.9 5.2-8.404 11.67-11.814 17.893-1.836 3.352-3.606 6.741-5.457 10.085a225.699 225.699 0 0 1-2.47 4.331c-.387.662-1.537 1.978-2.107 2.79a85.475 85.475 0 0 0 1.956 2.625c.255.33 17.836 19.481 23.964 26.976 9.384 11.481 17.772 23.608 24.943 36.588 7.022 12.711 12.368 26.17 18.873 39.126 3.256 6.487 6.892 12.928 11.527 18.542.179.22.368.426.55.642 1.77-4.779 6.303-9.896 8.529-12.834l.208-.277c5.049-6.806 10.38-13.407 15.829-19.896a534.15 534.15 0 0 1 15.304-17.424l1.966-2.134c3.64-3.933 8.266-9.818 13.596-12.628a25.53 25.53 0 0 0-1.992-3.019c-4.994-6.526-12.054-11.262-19.02-15.535l-4.517-2.747c-17.028-10.377-33.79-21.235-48.573-34.718-7.821-7.134-15.534-14.607-22.108-22.928l-2.325-2.942m16.66-21.687c-7.974.67-16.585.51-23.954 3.108 6.55 6.193 12.778 12.88 19.175 19.177.569-4.259 1.733-8.466 2.719-12.619"/><g><path d="M613.417 151.809c-7.078-25.496-6.066-28.254-16.615-52.607-34.98-70.75-268.739-47.06-292.596 23.563-12.942 38.314-9.902 92.273-13.27 125.496-1.032 17.614-2.045 35.23-3.094 52.843-.362 6.083-.729 12.166-1.102 18.248-.727 11.84-1.434 23.68-2.094 35.524-4.395 36.486 13.941 40.197 45.392 39.117 8.315 20.061 21.782 36.807 38.417 50.432-4.015 10.922 10.545 16.576 18.399 20.943 42.733 23.86 95.224 38.415 142.557 24.998 13.908-3.942 71.342-17.596 89-59.862 8.673-20.755 26.302-128.24 3.054-224.929l-8.048-53.766Z" fill="#FFF"/><path d="M481.79-8.723c-3.79-6.49-11.18-6.94-17.79-5.771-7.3 1.301-14.55 3.121-21.71 5.051-23.16 6.26-45.96 15.06-67.17 26.489-1.22-.419-2.6-.429-4.06.121-23.309 8.769-43.78 23.98-58.55 44.07-7.24 9.85-13.049 20.689-17.09 32.23-1.683 4.808-2.582 9.623-3.43 14.566l-.896 5.238c-.856 5.059-1.646 10.412-1.264 15.456.2 2.51 1.55 6.959 4.57 6.68-9.82 27.109-14.42 57.4-15.87 86.08-.74 14.57-.43 29.019.971 43.529.7 7.231 1.57 14.441 2.93 21.58 1.12 5.881 2.08 13.33 6.11 18.011.66.77 1.83.27 2.09-.561h.01l.191-.484c1.694-4.51 1.343-10.14 1.025-15.232a134.97 134.97 0 0 1-.207-3.904c-.24-7.08-.42-14.179-.41-21.259.03-13.88.63-27.85 1.89-41.68 1.25-13.78 3.14-27.53 5.831-41.1 2.66-13.451 6.55-26.47 10.17-39.66 13.15 3.119 24.53 11.64 38.04 14.05 4.13.739 8.01-1.08 9.31-5.29 0-.01 0-.01.01-.02 9.96-3.69 19.659-8.24 29.739-11.621 10.2-3.42 21.23-7.399 32.08-9.469 2.21 1.93 5.25 3.03 8.39 3.08 6.127.101 11.84-1.85 17.56-3.804 5.019-1.714 10.043-3.43 15.36-3.766 7.096-.443 14.224.051 21.312.542 10.194.706 20.307 1.407 30.128-.692.86 1.54 1.94 2.97 3.19 4.21 3.57 3.559 7.94 5.34 12.9 5.88 2.697.286 5.39.034 8.078-.218 2.755-.258 5.504-.516 8.242-.192 4.77.58 9.57 2.81 14.11 4.32 4.36 1.439 8.74 2.85 13.04 4.47 7.09 2.67 14.75 6.339 19.18 12.75l.217.301a10.445 10.445 0 0 0 6.473 4.069c.42 1.469 1.38 2.91 3.02 4.15 2.42 1.83 5.12 3.09 7.95 3.85 1.27 10.74 2.81 21.46 4.24 32.16 2.78 20.87 5.4 41.79 7.32 62.75 3.86 42.14 5.39 84.33.42 126.46-1.72 14.569-3.79 29.239-10.64 42.41-5.39 10.37-12.82 19.3-21.74 26.84-18.19 15.37-42.08 23.71-65.47 26.64-13.91 1.75-28.31 1.7-42.15-.55-6.8-1.111-13.58-2.67-20.21-4.521l-2.331-.637a472.333 472.333 0 0 0-4.676-1.226l-4.683-1.206c.46-2.05-1.96-4.271-4.18-3.86-2.42.44-4.82.97-7.25 1.459-3.4.671-5.04 5.981-2.17 8.231 5.52 4.33 10.9 8.18 17.43 10.79 6.07 2.42 12.24 4.32 18.63 5.66 13.46 2.819 27.33 3.98 41.07 3.369 26.94-1.209 54.32-8.84 76.73-24.179 22.04-15.08 38.56-37.34 44.01-63.75 8.552-41.479 7.726-85.53 4.175-127.578l-.265-3.073c-2.18-24.849-5.76-49.599-10.38-74.109-2.6-13.78-5.28-27.641-8.54-41.33 9.69-.85 19.22-6.481 23.64-14.96.64-1.22.96-2.53.97-3.8 4.9-1.971 9.4-4.971 13.16-8.881 2.45-2.549 3.32-6.299 2.24-9.599 5.32-2.581 9.47-6.88 11.01-13.651 1.69-7.42-.79-14.819-5.53-19.649 2.27-7.58.97-16.45-3.26-23.34-3.89-6.351-9.66-10.25-16.18-12.66 1-1.17 1.93-2.38 2.82-3.65 2.85-4.08.82-10.621-3.38-12.89-14.99-8.1-32.28-11.571-49.07-9.68-.69-.99-1.52-1.86-2.42-2.53-7.51-5.7-16.1-9.23-25.09-10.741.17-.379.34-.759.5-1.139 1.81-4.32-1.99-9.59-6.06-10.69a96.258 96.258 0 0 0-17.27-3.01c.27-.411.52-.83.77-1.26 2.42-4.191.49-11.521-5.01-12.31-18.45-2.66-37.2-2.22-55.26 1.84-.25-1.39-.77-2.801-1.59-4.2ZM287.86 307.936c9.63-6.039 29.5-7.619 34.87 5.25.22.52-.4.98-.86.86l-1.313-.331c-5.048-1.251-9.41-1.97-14.586.102-4.55 1.82-8.97 4.669-11.98 8.589-7.116 9.271-7.887 21.863-7.224 33.108l.034.543c.62 9.869 3.15 21.889 12.8 26.769 4.644 2.346 9.648 2.302 14.688 2.257l.802-.007c6.05-.04 12.23.62 18.01 2.481 3.23 1.039 4.75 5.319 2.07 7.83-.89.83-1.82 1.609-2.8 2.309 2.93 3.122 5.81 6.281 8.6 9.611a231.28 231.28 0 0 0 15.01 16.279c5.08 4.99 10.46 9.82 16.26 13.961 6.1 4.341 13.4 7.389 18.68 12.709 3.44 3.461 2.85 8.291 0 11.791-7.076 8.698-19.118-.446-25.883-5.59l-.817-.621c-7.03-5.32-13.71-11.06-19.4-17.82-5.8-6.9-10.82-14.24-14.53-22.47-2.18-4.84-3.57-9.409-4.32-14.189-12.16 5.28-27.49 3.599-38.39-3.831-14.47-9.859-18.53-27.958-18.581-44.48l.001-.979c.107-16.058 4.326-35.017 18.86-44.131Zm27.88 23.281-.446-.005c-9.641-.034-17.977 4.917-22.184 13.525-.189.4.22.91.641.64 6.85-4.31 17.23-4.59 23.81.389 3.5 2.641 5.85 6.551 9.42 9.16 4.78 3.481 11.45 4.221 15.87-.24 2.44-2.459 2.54-5.859 1.14-8.829-2.34-4.921-8.68-7.03-13.1-9.66l-.47-.278c-4.55-2.657-9.325-4.586-14.68-4.702Z" fill-rule="evenodd"/><path d="M613.373 290.646c.326-.143.618-.382.83-.728 2.775-4.549 3.064-9.977 1.836-15.295-1.476-6.392-5.14-12.605-9.095-16.808-4.985-5.298-11.049-9.002-17.698-11.808-.484-.205-.979-.417-1.483-.633-6.799-2.91-15.166-6.325-21.898-2.844-2.704 1.399-4.192 3.733-4.609 6.279-.442 2.704.341 5.66 2.206 7.972 3.095 3.838 7.877 4.632 12.625 5.325 1.515.22 3.019.44 4.443.776 4.899 1.16 10.074 2.613 14.574 4.902 9.149 4.651 13.436 11.865 15.643 21.56.09.393.29.714.553.956a1.938 1.938 0 0 0 2.073.346Zm-116.979-30.393c-3.325 3.24-7.26 3.74-11.241 4.187-2.212.25-3.978.452-5.716.844-4.776 1.079-9.498 2.702-13.805 5.041-4.503 2.445-9.41 5.393-12.94 9.17-.84.9-1.63 1.842-2.423 2.787a74.07 74.07 0 0 1-2.152 2.492c-.842.92-1.642 1.882-2.438 2.843-.492.81-.59 1.01-.689 1.217-.149.312-.322.661-.52 1.036a20.32 20.32 0 0 1-.922 1.582c-.554.93-.851 1.187-1.108 1.301-.426.19-.83.284-1.222.233-.367-.047-.714-.224-1.056-.513-1.707-1.442-2.21-3.81-2.158-6.322.078-3.812 1.484-8.034 2.78-10.629 3.015-6.03 7.195-12.298 12.222-16.798 5.736-5.137 12.012-9.026 19.22-11.706 4.479-1.666 9.665-3.195 14.545-3.002 3.513.14 6.866 1.183 9.636 3.791 1.7 1.6 2.517 3.878 2.517 6.153 0 2.32-.848 4.655-2.53 6.293Zm106.24 59.136c1.844.553 3.145.291 4.807-.575 1.278-.665 2.148-1.716 2.647-2.943.511-1.256.618-2.704.366-4.046-1.049-5.571-4.412-10.514-8.951-13.699-4.412-3.094-9.914-4.523-15.455-3.333-4.045.87-10.041 4.709-13.198 9.39-1.346 1.997-2.179 4.136-2.269 6.249-.086 2.014.427 4.046 3.095 6.723a2.7 2.7 0 0 0 .801.125 2.83 2.83 0 0 0 1.797-.677c1.195-1.05 2.037-2.38 2.904-3.81.463-.766.924-1.536 1.512-2.214 1.759-2.027 4.312-3.746 6.993-4.194 2.484-.415 4.723.321 6.498 1.71 2.075 1.624 3.532 4.116 4.071 6.779.22 1.079.784 2.05 1.566 2.833a6.835 6.835 0 0 0 2.816 1.682Zm-118.46-9.219c-2.426-1.552-5.281-2.085-8.445-.645-2.473 1.124-6.81 4.873-9.828 9.8-2.065 3.372-3.529 7.326-3.224 11.446.07.957-.283 1.662-.84 2.184-.44.412-1.077.714-1.824.809a4.74 4.74 0 0 1-1.922-.172c-1.098-.343-1.68-1.056-1.898-1.637-2.113-5.612-1.203-11.875 1.166-17.525 3.196-7.625 9-14.012 12.803-16.071 6.508-3.526 14.185-3.688 20.702-.097 5.547 3.057 9.016 7.991 12.466 13.021.734 1.07 1.461 2.131 2.214 3.174 1.507 2.09 1.657 4.162 1.074 5.939-.647 1.968-2.296 3.63-4.359 4.499-1.906.804-4.118.917-6.076.091-1.654-.697-3.171-2.057-4.132-4.364-1.617-3.886-4.312-8.172-7.876-10.452Z" fill-rule="evenodd"/></g></svg>